G04 #@! TF.GenerationSoftware,KiCad,Pcbnew,(5.0.0)*
G04 #@! TF.CreationDate,2018-09-03T12:55:52-05:00*
G04 #@! TF.ProjectId,YAPS_Arduino_Shield_AVR,594150535F41726475696E6F5F536869,1.0*
G04 #@! TF.SameCoordinates,Original*
G04 #@! TF.FileFunction,Paste,Top*
G04 #@! TF.FilePolarity,Positive*
%FSLAX46Y46*%
G04 Gerber Fmt 4.6, Leading zero omitted, Abs format (unit mm)*
G04 Created by KiCad (PCBNEW (5.0.0)) date 09/03/18 12:55:52*
%MOMM*%
%LPD*%
G01*
G04 APERTURE LIST*
%ADD10C,0.127000*%
%ADD11C,1.250000*%
%ADD12R,1.550000X1.300000*%
%ADD13R,2.600000X1.600000*%
%ADD14R,4.500000X2.000000*%
G04 APERTURE END LIST*
D10*
G04 #@! TO.C,D4*
G36*
X146047504Y-118214204D02*
X146071773Y-118217804D01*
X146095571Y-118223765D01*
X146118671Y-118232030D01*
X146140849Y-118242520D01*
X146161893Y-118255133D01*
X146181598Y-118269747D01*
X146199777Y-118286223D01*
X146216253Y-118304402D01*
X146230867Y-118324107D01*
X146243480Y-118345151D01*
X146253970Y-118367329D01*
X146262235Y-118390429D01*
X146268196Y-118414227D01*
X146271796Y-118438496D01*
X146273000Y-118463000D01*
X146273000Y-119713000D01*
X146271796Y-119737504D01*
X146268196Y-119761773D01*
X146262235Y-119785571D01*
X146253970Y-119808671D01*
X146243480Y-119830849D01*
X146230867Y-119851893D01*
X146216253Y-119871598D01*
X146199777Y-119889777D01*
X146181598Y-119906253D01*
X146161893Y-119920867D01*
X146140849Y-119933480D01*
X146118671Y-119943970D01*
X146095571Y-119952235D01*
X146071773Y-119958196D01*
X146047504Y-119961796D01*
X146023000Y-119963000D01*
X145273000Y-119963000D01*
X145248496Y-119961796D01*
X145224227Y-119958196D01*
X145200429Y-119952235D01*
X145177329Y-119943970D01*
X145155151Y-119933480D01*
X145134107Y-119920867D01*
X145114402Y-119906253D01*
X145096223Y-119889777D01*
X145079747Y-119871598D01*
X145065133Y-119851893D01*
X145052520Y-119830849D01*
X145042030Y-119808671D01*
X145033765Y-119785571D01*
X145027804Y-119761773D01*
X145024204Y-119737504D01*
X145023000Y-119713000D01*
X145023000Y-118463000D01*
X145024204Y-118438496D01*
X145027804Y-118414227D01*
X145033765Y-118390429D01*
X145042030Y-118367329D01*
X145052520Y-118345151D01*
X145065133Y-118324107D01*
X145079747Y-118304402D01*
X145096223Y-118286223D01*
X145114402Y-118269747D01*
X145134107Y-118255133D01*
X145155151Y-118242520D01*
X145177329Y-118232030D01*
X145200429Y-118223765D01*
X145224227Y-118217804D01*
X145248496Y-118214204D01*
X145273000Y-118213000D01*
X146023000Y-118213000D01*
X146047504Y-118214204D01*
X146047504Y-118214204D01*
G37*
D11*
X145648000Y-119088000D03*
D10*
G36*
X148847504Y-118214204D02*
X148871773Y-118217804D01*
X148895571Y-118223765D01*
X148918671Y-118232030D01*
X148940849Y-118242520D01*
X148961893Y-118255133D01*
X148981598Y-118269747D01*
X148999777Y-118286223D01*
X149016253Y-118304402D01*
X149030867Y-118324107D01*
X149043480Y-118345151D01*
X149053970Y-118367329D01*
X149062235Y-118390429D01*
X149068196Y-118414227D01*
X149071796Y-118438496D01*
X149073000Y-118463000D01*
X149073000Y-119713000D01*
X149071796Y-119737504D01*
X149068196Y-119761773D01*
X149062235Y-119785571D01*
X149053970Y-119808671D01*
X149043480Y-119830849D01*
X149030867Y-119851893D01*
X149016253Y-119871598D01*
X148999777Y-119889777D01*
X148981598Y-119906253D01*
X148961893Y-119920867D01*
X148940849Y-119933480D01*
X148918671Y-119943970D01*
X148895571Y-119952235D01*
X148871773Y-119958196D01*
X148847504Y-119961796D01*
X148823000Y-119963000D01*
X148073000Y-119963000D01*
X148048496Y-119961796D01*
X148024227Y-119958196D01*
X148000429Y-119952235D01*
X147977329Y-119943970D01*
X147955151Y-119933480D01*
X147934107Y-119920867D01*
X147914402Y-119906253D01*
X147896223Y-119889777D01*
X147879747Y-119871598D01*
X147865133Y-119851893D01*
X147852520Y-119830849D01*
X147842030Y-119808671D01*
X147833765Y-119785571D01*
X147827804Y-119761773D01*
X147824204Y-119737504D01*
X147823000Y-119713000D01*
X147823000Y-118463000D01*
X147824204Y-118438496D01*
X147827804Y-118414227D01*
X147833765Y-118390429D01*
X147842030Y-118367329D01*
X147852520Y-118345151D01*
X147865133Y-118324107D01*
X147879747Y-118304402D01*
X147896223Y-118286223D01*
X147914402Y-118269747D01*
X147934107Y-118255133D01*
X147955151Y-118242520D01*
X147977329Y-118232030D01*
X148000429Y-118223765D01*
X148024227Y-118217804D01*
X148048496Y-118214204D01*
X148073000Y-118213000D01*
X148823000Y-118213000D01*
X148847504Y-118214204D01*
X148847504Y-118214204D01*
G37*
D11*
X148448000Y-119088000D03*
G04 #@! TD*
D10*
G04 #@! TO.C,R4*
G36*
X149567504Y-107718204D02*
X149591773Y-107721804D01*
X149615571Y-107727765D01*
X149638671Y-107736030D01*
X149660849Y-107746520D01*
X149681893Y-107759133D01*
X149701598Y-107773747D01*
X149719777Y-107790223D01*
X149736253Y-107808402D01*
X149750867Y-107828107D01*
X149763480Y-107849151D01*
X149773970Y-107871329D01*
X149782235Y-107894429D01*
X149788196Y-107918227D01*
X149791796Y-107942496D01*
X149793000Y-107967000D01*
X149793000Y-108717000D01*
X149791796Y-108741504D01*
X149788196Y-108765773D01*
X149782235Y-108789571D01*
X149773970Y-108812671D01*
X149763480Y-108834849D01*
X149750867Y-108855893D01*
X149736253Y-108875598D01*
X149719777Y-108893777D01*
X149701598Y-108910253D01*
X149681893Y-108924867D01*
X149660849Y-108937480D01*
X149638671Y-108947970D01*
X149615571Y-108956235D01*
X149591773Y-108962196D01*
X149567504Y-108965796D01*
X149543000Y-108967000D01*
X148293000Y-108967000D01*
X148268496Y-108965796D01*
X148244227Y-108962196D01*
X148220429Y-108956235D01*
X148197329Y-108947970D01*
X148175151Y-108937480D01*
X148154107Y-108924867D01*
X148134402Y-108910253D01*
X148116223Y-108893777D01*
X148099747Y-108875598D01*
X148085133Y-108855893D01*
X148072520Y-108834849D01*
X148062030Y-108812671D01*
X148053765Y-108789571D01*
X148047804Y-108765773D01*
X148044204Y-108741504D01*
X148043000Y-108717000D01*
X148043000Y-107967000D01*
X148044204Y-107942496D01*
X148047804Y-107918227D01*
X148053765Y-107894429D01*
X148062030Y-107871329D01*
X148072520Y-107849151D01*
X148085133Y-107828107D01*
X148099747Y-107808402D01*
X148116223Y-107790223D01*
X148134402Y-107773747D01*
X148154107Y-107759133D01*
X148175151Y-107746520D01*
X148197329Y-107736030D01*
X148220429Y-107727765D01*
X148244227Y-107721804D01*
X148268496Y-107718204D01*
X148293000Y-107717000D01*
X149543000Y-107717000D01*
X149567504Y-107718204D01*
X149567504Y-107718204D01*
G37*
D11*
X148918000Y-108342000D03*
D10*
G36*
X149567504Y-110518204D02*
X149591773Y-110521804D01*
X149615571Y-110527765D01*
X149638671Y-110536030D01*
X149660849Y-110546520D01*
X149681893Y-110559133D01*
X149701598Y-110573747D01*
X149719777Y-110590223D01*
X149736253Y-110608402D01*
X149750867Y-110628107D01*
X149763480Y-110649151D01*
X149773970Y-110671329D01*
X149782235Y-110694429D01*
X149788196Y-110718227D01*
X149791796Y-110742496D01*
X149793000Y-110767000D01*
X149793000Y-111517000D01*
X149791796Y-111541504D01*
X149788196Y-111565773D01*
X149782235Y-111589571D01*
X149773970Y-111612671D01*
X149763480Y-111634849D01*
X149750867Y-111655893D01*
X149736253Y-111675598D01*
X149719777Y-111693777D01*
X149701598Y-111710253D01*
X149681893Y-111724867D01*
X149660849Y-111737480D01*
X149638671Y-111747970D01*
X149615571Y-111756235D01*
X149591773Y-111762196D01*
X149567504Y-111765796D01*
X149543000Y-111767000D01*
X148293000Y-111767000D01*
X148268496Y-111765796D01*
X148244227Y-111762196D01*
X148220429Y-111756235D01*
X148197329Y-111747970D01*
X148175151Y-111737480D01*
X148154107Y-111724867D01*
X148134402Y-111710253D01*
X148116223Y-111693777D01*
X148099747Y-111675598D01*
X148085133Y-111655893D01*
X148072520Y-111634849D01*
X148062030Y-111612671D01*
X148053765Y-111589571D01*
X148047804Y-111565773D01*
X148044204Y-111541504D01*
X148043000Y-111517000D01*
X148043000Y-110767000D01*
X148044204Y-110742496D01*
X148047804Y-110718227D01*
X148053765Y-110694429D01*
X148062030Y-110671329D01*
X148072520Y-110649151D01*
X148085133Y-110628107D01*
X148099747Y-110608402D01*
X148116223Y-110590223D01*
X148134402Y-110573747D01*
X148154107Y-110559133D01*
X148175151Y-110546520D01*
X148197329Y-110536030D01*
X148220429Y-110527765D01*
X148244227Y-110521804D01*
X148268496Y-110518204D01*
X148293000Y-110517000D01*
X149543000Y-110517000D01*
X149567504Y-110518204D01*
X149567504Y-110518204D01*
G37*
D11*
X148918000Y-111142000D03*
G04 #@! TD*
D12*
G04 #@! TO.C,SW1*
X140922000Y-120566000D03*
X132972000Y-120566000D03*
X140922000Y-116066000D03*
X132972000Y-116066000D03*
G04 #@! TD*
D10*
G04 #@! TO.C,C1*
G36*
X160872504Y-95888104D02*
X160896773Y-95891704D01*
X160920571Y-95897665D01*
X160943671Y-95905930D01*
X160965849Y-95916420D01*
X160986893Y-95929033D01*
X161006598Y-95943647D01*
X161024777Y-95960123D01*
X161041253Y-95978302D01*
X161055867Y-95998007D01*
X161068480Y-96019051D01*
X161078970Y-96041229D01*
X161087235Y-96064329D01*
X161093196Y-96088127D01*
X161096796Y-96112396D01*
X161098000Y-96136900D01*
X161098000Y-96886900D01*
X161096796Y-96911404D01*
X161093196Y-96935673D01*
X161087235Y-96959471D01*
X161078970Y-96982571D01*
X161068480Y-97004749D01*
X161055867Y-97025793D01*
X161041253Y-97045498D01*
X161024777Y-97063677D01*
X161006598Y-97080153D01*
X160986893Y-97094767D01*
X160965849Y-97107380D01*
X160943671Y-97117870D01*
X160920571Y-97126135D01*
X160896773Y-97132096D01*
X160872504Y-97135696D01*
X160848000Y-97136900D01*
X159598000Y-97136900D01*
X159573496Y-97135696D01*
X159549227Y-97132096D01*
X159525429Y-97126135D01*
X159502329Y-97117870D01*
X159480151Y-97107380D01*
X159459107Y-97094767D01*
X159439402Y-97080153D01*
X159421223Y-97063677D01*
X159404747Y-97045498D01*
X159390133Y-97025793D01*
X159377520Y-97004749D01*
X159367030Y-96982571D01*
X159358765Y-96959471D01*
X159352804Y-96935673D01*
X159349204Y-96911404D01*
X159348000Y-96886900D01*
X159348000Y-96136900D01*
X159349204Y-96112396D01*
X159352804Y-96088127D01*
X159358765Y-96064329D01*
X159367030Y-96041229D01*
X159377520Y-96019051D01*
X159390133Y-95998007D01*
X159404747Y-95978302D01*
X159421223Y-95960123D01*
X159439402Y-95943647D01*
X159459107Y-95929033D01*
X159480151Y-95916420D01*
X159502329Y-95905930D01*
X159525429Y-95897665D01*
X159549227Y-95891704D01*
X159573496Y-95888104D01*
X159598000Y-95886900D01*
X160848000Y-95886900D01*
X160872504Y-95888104D01*
X160872504Y-95888104D01*
G37*
D11*
X160223000Y-96511900D03*
D10*
G36*
X160872504Y-98688104D02*
X160896773Y-98691704D01*
X160920571Y-98697665D01*
X160943671Y-98705930D01*
X160965849Y-98716420D01*
X160986893Y-98729033D01*
X161006598Y-98743647D01*
X161024777Y-98760123D01*
X161041253Y-98778302D01*
X161055867Y-98798007D01*
X161068480Y-98819051D01*
X161078970Y-98841229D01*
X161087235Y-98864329D01*
X161093196Y-98888127D01*
X161096796Y-98912396D01*
X161098000Y-98936900D01*
X161098000Y-99686900D01*
X161096796Y-99711404D01*
X161093196Y-99735673D01*
X161087235Y-99759471D01*
X161078970Y-99782571D01*
X161068480Y-99804749D01*
X161055867Y-99825793D01*
X161041253Y-99845498D01*
X161024777Y-99863677D01*
X161006598Y-99880153D01*
X160986893Y-99894767D01*
X160965849Y-99907380D01*
X160943671Y-99917870D01*
X160920571Y-99926135D01*
X160896773Y-99932096D01*
X160872504Y-99935696D01*
X160848000Y-99936900D01*
X159598000Y-99936900D01*
X159573496Y-99935696D01*
X159549227Y-99932096D01*
X159525429Y-99926135D01*
X159502329Y-99917870D01*
X159480151Y-99907380D01*
X159459107Y-99894767D01*
X159439402Y-99880153D01*
X159421223Y-99863677D01*
X159404747Y-99845498D01*
X159390133Y-99825793D01*
X159377520Y-99804749D01*
X159367030Y-99782571D01*
X159358765Y-99759471D01*
X159352804Y-99735673D01*
X159349204Y-99711404D01*
X159348000Y-99686900D01*
X159348000Y-98936900D01*
X159349204Y-98912396D01*
X159352804Y-98888127D01*
X159358765Y-98864329D01*
X159367030Y-98841229D01*
X159377520Y-98819051D01*
X159390133Y-98798007D01*
X159404747Y-98778302D01*
X159421223Y-98760123D01*
X159439402Y-98743647D01*
X159459107Y-98729033D01*
X159480151Y-98716420D01*
X159502329Y-98705930D01*
X159525429Y-98697665D01*
X159549227Y-98691704D01*
X159573496Y-98688104D01*
X159598000Y-98686900D01*
X160848000Y-98686900D01*
X160872504Y-98688104D01*
X160872504Y-98688104D01*
G37*
D11*
X160223000Y-99311900D03*
G04 #@! TD*
D10*
G04 #@! TO.C,C2*
G36*
X178340504Y-98688104D02*
X178364773Y-98691704D01*
X178388571Y-98697665D01*
X178411671Y-98705930D01*
X178433849Y-98716420D01*
X178454893Y-98729033D01*
X178474598Y-98743647D01*
X178492777Y-98760123D01*
X178509253Y-98778302D01*
X178523867Y-98798007D01*
X178536480Y-98819051D01*
X178546970Y-98841229D01*
X178555235Y-98864329D01*
X178561196Y-98888127D01*
X178564796Y-98912396D01*
X178566000Y-98936900D01*
X178566000Y-99686900D01*
X178564796Y-99711404D01*
X178561196Y-99735673D01*
X178555235Y-99759471D01*
X178546970Y-99782571D01*
X178536480Y-99804749D01*
X178523867Y-99825793D01*
X178509253Y-99845498D01*
X178492777Y-99863677D01*
X178474598Y-99880153D01*
X178454893Y-99894767D01*
X178433849Y-99907380D01*
X178411671Y-99917870D01*
X178388571Y-99926135D01*
X178364773Y-99932096D01*
X178340504Y-99935696D01*
X178316000Y-99936900D01*
X177066000Y-99936900D01*
X177041496Y-99935696D01*
X177017227Y-99932096D01*
X176993429Y-99926135D01*
X176970329Y-99917870D01*
X176948151Y-99907380D01*
X176927107Y-99894767D01*
X176907402Y-99880153D01*
X176889223Y-99863677D01*
X176872747Y-99845498D01*
X176858133Y-99825793D01*
X176845520Y-99804749D01*
X176835030Y-99782571D01*
X176826765Y-99759471D01*
X176820804Y-99735673D01*
X176817204Y-99711404D01*
X176816000Y-99686900D01*
X176816000Y-98936900D01*
X176817204Y-98912396D01*
X176820804Y-98888127D01*
X176826765Y-98864329D01*
X176835030Y-98841229D01*
X176845520Y-98819051D01*
X176858133Y-98798007D01*
X176872747Y-98778302D01*
X176889223Y-98760123D01*
X176907402Y-98743647D01*
X176927107Y-98729033D01*
X176948151Y-98716420D01*
X176970329Y-98705930D01*
X176993429Y-98697665D01*
X177017227Y-98691704D01*
X177041496Y-98688104D01*
X177066000Y-98686900D01*
X178316000Y-98686900D01*
X178340504Y-98688104D01*
X178340504Y-98688104D01*
G37*
D11*
X177691000Y-99311900D03*
D10*
G36*
X178340504Y-95888104D02*
X178364773Y-95891704D01*
X178388571Y-95897665D01*
X178411671Y-95905930D01*
X178433849Y-95916420D01*
X178454893Y-95929033D01*
X178474598Y-95943647D01*
X178492777Y-95960123D01*
X178509253Y-95978302D01*
X178523867Y-95998007D01*
X178536480Y-96019051D01*
X178546970Y-96041229D01*
X178555235Y-96064329D01*
X178561196Y-96088127D01*
X178564796Y-96112396D01*
X178566000Y-96136900D01*
X178566000Y-96886900D01*
X178564796Y-96911404D01*
X178561196Y-96935673D01*
X178555235Y-96959471D01*
X178546970Y-96982571D01*
X178536480Y-97004749D01*
X178523867Y-97025793D01*
X178509253Y-97045498D01*
X178492777Y-97063677D01*
X178474598Y-97080153D01*
X178454893Y-97094767D01*
X178433849Y-97107380D01*
X178411671Y-97117870D01*
X178388571Y-97126135D01*
X178364773Y-97132096D01*
X178340504Y-97135696D01*
X178316000Y-97136900D01*
X177066000Y-97136900D01*
X177041496Y-97135696D01*
X177017227Y-97132096D01*
X176993429Y-97126135D01*
X176970329Y-97117870D01*
X176948151Y-97107380D01*
X176927107Y-97094767D01*
X176907402Y-97080153D01*
X176889223Y-97063677D01*
X176872747Y-97045498D01*
X176858133Y-97025793D01*
X176845520Y-97004749D01*
X176835030Y-96982571D01*
X176826765Y-96959471D01*
X176820804Y-96935673D01*
X176817204Y-96911404D01*
X176816000Y-96886900D01*
X176816000Y-96136900D01*
X176817204Y-96112396D01*
X176820804Y-96088127D01*
X176826765Y-96064329D01*
X176835030Y-96041229D01*
X176845520Y-96019051D01*
X176858133Y-95998007D01*
X176872747Y-95978302D01*
X176889223Y-95960123D01*
X176907402Y-95943647D01*
X176927107Y-95929033D01*
X176948151Y-95916420D01*
X176970329Y-95905930D01*
X176993429Y-95897665D01*
X177017227Y-95891704D01*
X177041496Y-95888104D01*
X177066000Y-95886900D01*
X178316000Y-95886900D01*
X178340504Y-95888104D01*
X178340504Y-95888104D01*
G37*
D11*
X177691000Y-96511900D03*
G04 #@! TD*
D13*
G04 #@! TO.C,C3*
X166158000Y-103886000D03*
X162558000Y-103886000D03*
G04 #@! TD*
D10*
G04 #@! TO.C,D1*
G36*
X165875504Y-118074204D02*
X165899773Y-118077804D01*
X165923571Y-118083765D01*
X165946671Y-118092030D01*
X165968849Y-118102520D01*
X165989893Y-118115133D01*
X166009598Y-118129747D01*
X166027777Y-118146223D01*
X166044253Y-118164402D01*
X166058867Y-118184107D01*
X166071480Y-118205151D01*
X166081970Y-118227329D01*
X166090235Y-118250429D01*
X166096196Y-118274227D01*
X166099796Y-118298496D01*
X166101000Y-118323000D01*
X166101000Y-119573000D01*
X166099796Y-119597504D01*
X166096196Y-119621773D01*
X166090235Y-119645571D01*
X166081970Y-119668671D01*
X166071480Y-119690849D01*
X166058867Y-119711893D01*
X166044253Y-119731598D01*
X166027777Y-119749777D01*
X166009598Y-119766253D01*
X165989893Y-119780867D01*
X165968849Y-119793480D01*
X165946671Y-119803970D01*
X165923571Y-119812235D01*
X165899773Y-119818196D01*
X165875504Y-119821796D01*
X165851000Y-119823000D01*
X165101000Y-119823000D01*
X165076496Y-119821796D01*
X165052227Y-119818196D01*
X165028429Y-119812235D01*
X165005329Y-119803970D01*
X164983151Y-119793480D01*
X164962107Y-119780867D01*
X164942402Y-119766253D01*
X164924223Y-119749777D01*
X164907747Y-119731598D01*
X164893133Y-119711893D01*
X164880520Y-119690849D01*
X164870030Y-119668671D01*
X164861765Y-119645571D01*
X164855804Y-119621773D01*
X164852204Y-119597504D01*
X164851000Y-119573000D01*
X164851000Y-118323000D01*
X164852204Y-118298496D01*
X164855804Y-118274227D01*
X164861765Y-118250429D01*
X164870030Y-118227329D01*
X164880520Y-118205151D01*
X164893133Y-118184107D01*
X164907747Y-118164402D01*
X164924223Y-118146223D01*
X164942402Y-118129747D01*
X164962107Y-118115133D01*
X164983151Y-118102520D01*
X165005329Y-118092030D01*
X165028429Y-118083765D01*
X165052227Y-118077804D01*
X165076496Y-118074204D01*
X165101000Y-118073000D01*
X165851000Y-118073000D01*
X165875504Y-118074204D01*
X165875504Y-118074204D01*
G37*
D11*
X165476000Y-118948000D03*
D10*
G36*
X163075504Y-118074204D02*
X163099773Y-118077804D01*
X163123571Y-118083765D01*
X163146671Y-118092030D01*
X163168849Y-118102520D01*
X163189893Y-118115133D01*
X163209598Y-118129747D01*
X163227777Y-118146223D01*
X163244253Y-118164402D01*
X163258867Y-118184107D01*
X163271480Y-118205151D01*
X163281970Y-118227329D01*
X163290235Y-118250429D01*
X163296196Y-118274227D01*
X163299796Y-118298496D01*
X163301000Y-118323000D01*
X163301000Y-119573000D01*
X163299796Y-119597504D01*
X163296196Y-119621773D01*
X163290235Y-119645571D01*
X163281970Y-119668671D01*
X163271480Y-119690849D01*
X163258867Y-119711893D01*
X163244253Y-119731598D01*
X163227777Y-119749777D01*
X163209598Y-119766253D01*
X163189893Y-119780867D01*
X163168849Y-119793480D01*
X163146671Y-119803970D01*
X163123571Y-119812235D01*
X163099773Y-119818196D01*
X163075504Y-119821796D01*
X163051000Y-119823000D01*
X162301000Y-119823000D01*
X162276496Y-119821796D01*
X162252227Y-119818196D01*
X162228429Y-119812235D01*
X162205329Y-119803970D01*
X162183151Y-119793480D01*
X162162107Y-119780867D01*
X162142402Y-119766253D01*
X162124223Y-119749777D01*
X162107747Y-119731598D01*
X162093133Y-119711893D01*
X162080520Y-119690849D01*
X162070030Y-119668671D01*
X162061765Y-119645571D01*
X162055804Y-119621773D01*
X162052204Y-119597504D01*
X162051000Y-119573000D01*
X162051000Y-118323000D01*
X162052204Y-118298496D01*
X162055804Y-118274227D01*
X162061765Y-118250429D01*
X162070030Y-118227329D01*
X162080520Y-118205151D01*
X162093133Y-118184107D01*
X162107747Y-118164402D01*
X162124223Y-118146223D01*
X162142402Y-118129747D01*
X162162107Y-118115133D01*
X162183151Y-118102520D01*
X162205329Y-118092030D01*
X162228429Y-118083765D01*
X162252227Y-118077804D01*
X162276496Y-118074204D01*
X162301000Y-118073000D01*
X163051000Y-118073000D01*
X163075504Y-118074204D01*
X163075504Y-118074204D01*
G37*
D11*
X162676000Y-118948000D03*
G04 #@! TD*
D10*
G04 #@! TO.C,D2*
G36*
X157399504Y-118138204D02*
X157423773Y-118141804D01*
X157447571Y-118147765D01*
X157470671Y-118156030D01*
X157492849Y-118166520D01*
X157513893Y-118179133D01*
X157533598Y-118193747D01*
X157551777Y-118210223D01*
X157568253Y-118228402D01*
X157582867Y-118248107D01*
X157595480Y-118269151D01*
X157605970Y-118291329D01*
X157614235Y-118314429D01*
X157620196Y-118338227D01*
X157623796Y-118362496D01*
X157625000Y-118387000D01*
X157625000Y-119637000D01*
X157623796Y-119661504D01*
X157620196Y-119685773D01*
X157614235Y-119709571D01*
X157605970Y-119732671D01*
X157595480Y-119754849D01*
X157582867Y-119775893D01*
X157568253Y-119795598D01*
X157551777Y-119813777D01*
X157533598Y-119830253D01*
X157513893Y-119844867D01*
X157492849Y-119857480D01*
X157470671Y-119867970D01*
X157447571Y-119876235D01*
X157423773Y-119882196D01*
X157399504Y-119885796D01*
X157375000Y-119887000D01*
X156625000Y-119887000D01*
X156600496Y-119885796D01*
X156576227Y-119882196D01*
X156552429Y-119876235D01*
X156529329Y-119867970D01*
X156507151Y-119857480D01*
X156486107Y-119844867D01*
X156466402Y-119830253D01*
X156448223Y-119813777D01*
X156431747Y-119795598D01*
X156417133Y-119775893D01*
X156404520Y-119754849D01*
X156394030Y-119732671D01*
X156385765Y-119709571D01*
X156379804Y-119685773D01*
X156376204Y-119661504D01*
X156375000Y-119637000D01*
X156375000Y-118387000D01*
X156376204Y-118362496D01*
X156379804Y-118338227D01*
X156385765Y-118314429D01*
X156394030Y-118291329D01*
X156404520Y-118269151D01*
X156417133Y-118248107D01*
X156431747Y-118228402D01*
X156448223Y-118210223D01*
X156466402Y-118193747D01*
X156486107Y-118179133D01*
X156507151Y-118166520D01*
X156529329Y-118156030D01*
X156552429Y-118147765D01*
X156576227Y-118141804D01*
X156600496Y-118138204D01*
X156625000Y-118137000D01*
X157375000Y-118137000D01*
X157399504Y-118138204D01*
X157399504Y-118138204D01*
G37*
D11*
X157000000Y-119012000D03*
D10*
G36*
X160199504Y-118138204D02*
X160223773Y-118141804D01*
X160247571Y-118147765D01*
X160270671Y-118156030D01*
X160292849Y-118166520D01*
X160313893Y-118179133D01*
X160333598Y-118193747D01*
X160351777Y-118210223D01*
X160368253Y-118228402D01*
X160382867Y-118248107D01*
X160395480Y-118269151D01*
X160405970Y-118291329D01*
X160414235Y-118314429D01*
X160420196Y-118338227D01*
X160423796Y-118362496D01*
X160425000Y-118387000D01*
X160425000Y-119637000D01*
X160423796Y-119661504D01*
X160420196Y-119685773D01*
X160414235Y-119709571D01*
X160405970Y-119732671D01*
X160395480Y-119754849D01*
X160382867Y-119775893D01*
X160368253Y-119795598D01*
X160351777Y-119813777D01*
X160333598Y-119830253D01*
X160313893Y-119844867D01*
X160292849Y-119857480D01*
X160270671Y-119867970D01*
X160247571Y-119876235D01*
X160223773Y-119882196D01*
X160199504Y-119885796D01*
X160175000Y-119887000D01*
X159425000Y-119887000D01*
X159400496Y-119885796D01*
X159376227Y-119882196D01*
X159352429Y-119876235D01*
X159329329Y-119867970D01*
X159307151Y-119857480D01*
X159286107Y-119844867D01*
X159266402Y-119830253D01*
X159248223Y-119813777D01*
X159231747Y-119795598D01*
X159217133Y-119775893D01*
X159204520Y-119754849D01*
X159194030Y-119732671D01*
X159185765Y-119709571D01*
X159179804Y-119685773D01*
X159176204Y-119661504D01*
X159175000Y-119637000D01*
X159175000Y-118387000D01*
X159176204Y-118362496D01*
X159179804Y-118338227D01*
X159185765Y-118314429D01*
X159194030Y-118291329D01*
X159204520Y-118269151D01*
X159217133Y-118248107D01*
X159231747Y-118228402D01*
X159248223Y-118210223D01*
X159266402Y-118193747D01*
X159286107Y-118179133D01*
X159307151Y-118166520D01*
X159329329Y-118156030D01*
X159352429Y-118147765D01*
X159376227Y-118141804D01*
X159400496Y-118138204D01*
X159425000Y-118137000D01*
X160175000Y-118137000D01*
X160199504Y-118138204D01*
X160199504Y-118138204D01*
G37*
D11*
X159800000Y-119012000D03*
G04 #@! TD*
D10*
G04 #@! TO.C,D3*
G36*
X151723504Y-118201204D02*
X151747773Y-118204804D01*
X151771571Y-118210765D01*
X151794671Y-118219030D01*
X151816849Y-118229520D01*
X151837893Y-118242133D01*
X151857598Y-118256747D01*
X151875777Y-118273223D01*
X151892253Y-118291402D01*
X151906867Y-118311107D01*
X151919480Y-118332151D01*
X151929970Y-118354329D01*
X151938235Y-118377429D01*
X151944196Y-118401227D01*
X151947796Y-118425496D01*
X151949000Y-118450000D01*
X151949000Y-119700000D01*
X151947796Y-119724504D01*
X151944196Y-119748773D01*
X151938235Y-119772571D01*
X151929970Y-119795671D01*
X151919480Y-119817849D01*
X151906867Y-119838893D01*
X151892253Y-119858598D01*
X151875777Y-119876777D01*
X151857598Y-119893253D01*
X151837893Y-119907867D01*
X151816849Y-119920480D01*
X151794671Y-119930970D01*
X151771571Y-119939235D01*
X151747773Y-119945196D01*
X151723504Y-119948796D01*
X151699000Y-119950000D01*
X150949000Y-119950000D01*
X150924496Y-119948796D01*
X150900227Y-119945196D01*
X150876429Y-119939235D01*
X150853329Y-119930970D01*
X150831151Y-119920480D01*
X150810107Y-119907867D01*
X150790402Y-119893253D01*
X150772223Y-119876777D01*
X150755747Y-119858598D01*
X150741133Y-119838893D01*
X150728520Y-119817849D01*
X150718030Y-119795671D01*
X150709765Y-119772571D01*
X150703804Y-119748773D01*
X150700204Y-119724504D01*
X150699000Y-119700000D01*
X150699000Y-118450000D01*
X150700204Y-118425496D01*
X150703804Y-118401227D01*
X150709765Y-118377429D01*
X150718030Y-118354329D01*
X150728520Y-118332151D01*
X150741133Y-118311107D01*
X150755747Y-118291402D01*
X150772223Y-118273223D01*
X150790402Y-118256747D01*
X150810107Y-118242133D01*
X150831151Y-118229520D01*
X150853329Y-118219030D01*
X150876429Y-118210765D01*
X150900227Y-118204804D01*
X150924496Y-118201204D01*
X150949000Y-118200000D01*
X151699000Y-118200000D01*
X151723504Y-118201204D01*
X151723504Y-118201204D01*
G37*
D11*
X151324000Y-119075000D03*
D10*
G36*
X154523504Y-118201204D02*
X154547773Y-118204804D01*
X154571571Y-118210765D01*
X154594671Y-118219030D01*
X154616849Y-118229520D01*
X154637893Y-118242133D01*
X154657598Y-118256747D01*
X154675777Y-118273223D01*
X154692253Y-118291402D01*
X154706867Y-118311107D01*
X154719480Y-118332151D01*
X154729970Y-118354329D01*
X154738235Y-118377429D01*
X154744196Y-118401227D01*
X154747796Y-118425496D01*
X154749000Y-118450000D01*
X154749000Y-119700000D01*
X154747796Y-119724504D01*
X154744196Y-119748773D01*
X154738235Y-119772571D01*
X154729970Y-119795671D01*
X154719480Y-119817849D01*
X154706867Y-119838893D01*
X154692253Y-119858598D01*
X154675777Y-119876777D01*
X154657598Y-119893253D01*
X154637893Y-119907867D01*
X154616849Y-119920480D01*
X154594671Y-119930970D01*
X154571571Y-119939235D01*
X154547773Y-119945196D01*
X154523504Y-119948796D01*
X154499000Y-119950000D01*
X153749000Y-119950000D01*
X153724496Y-119948796D01*
X153700227Y-119945196D01*
X153676429Y-119939235D01*
X153653329Y-119930970D01*
X153631151Y-119920480D01*
X153610107Y-119907867D01*
X153590402Y-119893253D01*
X153572223Y-119876777D01*
X153555747Y-119858598D01*
X153541133Y-119838893D01*
X153528520Y-119817849D01*
X153518030Y-119795671D01*
X153509765Y-119772571D01*
X153503804Y-119748773D01*
X153500204Y-119724504D01*
X153499000Y-119700000D01*
X153499000Y-118450000D01*
X153500204Y-118425496D01*
X153503804Y-118401227D01*
X153509765Y-118377429D01*
X153518030Y-118354329D01*
X153528520Y-118332151D01*
X153541133Y-118311107D01*
X153555747Y-118291402D01*
X153572223Y-118273223D01*
X153590402Y-118256747D01*
X153610107Y-118242133D01*
X153631151Y-118229520D01*
X153653329Y-118219030D01*
X153676429Y-118210765D01*
X153700227Y-118204804D01*
X153724496Y-118201204D01*
X153749000Y-118200000D01*
X154499000Y-118200000D01*
X154523504Y-118201204D01*
X154523504Y-118201204D01*
G37*
D11*
X154124000Y-119075000D03*
G04 #@! TD*
D10*
G04 #@! TO.C,R1*
G36*
X160936504Y-107718204D02*
X160960773Y-107721804D01*
X160984571Y-107727765D01*
X161007671Y-107736030D01*
X161029849Y-107746520D01*
X161050893Y-107759133D01*
X161070598Y-107773747D01*
X161088777Y-107790223D01*
X161105253Y-107808402D01*
X161119867Y-107828107D01*
X161132480Y-107849151D01*
X161142970Y-107871329D01*
X161151235Y-107894429D01*
X161157196Y-107918227D01*
X161160796Y-107942496D01*
X161162000Y-107967000D01*
X161162000Y-108717000D01*
X161160796Y-108741504D01*
X161157196Y-108765773D01*
X161151235Y-108789571D01*
X161142970Y-108812671D01*
X161132480Y-108834849D01*
X161119867Y-108855893D01*
X161105253Y-108875598D01*
X161088777Y-108893777D01*
X161070598Y-108910253D01*
X161050893Y-108924867D01*
X161029849Y-108937480D01*
X161007671Y-108947970D01*
X160984571Y-108956235D01*
X160960773Y-108962196D01*
X160936504Y-108965796D01*
X160912000Y-108967000D01*
X159662000Y-108967000D01*
X159637496Y-108965796D01*
X159613227Y-108962196D01*
X159589429Y-108956235D01*
X159566329Y-108947970D01*
X159544151Y-108937480D01*
X159523107Y-108924867D01*
X159503402Y-108910253D01*
X159485223Y-108893777D01*
X159468747Y-108875598D01*
X159454133Y-108855893D01*
X159441520Y-108834849D01*
X159431030Y-108812671D01*
X159422765Y-108789571D01*
X159416804Y-108765773D01*
X159413204Y-108741504D01*
X159412000Y-108717000D01*
X159412000Y-107967000D01*
X159413204Y-107942496D01*
X159416804Y-107918227D01*
X159422765Y-107894429D01*
X159431030Y-107871329D01*
X159441520Y-107849151D01*
X159454133Y-107828107D01*
X159468747Y-107808402D01*
X159485223Y-107790223D01*
X159503402Y-107773747D01*
X159523107Y-107759133D01*
X159544151Y-107746520D01*
X159566329Y-107736030D01*
X159589429Y-107727765D01*
X159613227Y-107721804D01*
X159637496Y-107718204D01*
X159662000Y-107717000D01*
X160912000Y-107717000D01*
X160936504Y-107718204D01*
X160936504Y-107718204D01*
G37*
D11*
X160287000Y-108342000D03*
D10*
G36*
X160936504Y-110518204D02*
X160960773Y-110521804D01*
X160984571Y-110527765D01*
X161007671Y-110536030D01*
X161029849Y-110546520D01*
X161050893Y-110559133D01*
X161070598Y-110573747D01*
X161088777Y-110590223D01*
X161105253Y-110608402D01*
X161119867Y-110628107D01*
X161132480Y-110649151D01*
X161142970Y-110671329D01*
X161151235Y-110694429D01*
X161157196Y-110718227D01*
X161160796Y-110742496D01*
X161162000Y-110767000D01*
X161162000Y-111517000D01*
X161160796Y-111541504D01*
X161157196Y-111565773D01*
X161151235Y-111589571D01*
X161142970Y-111612671D01*
X161132480Y-111634849D01*
X161119867Y-111655893D01*
X161105253Y-111675598D01*
X161088777Y-111693777D01*
X161070598Y-111710253D01*
X161050893Y-111724867D01*
X161029849Y-111737480D01*
X161007671Y-111747970D01*
X160984571Y-111756235D01*
X160960773Y-111762196D01*
X160936504Y-111765796D01*
X160912000Y-111767000D01*
X159662000Y-111767000D01*
X159637496Y-111765796D01*
X159613227Y-111762196D01*
X159589429Y-111756235D01*
X159566329Y-111747970D01*
X159544151Y-111737480D01*
X159523107Y-111724867D01*
X159503402Y-111710253D01*
X159485223Y-111693777D01*
X159468747Y-111675598D01*
X159454133Y-111655893D01*
X159441520Y-111634849D01*
X159431030Y-111612671D01*
X159422765Y-111589571D01*
X159416804Y-111565773D01*
X159413204Y-111541504D01*
X159412000Y-111517000D01*
X159412000Y-110767000D01*
X159413204Y-110742496D01*
X159416804Y-110718227D01*
X159422765Y-110694429D01*
X159431030Y-110671329D01*
X159441520Y-110649151D01*
X159454133Y-110628107D01*
X159468747Y-110608402D01*
X159485223Y-110590223D01*
X159503402Y-110573747D01*
X159523107Y-110559133D01*
X159544151Y-110546520D01*
X159566329Y-110536030D01*
X159589429Y-110527765D01*
X159613227Y-110521804D01*
X159637496Y-110518204D01*
X159662000Y-110517000D01*
X160912000Y-110517000D01*
X160936504Y-110518204D01*
X160936504Y-110518204D01*
G37*
D11*
X160287000Y-111142000D03*
G04 #@! TD*
D10*
G04 #@! TO.C,R2*
G36*
X164381504Y-110518204D02*
X164405773Y-110521804D01*
X164429571Y-110527765D01*
X164452671Y-110536030D01*
X164474849Y-110546520D01*
X164495893Y-110559133D01*
X164515598Y-110573747D01*
X164533777Y-110590223D01*
X164550253Y-110608402D01*
X164564867Y-110628107D01*
X164577480Y-110649151D01*
X164587970Y-110671329D01*
X164596235Y-110694429D01*
X164602196Y-110718227D01*
X164605796Y-110742496D01*
X164607000Y-110767000D01*
X164607000Y-111517000D01*
X164605796Y-111541504D01*
X164602196Y-111565773D01*
X164596235Y-111589571D01*
X164587970Y-111612671D01*
X164577480Y-111634849D01*
X164564867Y-111655893D01*
X164550253Y-111675598D01*
X164533777Y-111693777D01*
X164515598Y-111710253D01*
X164495893Y-111724867D01*
X164474849Y-111737480D01*
X164452671Y-111747970D01*
X164429571Y-111756235D01*
X164405773Y-111762196D01*
X164381504Y-111765796D01*
X164357000Y-111767000D01*
X163107000Y-111767000D01*
X163082496Y-111765796D01*
X163058227Y-111762196D01*
X163034429Y-111756235D01*
X163011329Y-111747970D01*
X162989151Y-111737480D01*
X162968107Y-111724867D01*
X162948402Y-111710253D01*
X162930223Y-111693777D01*
X162913747Y-111675598D01*
X162899133Y-111655893D01*
X162886520Y-111634849D01*
X162876030Y-111612671D01*
X162867765Y-111589571D01*
X162861804Y-111565773D01*
X162858204Y-111541504D01*
X162857000Y-111517000D01*
X162857000Y-110767000D01*
X162858204Y-110742496D01*
X162861804Y-110718227D01*
X162867765Y-110694429D01*
X162876030Y-110671329D01*
X162886520Y-110649151D01*
X162899133Y-110628107D01*
X162913747Y-110608402D01*
X162930223Y-110590223D01*
X162948402Y-110573747D01*
X162968107Y-110559133D01*
X162989151Y-110546520D01*
X163011329Y-110536030D01*
X163034429Y-110527765D01*
X163058227Y-110521804D01*
X163082496Y-110518204D01*
X163107000Y-110517000D01*
X164357000Y-110517000D01*
X164381504Y-110518204D01*
X164381504Y-110518204D01*
G37*
D11*
X163732000Y-111142000D03*
D10*
G36*
X164381504Y-107718204D02*
X164405773Y-107721804D01*
X164429571Y-107727765D01*
X164452671Y-107736030D01*
X164474849Y-107746520D01*
X164495893Y-107759133D01*
X164515598Y-107773747D01*
X164533777Y-107790223D01*
X164550253Y-107808402D01*
X164564867Y-107828107D01*
X164577480Y-107849151D01*
X164587970Y-107871329D01*
X164596235Y-107894429D01*
X164602196Y-107918227D01*
X164605796Y-107942496D01*
X164607000Y-107967000D01*
X164607000Y-108717000D01*
X164605796Y-108741504D01*
X164602196Y-108765773D01*
X164596235Y-108789571D01*
X164587970Y-108812671D01*
X164577480Y-108834849D01*
X164564867Y-108855893D01*
X164550253Y-108875598D01*
X164533777Y-108893777D01*
X164515598Y-108910253D01*
X164495893Y-108924867D01*
X164474849Y-108937480D01*
X164452671Y-108947970D01*
X164429571Y-108956235D01*
X164405773Y-108962196D01*
X164381504Y-108965796D01*
X164357000Y-108967000D01*
X163107000Y-108967000D01*
X163082496Y-108965796D01*
X163058227Y-108962196D01*
X163034429Y-108956235D01*
X163011329Y-108947970D01*
X162989151Y-108937480D01*
X162968107Y-108924867D01*
X162948402Y-108910253D01*
X162930223Y-108893777D01*
X162913747Y-108875598D01*
X162899133Y-108855893D01*
X162886520Y-108834849D01*
X162876030Y-108812671D01*
X162867765Y-108789571D01*
X162861804Y-108765773D01*
X162858204Y-108741504D01*
X162857000Y-108717000D01*
X162857000Y-107967000D01*
X162858204Y-107942496D01*
X162861804Y-107918227D01*
X162867765Y-107894429D01*
X162876030Y-107871329D01*
X162886520Y-107849151D01*
X162899133Y-107828107D01*
X162913747Y-107808402D01*
X162930223Y-107790223D01*
X162948402Y-107773747D01*
X162968107Y-107759133D01*
X162989151Y-107746520D01*
X163011329Y-107736030D01*
X163034429Y-107727765D01*
X163058227Y-107721804D01*
X163082496Y-107718204D01*
X163107000Y-107717000D01*
X164357000Y-107717000D01*
X164381504Y-107718204D01*
X164381504Y-107718204D01*
G37*
D11*
X163732000Y-108342000D03*
G04 #@! TD*
D10*
G04 #@! TO.C,R3*
G36*
X167827504Y-107718204D02*
X167851773Y-107721804D01*
X167875571Y-107727765D01*
X167898671Y-107736030D01*
X167920849Y-107746520D01*
X167941893Y-107759133D01*
X167961598Y-107773747D01*
X167979777Y-107790223D01*
X167996253Y-107808402D01*
X168010867Y-107828107D01*
X168023480Y-107849151D01*
X168033970Y-107871329D01*
X168042235Y-107894429D01*
X168048196Y-107918227D01*
X168051796Y-107942496D01*
X168053000Y-107967000D01*
X168053000Y-108717000D01*
X168051796Y-108741504D01*
X168048196Y-108765773D01*
X168042235Y-108789571D01*
X168033970Y-108812671D01*
X168023480Y-108834849D01*
X168010867Y-108855893D01*
X167996253Y-108875598D01*
X167979777Y-108893777D01*
X167961598Y-108910253D01*
X167941893Y-108924867D01*
X167920849Y-108937480D01*
X167898671Y-108947970D01*
X167875571Y-108956235D01*
X167851773Y-108962196D01*
X167827504Y-108965796D01*
X167803000Y-108967000D01*
X166553000Y-108967000D01*
X166528496Y-108965796D01*
X166504227Y-108962196D01*
X166480429Y-108956235D01*
X166457329Y-108947970D01*
X166435151Y-108937480D01*
X166414107Y-108924867D01*
X166394402Y-108910253D01*
X166376223Y-108893777D01*
X166359747Y-108875598D01*
X166345133Y-108855893D01*
X166332520Y-108834849D01*
X166322030Y-108812671D01*
X166313765Y-108789571D01*
X166307804Y-108765773D01*
X166304204Y-108741504D01*
X166303000Y-108717000D01*
X166303000Y-107967000D01*
X166304204Y-107942496D01*
X166307804Y-107918227D01*
X166313765Y-107894429D01*
X166322030Y-107871329D01*
X166332520Y-107849151D01*
X166345133Y-107828107D01*
X166359747Y-107808402D01*
X166376223Y-107790223D01*
X166394402Y-107773747D01*
X166414107Y-107759133D01*
X166435151Y-107746520D01*
X166457329Y-107736030D01*
X166480429Y-107727765D01*
X166504227Y-107721804D01*
X166528496Y-107718204D01*
X166553000Y-107717000D01*
X167803000Y-107717000D01*
X167827504Y-107718204D01*
X167827504Y-107718204D01*
G37*
D11*
X167178000Y-108342000D03*
D10*
G36*
X167827504Y-110518204D02*
X167851773Y-110521804D01*
X167875571Y-110527765D01*
X167898671Y-110536030D01*
X167920849Y-110546520D01*
X167941893Y-110559133D01*
X167961598Y-110573747D01*
X167979777Y-110590223D01*
X167996253Y-110608402D01*
X168010867Y-110628107D01*
X168023480Y-110649151D01*
X168033970Y-110671329D01*
X168042235Y-110694429D01*
X168048196Y-110718227D01*
X168051796Y-110742496D01*
X168053000Y-110767000D01*
X168053000Y-111517000D01*
X168051796Y-111541504D01*
X168048196Y-111565773D01*
X168042235Y-111589571D01*
X168033970Y-111612671D01*
X168023480Y-111634849D01*
X168010867Y-111655893D01*
X167996253Y-111675598D01*
X167979777Y-111693777D01*
X167961598Y-111710253D01*
X167941893Y-111724867D01*
X167920849Y-111737480D01*
X167898671Y-111747970D01*
X167875571Y-111756235D01*
X167851773Y-111762196D01*
X167827504Y-111765796D01*
X167803000Y-111767000D01*
X166553000Y-111767000D01*
X166528496Y-111765796D01*
X166504227Y-111762196D01*
X166480429Y-111756235D01*
X166457329Y-111747970D01*
X166435151Y-111737480D01*
X166414107Y-111724867D01*
X166394402Y-111710253D01*
X166376223Y-111693777D01*
X166359747Y-111675598D01*
X166345133Y-111655893D01*
X166332520Y-111634849D01*
X166322030Y-111612671D01*
X166313765Y-111589571D01*
X166307804Y-111565773D01*
X166304204Y-111541504D01*
X166303000Y-111517000D01*
X166303000Y-110767000D01*
X166304204Y-110742496D01*
X166307804Y-110718227D01*
X166313765Y-110694429D01*
X166322030Y-110671329D01*
X166332520Y-110649151D01*
X166345133Y-110628107D01*
X166359747Y-110608402D01*
X166376223Y-110590223D01*
X166394402Y-110573747D01*
X166414107Y-110559133D01*
X166435151Y-110546520D01*
X166457329Y-110536030D01*
X166480429Y-110527765D01*
X166504227Y-110521804D01*
X166528496Y-110518204D01*
X166553000Y-110517000D01*
X167803000Y-110517000D01*
X167827504Y-110518204D01*
X167827504Y-110518204D01*
G37*
D11*
X167178000Y-111142000D03*
G04 #@! TD*
D14*
G04 #@! TO.C,Y1*
X164707000Y-97911900D03*
X173207000Y-97911900D03*
G04 #@! TD*
M02*
