G04 #@! TF.GenerationSoftware,KiCad,Pcbnew,(5.0.0)*
G04 #@! TF.CreationDate,2018-10-08T15:54:37-05:00*
G04 #@! TF.ProjectId,YAPS_Arduino_Shield_AVR,594150535F41726475696E6F5F536869,1.0*
G04 #@! TF.SameCoordinates,Original*
G04 #@! TF.FileFunction,Copper,L1,Top,Signal*
G04 #@! TF.FilePolarity,Positive*
%FSLAX46Y46*%
G04 Gerber Fmt 4.6, Leading zero omitted, Abs format (unit mm)*
G04 Created by KiCad (PCBNEW (5.0.0)) date 10/08/18 15:54:37*
%MOMM*%
%LPD*%
G01*
G04 APERTURE LIST*
G04 #@! TA.AperFunction,Conductor*
%ADD10C,0.127000*%
G04 #@! TD*
G04 #@! TA.AperFunction,SMDPad,CuDef*
%ADD11C,1.250000*%
G04 #@! TD*
G04 #@! TA.AperFunction,ComponentPad*
%ADD12O,1.700000X1.700000*%
G04 #@! TD*
G04 #@! TA.AperFunction,ComponentPad*
%ADD13R,1.700000X1.700000*%
G04 #@! TD*
G04 #@! TA.AperFunction,SMDPad,CuDef*
%ADD14R,1.550000X1.300000*%
G04 #@! TD*
G04 #@! TA.AperFunction,ComponentPad*
%ADD15R,2.000000X2.000000*%
G04 #@! TD*
G04 #@! TA.AperFunction,ComponentPad*
%ADD16C,2.000000*%
G04 #@! TD*
G04 #@! TA.AperFunction,SMDPad,CuDef*
%ADD17R,2.600000X1.600000*%
G04 #@! TD*
G04 #@! TA.AperFunction,ComponentPad*
%ADD18R,1.600000X1.600000*%
G04 #@! TD*
G04 #@! TA.AperFunction,ComponentPad*
%ADD19O,1.600000X1.600000*%
G04 #@! TD*
G04 #@! TA.AperFunction,SMDPad,CuDef*
%ADD20R,4.500000X2.000000*%
G04 #@! TD*
G04 #@! TA.AperFunction,ViaPad*
%ADD21C,0.600000*%
G04 #@! TD*
G04 #@! TA.AperFunction,Conductor*
%ADD22C,0.500000*%
G04 #@! TD*
G04 #@! TA.AperFunction,Conductor*
%ADD23C,0.350000*%
G04 #@! TD*
G04 #@! TA.AperFunction,Conductor*
%ADD24C,0.254000*%
G04 #@! TD*
G04 APERTURE END LIST*
D10*
G04 #@! TO.N,Net-(D4-Pad1)*
G04 #@! TO.C,D4*
G36*
X146837504Y-118214204D02*
X146861773Y-118217804D01*
X146885571Y-118223765D01*
X146908671Y-118232030D01*
X146930849Y-118242520D01*
X146951893Y-118255133D01*
X146971598Y-118269747D01*
X146989777Y-118286223D01*
X147006253Y-118304402D01*
X147020867Y-118324107D01*
X147033480Y-118345151D01*
X147043970Y-118367329D01*
X147052235Y-118390429D01*
X147058196Y-118414227D01*
X147061796Y-118438496D01*
X147063000Y-118463000D01*
X147063000Y-119713000D01*
X147061796Y-119737504D01*
X147058196Y-119761773D01*
X147052235Y-119785571D01*
X147043970Y-119808671D01*
X147033480Y-119830849D01*
X147020867Y-119851893D01*
X147006253Y-119871598D01*
X146989777Y-119889777D01*
X146971598Y-119906253D01*
X146951893Y-119920867D01*
X146930849Y-119933480D01*
X146908671Y-119943970D01*
X146885571Y-119952235D01*
X146861773Y-119958196D01*
X146837504Y-119961796D01*
X146813000Y-119963000D01*
X146063000Y-119963000D01*
X146038496Y-119961796D01*
X146014227Y-119958196D01*
X145990429Y-119952235D01*
X145967329Y-119943970D01*
X145945151Y-119933480D01*
X145924107Y-119920867D01*
X145904402Y-119906253D01*
X145886223Y-119889777D01*
X145869747Y-119871598D01*
X145855133Y-119851893D01*
X145842520Y-119830849D01*
X145832030Y-119808671D01*
X145823765Y-119785571D01*
X145817804Y-119761773D01*
X145814204Y-119737504D01*
X145813000Y-119713000D01*
X145813000Y-118463000D01*
X145814204Y-118438496D01*
X145817804Y-118414227D01*
X145823765Y-118390429D01*
X145832030Y-118367329D01*
X145842520Y-118345151D01*
X145855133Y-118324107D01*
X145869747Y-118304402D01*
X145886223Y-118286223D01*
X145904402Y-118269747D01*
X145924107Y-118255133D01*
X145945151Y-118242520D01*
X145967329Y-118232030D01*
X145990429Y-118223765D01*
X146014227Y-118217804D01*
X146038496Y-118214204D01*
X146063000Y-118213000D01*
X146813000Y-118213000D01*
X146837504Y-118214204D01*
X146837504Y-118214204D01*
G37*
D11*
G04 #@! TD*
G04 #@! TO.P,D4,1*
G04 #@! TO.N,Net-(D4-Pad1)*
X146438000Y-119088000D03*
D10*
G04 #@! TO.N,/9(\002A\002A)*
G04 #@! TO.C,D4*
G36*
X149637504Y-118214204D02*
X149661773Y-118217804D01*
X149685571Y-118223765D01*
X149708671Y-118232030D01*
X149730849Y-118242520D01*
X149751893Y-118255133D01*
X149771598Y-118269747D01*
X149789777Y-118286223D01*
X149806253Y-118304402D01*
X149820867Y-118324107D01*
X149833480Y-118345151D01*
X149843970Y-118367329D01*
X149852235Y-118390429D01*
X149858196Y-118414227D01*
X149861796Y-118438496D01*
X149863000Y-118463000D01*
X149863000Y-119713000D01*
X149861796Y-119737504D01*
X149858196Y-119761773D01*
X149852235Y-119785571D01*
X149843970Y-119808671D01*
X149833480Y-119830849D01*
X149820867Y-119851893D01*
X149806253Y-119871598D01*
X149789777Y-119889777D01*
X149771598Y-119906253D01*
X149751893Y-119920867D01*
X149730849Y-119933480D01*
X149708671Y-119943970D01*
X149685571Y-119952235D01*
X149661773Y-119958196D01*
X149637504Y-119961796D01*
X149613000Y-119963000D01*
X148863000Y-119963000D01*
X148838496Y-119961796D01*
X148814227Y-119958196D01*
X148790429Y-119952235D01*
X148767329Y-119943970D01*
X148745151Y-119933480D01*
X148724107Y-119920867D01*
X148704402Y-119906253D01*
X148686223Y-119889777D01*
X148669747Y-119871598D01*
X148655133Y-119851893D01*
X148642520Y-119830849D01*
X148632030Y-119808671D01*
X148623765Y-119785571D01*
X148617804Y-119761773D01*
X148614204Y-119737504D01*
X148613000Y-119713000D01*
X148613000Y-118463000D01*
X148614204Y-118438496D01*
X148617804Y-118414227D01*
X148623765Y-118390429D01*
X148632030Y-118367329D01*
X148642520Y-118345151D01*
X148655133Y-118324107D01*
X148669747Y-118304402D01*
X148686223Y-118286223D01*
X148704402Y-118269747D01*
X148724107Y-118255133D01*
X148745151Y-118242520D01*
X148767329Y-118232030D01*
X148790429Y-118223765D01*
X148814227Y-118217804D01*
X148838496Y-118214204D01*
X148863000Y-118213000D01*
X149613000Y-118213000D01*
X149637504Y-118214204D01*
X149637504Y-118214204D01*
G37*
D11*
G04 #@! TD*
G04 #@! TO.P,D4,2*
G04 #@! TO.N,/9(\002A\002A)*
X149238000Y-119088000D03*
D10*
G04 #@! TO.N,GND*
G04 #@! TO.C,R4*
G36*
X148800504Y-107732204D02*
X148824773Y-107735804D01*
X148848571Y-107741765D01*
X148871671Y-107750030D01*
X148893849Y-107760520D01*
X148914893Y-107773133D01*
X148934598Y-107787747D01*
X148952777Y-107804223D01*
X148969253Y-107822402D01*
X148983867Y-107842107D01*
X148996480Y-107863151D01*
X149006970Y-107885329D01*
X149015235Y-107908429D01*
X149021196Y-107932227D01*
X149024796Y-107956496D01*
X149026000Y-107981000D01*
X149026000Y-108731000D01*
X149024796Y-108755504D01*
X149021196Y-108779773D01*
X149015235Y-108803571D01*
X149006970Y-108826671D01*
X148996480Y-108848849D01*
X148983867Y-108869893D01*
X148969253Y-108889598D01*
X148952777Y-108907777D01*
X148934598Y-108924253D01*
X148914893Y-108938867D01*
X148893849Y-108951480D01*
X148871671Y-108961970D01*
X148848571Y-108970235D01*
X148824773Y-108976196D01*
X148800504Y-108979796D01*
X148776000Y-108981000D01*
X147526000Y-108981000D01*
X147501496Y-108979796D01*
X147477227Y-108976196D01*
X147453429Y-108970235D01*
X147430329Y-108961970D01*
X147408151Y-108951480D01*
X147387107Y-108938867D01*
X147367402Y-108924253D01*
X147349223Y-108907777D01*
X147332747Y-108889598D01*
X147318133Y-108869893D01*
X147305520Y-108848849D01*
X147295030Y-108826671D01*
X147286765Y-108803571D01*
X147280804Y-108779773D01*
X147277204Y-108755504D01*
X147276000Y-108731000D01*
X147276000Y-107981000D01*
X147277204Y-107956496D01*
X147280804Y-107932227D01*
X147286765Y-107908429D01*
X147295030Y-107885329D01*
X147305520Y-107863151D01*
X147318133Y-107842107D01*
X147332747Y-107822402D01*
X147349223Y-107804223D01*
X147367402Y-107787747D01*
X147387107Y-107773133D01*
X147408151Y-107760520D01*
X147430329Y-107750030D01*
X147453429Y-107741765D01*
X147477227Y-107735804D01*
X147501496Y-107732204D01*
X147526000Y-107731000D01*
X148776000Y-107731000D01*
X148800504Y-107732204D01*
X148800504Y-107732204D01*
G37*
D11*
G04 #@! TD*
G04 #@! TO.P,R4,1*
G04 #@! TO.N,GND*
X148151000Y-108356000D03*
D10*
G04 #@! TO.N,Net-(D4-Pad1)*
G04 #@! TO.C,R4*
G36*
X148800504Y-110532204D02*
X148824773Y-110535804D01*
X148848571Y-110541765D01*
X148871671Y-110550030D01*
X148893849Y-110560520D01*
X148914893Y-110573133D01*
X148934598Y-110587747D01*
X148952777Y-110604223D01*
X148969253Y-110622402D01*
X148983867Y-110642107D01*
X148996480Y-110663151D01*
X149006970Y-110685329D01*
X149015235Y-110708429D01*
X149021196Y-110732227D01*
X149024796Y-110756496D01*
X149026000Y-110781000D01*
X149026000Y-111531000D01*
X149024796Y-111555504D01*
X149021196Y-111579773D01*
X149015235Y-111603571D01*
X149006970Y-111626671D01*
X148996480Y-111648849D01*
X148983867Y-111669893D01*
X148969253Y-111689598D01*
X148952777Y-111707777D01*
X148934598Y-111724253D01*
X148914893Y-111738867D01*
X148893849Y-111751480D01*
X148871671Y-111761970D01*
X148848571Y-111770235D01*
X148824773Y-111776196D01*
X148800504Y-111779796D01*
X148776000Y-111781000D01*
X147526000Y-111781000D01*
X147501496Y-111779796D01*
X147477227Y-111776196D01*
X147453429Y-111770235D01*
X147430329Y-111761970D01*
X147408151Y-111751480D01*
X147387107Y-111738867D01*
X147367402Y-111724253D01*
X147349223Y-111707777D01*
X147332747Y-111689598D01*
X147318133Y-111669893D01*
X147305520Y-111648849D01*
X147295030Y-111626671D01*
X147286765Y-111603571D01*
X147280804Y-111579773D01*
X147277204Y-111555504D01*
X147276000Y-111531000D01*
X147276000Y-110781000D01*
X147277204Y-110756496D01*
X147280804Y-110732227D01*
X147286765Y-110708429D01*
X147295030Y-110685329D01*
X147305520Y-110663151D01*
X147318133Y-110642107D01*
X147332747Y-110622402D01*
X147349223Y-110604223D01*
X147367402Y-110587747D01*
X147387107Y-110573133D01*
X147408151Y-110560520D01*
X147430329Y-110550030D01*
X147453429Y-110541765D01*
X147477227Y-110535804D01*
X147501496Y-110532204D01*
X147526000Y-110531000D01*
X148776000Y-110531000D01*
X148800504Y-110532204D01*
X148800504Y-110532204D01*
G37*
D11*
G04 #@! TD*
G04 #@! TO.P,R4,2*
G04 #@! TO.N,Net-(D4-Pad1)*
X148151000Y-111156000D03*
D12*
G04 #@! TO.P,J3,6*
G04 #@! TO.N,/85_VCC*
X144183000Y-110252000D03*
G04 #@! TO.P,J3,5*
G04 #@! TO.N,/85_GND*
X141643000Y-110252000D03*
G04 #@! TO.P,J3,4*
G04 #@! TO.N,/84_MOSI*
X144183000Y-107712000D03*
G04 #@! TO.P,J3,3*
G04 #@! TO.N,/84_SCK*
X141643000Y-107712000D03*
G04 #@! TO.P,J3,2*
G04 #@! TO.N,/85_RST*
X144183000Y-105172000D03*
D13*
G04 #@! TO.P,J3,1*
G04 #@! TO.N,/84_MISO*
X141643000Y-105172000D03*
G04 #@! TD*
G04 #@! TO.P,J2,1*
G04 #@! TO.N,/85_MISO*
X129644000Y-105172000D03*
D12*
G04 #@! TO.P,J2,2*
G04 #@! TO.N,/85_VCC*
X132184000Y-105172000D03*
G04 #@! TO.P,J2,3*
G04 #@! TO.N,/85_SCK*
X129644000Y-107712000D03*
G04 #@! TO.P,J2,4*
G04 #@! TO.N,/85_MOSI*
X132184000Y-107712000D03*
G04 #@! TO.P,J2,5*
G04 #@! TO.N,/85_RST*
X129644000Y-110252000D03*
G04 #@! TO.P,J2,6*
G04 #@! TO.N,/85_GND*
X132184000Y-110252000D03*
G04 #@! TD*
G04 #@! TO.P,J4,6*
G04 #@! TO.N,/84_MISO*
X156182000Y-110252000D03*
G04 #@! TO.P,J4,5*
G04 #@! TO.N,/85_RST*
X153642000Y-110252000D03*
G04 #@! TO.P,J4,4*
G04 #@! TO.N,/329_MOSI*
X156182000Y-107712000D03*
G04 #@! TO.P,J4,3*
G04 #@! TO.N,/329_SCK*
X153642000Y-107712000D03*
G04 #@! TO.P,J4,2*
G04 #@! TO.N,/84_MOSI*
X156182000Y-105172000D03*
D13*
G04 #@! TO.P,J4,1*
G04 #@! TO.N,/329_MISO*
X153642000Y-105172000D03*
G04 #@! TD*
G04 #@! TO.P,J1,1*
G04 #@! TO.N,/12(MISO)*
X171348000Y-105172000D03*
D12*
G04 #@! TO.P,J1,2*
G04 #@! TO.N,+5V*
X173888000Y-105172000D03*
G04 #@! TO.P,J1,3*
G04 #@! TO.N,/13(SCK)*
X171348000Y-107712000D03*
G04 #@! TO.P,J1,4*
G04 #@! TO.N,/11(\002A\002A/MOSI)*
X173888000Y-107712000D03*
G04 #@! TO.P,J1,5*
G04 #@! TO.N,/10(\002A\002A/SS)*
X171348000Y-110252000D03*
G04 #@! TO.P,J1,6*
G04 #@! TO.N,GND*
X173888000Y-110252000D03*
G04 #@! TD*
D14*
G04 #@! TO.P,SW1,2*
G04 #@! TO.N,/Reset*
X135743000Y-115482000D03*
X143693000Y-115482000D03*
G04 #@! TO.P,SW1,1*
G04 #@! TO.N,GND*
X135743000Y-119982000D03*
X143693000Y-119982000D03*
G04 #@! TD*
D12*
G04 #@! TO.P,P4,8*
G04 #@! TO.N,Net-(P4-Pad8)*
X174498000Y-75565000D03*
G04 #@! TO.P,P4,7*
G04 #@! TO.N,Net-(P4-Pad7)*
X171958000Y-75565000D03*
G04 #@! TO.P,P4,6*
G04 #@! TO.N,Net-(P4-Pad6)*
X169418000Y-75565000D03*
G04 #@! TO.P,P4,5*
G04 #@! TO.N,Net-(P4-Pad5)*
X166878000Y-75565000D03*
G04 #@! TO.P,P4,4*
G04 #@! TO.N,Net-(P4-Pad4)*
X164338000Y-75565000D03*
G04 #@! TO.P,P4,3*
G04 #@! TO.N,Net-(P4-Pad3)*
X161798000Y-75565000D03*
G04 #@! TO.P,P4,2*
G04 #@! TO.N,Net-(P4-Pad2)*
X159258000Y-75565000D03*
D13*
G04 #@! TO.P,P4,1*
G04 #@! TO.N,/7*
X156718000Y-75565000D03*
G04 #@! TD*
D12*
G04 #@! TO.P,P3,10*
G04 #@! TO.N,/8*
X152654000Y-75565000D03*
G04 #@! TO.P,P3,9*
G04 #@! TO.N,/9(\002A\002A)*
X150114000Y-75565000D03*
G04 #@! TO.P,P3,8*
G04 #@! TO.N,/10(\002A\002A/SS)*
X147574000Y-75565000D03*
G04 #@! TO.P,P3,7*
G04 #@! TO.N,/11(\002A\002A/MOSI)*
X145034000Y-75565000D03*
G04 #@! TO.P,P3,6*
G04 #@! TO.N,/12(MISO)*
X142494000Y-75565000D03*
G04 #@! TO.P,P3,5*
G04 #@! TO.N,/13(SCK)*
X139954000Y-75565000D03*
G04 #@! TO.P,P3,4*
G04 #@! TO.N,GND*
X137414000Y-75565000D03*
G04 #@! TO.P,P3,3*
G04 #@! TO.N,Net-(P3-Pad3)*
X134874000Y-75565000D03*
G04 #@! TO.P,P3,2*
G04 #@! TO.N,Net-(P3-Pad2)*
X132334000Y-75565000D03*
D13*
G04 #@! TO.P,P3,1*
G04 #@! TO.N,Net-(P3-Pad1)*
X129794000Y-75565000D03*
G04 #@! TD*
D12*
G04 #@! TO.P,P2,6*
G04 #@! TO.N,Net-(P2-Pad6)*
X174498000Y-123825000D03*
G04 #@! TO.P,P2,5*
G04 #@! TO.N,Net-(P2-Pad5)*
X171958000Y-123825000D03*
G04 #@! TO.P,P2,4*
G04 #@! TO.N,/A3*
X169418000Y-123825000D03*
G04 #@! TO.P,P2,3*
G04 #@! TO.N,Net-(P2-Pad3)*
X166878000Y-123825000D03*
G04 #@! TO.P,P2,2*
G04 #@! TO.N,Net-(P2-Pad2)*
X164338000Y-123825000D03*
D13*
G04 #@! TO.P,P2,1*
G04 #@! TO.N,/7*
X161798000Y-123825000D03*
G04 #@! TD*
D12*
G04 #@! TO.P,P1,8*
G04 #@! TO.N,Net-(P1-Pad8)*
X156718000Y-123825000D03*
G04 #@! TO.P,P1,7*
G04 #@! TO.N,GND*
X154178000Y-123825000D03*
G04 #@! TO.P,P1,6*
X151638000Y-123825000D03*
G04 #@! TO.P,P1,5*
G04 #@! TO.N,+5V*
X149098000Y-123825000D03*
G04 #@! TO.P,P1,4*
G04 #@! TO.N,Net-(P1-Pad4)*
X146558000Y-123825000D03*
G04 #@! TO.P,P1,3*
G04 #@! TO.N,/Reset*
X144018000Y-123825000D03*
G04 #@! TO.P,P1,2*
G04 #@! TO.N,Net-(P1-Pad2)*
X141478000Y-123825000D03*
D13*
G04 #@! TO.P,P1,1*
G04 #@! TO.N,Net-(P1-Pad1)*
X138938000Y-123825000D03*
G04 #@! TD*
D15*
G04 #@! TO.P,BZ1,1*
G04 #@! TO.N,/A3*
X133119000Y-98482300D03*
D16*
G04 #@! TO.P,BZ1,2*
G04 #@! TO.N,GND*
X140719000Y-98482300D03*
G04 #@! TD*
D10*
G04 #@! TO.N,/CY01*
G04 #@! TO.C,C1*
G36*
X160872504Y-95888104D02*
X160896773Y-95891704D01*
X160920571Y-95897665D01*
X160943671Y-95905930D01*
X160965849Y-95916420D01*
X160986893Y-95929033D01*
X161006598Y-95943647D01*
X161024777Y-95960123D01*
X161041253Y-95978302D01*
X161055867Y-95998007D01*
X161068480Y-96019051D01*
X161078970Y-96041229D01*
X161087235Y-96064329D01*
X161093196Y-96088127D01*
X161096796Y-96112396D01*
X161098000Y-96136900D01*
X161098000Y-96886900D01*
X161096796Y-96911404D01*
X161093196Y-96935673D01*
X161087235Y-96959471D01*
X161078970Y-96982571D01*
X161068480Y-97004749D01*
X161055867Y-97025793D01*
X161041253Y-97045498D01*
X161024777Y-97063677D01*
X161006598Y-97080153D01*
X160986893Y-97094767D01*
X160965849Y-97107380D01*
X160943671Y-97117870D01*
X160920571Y-97126135D01*
X160896773Y-97132096D01*
X160872504Y-97135696D01*
X160848000Y-97136900D01*
X159598000Y-97136900D01*
X159573496Y-97135696D01*
X159549227Y-97132096D01*
X159525429Y-97126135D01*
X159502329Y-97117870D01*
X159480151Y-97107380D01*
X159459107Y-97094767D01*
X159439402Y-97080153D01*
X159421223Y-97063677D01*
X159404747Y-97045498D01*
X159390133Y-97025793D01*
X159377520Y-97004749D01*
X159367030Y-96982571D01*
X159358765Y-96959471D01*
X159352804Y-96935673D01*
X159349204Y-96911404D01*
X159348000Y-96886900D01*
X159348000Y-96136900D01*
X159349204Y-96112396D01*
X159352804Y-96088127D01*
X159358765Y-96064329D01*
X159367030Y-96041229D01*
X159377520Y-96019051D01*
X159390133Y-95998007D01*
X159404747Y-95978302D01*
X159421223Y-95960123D01*
X159439402Y-95943647D01*
X159459107Y-95929033D01*
X159480151Y-95916420D01*
X159502329Y-95905930D01*
X159525429Y-95897665D01*
X159549227Y-95891704D01*
X159573496Y-95888104D01*
X159598000Y-95886900D01*
X160848000Y-95886900D01*
X160872504Y-95888104D01*
X160872504Y-95888104D01*
G37*
D11*
G04 #@! TD*
G04 #@! TO.P,C1,1*
G04 #@! TO.N,/CY01*
X160223000Y-96511900D03*
D10*
G04 #@! TO.N,GND*
G04 #@! TO.C,C1*
G36*
X160872504Y-98688104D02*
X160896773Y-98691704D01*
X160920571Y-98697665D01*
X160943671Y-98705930D01*
X160965849Y-98716420D01*
X160986893Y-98729033D01*
X161006598Y-98743647D01*
X161024777Y-98760123D01*
X161041253Y-98778302D01*
X161055867Y-98798007D01*
X161068480Y-98819051D01*
X161078970Y-98841229D01*
X161087235Y-98864329D01*
X161093196Y-98888127D01*
X161096796Y-98912396D01*
X161098000Y-98936900D01*
X161098000Y-99686900D01*
X161096796Y-99711404D01*
X161093196Y-99735673D01*
X161087235Y-99759471D01*
X161078970Y-99782571D01*
X161068480Y-99804749D01*
X161055867Y-99825793D01*
X161041253Y-99845498D01*
X161024777Y-99863677D01*
X161006598Y-99880153D01*
X160986893Y-99894767D01*
X160965849Y-99907380D01*
X160943671Y-99917870D01*
X160920571Y-99926135D01*
X160896773Y-99932096D01*
X160872504Y-99935696D01*
X160848000Y-99936900D01*
X159598000Y-99936900D01*
X159573496Y-99935696D01*
X159549227Y-99932096D01*
X159525429Y-99926135D01*
X159502329Y-99917870D01*
X159480151Y-99907380D01*
X159459107Y-99894767D01*
X159439402Y-99880153D01*
X159421223Y-99863677D01*
X159404747Y-99845498D01*
X159390133Y-99825793D01*
X159377520Y-99804749D01*
X159367030Y-99782571D01*
X159358765Y-99759471D01*
X159352804Y-99735673D01*
X159349204Y-99711404D01*
X159348000Y-99686900D01*
X159348000Y-98936900D01*
X159349204Y-98912396D01*
X159352804Y-98888127D01*
X159358765Y-98864329D01*
X159367030Y-98841229D01*
X159377520Y-98819051D01*
X159390133Y-98798007D01*
X159404747Y-98778302D01*
X159421223Y-98760123D01*
X159439402Y-98743647D01*
X159459107Y-98729033D01*
X159480151Y-98716420D01*
X159502329Y-98705930D01*
X159525429Y-98697665D01*
X159549227Y-98691704D01*
X159573496Y-98688104D01*
X159598000Y-98686900D01*
X160848000Y-98686900D01*
X160872504Y-98688104D01*
X160872504Y-98688104D01*
G37*
D11*
G04 #@! TD*
G04 #@! TO.P,C1,2*
G04 #@! TO.N,GND*
X160223000Y-99311900D03*
D10*
G04 #@! TO.N,GND*
G04 #@! TO.C,C2*
G36*
X178340504Y-98688104D02*
X178364773Y-98691704D01*
X178388571Y-98697665D01*
X178411671Y-98705930D01*
X178433849Y-98716420D01*
X178454893Y-98729033D01*
X178474598Y-98743647D01*
X178492777Y-98760123D01*
X178509253Y-98778302D01*
X178523867Y-98798007D01*
X178536480Y-98819051D01*
X178546970Y-98841229D01*
X178555235Y-98864329D01*
X178561196Y-98888127D01*
X178564796Y-98912396D01*
X178566000Y-98936900D01*
X178566000Y-99686900D01*
X178564796Y-99711404D01*
X178561196Y-99735673D01*
X178555235Y-99759471D01*
X178546970Y-99782571D01*
X178536480Y-99804749D01*
X178523867Y-99825793D01*
X178509253Y-99845498D01*
X178492777Y-99863677D01*
X178474598Y-99880153D01*
X178454893Y-99894767D01*
X178433849Y-99907380D01*
X178411671Y-99917870D01*
X178388571Y-99926135D01*
X178364773Y-99932096D01*
X178340504Y-99935696D01*
X178316000Y-99936900D01*
X177066000Y-99936900D01*
X177041496Y-99935696D01*
X177017227Y-99932096D01*
X176993429Y-99926135D01*
X176970329Y-99917870D01*
X176948151Y-99907380D01*
X176927107Y-99894767D01*
X176907402Y-99880153D01*
X176889223Y-99863677D01*
X176872747Y-99845498D01*
X176858133Y-99825793D01*
X176845520Y-99804749D01*
X176835030Y-99782571D01*
X176826765Y-99759471D01*
X176820804Y-99735673D01*
X176817204Y-99711404D01*
X176816000Y-99686900D01*
X176816000Y-98936900D01*
X176817204Y-98912396D01*
X176820804Y-98888127D01*
X176826765Y-98864329D01*
X176835030Y-98841229D01*
X176845520Y-98819051D01*
X176858133Y-98798007D01*
X176872747Y-98778302D01*
X176889223Y-98760123D01*
X176907402Y-98743647D01*
X176927107Y-98729033D01*
X176948151Y-98716420D01*
X176970329Y-98705930D01*
X176993429Y-98697665D01*
X177017227Y-98691704D01*
X177041496Y-98688104D01*
X177066000Y-98686900D01*
X178316000Y-98686900D01*
X178340504Y-98688104D01*
X178340504Y-98688104D01*
G37*
D11*
G04 #@! TD*
G04 #@! TO.P,C2,2*
G04 #@! TO.N,GND*
X177691000Y-99311900D03*
D10*
G04 #@! TO.N,/CY02*
G04 #@! TO.C,C2*
G36*
X178340504Y-95888104D02*
X178364773Y-95891704D01*
X178388571Y-95897665D01*
X178411671Y-95905930D01*
X178433849Y-95916420D01*
X178454893Y-95929033D01*
X178474598Y-95943647D01*
X178492777Y-95960123D01*
X178509253Y-95978302D01*
X178523867Y-95998007D01*
X178536480Y-96019051D01*
X178546970Y-96041229D01*
X178555235Y-96064329D01*
X178561196Y-96088127D01*
X178564796Y-96112396D01*
X178566000Y-96136900D01*
X178566000Y-96886900D01*
X178564796Y-96911404D01*
X178561196Y-96935673D01*
X178555235Y-96959471D01*
X178546970Y-96982571D01*
X178536480Y-97004749D01*
X178523867Y-97025793D01*
X178509253Y-97045498D01*
X178492777Y-97063677D01*
X178474598Y-97080153D01*
X178454893Y-97094767D01*
X178433849Y-97107380D01*
X178411671Y-97117870D01*
X178388571Y-97126135D01*
X178364773Y-97132096D01*
X178340504Y-97135696D01*
X178316000Y-97136900D01*
X177066000Y-97136900D01*
X177041496Y-97135696D01*
X177017227Y-97132096D01*
X176993429Y-97126135D01*
X176970329Y-97117870D01*
X176948151Y-97107380D01*
X176927107Y-97094767D01*
X176907402Y-97080153D01*
X176889223Y-97063677D01*
X176872747Y-97045498D01*
X176858133Y-97025793D01*
X176845520Y-97004749D01*
X176835030Y-96982571D01*
X176826765Y-96959471D01*
X176820804Y-96935673D01*
X176817204Y-96911404D01*
X176816000Y-96886900D01*
X176816000Y-96136900D01*
X176817204Y-96112396D01*
X176820804Y-96088127D01*
X176826765Y-96064329D01*
X176835030Y-96041229D01*
X176845520Y-96019051D01*
X176858133Y-95998007D01*
X176872747Y-95978302D01*
X176889223Y-95960123D01*
X176907402Y-95943647D01*
X176927107Y-95929033D01*
X176948151Y-95916420D01*
X176970329Y-95905930D01*
X176993429Y-95897665D01*
X177017227Y-95891704D01*
X177041496Y-95888104D01*
X177066000Y-95886900D01*
X178316000Y-95886900D01*
X178340504Y-95888104D01*
X178340504Y-95888104D01*
G37*
D11*
G04 #@! TD*
G04 #@! TO.P,C2,1*
G04 #@! TO.N,/CY02*
X177691000Y-96511900D03*
D17*
G04 #@! TO.P,C3,1*
G04 #@! TO.N,+5V*
X166158000Y-103886000D03*
G04 #@! TO.P,C3,2*
G04 #@! TO.N,/Reset*
X162558000Y-103886000D03*
G04 #@! TD*
D10*
G04 #@! TO.N,/13(SCK)*
G04 #@! TO.C,D1*
G36*
X166665504Y-118074204D02*
X166689773Y-118077804D01*
X166713571Y-118083765D01*
X166736671Y-118092030D01*
X166758849Y-118102520D01*
X166779893Y-118115133D01*
X166799598Y-118129747D01*
X166817777Y-118146223D01*
X166834253Y-118164402D01*
X166848867Y-118184107D01*
X166861480Y-118205151D01*
X166871970Y-118227329D01*
X166880235Y-118250429D01*
X166886196Y-118274227D01*
X166889796Y-118298496D01*
X166891000Y-118323000D01*
X166891000Y-119573000D01*
X166889796Y-119597504D01*
X166886196Y-119621773D01*
X166880235Y-119645571D01*
X166871970Y-119668671D01*
X166861480Y-119690849D01*
X166848867Y-119711893D01*
X166834253Y-119731598D01*
X166817777Y-119749777D01*
X166799598Y-119766253D01*
X166779893Y-119780867D01*
X166758849Y-119793480D01*
X166736671Y-119803970D01*
X166713571Y-119812235D01*
X166689773Y-119818196D01*
X166665504Y-119821796D01*
X166641000Y-119823000D01*
X165891000Y-119823000D01*
X165866496Y-119821796D01*
X165842227Y-119818196D01*
X165818429Y-119812235D01*
X165795329Y-119803970D01*
X165773151Y-119793480D01*
X165752107Y-119780867D01*
X165732402Y-119766253D01*
X165714223Y-119749777D01*
X165697747Y-119731598D01*
X165683133Y-119711893D01*
X165670520Y-119690849D01*
X165660030Y-119668671D01*
X165651765Y-119645571D01*
X165645804Y-119621773D01*
X165642204Y-119597504D01*
X165641000Y-119573000D01*
X165641000Y-118323000D01*
X165642204Y-118298496D01*
X165645804Y-118274227D01*
X165651765Y-118250429D01*
X165660030Y-118227329D01*
X165670520Y-118205151D01*
X165683133Y-118184107D01*
X165697747Y-118164402D01*
X165714223Y-118146223D01*
X165732402Y-118129747D01*
X165752107Y-118115133D01*
X165773151Y-118102520D01*
X165795329Y-118092030D01*
X165818429Y-118083765D01*
X165842227Y-118077804D01*
X165866496Y-118074204D01*
X165891000Y-118073000D01*
X166641000Y-118073000D01*
X166665504Y-118074204D01*
X166665504Y-118074204D01*
G37*
D11*
G04 #@! TD*
G04 #@! TO.P,D1,2*
G04 #@! TO.N,/13(SCK)*
X166266000Y-118948000D03*
D10*
G04 #@! TO.N,Net-(D1-Pad1)*
G04 #@! TO.C,D1*
G36*
X163865504Y-118074204D02*
X163889773Y-118077804D01*
X163913571Y-118083765D01*
X163936671Y-118092030D01*
X163958849Y-118102520D01*
X163979893Y-118115133D01*
X163999598Y-118129747D01*
X164017777Y-118146223D01*
X164034253Y-118164402D01*
X164048867Y-118184107D01*
X164061480Y-118205151D01*
X164071970Y-118227329D01*
X164080235Y-118250429D01*
X164086196Y-118274227D01*
X164089796Y-118298496D01*
X164091000Y-118323000D01*
X164091000Y-119573000D01*
X164089796Y-119597504D01*
X164086196Y-119621773D01*
X164080235Y-119645571D01*
X164071970Y-119668671D01*
X164061480Y-119690849D01*
X164048867Y-119711893D01*
X164034253Y-119731598D01*
X164017777Y-119749777D01*
X163999598Y-119766253D01*
X163979893Y-119780867D01*
X163958849Y-119793480D01*
X163936671Y-119803970D01*
X163913571Y-119812235D01*
X163889773Y-119818196D01*
X163865504Y-119821796D01*
X163841000Y-119823000D01*
X163091000Y-119823000D01*
X163066496Y-119821796D01*
X163042227Y-119818196D01*
X163018429Y-119812235D01*
X162995329Y-119803970D01*
X162973151Y-119793480D01*
X162952107Y-119780867D01*
X162932402Y-119766253D01*
X162914223Y-119749777D01*
X162897747Y-119731598D01*
X162883133Y-119711893D01*
X162870520Y-119690849D01*
X162860030Y-119668671D01*
X162851765Y-119645571D01*
X162845804Y-119621773D01*
X162842204Y-119597504D01*
X162841000Y-119573000D01*
X162841000Y-118323000D01*
X162842204Y-118298496D01*
X162845804Y-118274227D01*
X162851765Y-118250429D01*
X162860030Y-118227329D01*
X162870520Y-118205151D01*
X162883133Y-118184107D01*
X162897747Y-118164402D01*
X162914223Y-118146223D01*
X162932402Y-118129747D01*
X162952107Y-118115133D01*
X162973151Y-118102520D01*
X162995329Y-118092030D01*
X163018429Y-118083765D01*
X163042227Y-118077804D01*
X163066496Y-118074204D01*
X163091000Y-118073000D01*
X163841000Y-118073000D01*
X163865504Y-118074204D01*
X163865504Y-118074204D01*
G37*
D11*
G04 #@! TD*
G04 #@! TO.P,D1,1*
G04 #@! TO.N,Net-(D1-Pad1)*
X163466000Y-118948000D03*
D10*
G04 #@! TO.N,Net-(D2-Pad1)*
G04 #@! TO.C,D2*
G36*
X158189504Y-118138204D02*
X158213773Y-118141804D01*
X158237571Y-118147765D01*
X158260671Y-118156030D01*
X158282849Y-118166520D01*
X158303893Y-118179133D01*
X158323598Y-118193747D01*
X158341777Y-118210223D01*
X158358253Y-118228402D01*
X158372867Y-118248107D01*
X158385480Y-118269151D01*
X158395970Y-118291329D01*
X158404235Y-118314429D01*
X158410196Y-118338227D01*
X158413796Y-118362496D01*
X158415000Y-118387000D01*
X158415000Y-119637000D01*
X158413796Y-119661504D01*
X158410196Y-119685773D01*
X158404235Y-119709571D01*
X158395970Y-119732671D01*
X158385480Y-119754849D01*
X158372867Y-119775893D01*
X158358253Y-119795598D01*
X158341777Y-119813777D01*
X158323598Y-119830253D01*
X158303893Y-119844867D01*
X158282849Y-119857480D01*
X158260671Y-119867970D01*
X158237571Y-119876235D01*
X158213773Y-119882196D01*
X158189504Y-119885796D01*
X158165000Y-119887000D01*
X157415000Y-119887000D01*
X157390496Y-119885796D01*
X157366227Y-119882196D01*
X157342429Y-119876235D01*
X157319329Y-119867970D01*
X157297151Y-119857480D01*
X157276107Y-119844867D01*
X157256402Y-119830253D01*
X157238223Y-119813777D01*
X157221747Y-119795598D01*
X157207133Y-119775893D01*
X157194520Y-119754849D01*
X157184030Y-119732671D01*
X157175765Y-119709571D01*
X157169804Y-119685773D01*
X157166204Y-119661504D01*
X157165000Y-119637000D01*
X157165000Y-118387000D01*
X157166204Y-118362496D01*
X157169804Y-118338227D01*
X157175765Y-118314429D01*
X157184030Y-118291329D01*
X157194520Y-118269151D01*
X157207133Y-118248107D01*
X157221747Y-118228402D01*
X157238223Y-118210223D01*
X157256402Y-118193747D01*
X157276107Y-118179133D01*
X157297151Y-118166520D01*
X157319329Y-118156030D01*
X157342429Y-118147765D01*
X157366227Y-118141804D01*
X157390496Y-118138204D01*
X157415000Y-118137000D01*
X158165000Y-118137000D01*
X158189504Y-118138204D01*
X158189504Y-118138204D01*
G37*
D11*
G04 #@! TD*
G04 #@! TO.P,D2,1*
G04 #@! TO.N,Net-(D2-Pad1)*
X157790000Y-119012000D03*
D10*
G04 #@! TO.N,/7*
G04 #@! TO.C,D2*
G36*
X160989504Y-118138204D02*
X161013773Y-118141804D01*
X161037571Y-118147765D01*
X161060671Y-118156030D01*
X161082849Y-118166520D01*
X161103893Y-118179133D01*
X161123598Y-118193747D01*
X161141777Y-118210223D01*
X161158253Y-118228402D01*
X161172867Y-118248107D01*
X161185480Y-118269151D01*
X161195970Y-118291329D01*
X161204235Y-118314429D01*
X161210196Y-118338227D01*
X161213796Y-118362496D01*
X161215000Y-118387000D01*
X161215000Y-119637000D01*
X161213796Y-119661504D01*
X161210196Y-119685773D01*
X161204235Y-119709571D01*
X161195970Y-119732671D01*
X161185480Y-119754849D01*
X161172867Y-119775893D01*
X161158253Y-119795598D01*
X161141777Y-119813777D01*
X161123598Y-119830253D01*
X161103893Y-119844867D01*
X161082849Y-119857480D01*
X161060671Y-119867970D01*
X161037571Y-119876235D01*
X161013773Y-119882196D01*
X160989504Y-119885796D01*
X160965000Y-119887000D01*
X160215000Y-119887000D01*
X160190496Y-119885796D01*
X160166227Y-119882196D01*
X160142429Y-119876235D01*
X160119329Y-119867970D01*
X160097151Y-119857480D01*
X160076107Y-119844867D01*
X160056402Y-119830253D01*
X160038223Y-119813777D01*
X160021747Y-119795598D01*
X160007133Y-119775893D01*
X159994520Y-119754849D01*
X159984030Y-119732671D01*
X159975765Y-119709571D01*
X159969804Y-119685773D01*
X159966204Y-119661504D01*
X159965000Y-119637000D01*
X159965000Y-118387000D01*
X159966204Y-118362496D01*
X159969804Y-118338227D01*
X159975765Y-118314429D01*
X159984030Y-118291329D01*
X159994520Y-118269151D01*
X160007133Y-118248107D01*
X160021747Y-118228402D01*
X160038223Y-118210223D01*
X160056402Y-118193747D01*
X160076107Y-118179133D01*
X160097151Y-118166520D01*
X160119329Y-118156030D01*
X160142429Y-118147765D01*
X160166227Y-118141804D01*
X160190496Y-118138204D01*
X160215000Y-118137000D01*
X160965000Y-118137000D01*
X160989504Y-118138204D01*
X160989504Y-118138204D01*
G37*
D11*
G04 #@! TD*
G04 #@! TO.P,D2,2*
G04 #@! TO.N,/7*
X160590000Y-119012000D03*
D10*
G04 #@! TO.N,Net-(D3-Pad1)*
G04 #@! TO.C,D3*
G36*
X152513504Y-118201204D02*
X152537773Y-118204804D01*
X152561571Y-118210765D01*
X152584671Y-118219030D01*
X152606849Y-118229520D01*
X152627893Y-118242133D01*
X152647598Y-118256747D01*
X152665777Y-118273223D01*
X152682253Y-118291402D01*
X152696867Y-118311107D01*
X152709480Y-118332151D01*
X152719970Y-118354329D01*
X152728235Y-118377429D01*
X152734196Y-118401227D01*
X152737796Y-118425496D01*
X152739000Y-118450000D01*
X152739000Y-119700000D01*
X152737796Y-119724504D01*
X152734196Y-119748773D01*
X152728235Y-119772571D01*
X152719970Y-119795671D01*
X152709480Y-119817849D01*
X152696867Y-119838893D01*
X152682253Y-119858598D01*
X152665777Y-119876777D01*
X152647598Y-119893253D01*
X152627893Y-119907867D01*
X152606849Y-119920480D01*
X152584671Y-119930970D01*
X152561571Y-119939235D01*
X152537773Y-119945196D01*
X152513504Y-119948796D01*
X152489000Y-119950000D01*
X151739000Y-119950000D01*
X151714496Y-119948796D01*
X151690227Y-119945196D01*
X151666429Y-119939235D01*
X151643329Y-119930970D01*
X151621151Y-119920480D01*
X151600107Y-119907867D01*
X151580402Y-119893253D01*
X151562223Y-119876777D01*
X151545747Y-119858598D01*
X151531133Y-119838893D01*
X151518520Y-119817849D01*
X151508030Y-119795671D01*
X151499765Y-119772571D01*
X151493804Y-119748773D01*
X151490204Y-119724504D01*
X151489000Y-119700000D01*
X151489000Y-118450000D01*
X151490204Y-118425496D01*
X151493804Y-118401227D01*
X151499765Y-118377429D01*
X151508030Y-118354329D01*
X151518520Y-118332151D01*
X151531133Y-118311107D01*
X151545747Y-118291402D01*
X151562223Y-118273223D01*
X151580402Y-118256747D01*
X151600107Y-118242133D01*
X151621151Y-118229520D01*
X151643329Y-118219030D01*
X151666429Y-118210765D01*
X151690227Y-118204804D01*
X151714496Y-118201204D01*
X151739000Y-118200000D01*
X152489000Y-118200000D01*
X152513504Y-118201204D01*
X152513504Y-118201204D01*
G37*
D11*
G04 #@! TD*
G04 #@! TO.P,D3,1*
G04 #@! TO.N,Net-(D3-Pad1)*
X152114000Y-119075000D03*
D10*
G04 #@! TO.N,/8*
G04 #@! TO.C,D3*
G36*
X155313504Y-118201204D02*
X155337773Y-118204804D01*
X155361571Y-118210765D01*
X155384671Y-118219030D01*
X155406849Y-118229520D01*
X155427893Y-118242133D01*
X155447598Y-118256747D01*
X155465777Y-118273223D01*
X155482253Y-118291402D01*
X155496867Y-118311107D01*
X155509480Y-118332151D01*
X155519970Y-118354329D01*
X155528235Y-118377429D01*
X155534196Y-118401227D01*
X155537796Y-118425496D01*
X155539000Y-118450000D01*
X155539000Y-119700000D01*
X155537796Y-119724504D01*
X155534196Y-119748773D01*
X155528235Y-119772571D01*
X155519970Y-119795671D01*
X155509480Y-119817849D01*
X155496867Y-119838893D01*
X155482253Y-119858598D01*
X155465777Y-119876777D01*
X155447598Y-119893253D01*
X155427893Y-119907867D01*
X155406849Y-119920480D01*
X155384671Y-119930970D01*
X155361571Y-119939235D01*
X155337773Y-119945196D01*
X155313504Y-119948796D01*
X155289000Y-119950000D01*
X154539000Y-119950000D01*
X154514496Y-119948796D01*
X154490227Y-119945196D01*
X154466429Y-119939235D01*
X154443329Y-119930970D01*
X154421151Y-119920480D01*
X154400107Y-119907867D01*
X154380402Y-119893253D01*
X154362223Y-119876777D01*
X154345747Y-119858598D01*
X154331133Y-119838893D01*
X154318520Y-119817849D01*
X154308030Y-119795671D01*
X154299765Y-119772571D01*
X154293804Y-119748773D01*
X154290204Y-119724504D01*
X154289000Y-119700000D01*
X154289000Y-118450000D01*
X154290204Y-118425496D01*
X154293804Y-118401227D01*
X154299765Y-118377429D01*
X154308030Y-118354329D01*
X154318520Y-118332151D01*
X154331133Y-118311107D01*
X154345747Y-118291402D01*
X154362223Y-118273223D01*
X154380402Y-118256747D01*
X154400107Y-118242133D01*
X154421151Y-118229520D01*
X154443329Y-118219030D01*
X154466429Y-118210765D01*
X154490227Y-118204804D01*
X154514496Y-118201204D01*
X154539000Y-118200000D01*
X155289000Y-118200000D01*
X155313504Y-118201204D01*
X155313504Y-118201204D01*
G37*
D11*
G04 #@! TD*
G04 #@! TO.P,D3,2*
G04 #@! TO.N,/8*
X154914000Y-119075000D03*
D18*
G04 #@! TO.P,J5,1*
G04 #@! TO.N,/85_RST*
X136520000Y-90612000D03*
D19*
G04 #@! TO.P,J5,15*
G04 #@! TO.N,Net-(J5-Pad15)*
X169540000Y-82992000D03*
G04 #@! TO.P,J5,2*
G04 #@! TO.N,/7*
X139060000Y-90612000D03*
G04 #@! TO.P,J5,16*
G04 #@! TO.N,Net-(J5-Pad16)*
X167000000Y-82992000D03*
G04 #@! TO.P,J5,3*
G04 #@! TO.N,Net-(J5-Pad3)*
X141600000Y-90612000D03*
G04 #@! TO.P,J5,17*
G04 #@! TO.N,/329_MOSI*
X164460000Y-82992000D03*
G04 #@! TO.P,J5,4*
G04 #@! TO.N,/85_GND*
X144140000Y-90612000D03*
G04 #@! TO.P,J5,18*
G04 #@! TO.N,/329_MISO*
X161920000Y-82992000D03*
G04 #@! TO.P,J5,5*
G04 #@! TO.N,/7*
X146680000Y-90612000D03*
G04 #@! TO.P,J5,19*
G04 #@! TO.N,/329_SCK*
X159380000Y-82992000D03*
G04 #@! TO.P,J5,6*
G04 #@! TO.N,Net-(J5-Pad6)*
X149220000Y-90612000D03*
G04 #@! TO.P,J5,20*
G04 #@! TO.N,Net-(J5-Pad20)*
X156840000Y-82992000D03*
G04 #@! TO.P,J5,7*
G04 #@! TO.N,/84_MOSI*
X151760000Y-90612000D03*
G04 #@! TO.P,J5,21*
G04 #@! TO.N,Net-(J5-Pad21)*
X154300000Y-82992000D03*
G04 #@! TO.P,J5,8*
G04 #@! TO.N,/84_MISO*
X154300000Y-90612000D03*
G04 #@! TO.P,J5,22*
X151760000Y-82992000D03*
G04 #@! TO.P,J5,9*
G04 #@! TO.N,/CY01*
X156840000Y-90612000D03*
G04 #@! TO.P,J5,23*
G04 #@! TO.N,/84_SCK*
X149220000Y-82992000D03*
G04 #@! TO.P,J5,10*
G04 #@! TO.N,/CY02*
X159380000Y-90612000D03*
G04 #@! TO.P,J5,24*
G04 #@! TO.N,/7*
X146680000Y-82992000D03*
G04 #@! TO.P,J5,11*
G04 #@! TO.N,Net-(J5-Pad11)*
X161920000Y-90612000D03*
G04 #@! TO.P,J5,25*
G04 #@! TO.N,/85_MOSI*
X144140000Y-82992000D03*
G04 #@! TO.P,J5,12*
G04 #@! TO.N,Net-(J5-Pad12)*
X164460000Y-90612000D03*
G04 #@! TO.P,J5,26*
G04 #@! TO.N,/85_MISO*
X141600000Y-82992000D03*
G04 #@! TO.P,J5,13*
G04 #@! TO.N,Net-(J5-Pad13)*
X167000000Y-90612000D03*
G04 #@! TO.P,J5,27*
G04 #@! TO.N,/85_SCK*
X139060000Y-82992000D03*
G04 #@! TO.P,J5,14*
G04 #@! TO.N,Net-(J5-Pad14)*
X169540000Y-90612000D03*
G04 #@! TO.P,J5,28*
G04 #@! TO.N,/85_VCC*
X136520000Y-82992000D03*
G04 #@! TD*
D13*
G04 #@! TO.P,J6,1*
G04 #@! TO.N,/12(MISO)*
X171478000Y-116683000D03*
D12*
G04 #@! TO.P,J6,2*
G04 #@! TO.N,/13(SCK)*
X174018000Y-116683000D03*
G04 #@! TO.P,J6,3*
G04 #@! TO.N,/10(\002A\002A/SS)*
X171478000Y-119223000D03*
G04 #@! TO.P,J6,4*
G04 #@! TO.N,/11(\002A\002A/MOSI)*
X174018000Y-119223000D03*
G04 #@! TD*
D10*
G04 #@! TO.N,GND*
G04 #@! TO.C,R1*
G36*
X160936504Y-107718204D02*
X160960773Y-107721804D01*
X160984571Y-107727765D01*
X161007671Y-107736030D01*
X161029849Y-107746520D01*
X161050893Y-107759133D01*
X161070598Y-107773747D01*
X161088777Y-107790223D01*
X161105253Y-107808402D01*
X161119867Y-107828107D01*
X161132480Y-107849151D01*
X161142970Y-107871329D01*
X161151235Y-107894429D01*
X161157196Y-107918227D01*
X161160796Y-107942496D01*
X161162000Y-107967000D01*
X161162000Y-108717000D01*
X161160796Y-108741504D01*
X161157196Y-108765773D01*
X161151235Y-108789571D01*
X161142970Y-108812671D01*
X161132480Y-108834849D01*
X161119867Y-108855893D01*
X161105253Y-108875598D01*
X161088777Y-108893777D01*
X161070598Y-108910253D01*
X161050893Y-108924867D01*
X161029849Y-108937480D01*
X161007671Y-108947970D01*
X160984571Y-108956235D01*
X160960773Y-108962196D01*
X160936504Y-108965796D01*
X160912000Y-108967000D01*
X159662000Y-108967000D01*
X159637496Y-108965796D01*
X159613227Y-108962196D01*
X159589429Y-108956235D01*
X159566329Y-108947970D01*
X159544151Y-108937480D01*
X159523107Y-108924867D01*
X159503402Y-108910253D01*
X159485223Y-108893777D01*
X159468747Y-108875598D01*
X159454133Y-108855893D01*
X159441520Y-108834849D01*
X159431030Y-108812671D01*
X159422765Y-108789571D01*
X159416804Y-108765773D01*
X159413204Y-108741504D01*
X159412000Y-108717000D01*
X159412000Y-107967000D01*
X159413204Y-107942496D01*
X159416804Y-107918227D01*
X159422765Y-107894429D01*
X159431030Y-107871329D01*
X159441520Y-107849151D01*
X159454133Y-107828107D01*
X159468747Y-107808402D01*
X159485223Y-107790223D01*
X159503402Y-107773747D01*
X159523107Y-107759133D01*
X159544151Y-107746520D01*
X159566329Y-107736030D01*
X159589429Y-107727765D01*
X159613227Y-107721804D01*
X159637496Y-107718204D01*
X159662000Y-107717000D01*
X160912000Y-107717000D01*
X160936504Y-107718204D01*
X160936504Y-107718204D01*
G37*
D11*
G04 #@! TD*
G04 #@! TO.P,R1,1*
G04 #@! TO.N,GND*
X160287000Y-108342000D03*
D10*
G04 #@! TO.N,Net-(D1-Pad1)*
G04 #@! TO.C,R1*
G36*
X160936504Y-110518204D02*
X160960773Y-110521804D01*
X160984571Y-110527765D01*
X161007671Y-110536030D01*
X161029849Y-110546520D01*
X161050893Y-110559133D01*
X161070598Y-110573747D01*
X161088777Y-110590223D01*
X161105253Y-110608402D01*
X161119867Y-110628107D01*
X161132480Y-110649151D01*
X161142970Y-110671329D01*
X161151235Y-110694429D01*
X161157196Y-110718227D01*
X161160796Y-110742496D01*
X161162000Y-110767000D01*
X161162000Y-111517000D01*
X161160796Y-111541504D01*
X161157196Y-111565773D01*
X161151235Y-111589571D01*
X161142970Y-111612671D01*
X161132480Y-111634849D01*
X161119867Y-111655893D01*
X161105253Y-111675598D01*
X161088777Y-111693777D01*
X161070598Y-111710253D01*
X161050893Y-111724867D01*
X161029849Y-111737480D01*
X161007671Y-111747970D01*
X160984571Y-111756235D01*
X160960773Y-111762196D01*
X160936504Y-111765796D01*
X160912000Y-111767000D01*
X159662000Y-111767000D01*
X159637496Y-111765796D01*
X159613227Y-111762196D01*
X159589429Y-111756235D01*
X159566329Y-111747970D01*
X159544151Y-111737480D01*
X159523107Y-111724867D01*
X159503402Y-111710253D01*
X159485223Y-111693777D01*
X159468747Y-111675598D01*
X159454133Y-111655893D01*
X159441520Y-111634849D01*
X159431030Y-111612671D01*
X159422765Y-111589571D01*
X159416804Y-111565773D01*
X159413204Y-111541504D01*
X159412000Y-111517000D01*
X159412000Y-110767000D01*
X159413204Y-110742496D01*
X159416804Y-110718227D01*
X159422765Y-110694429D01*
X159431030Y-110671329D01*
X159441520Y-110649151D01*
X159454133Y-110628107D01*
X159468747Y-110608402D01*
X159485223Y-110590223D01*
X159503402Y-110573747D01*
X159523107Y-110559133D01*
X159544151Y-110546520D01*
X159566329Y-110536030D01*
X159589429Y-110527765D01*
X159613227Y-110521804D01*
X159637496Y-110518204D01*
X159662000Y-110517000D01*
X160912000Y-110517000D01*
X160936504Y-110518204D01*
X160936504Y-110518204D01*
G37*
D11*
G04 #@! TD*
G04 #@! TO.P,R1,2*
G04 #@! TO.N,Net-(D1-Pad1)*
X160287000Y-111142000D03*
D10*
G04 #@! TO.N,Net-(D2-Pad1)*
G04 #@! TO.C,R2*
G36*
X164381504Y-110518204D02*
X164405773Y-110521804D01*
X164429571Y-110527765D01*
X164452671Y-110536030D01*
X164474849Y-110546520D01*
X164495893Y-110559133D01*
X164515598Y-110573747D01*
X164533777Y-110590223D01*
X164550253Y-110608402D01*
X164564867Y-110628107D01*
X164577480Y-110649151D01*
X164587970Y-110671329D01*
X164596235Y-110694429D01*
X164602196Y-110718227D01*
X164605796Y-110742496D01*
X164607000Y-110767000D01*
X164607000Y-111517000D01*
X164605796Y-111541504D01*
X164602196Y-111565773D01*
X164596235Y-111589571D01*
X164587970Y-111612671D01*
X164577480Y-111634849D01*
X164564867Y-111655893D01*
X164550253Y-111675598D01*
X164533777Y-111693777D01*
X164515598Y-111710253D01*
X164495893Y-111724867D01*
X164474849Y-111737480D01*
X164452671Y-111747970D01*
X164429571Y-111756235D01*
X164405773Y-111762196D01*
X164381504Y-111765796D01*
X164357000Y-111767000D01*
X163107000Y-111767000D01*
X163082496Y-111765796D01*
X163058227Y-111762196D01*
X163034429Y-111756235D01*
X163011329Y-111747970D01*
X162989151Y-111737480D01*
X162968107Y-111724867D01*
X162948402Y-111710253D01*
X162930223Y-111693777D01*
X162913747Y-111675598D01*
X162899133Y-111655893D01*
X162886520Y-111634849D01*
X162876030Y-111612671D01*
X162867765Y-111589571D01*
X162861804Y-111565773D01*
X162858204Y-111541504D01*
X162857000Y-111517000D01*
X162857000Y-110767000D01*
X162858204Y-110742496D01*
X162861804Y-110718227D01*
X162867765Y-110694429D01*
X162876030Y-110671329D01*
X162886520Y-110649151D01*
X162899133Y-110628107D01*
X162913747Y-110608402D01*
X162930223Y-110590223D01*
X162948402Y-110573747D01*
X162968107Y-110559133D01*
X162989151Y-110546520D01*
X163011329Y-110536030D01*
X163034429Y-110527765D01*
X163058227Y-110521804D01*
X163082496Y-110518204D01*
X163107000Y-110517000D01*
X164357000Y-110517000D01*
X164381504Y-110518204D01*
X164381504Y-110518204D01*
G37*
D11*
G04 #@! TD*
G04 #@! TO.P,R2,2*
G04 #@! TO.N,Net-(D2-Pad1)*
X163732000Y-111142000D03*
D10*
G04 #@! TO.N,GND*
G04 #@! TO.C,R2*
G36*
X164381504Y-107718204D02*
X164405773Y-107721804D01*
X164429571Y-107727765D01*
X164452671Y-107736030D01*
X164474849Y-107746520D01*
X164495893Y-107759133D01*
X164515598Y-107773747D01*
X164533777Y-107790223D01*
X164550253Y-107808402D01*
X164564867Y-107828107D01*
X164577480Y-107849151D01*
X164587970Y-107871329D01*
X164596235Y-107894429D01*
X164602196Y-107918227D01*
X164605796Y-107942496D01*
X164607000Y-107967000D01*
X164607000Y-108717000D01*
X164605796Y-108741504D01*
X164602196Y-108765773D01*
X164596235Y-108789571D01*
X164587970Y-108812671D01*
X164577480Y-108834849D01*
X164564867Y-108855893D01*
X164550253Y-108875598D01*
X164533777Y-108893777D01*
X164515598Y-108910253D01*
X164495893Y-108924867D01*
X164474849Y-108937480D01*
X164452671Y-108947970D01*
X164429571Y-108956235D01*
X164405773Y-108962196D01*
X164381504Y-108965796D01*
X164357000Y-108967000D01*
X163107000Y-108967000D01*
X163082496Y-108965796D01*
X163058227Y-108962196D01*
X163034429Y-108956235D01*
X163011329Y-108947970D01*
X162989151Y-108937480D01*
X162968107Y-108924867D01*
X162948402Y-108910253D01*
X162930223Y-108893777D01*
X162913747Y-108875598D01*
X162899133Y-108855893D01*
X162886520Y-108834849D01*
X162876030Y-108812671D01*
X162867765Y-108789571D01*
X162861804Y-108765773D01*
X162858204Y-108741504D01*
X162857000Y-108717000D01*
X162857000Y-107967000D01*
X162858204Y-107942496D01*
X162861804Y-107918227D01*
X162867765Y-107894429D01*
X162876030Y-107871329D01*
X162886520Y-107849151D01*
X162899133Y-107828107D01*
X162913747Y-107808402D01*
X162930223Y-107790223D01*
X162948402Y-107773747D01*
X162968107Y-107759133D01*
X162989151Y-107746520D01*
X163011329Y-107736030D01*
X163034429Y-107727765D01*
X163058227Y-107721804D01*
X163082496Y-107718204D01*
X163107000Y-107717000D01*
X164357000Y-107717000D01*
X164381504Y-107718204D01*
X164381504Y-107718204D01*
G37*
D11*
G04 #@! TD*
G04 #@! TO.P,R2,1*
G04 #@! TO.N,GND*
X163732000Y-108342000D03*
D10*
G04 #@! TO.N,GND*
G04 #@! TO.C,R3*
G36*
X167827504Y-107718204D02*
X167851773Y-107721804D01*
X167875571Y-107727765D01*
X167898671Y-107736030D01*
X167920849Y-107746520D01*
X167941893Y-107759133D01*
X167961598Y-107773747D01*
X167979777Y-107790223D01*
X167996253Y-107808402D01*
X168010867Y-107828107D01*
X168023480Y-107849151D01*
X168033970Y-107871329D01*
X168042235Y-107894429D01*
X168048196Y-107918227D01*
X168051796Y-107942496D01*
X168053000Y-107967000D01*
X168053000Y-108717000D01*
X168051796Y-108741504D01*
X168048196Y-108765773D01*
X168042235Y-108789571D01*
X168033970Y-108812671D01*
X168023480Y-108834849D01*
X168010867Y-108855893D01*
X167996253Y-108875598D01*
X167979777Y-108893777D01*
X167961598Y-108910253D01*
X167941893Y-108924867D01*
X167920849Y-108937480D01*
X167898671Y-108947970D01*
X167875571Y-108956235D01*
X167851773Y-108962196D01*
X167827504Y-108965796D01*
X167803000Y-108967000D01*
X166553000Y-108967000D01*
X166528496Y-108965796D01*
X166504227Y-108962196D01*
X166480429Y-108956235D01*
X166457329Y-108947970D01*
X166435151Y-108937480D01*
X166414107Y-108924867D01*
X166394402Y-108910253D01*
X166376223Y-108893777D01*
X166359747Y-108875598D01*
X166345133Y-108855893D01*
X166332520Y-108834849D01*
X166322030Y-108812671D01*
X166313765Y-108789571D01*
X166307804Y-108765773D01*
X166304204Y-108741504D01*
X166303000Y-108717000D01*
X166303000Y-107967000D01*
X166304204Y-107942496D01*
X166307804Y-107918227D01*
X166313765Y-107894429D01*
X166322030Y-107871329D01*
X166332520Y-107849151D01*
X166345133Y-107828107D01*
X166359747Y-107808402D01*
X166376223Y-107790223D01*
X166394402Y-107773747D01*
X166414107Y-107759133D01*
X166435151Y-107746520D01*
X166457329Y-107736030D01*
X166480429Y-107727765D01*
X166504227Y-107721804D01*
X166528496Y-107718204D01*
X166553000Y-107717000D01*
X167803000Y-107717000D01*
X167827504Y-107718204D01*
X167827504Y-107718204D01*
G37*
D11*
G04 #@! TD*
G04 #@! TO.P,R3,1*
G04 #@! TO.N,GND*
X167178000Y-108342000D03*
D10*
G04 #@! TO.N,Net-(D3-Pad1)*
G04 #@! TO.C,R3*
G36*
X167827504Y-110518204D02*
X167851773Y-110521804D01*
X167875571Y-110527765D01*
X167898671Y-110536030D01*
X167920849Y-110546520D01*
X167941893Y-110559133D01*
X167961598Y-110573747D01*
X167979777Y-110590223D01*
X167996253Y-110608402D01*
X168010867Y-110628107D01*
X168023480Y-110649151D01*
X168033970Y-110671329D01*
X168042235Y-110694429D01*
X168048196Y-110718227D01*
X168051796Y-110742496D01*
X168053000Y-110767000D01*
X168053000Y-111517000D01*
X168051796Y-111541504D01*
X168048196Y-111565773D01*
X168042235Y-111589571D01*
X168033970Y-111612671D01*
X168023480Y-111634849D01*
X168010867Y-111655893D01*
X167996253Y-111675598D01*
X167979777Y-111693777D01*
X167961598Y-111710253D01*
X167941893Y-111724867D01*
X167920849Y-111737480D01*
X167898671Y-111747970D01*
X167875571Y-111756235D01*
X167851773Y-111762196D01*
X167827504Y-111765796D01*
X167803000Y-111767000D01*
X166553000Y-111767000D01*
X166528496Y-111765796D01*
X166504227Y-111762196D01*
X166480429Y-111756235D01*
X166457329Y-111747970D01*
X166435151Y-111737480D01*
X166414107Y-111724867D01*
X166394402Y-111710253D01*
X166376223Y-111693777D01*
X166359747Y-111675598D01*
X166345133Y-111655893D01*
X166332520Y-111634849D01*
X166322030Y-111612671D01*
X166313765Y-111589571D01*
X166307804Y-111565773D01*
X166304204Y-111541504D01*
X166303000Y-111517000D01*
X166303000Y-110767000D01*
X166304204Y-110742496D01*
X166307804Y-110718227D01*
X166313765Y-110694429D01*
X166322030Y-110671329D01*
X166332520Y-110649151D01*
X166345133Y-110628107D01*
X166359747Y-110608402D01*
X166376223Y-110590223D01*
X166394402Y-110573747D01*
X166414107Y-110559133D01*
X166435151Y-110546520D01*
X166457329Y-110536030D01*
X166480429Y-110527765D01*
X166504227Y-110521804D01*
X166528496Y-110518204D01*
X166553000Y-110517000D01*
X167803000Y-110517000D01*
X167827504Y-110518204D01*
X167827504Y-110518204D01*
G37*
D11*
G04 #@! TD*
G04 #@! TO.P,R3,2*
G04 #@! TO.N,Net-(D3-Pad1)*
X167178000Y-111142000D03*
D20*
G04 #@! TO.P,Y1,1*
G04 #@! TO.N,/CY01*
X164707000Y-97911900D03*
G04 #@! TO.P,Y1,2*
G04 #@! TO.N,/CY02*
X173207000Y-97911900D03*
G04 #@! TD*
D21*
G04 #@! TO.N,GND*
X144605600Y-118436700D03*
G04 #@! TO.N,/9(\002A\002A)*
X149329000Y-117621000D03*
X147730500Y-104439500D03*
G04 #@! TO.N,/8*
X155017800Y-117696400D03*
X151675000Y-107428900D03*
G04 #@! TO.N,/85_GND*
X135293700Y-109986600D03*
G04 #@! TD*
D22*
G04 #@! TO.N,/Reset*
X144018000Y-122126200D02*
X135783800Y-122126200D01*
X135783800Y-122126200D02*
X134517600Y-120860000D01*
X134517600Y-120860000D02*
X134517600Y-117807700D01*
X134517600Y-117807700D02*
X135743000Y-116582300D01*
X162558000Y-105136300D02*
X161464000Y-105136300D01*
X161464000Y-105136300D02*
X157765300Y-108835000D01*
X157765300Y-108835000D02*
X157765300Y-110572300D01*
X157765300Y-110572300D02*
X150676000Y-117661600D01*
X150676000Y-117661600D02*
X150676000Y-119645200D01*
X150676000Y-119645200D02*
X148195000Y-122126200D01*
X148195000Y-122126200D02*
X144018000Y-122126200D01*
X144018000Y-122524700D02*
X144018000Y-122126200D01*
X162558000Y-103886000D02*
X162558000Y-105136300D01*
X144018000Y-123825000D02*
X144018000Y-122524700D01*
X143693000Y-115482000D02*
X136968300Y-115482000D01*
X135743000Y-115482000D02*
X136968300Y-115482000D01*
X135743000Y-115482000D02*
X135743000Y-116582300D01*
G04 #@! TO.N,+5V*
X166158000Y-103886000D02*
X167908300Y-103886000D01*
X167908300Y-103886000D02*
X167922700Y-103871600D01*
X167922700Y-103871600D02*
X172587600Y-103871600D01*
X172587600Y-103871600D02*
X173888000Y-105172000D01*
G04 #@! TO.N,GND*
X144605600Y-118436700D02*
X146427400Y-116614900D01*
X146427400Y-116614900D02*
X146427400Y-110079600D01*
X146427400Y-110079600D02*
X148151000Y-108356000D01*
X143693000Y-118881700D02*
X144160600Y-118881700D01*
X144160600Y-118881700D02*
X144605600Y-118436700D01*
X143693000Y-119982000D02*
X143693000Y-118881700D01*
X143693000Y-119982000D02*
X136968300Y-119982000D01*
X135743000Y-119982000D02*
X136968300Y-119982000D01*
X151638000Y-123825000D02*
X152938300Y-123825000D01*
X154178000Y-123825000D02*
X152938300Y-123825000D01*
X165151200Y-120277700D02*
X162766800Y-120277700D01*
X162766800Y-120277700D02*
X162028000Y-119538900D01*
X162028000Y-119538900D02*
X162028000Y-118453700D01*
X162028000Y-118453700D02*
X161255000Y-117680700D01*
X161255000Y-117680700D02*
X159891800Y-117680700D01*
X159891800Y-117680700D02*
X158921100Y-118651400D01*
X158921100Y-118651400D02*
X158921100Y-119882900D01*
X158921100Y-119882900D02*
X156385000Y-122419000D01*
X156385000Y-122419000D02*
X155584000Y-122419000D01*
X155584000Y-122419000D02*
X154178000Y-123825000D01*
X173888000Y-111552300D02*
X175344300Y-113008600D01*
X175344300Y-113008600D02*
X175344300Y-119824200D01*
X175344300Y-119824200D02*
X174601200Y-120567300D01*
X174601200Y-120567300D02*
X165440800Y-120567300D01*
X165440800Y-120567300D02*
X165151200Y-120277700D01*
X165151200Y-120277700D02*
X165151200Y-118021900D01*
X165151200Y-118021900D02*
X168504400Y-114668700D01*
X168504400Y-114668700D02*
X168504400Y-109668400D01*
X168504400Y-109668400D02*
X167178000Y-108342000D01*
X163732000Y-108342000D02*
X160287000Y-108342000D01*
X164308400Y-107765600D02*
X163732000Y-108342000D01*
X164308400Y-102586200D02*
X164308400Y-107765600D01*
X164308400Y-107765600D02*
X166601600Y-107765600D01*
X166601600Y-107765600D02*
X167178000Y-108342000D01*
X160223000Y-99311900D02*
X161034100Y-99311900D01*
X161034100Y-99311900D02*
X164308400Y-102586200D01*
X164308400Y-102586200D02*
X174416700Y-102586200D01*
X174416700Y-102586200D02*
X177691000Y-99311900D01*
X173888000Y-110252000D02*
X173888000Y-111552300D01*
X137414000Y-75565000D02*
X137414000Y-76865300D01*
X137414000Y-76865300D02*
X135269600Y-79009700D01*
X135269600Y-79009700D02*
X135269600Y-93032900D01*
X135269600Y-93032900D02*
X140719000Y-98482300D01*
D23*
G04 #@! TO.N,/A3*
X169418000Y-123825000D02*
X168192700Y-123825000D01*
X133119000Y-98482300D02*
X133119000Y-99857600D01*
X133119000Y-99857600D02*
X132689200Y-99857600D01*
X132689200Y-99857600D02*
X128392800Y-104154000D01*
X128392800Y-104154000D02*
X128392800Y-115644000D01*
X128392800Y-115644000D02*
X137849100Y-125100300D01*
X137849100Y-125100300D02*
X167425200Y-125100300D01*
X167425200Y-125100300D02*
X168192700Y-124332800D01*
X168192700Y-124332800D02*
X168192700Y-123825000D01*
G04 #@! TO.N,/9(\002A\002A)*
X150114000Y-75565000D02*
X148888700Y-75565000D01*
X149329000Y-117621000D02*
X149238000Y-117712000D01*
X149238000Y-117712000D02*
X149238000Y-119088000D01*
X148888700Y-75565000D02*
X148888700Y-76565800D01*
X148888700Y-76565800D02*
X142870000Y-82584500D01*
X142870000Y-82584500D02*
X142870000Y-84439700D01*
X142870000Y-84439700D02*
X137883000Y-89426700D01*
X137883000Y-89426700D02*
X137883000Y-91098900D01*
X137883000Y-91098900D02*
X145664600Y-98880500D01*
X145664600Y-98880500D02*
X145664600Y-102373600D01*
X145664600Y-102373600D02*
X147730500Y-104439500D01*
G04 #@! TO.N,/8*
X151675000Y-107428900D02*
X147950000Y-103703900D01*
X147950000Y-103703900D02*
X147950000Y-87950500D01*
X147950000Y-87950500D02*
X145464900Y-85465400D01*
X145464900Y-85465400D02*
X145464900Y-82501100D01*
X145464900Y-82501100D02*
X151428700Y-76537300D01*
X151428700Y-76537300D02*
X151428700Y-75565000D01*
X154914000Y-119075000D02*
X154914000Y-117800200D01*
X154914000Y-117800200D02*
X155017800Y-117696400D01*
X152654000Y-75565000D02*
X151428700Y-75565000D01*
G04 #@! TO.N,/7*
X139060000Y-90612000D02*
X140235300Y-90612000D01*
X146680000Y-90612000D02*
X145504700Y-90612000D01*
X145504700Y-90612000D02*
X145504700Y-90244700D01*
X145504700Y-90244700D02*
X144684900Y-89424900D01*
X144684900Y-89424900D02*
X141057100Y-89424900D01*
X141057100Y-89424900D02*
X140235300Y-90246700D01*
X140235300Y-90246700D02*
X140235300Y-90612000D01*
X161798000Y-123825000D02*
X161798000Y-122599700D01*
X161798000Y-122599700D02*
X160590000Y-121391700D01*
X160590000Y-121391700D02*
X160590000Y-119012000D01*
X146680000Y-82992000D02*
X147855300Y-82992000D01*
X147855300Y-82992000D02*
X147855300Y-82667600D01*
X147855300Y-82667600D02*
X154957900Y-75565000D01*
X154957900Y-75565000D02*
X156718000Y-75565000D01*
G04 #@! TO.N,/13(SCK)*
X170081400Y-117908300D02*
X167305700Y-117908300D01*
X167305700Y-117908300D02*
X166266000Y-118948000D01*
X172792700Y-116683000D02*
X172792700Y-117602000D01*
X172792700Y-117602000D02*
X172486400Y-117908300D01*
X172486400Y-117908300D02*
X170081400Y-117908300D01*
X170081400Y-117908300D02*
X170081400Y-109696100D01*
X170081400Y-109696100D02*
X170840200Y-108937300D01*
X170840200Y-108937300D02*
X171348000Y-108937300D01*
X171348000Y-107712000D02*
X171348000Y-108937300D01*
X174018000Y-116683000D02*
X172792700Y-116683000D01*
G04 #@! TO.N,/12(MISO)*
X171348000Y-105172000D02*
X171348000Y-106397300D01*
X171478000Y-116683000D02*
X171478000Y-115457700D01*
X171478000Y-115457700D02*
X172573300Y-114362400D01*
X172573300Y-114362400D02*
X172573300Y-107163000D01*
X172573300Y-107163000D02*
X171807600Y-106397300D01*
X171807600Y-106397300D02*
X171348000Y-106397300D01*
G04 #@! TO.N,/11(\002A\002A/MOSI)*
X173888000Y-106486700D02*
X174395800Y-106486700D01*
X174395800Y-106486700D02*
X178942700Y-101939800D01*
X178942700Y-101939800D02*
X178942700Y-95782800D01*
X178942700Y-95782800D02*
X176318000Y-93158100D01*
X176318000Y-93158100D02*
X175443000Y-93158100D01*
X175443000Y-93158100D02*
X165635400Y-83350500D01*
X165635400Y-83350500D02*
X165635400Y-82469100D01*
X165635400Y-82469100D02*
X164194100Y-81027800D01*
X164194100Y-81027800D02*
X162962100Y-81027800D01*
X162962100Y-81027800D02*
X157943400Y-76009100D01*
X157943400Y-76009100D02*
X157943400Y-74517500D01*
X157943400Y-74517500D02*
X157726400Y-74300500D01*
X157726400Y-74300500D02*
X147064300Y-74300500D01*
X147064300Y-74300500D02*
X146259300Y-75105500D01*
X146259300Y-75105500D02*
X146259300Y-75565000D01*
X173888000Y-107712000D02*
X173888000Y-106486700D01*
X145034000Y-75565000D02*
X146259300Y-75565000D01*
G04 #@! TO.N,/CY01*
X160223000Y-96511900D02*
X156840000Y-93128900D01*
X156840000Y-93128900D02*
X156840000Y-90612000D01*
X164707000Y-97911900D02*
X161623000Y-97911900D01*
X161623000Y-97911900D02*
X160223000Y-96511900D01*
G04 #@! TO.N,/CY02*
X159380000Y-90612000D02*
X160555300Y-90612000D01*
X173207000Y-97224200D02*
X168007100Y-92024300D01*
X168007100Y-92024300D02*
X161602300Y-92024300D01*
X161602300Y-92024300D02*
X160555300Y-90977300D01*
X160555300Y-90977300D02*
X160555300Y-90612000D01*
X177691000Y-96511900D02*
X176978700Y-97224200D01*
X176978700Y-97224200D02*
X173207000Y-97224200D01*
X173207000Y-97911900D02*
X173207000Y-97224200D01*
G04 #@! TO.N,Net-(D1-Pad1)*
X163466000Y-118948000D02*
X160287000Y-115769000D01*
X160287000Y-115769000D02*
X160287000Y-111142000D01*
G04 #@! TO.N,Net-(D2-Pad1)*
X163732000Y-111142000D02*
X162730700Y-110140700D01*
X162730700Y-110140700D02*
X159403900Y-110140700D01*
X159403900Y-110140700D02*
X159035600Y-110509000D01*
X159035600Y-110509000D02*
X159035600Y-113093000D01*
X159035600Y-113093000D02*
X157790000Y-114338600D01*
X157790000Y-114338600D02*
X157790000Y-119012000D01*
G04 #@! TO.N,Net-(D3-Pad1)*
X167178000Y-111142000D02*
X165626300Y-109590300D01*
X165626300Y-109590300D02*
X159171800Y-109590300D01*
X159171800Y-109590300D02*
X158390700Y-110371400D01*
X158390700Y-110371400D02*
X158390700Y-112798300D01*
X158390700Y-112798300D02*
X152114000Y-119075000D01*
D22*
G04 #@! TO.N,/85_VCC*
X132184000Y-105172000D02*
X134131100Y-107119100D01*
X134131100Y-107119100D02*
X134131100Y-109894900D01*
X134131100Y-109894900D02*
X135791000Y-111554800D01*
X135791000Y-111554800D02*
X142880200Y-111554800D01*
X142880200Y-111554800D02*
X144183000Y-110252000D01*
D23*
G04 #@! TO.N,/85_RST*
X144183000Y-105172000D02*
X145408300Y-105172000D01*
X145408300Y-105172000D02*
X147734000Y-105172000D01*
X147734000Y-105172000D02*
X152814000Y-110252000D01*
X152814000Y-110252000D02*
X153642000Y-110252000D01*
X142147500Y-103884000D02*
X142147500Y-97414800D01*
X142147500Y-97414800D02*
X136520000Y-91787300D01*
X129644000Y-109026700D02*
X130103600Y-109026700D01*
X130103600Y-109026700D02*
X130869300Y-108261000D01*
X130869300Y-108261000D02*
X130869300Y-104687100D01*
X130869300Y-104687100D02*
X131672400Y-103884000D01*
X131672400Y-103884000D02*
X142147500Y-103884000D01*
X142147500Y-103884000D02*
X142895000Y-103884000D01*
X142895000Y-103884000D02*
X144183000Y-105172000D01*
X129644000Y-110252000D02*
X129644000Y-109026700D01*
X136520000Y-90612000D02*
X136520000Y-91787300D01*
D22*
G04 #@! TO.N,/85_GND*
X141643000Y-110252000D02*
X140342700Y-110252000D01*
X140342700Y-110252000D02*
X140077300Y-109986600D01*
X140077300Y-109986600D02*
X135293700Y-109986600D01*
D23*
G04 #@! TO.N,/84_MISO*
X142868300Y-105172000D02*
X142868300Y-105631600D01*
X142868300Y-105631600D02*
X143634000Y-106397300D01*
X143634000Y-106397300D02*
X148076700Y-106397300D01*
X148076700Y-106397300D02*
X151561300Y-109881900D01*
X151561300Y-109881900D02*
X151561300Y-109956700D01*
X151561300Y-109956700D02*
X153144000Y-111539400D01*
X153144000Y-111539400D02*
X154177100Y-111539400D01*
X154177100Y-111539400D02*
X154956700Y-110759800D01*
X154956700Y-110759800D02*
X154956700Y-110252000D01*
X154300000Y-90612000D02*
X154300000Y-91787300D01*
X154300000Y-91787300D02*
X154956700Y-92444000D01*
X154956700Y-92444000D02*
X154956700Y-110252000D01*
X156182000Y-110252000D02*
X154956700Y-110252000D01*
X141643000Y-105172000D02*
X142868300Y-105172000D01*
G04 #@! TO.N,/329_MISO*
X153642000Y-105172000D02*
X153642000Y-103946700D01*
X161920000Y-82992000D02*
X160744700Y-82992000D01*
X160744700Y-82992000D02*
X160744700Y-83359400D01*
X160744700Y-83359400D02*
X159936800Y-84167300D01*
X159936800Y-84167300D02*
X159082500Y-84167300D01*
X159082500Y-84167300D02*
X153106500Y-90143300D01*
X153106500Y-90143300D02*
X153106500Y-103411200D01*
X153106500Y-103411200D02*
X153642000Y-103946700D01*
G04 #@! TO.N,/329_SCK*
X153642000Y-106486700D02*
X152685800Y-106486700D01*
X152685800Y-106486700D02*
X150578700Y-104379600D01*
X150578700Y-104379600D02*
X150578700Y-90097400D01*
X150578700Y-90097400D02*
X153012200Y-87663900D01*
X153012200Y-87663900D02*
X153918400Y-87663900D01*
X153918400Y-87663900D02*
X158204700Y-83377600D01*
X158204700Y-83377600D02*
X158204700Y-82992000D01*
X153642000Y-107712000D02*
X153642000Y-106486700D01*
X159380000Y-82992000D02*
X158204700Y-82992000D01*
G04 #@! TO.N,/329_MOSI*
X156182000Y-107712000D02*
X156182000Y-106486700D01*
X164460000Y-82992000D02*
X163284700Y-82992000D01*
X163284700Y-82992000D02*
X163284700Y-83359400D01*
X163284700Y-83359400D02*
X162476800Y-84167300D01*
X162476800Y-84167300D02*
X161600500Y-84167300D01*
X161600500Y-84167300D02*
X155657400Y-90110400D01*
X155657400Y-90110400D02*
X155657400Y-100096800D01*
X155657400Y-100096800D02*
X157415200Y-101854600D01*
X157415200Y-101854600D02*
X157415200Y-105761300D01*
X157415200Y-105761300D02*
X156689800Y-106486700D01*
X156689800Y-106486700D02*
X156182000Y-106486700D01*
G04 #@! TO.N,Net-(D4-Pad1)*
X148151000Y-111156000D02*
X148151000Y-117375000D01*
X148151000Y-117375000D02*
X146438000Y-119088000D01*
G04 #@! TD*
D24*
G04 #@! TO.N,GND*
G36*
X146435134Y-73784153D02*
X145877004Y-74342284D01*
X145613418Y-74166161D01*
X145180256Y-74080000D01*
X144887744Y-74080000D01*
X144454582Y-74166161D01*
X143963375Y-74494375D01*
X143764000Y-74792761D01*
X143564625Y-74494375D01*
X143073418Y-74166161D01*
X142640256Y-74080000D01*
X142347744Y-74080000D01*
X141914582Y-74166161D01*
X141423375Y-74494375D01*
X141224000Y-74792761D01*
X141024625Y-74494375D01*
X140533418Y-74166161D01*
X140100256Y-74080000D01*
X139807744Y-74080000D01*
X139374582Y-74166161D01*
X138883375Y-74494375D01*
X138670157Y-74813478D01*
X138609183Y-74683642D01*
X138180924Y-74293355D01*
X137770890Y-74123524D01*
X137541000Y-74244845D01*
X137541000Y-75438000D01*
X137561000Y-75438000D01*
X137561000Y-75692000D01*
X137541000Y-75692000D01*
X137541000Y-76885155D01*
X137770890Y-77006476D01*
X138180924Y-76836645D01*
X138609183Y-76446358D01*
X138670157Y-76316522D01*
X138883375Y-76635625D01*
X139374582Y-76963839D01*
X139807744Y-77050000D01*
X140100256Y-77050000D01*
X140533418Y-76963839D01*
X141024625Y-76635625D01*
X141224000Y-76337239D01*
X141423375Y-76635625D01*
X141914582Y-76963839D01*
X142347744Y-77050000D01*
X142640256Y-77050000D01*
X143073418Y-76963839D01*
X143564625Y-76635625D01*
X143764000Y-76337239D01*
X143963375Y-76635625D01*
X144454582Y-76963839D01*
X144887744Y-77050000D01*
X145180256Y-77050000D01*
X145613418Y-76963839D01*
X146104625Y-76635625D01*
X146269525Y-76388834D01*
X146330386Y-76376728D01*
X146503375Y-76635625D01*
X146994582Y-76963839D01*
X147286986Y-77022002D01*
X142464924Y-81844064D01*
X142159909Y-81640260D01*
X141741333Y-81557000D01*
X141458667Y-81557000D01*
X141040091Y-81640260D01*
X140565423Y-81957423D01*
X140330000Y-82309758D01*
X140094577Y-81957423D01*
X139619909Y-81640260D01*
X139201333Y-81557000D01*
X138918667Y-81557000D01*
X138500091Y-81640260D01*
X138025423Y-81957423D01*
X137790000Y-82309758D01*
X137554577Y-81957423D01*
X137079909Y-81640260D01*
X136661333Y-81557000D01*
X136378667Y-81557000D01*
X135960091Y-81640260D01*
X135485423Y-81957423D01*
X135168260Y-82432091D01*
X135056887Y-82992000D01*
X135168260Y-83551909D01*
X135485423Y-84026577D01*
X135960091Y-84343740D01*
X136378667Y-84427000D01*
X136661333Y-84427000D01*
X137079909Y-84343740D01*
X137554577Y-84026577D01*
X137790000Y-83674242D01*
X138025423Y-84026577D01*
X138500091Y-84343740D01*
X138918667Y-84427000D01*
X139201333Y-84427000D01*
X139619909Y-84343740D01*
X140094577Y-84026577D01*
X140330000Y-83674242D01*
X140565423Y-84026577D01*
X141040091Y-84343740D01*
X141458667Y-84427000D01*
X141737187Y-84427000D01*
X137366656Y-88797532D01*
X137299023Y-88842723D01*
X137119997Y-89110655D01*
X137109275Y-89164560D01*
X135720000Y-89164560D01*
X135472235Y-89213843D01*
X135262191Y-89354191D01*
X135121843Y-89564235D01*
X135072560Y-89812000D01*
X135072560Y-91412000D01*
X135121843Y-91659765D01*
X135262191Y-91869809D01*
X135472235Y-92010157D01*
X135720000Y-92059440D01*
X135748264Y-92059440D01*
X135756998Y-92103346D01*
X135936024Y-92371277D01*
X136003654Y-92416466D01*
X140443560Y-96856373D01*
X140333540Y-96860444D01*
X139844736Y-97062913D01*
X139746073Y-97329768D01*
X140719000Y-98302695D01*
X140733143Y-98288553D01*
X140912748Y-98468158D01*
X140898605Y-98482300D01*
X140912748Y-98496443D01*
X140733143Y-98676048D01*
X140719000Y-98661905D01*
X139746073Y-99634832D01*
X139844736Y-99901687D01*
X140454461Y-100128208D01*
X141104460Y-100104156D01*
X141337501Y-100007628D01*
X141337500Y-103074000D01*
X131752173Y-103074000D01*
X131672400Y-103058132D01*
X131592627Y-103074000D01*
X131592626Y-103074000D01*
X131356354Y-103120997D01*
X131088423Y-103300023D01*
X131043234Y-103367653D01*
X130696123Y-103714764D01*
X130494000Y-103674560D01*
X130017752Y-103674560D01*
X133024713Y-100667600D01*
X133039226Y-100667600D01*
X133119000Y-100683468D01*
X133198774Y-100667600D01*
X133435046Y-100620603D01*
X133702977Y-100441577D01*
X133882003Y-100173646D01*
X133890736Y-100129740D01*
X134119000Y-100129740D01*
X134366765Y-100080457D01*
X134576809Y-99940109D01*
X134717157Y-99730065D01*
X134766440Y-99482300D01*
X134766440Y-98217761D01*
X139073092Y-98217761D01*
X139097144Y-98867760D01*
X139299613Y-99356564D01*
X139566468Y-99455227D01*
X140539395Y-98482300D01*
X139566468Y-97509373D01*
X139299613Y-97608036D01*
X139073092Y-98217761D01*
X134766440Y-98217761D01*
X134766440Y-97482300D01*
X134717157Y-97234535D01*
X134576809Y-97024491D01*
X134366765Y-96884143D01*
X134119000Y-96834860D01*
X132119000Y-96834860D01*
X131871235Y-96884143D01*
X131661191Y-97024491D01*
X131520843Y-97234535D01*
X131471560Y-97482300D01*
X131471560Y-99482300D01*
X131520843Y-99730065D01*
X131581077Y-99820210D01*
X127876456Y-103524832D01*
X127808823Y-103570023D01*
X127629797Y-103837955D01*
X127598524Y-103995177D01*
X127566932Y-104154000D01*
X127582800Y-104233773D01*
X127582801Y-115564222D01*
X127566932Y-115644000D01*
X127616835Y-115894876D01*
X127629798Y-115960046D01*
X127808824Y-116227977D01*
X127876454Y-116273166D01*
X137219934Y-125616647D01*
X137245561Y-125655000D01*
X129811577Y-125655000D01*
X128981112Y-125582344D01*
X128205936Y-125374636D01*
X127478606Y-125035476D01*
X126821221Y-124575170D01*
X126253750Y-124007699D01*
X125793444Y-123350315D01*
X125454283Y-122622980D01*
X125246576Y-121847806D01*
X125173920Y-121017343D01*
X125173920Y-76659197D01*
X125240833Y-76022561D01*
X125427086Y-75449332D01*
X125728448Y-74927358D01*
X125919655Y-74715000D01*
X128296560Y-74715000D01*
X128296560Y-76415000D01*
X128345843Y-76662765D01*
X128486191Y-76872809D01*
X128696235Y-77013157D01*
X128944000Y-77062440D01*
X130644000Y-77062440D01*
X130891765Y-77013157D01*
X131101809Y-76872809D01*
X131242157Y-76662765D01*
X131251184Y-76617381D01*
X131263375Y-76635625D01*
X131754582Y-76963839D01*
X132187744Y-77050000D01*
X132480256Y-77050000D01*
X132913418Y-76963839D01*
X133404625Y-76635625D01*
X133604000Y-76337239D01*
X133803375Y-76635625D01*
X134294582Y-76963839D01*
X134727744Y-77050000D01*
X135020256Y-77050000D01*
X135453418Y-76963839D01*
X135944625Y-76635625D01*
X136157843Y-76316522D01*
X136218817Y-76446358D01*
X136647076Y-76836645D01*
X137057110Y-77006476D01*
X137287000Y-76885155D01*
X137287000Y-75692000D01*
X137267000Y-75692000D01*
X137267000Y-75438000D01*
X137287000Y-75438000D01*
X137287000Y-74244845D01*
X137057110Y-74123524D01*
X136647076Y-74293355D01*
X136218817Y-74683642D01*
X136157843Y-74813478D01*
X135944625Y-74494375D01*
X135453418Y-74166161D01*
X135020256Y-74080000D01*
X134727744Y-74080000D01*
X134294582Y-74166161D01*
X133803375Y-74494375D01*
X133604000Y-74792761D01*
X133404625Y-74494375D01*
X132913418Y-74166161D01*
X132480256Y-74080000D01*
X132187744Y-74080000D01*
X131754582Y-74166161D01*
X131263375Y-74494375D01*
X131251184Y-74512619D01*
X131242157Y-74467235D01*
X131101809Y-74257191D01*
X130891765Y-74116843D01*
X130644000Y-74067560D01*
X128944000Y-74067560D01*
X128696235Y-74116843D01*
X128486191Y-74257191D01*
X128345843Y-74467235D01*
X128296560Y-74715000D01*
X125919655Y-74715000D01*
X126131752Y-74479443D01*
X126619369Y-74125168D01*
X127169986Y-73880019D01*
X127777878Y-73750807D01*
X128079497Y-73735000D01*
X146467977Y-73735000D01*
X146435134Y-73784153D01*
X146435134Y-73784153D01*
G37*
X146435134Y-73784153D02*
X145877004Y-74342284D01*
X145613418Y-74166161D01*
X145180256Y-74080000D01*
X144887744Y-74080000D01*
X144454582Y-74166161D01*
X143963375Y-74494375D01*
X143764000Y-74792761D01*
X143564625Y-74494375D01*
X143073418Y-74166161D01*
X142640256Y-74080000D01*
X142347744Y-74080000D01*
X141914582Y-74166161D01*
X141423375Y-74494375D01*
X141224000Y-74792761D01*
X141024625Y-74494375D01*
X140533418Y-74166161D01*
X140100256Y-74080000D01*
X139807744Y-74080000D01*
X139374582Y-74166161D01*
X138883375Y-74494375D01*
X138670157Y-74813478D01*
X138609183Y-74683642D01*
X138180924Y-74293355D01*
X137770890Y-74123524D01*
X137541000Y-74244845D01*
X137541000Y-75438000D01*
X137561000Y-75438000D01*
X137561000Y-75692000D01*
X137541000Y-75692000D01*
X137541000Y-76885155D01*
X137770890Y-77006476D01*
X138180924Y-76836645D01*
X138609183Y-76446358D01*
X138670157Y-76316522D01*
X138883375Y-76635625D01*
X139374582Y-76963839D01*
X139807744Y-77050000D01*
X140100256Y-77050000D01*
X140533418Y-76963839D01*
X141024625Y-76635625D01*
X141224000Y-76337239D01*
X141423375Y-76635625D01*
X141914582Y-76963839D01*
X142347744Y-77050000D01*
X142640256Y-77050000D01*
X143073418Y-76963839D01*
X143564625Y-76635625D01*
X143764000Y-76337239D01*
X143963375Y-76635625D01*
X144454582Y-76963839D01*
X144887744Y-77050000D01*
X145180256Y-77050000D01*
X145613418Y-76963839D01*
X146104625Y-76635625D01*
X146269525Y-76388834D01*
X146330386Y-76376728D01*
X146503375Y-76635625D01*
X146994582Y-76963839D01*
X147286986Y-77022002D01*
X142464924Y-81844064D01*
X142159909Y-81640260D01*
X141741333Y-81557000D01*
X141458667Y-81557000D01*
X141040091Y-81640260D01*
X140565423Y-81957423D01*
X140330000Y-82309758D01*
X140094577Y-81957423D01*
X139619909Y-81640260D01*
X139201333Y-81557000D01*
X138918667Y-81557000D01*
X138500091Y-81640260D01*
X138025423Y-81957423D01*
X137790000Y-82309758D01*
X137554577Y-81957423D01*
X137079909Y-81640260D01*
X136661333Y-81557000D01*
X136378667Y-81557000D01*
X135960091Y-81640260D01*
X135485423Y-81957423D01*
X135168260Y-82432091D01*
X135056887Y-82992000D01*
X135168260Y-83551909D01*
X135485423Y-84026577D01*
X135960091Y-84343740D01*
X136378667Y-84427000D01*
X136661333Y-84427000D01*
X137079909Y-84343740D01*
X137554577Y-84026577D01*
X137790000Y-83674242D01*
X138025423Y-84026577D01*
X138500091Y-84343740D01*
X138918667Y-84427000D01*
X139201333Y-84427000D01*
X139619909Y-84343740D01*
X140094577Y-84026577D01*
X140330000Y-83674242D01*
X140565423Y-84026577D01*
X141040091Y-84343740D01*
X141458667Y-84427000D01*
X141737187Y-84427000D01*
X137366656Y-88797532D01*
X137299023Y-88842723D01*
X137119997Y-89110655D01*
X137109275Y-89164560D01*
X135720000Y-89164560D01*
X135472235Y-89213843D01*
X135262191Y-89354191D01*
X135121843Y-89564235D01*
X135072560Y-89812000D01*
X135072560Y-91412000D01*
X135121843Y-91659765D01*
X135262191Y-91869809D01*
X135472235Y-92010157D01*
X135720000Y-92059440D01*
X135748264Y-92059440D01*
X135756998Y-92103346D01*
X135936024Y-92371277D01*
X136003654Y-92416466D01*
X140443560Y-96856373D01*
X140333540Y-96860444D01*
X139844736Y-97062913D01*
X139746073Y-97329768D01*
X140719000Y-98302695D01*
X140733143Y-98288553D01*
X140912748Y-98468158D01*
X140898605Y-98482300D01*
X140912748Y-98496443D01*
X140733143Y-98676048D01*
X140719000Y-98661905D01*
X139746073Y-99634832D01*
X139844736Y-99901687D01*
X140454461Y-100128208D01*
X141104460Y-100104156D01*
X141337501Y-100007628D01*
X141337500Y-103074000D01*
X131752173Y-103074000D01*
X131672400Y-103058132D01*
X131592627Y-103074000D01*
X131592626Y-103074000D01*
X131356354Y-103120997D01*
X131088423Y-103300023D01*
X131043234Y-103367653D01*
X130696123Y-103714764D01*
X130494000Y-103674560D01*
X130017752Y-103674560D01*
X133024713Y-100667600D01*
X133039226Y-100667600D01*
X133119000Y-100683468D01*
X133198774Y-100667600D01*
X133435046Y-100620603D01*
X133702977Y-100441577D01*
X133882003Y-100173646D01*
X133890736Y-100129740D01*
X134119000Y-100129740D01*
X134366765Y-100080457D01*
X134576809Y-99940109D01*
X134717157Y-99730065D01*
X134766440Y-99482300D01*
X134766440Y-98217761D01*
X139073092Y-98217761D01*
X139097144Y-98867760D01*
X139299613Y-99356564D01*
X139566468Y-99455227D01*
X140539395Y-98482300D01*
X139566468Y-97509373D01*
X139299613Y-97608036D01*
X139073092Y-98217761D01*
X134766440Y-98217761D01*
X134766440Y-97482300D01*
X134717157Y-97234535D01*
X134576809Y-97024491D01*
X134366765Y-96884143D01*
X134119000Y-96834860D01*
X132119000Y-96834860D01*
X131871235Y-96884143D01*
X131661191Y-97024491D01*
X131520843Y-97234535D01*
X131471560Y-97482300D01*
X131471560Y-99482300D01*
X131520843Y-99730065D01*
X131581077Y-99820210D01*
X127876456Y-103524832D01*
X127808823Y-103570023D01*
X127629797Y-103837955D01*
X127598524Y-103995177D01*
X127566932Y-104154000D01*
X127582800Y-104233773D01*
X127582801Y-115564222D01*
X127566932Y-115644000D01*
X127616835Y-115894876D01*
X127629798Y-115960046D01*
X127808824Y-116227977D01*
X127876454Y-116273166D01*
X137219934Y-125616647D01*
X137245561Y-125655000D01*
X129811577Y-125655000D01*
X128981112Y-125582344D01*
X128205936Y-125374636D01*
X127478606Y-125035476D01*
X126821221Y-124575170D01*
X126253750Y-124007699D01*
X125793444Y-123350315D01*
X125454283Y-122622980D01*
X125246576Y-121847806D01*
X125173920Y-121017343D01*
X125173920Y-76659197D01*
X125240833Y-76022561D01*
X125427086Y-75449332D01*
X125728448Y-74927358D01*
X125919655Y-74715000D01*
X128296560Y-74715000D01*
X128296560Y-76415000D01*
X128345843Y-76662765D01*
X128486191Y-76872809D01*
X128696235Y-77013157D01*
X128944000Y-77062440D01*
X130644000Y-77062440D01*
X130891765Y-77013157D01*
X131101809Y-76872809D01*
X131242157Y-76662765D01*
X131251184Y-76617381D01*
X131263375Y-76635625D01*
X131754582Y-76963839D01*
X132187744Y-77050000D01*
X132480256Y-77050000D01*
X132913418Y-76963839D01*
X133404625Y-76635625D01*
X133604000Y-76337239D01*
X133803375Y-76635625D01*
X134294582Y-76963839D01*
X134727744Y-77050000D01*
X135020256Y-77050000D01*
X135453418Y-76963839D01*
X135944625Y-76635625D01*
X136157843Y-76316522D01*
X136218817Y-76446358D01*
X136647076Y-76836645D01*
X137057110Y-77006476D01*
X137287000Y-76885155D01*
X137287000Y-75692000D01*
X137267000Y-75692000D01*
X137267000Y-75438000D01*
X137287000Y-75438000D01*
X137287000Y-74244845D01*
X137057110Y-74123524D01*
X136647076Y-74293355D01*
X136218817Y-74683642D01*
X136157843Y-74813478D01*
X135944625Y-74494375D01*
X135453418Y-74166161D01*
X135020256Y-74080000D01*
X134727744Y-74080000D01*
X134294582Y-74166161D01*
X133803375Y-74494375D01*
X133604000Y-74792761D01*
X133404625Y-74494375D01*
X132913418Y-74166161D01*
X132480256Y-74080000D01*
X132187744Y-74080000D01*
X131754582Y-74166161D01*
X131263375Y-74494375D01*
X131251184Y-74512619D01*
X131242157Y-74467235D01*
X131101809Y-74257191D01*
X130891765Y-74116843D01*
X130644000Y-74067560D01*
X128944000Y-74067560D01*
X128696235Y-74116843D01*
X128486191Y-74257191D01*
X128345843Y-74467235D01*
X128296560Y-74715000D01*
X125919655Y-74715000D01*
X126131752Y-74479443D01*
X126619369Y-74125168D01*
X127169986Y-73880019D01*
X127777878Y-73750807D01*
X128079497Y-73735000D01*
X146467977Y-73735000D01*
X146435134Y-73784153D01*
G36*
X178868000Y-120990909D02*
X176585402Y-123273508D01*
X176526120Y-123313119D01*
X176385943Y-123522908D01*
X176369196Y-123547972D01*
X176314091Y-123825000D01*
X176328001Y-123894929D01*
X176328000Y-125655000D01*
X168028739Y-125655000D01*
X168054368Y-125616644D01*
X168603950Y-125067063D01*
X168838582Y-125223839D01*
X169271744Y-125310000D01*
X169564256Y-125310000D01*
X169997418Y-125223839D01*
X170488625Y-124895625D01*
X170688000Y-124597239D01*
X170887375Y-124895625D01*
X171378582Y-125223839D01*
X171811744Y-125310000D01*
X172104256Y-125310000D01*
X172537418Y-125223839D01*
X173028625Y-124895625D01*
X173228000Y-124597239D01*
X173427375Y-124895625D01*
X173918582Y-125223839D01*
X174351744Y-125310000D01*
X174644256Y-125310000D01*
X175077418Y-125223839D01*
X175568625Y-124895625D01*
X175896839Y-124404418D01*
X176012092Y-123825000D01*
X175896839Y-123245582D01*
X175568625Y-122754375D01*
X175077418Y-122426161D01*
X174644256Y-122340000D01*
X174351744Y-122340000D01*
X173918582Y-122426161D01*
X173427375Y-122754375D01*
X173228000Y-123052761D01*
X173028625Y-122754375D01*
X172537418Y-122426161D01*
X172104256Y-122340000D01*
X171811744Y-122340000D01*
X171378582Y-122426161D01*
X170887375Y-122754375D01*
X170688000Y-123052761D01*
X170488625Y-122754375D01*
X169997418Y-122426161D01*
X169564256Y-122340000D01*
X169271744Y-122340000D01*
X168838582Y-122426161D01*
X168347375Y-122754375D01*
X168182475Y-123001166D01*
X168121614Y-123013272D01*
X167948625Y-122754375D01*
X167457418Y-122426161D01*
X167024256Y-122340000D01*
X166731744Y-122340000D01*
X166298582Y-122426161D01*
X165807375Y-122754375D01*
X165608000Y-123052761D01*
X165408625Y-122754375D01*
X164917418Y-122426161D01*
X164484256Y-122340000D01*
X164191744Y-122340000D01*
X163758582Y-122426161D01*
X163267375Y-122754375D01*
X163255184Y-122772619D01*
X163246157Y-122727235D01*
X163105809Y-122517191D01*
X162895765Y-122376843D01*
X162648000Y-122327560D01*
X162569736Y-122327560D01*
X162561003Y-122283654D01*
X162381977Y-122015723D01*
X162314347Y-121970534D01*
X161400000Y-121056188D01*
X161400000Y-120404944D01*
X161599586Y-120271586D01*
X161794126Y-119980435D01*
X161862440Y-119637000D01*
X161862440Y-118489953D01*
X162193560Y-118821073D01*
X162193560Y-119573000D01*
X162261874Y-119916435D01*
X162456414Y-120207586D01*
X162747565Y-120402126D01*
X163091000Y-120470440D01*
X163841000Y-120470440D01*
X164184435Y-120402126D01*
X164475586Y-120207586D01*
X164670126Y-119916435D01*
X164738440Y-119573000D01*
X164738440Y-118323000D01*
X164670126Y-117979565D01*
X164475586Y-117688414D01*
X164184435Y-117493874D01*
X163841000Y-117425560D01*
X163091000Y-117425560D01*
X163089392Y-117425880D01*
X161097000Y-115433488D01*
X161097000Y-112377641D01*
X161255435Y-112346126D01*
X161546586Y-112151586D01*
X161741126Y-111860435D01*
X161809440Y-111517000D01*
X161809440Y-110950700D01*
X162209560Y-110950700D01*
X162209560Y-111517000D01*
X162277874Y-111860435D01*
X162472414Y-112151586D01*
X162763565Y-112346126D01*
X163107000Y-112414440D01*
X164357000Y-112414440D01*
X164700435Y-112346126D01*
X164991586Y-112151586D01*
X165186126Y-111860435D01*
X165254440Y-111517000D01*
X165254440Y-110767000D01*
X165186126Y-110423565D01*
X165170581Y-110400300D01*
X165290788Y-110400300D01*
X165655880Y-110765392D01*
X165655560Y-110767000D01*
X165655560Y-111517000D01*
X165723874Y-111860435D01*
X165918414Y-112151586D01*
X166209565Y-112346126D01*
X166553000Y-112414440D01*
X167803000Y-112414440D01*
X168146435Y-112346126D01*
X168437586Y-112151586D01*
X168632126Y-111860435D01*
X168700440Y-111517000D01*
X168700440Y-110767000D01*
X168632126Y-110423565D01*
X168437586Y-110132414D01*
X168146435Y-109937874D01*
X167803000Y-109869560D01*
X167051073Y-109869560D01*
X166783512Y-109602000D01*
X166892250Y-109602000D01*
X167051000Y-109443250D01*
X167051000Y-108469000D01*
X167305000Y-108469000D01*
X167305000Y-109443250D01*
X167463750Y-109602000D01*
X168179310Y-109602000D01*
X168412699Y-109505327D01*
X168591327Y-109326698D01*
X168688000Y-109093309D01*
X168688000Y-108627750D01*
X168529250Y-108469000D01*
X167305000Y-108469000D01*
X167051000Y-108469000D01*
X165826750Y-108469000D01*
X165668000Y-108627750D01*
X165668000Y-108772727D01*
X165626300Y-108764432D01*
X165546527Y-108780300D01*
X165242000Y-108780300D01*
X165242000Y-108627750D01*
X165083250Y-108469000D01*
X163859000Y-108469000D01*
X163859000Y-108489000D01*
X163605000Y-108489000D01*
X163605000Y-108469000D01*
X162380750Y-108469000D01*
X162222000Y-108627750D01*
X162222000Y-108780300D01*
X161797000Y-108780300D01*
X161797000Y-108627750D01*
X161638250Y-108469000D01*
X160414000Y-108469000D01*
X160414000Y-108489000D01*
X160160000Y-108489000D01*
X160160000Y-108469000D01*
X160140000Y-108469000D01*
X160140000Y-108215000D01*
X160160000Y-108215000D01*
X160160000Y-108195000D01*
X160414000Y-108195000D01*
X160414000Y-108215000D01*
X161638250Y-108215000D01*
X161797000Y-108056250D01*
X161797000Y-107590691D01*
X162222000Y-107590691D01*
X162222000Y-108056250D01*
X162380750Y-108215000D01*
X163605000Y-108215000D01*
X163605000Y-107240750D01*
X163859000Y-107240750D01*
X163859000Y-108215000D01*
X165083250Y-108215000D01*
X165242000Y-108056250D01*
X165242000Y-107590691D01*
X165668000Y-107590691D01*
X165668000Y-108056250D01*
X165826750Y-108215000D01*
X167051000Y-108215000D01*
X167051000Y-107240750D01*
X167305000Y-107240750D01*
X167305000Y-108215000D01*
X168529250Y-108215000D01*
X168688000Y-108056250D01*
X168688000Y-107590691D01*
X168591327Y-107357302D01*
X168412699Y-107178673D01*
X168179310Y-107082000D01*
X167463750Y-107082000D01*
X167305000Y-107240750D01*
X167051000Y-107240750D01*
X166892250Y-107082000D01*
X166176690Y-107082000D01*
X165943301Y-107178673D01*
X165764673Y-107357302D01*
X165668000Y-107590691D01*
X165242000Y-107590691D01*
X165145327Y-107357302D01*
X164966699Y-107178673D01*
X164733310Y-107082000D01*
X164017750Y-107082000D01*
X163859000Y-107240750D01*
X163605000Y-107240750D01*
X163446250Y-107082000D01*
X162730690Y-107082000D01*
X162497301Y-107178673D01*
X162318673Y-107357302D01*
X162222000Y-107590691D01*
X161797000Y-107590691D01*
X161700327Y-107357302D01*
X161521699Y-107178673D01*
X161288310Y-107082000D01*
X160769879Y-107082000D01*
X161830579Y-106021300D01*
X162470836Y-106021300D01*
X162558000Y-106038638D01*
X162903310Y-105969952D01*
X163196049Y-105774349D01*
X163391652Y-105481610D01*
X163421125Y-105333440D01*
X163858000Y-105333440D01*
X164105765Y-105284157D01*
X164315809Y-105143809D01*
X164358000Y-105080666D01*
X164400191Y-105143809D01*
X164610235Y-105284157D01*
X164858000Y-105333440D01*
X167458000Y-105333440D01*
X167705765Y-105284157D01*
X167915809Y-105143809D01*
X168056157Y-104933765D01*
X168091397Y-104756600D01*
X169850560Y-104756600D01*
X169850560Y-106022000D01*
X169899843Y-106269765D01*
X170040191Y-106479809D01*
X170250235Y-106620157D01*
X170295619Y-106629184D01*
X170277375Y-106641375D01*
X169949161Y-107132582D01*
X169833908Y-107712000D01*
X169949161Y-108291418D01*
X170105937Y-108526050D01*
X169565054Y-109066934D01*
X169497424Y-109112123D01*
X169452235Y-109179753D01*
X169318398Y-109380054D01*
X169255532Y-109696100D01*
X169271401Y-109775878D01*
X169271400Y-117098300D01*
X167385473Y-117098300D01*
X167305700Y-117082432D01*
X167225927Y-117098300D01*
X167225926Y-117098300D01*
X166989654Y-117145297D01*
X166721723Y-117324323D01*
X166676534Y-117391953D01*
X166642607Y-117425880D01*
X166641000Y-117425560D01*
X165891000Y-117425560D01*
X165547565Y-117493874D01*
X165256414Y-117688414D01*
X165061874Y-117979565D01*
X164993560Y-118323000D01*
X164993560Y-119573000D01*
X165061874Y-119916435D01*
X165256414Y-120207586D01*
X165547565Y-120402126D01*
X165891000Y-120470440D01*
X166641000Y-120470440D01*
X166984435Y-120402126D01*
X167275586Y-120207586D01*
X167470126Y-119916435D01*
X167538440Y-119573000D01*
X167538440Y-118821073D01*
X167641213Y-118718300D01*
X170001626Y-118718300D01*
X170061913Y-118730292D01*
X169963908Y-119223000D01*
X170079161Y-119802418D01*
X170407375Y-120293625D01*
X170898582Y-120621839D01*
X171331744Y-120708000D01*
X171624256Y-120708000D01*
X172057418Y-120621839D01*
X172548625Y-120293625D01*
X172748000Y-119995239D01*
X172947375Y-120293625D01*
X173438582Y-120621839D01*
X173871744Y-120708000D01*
X174164256Y-120708000D01*
X174597418Y-120621839D01*
X175088625Y-120293625D01*
X175416839Y-119802418D01*
X175532092Y-119223000D01*
X175416839Y-118643582D01*
X175088625Y-118152375D01*
X174790239Y-117953000D01*
X175088625Y-117753625D01*
X175416839Y-117262418D01*
X175532092Y-116683000D01*
X175416839Y-116103582D01*
X175088625Y-115612375D01*
X174597418Y-115284161D01*
X174164256Y-115198000D01*
X173871744Y-115198000D01*
X173438582Y-115284161D01*
X172947375Y-115612375D01*
X172935184Y-115630619D01*
X172926157Y-115585235D01*
X172785809Y-115375191D01*
X172737980Y-115343233D01*
X173089647Y-114991566D01*
X173157277Y-114946377D01*
X173336303Y-114678446D01*
X173383300Y-114442174D01*
X173383300Y-114442173D01*
X173399168Y-114362401D01*
X173383300Y-114282628D01*
X173383300Y-111624071D01*
X173531108Y-111693486D01*
X173761000Y-111572819D01*
X173761000Y-110379000D01*
X174015000Y-110379000D01*
X174015000Y-111572819D01*
X174244892Y-111693486D01*
X174769358Y-111447183D01*
X175159645Y-111018924D01*
X175329476Y-110608890D01*
X175208155Y-110379000D01*
X174015000Y-110379000D01*
X173761000Y-110379000D01*
X173741000Y-110379000D01*
X173741000Y-110125000D01*
X173761000Y-110125000D01*
X173761000Y-110105000D01*
X174015000Y-110105000D01*
X174015000Y-110125000D01*
X175208155Y-110125000D01*
X175329476Y-109895110D01*
X175159645Y-109485076D01*
X174769358Y-109056817D01*
X174639522Y-108995843D01*
X174958625Y-108782625D01*
X175286839Y-108291418D01*
X175402092Y-107712000D01*
X175286839Y-107132582D01*
X175130063Y-106897949D01*
X178868001Y-103160012D01*
X178868000Y-120990909D01*
X178868000Y-120990909D01*
G37*
X178868000Y-120990909D02*
X176585402Y-123273508D01*
X176526120Y-123313119D01*
X176385943Y-123522908D01*
X176369196Y-123547972D01*
X176314091Y-123825000D01*
X176328001Y-123894929D01*
X176328000Y-125655000D01*
X168028739Y-125655000D01*
X168054368Y-125616644D01*
X168603950Y-125067063D01*
X168838582Y-125223839D01*
X169271744Y-125310000D01*
X169564256Y-125310000D01*
X169997418Y-125223839D01*
X170488625Y-124895625D01*
X170688000Y-124597239D01*
X170887375Y-124895625D01*
X171378582Y-125223839D01*
X171811744Y-125310000D01*
X172104256Y-125310000D01*
X172537418Y-125223839D01*
X173028625Y-124895625D01*
X173228000Y-124597239D01*
X173427375Y-124895625D01*
X173918582Y-125223839D01*
X174351744Y-125310000D01*
X174644256Y-125310000D01*
X175077418Y-125223839D01*
X175568625Y-124895625D01*
X175896839Y-124404418D01*
X176012092Y-123825000D01*
X175896839Y-123245582D01*
X175568625Y-122754375D01*
X175077418Y-122426161D01*
X174644256Y-122340000D01*
X174351744Y-122340000D01*
X173918582Y-122426161D01*
X173427375Y-122754375D01*
X173228000Y-123052761D01*
X173028625Y-122754375D01*
X172537418Y-122426161D01*
X172104256Y-122340000D01*
X171811744Y-122340000D01*
X171378582Y-122426161D01*
X170887375Y-122754375D01*
X170688000Y-123052761D01*
X170488625Y-122754375D01*
X169997418Y-122426161D01*
X169564256Y-122340000D01*
X169271744Y-122340000D01*
X168838582Y-122426161D01*
X168347375Y-122754375D01*
X168182475Y-123001166D01*
X168121614Y-123013272D01*
X167948625Y-122754375D01*
X167457418Y-122426161D01*
X167024256Y-122340000D01*
X166731744Y-122340000D01*
X166298582Y-122426161D01*
X165807375Y-122754375D01*
X165608000Y-123052761D01*
X165408625Y-122754375D01*
X164917418Y-122426161D01*
X164484256Y-122340000D01*
X164191744Y-122340000D01*
X163758582Y-122426161D01*
X163267375Y-122754375D01*
X163255184Y-122772619D01*
X163246157Y-122727235D01*
X163105809Y-122517191D01*
X162895765Y-122376843D01*
X162648000Y-122327560D01*
X162569736Y-122327560D01*
X162561003Y-122283654D01*
X162381977Y-122015723D01*
X162314347Y-121970534D01*
X161400000Y-121056188D01*
X161400000Y-120404944D01*
X161599586Y-120271586D01*
X161794126Y-119980435D01*
X161862440Y-119637000D01*
X161862440Y-118489953D01*
X162193560Y-118821073D01*
X162193560Y-119573000D01*
X162261874Y-119916435D01*
X162456414Y-120207586D01*
X162747565Y-120402126D01*
X163091000Y-120470440D01*
X163841000Y-120470440D01*
X164184435Y-120402126D01*
X164475586Y-120207586D01*
X164670126Y-119916435D01*
X164738440Y-119573000D01*
X164738440Y-118323000D01*
X164670126Y-117979565D01*
X164475586Y-117688414D01*
X164184435Y-117493874D01*
X163841000Y-117425560D01*
X163091000Y-117425560D01*
X163089392Y-117425880D01*
X161097000Y-115433488D01*
X161097000Y-112377641D01*
X161255435Y-112346126D01*
X161546586Y-112151586D01*
X161741126Y-111860435D01*
X161809440Y-111517000D01*
X161809440Y-110950700D01*
X162209560Y-110950700D01*
X162209560Y-111517000D01*
X162277874Y-111860435D01*
X162472414Y-112151586D01*
X162763565Y-112346126D01*
X163107000Y-112414440D01*
X164357000Y-112414440D01*
X164700435Y-112346126D01*
X164991586Y-112151586D01*
X165186126Y-111860435D01*
X165254440Y-111517000D01*
X165254440Y-110767000D01*
X165186126Y-110423565D01*
X165170581Y-110400300D01*
X165290788Y-110400300D01*
X165655880Y-110765392D01*
X165655560Y-110767000D01*
X165655560Y-111517000D01*
X165723874Y-111860435D01*
X165918414Y-112151586D01*
X166209565Y-112346126D01*
X166553000Y-112414440D01*
X167803000Y-112414440D01*
X168146435Y-112346126D01*
X168437586Y-112151586D01*
X168632126Y-111860435D01*
X168700440Y-111517000D01*
X168700440Y-110767000D01*
X168632126Y-110423565D01*
X168437586Y-110132414D01*
X168146435Y-109937874D01*
X167803000Y-109869560D01*
X167051073Y-109869560D01*
X166783512Y-109602000D01*
X166892250Y-109602000D01*
X167051000Y-109443250D01*
X167051000Y-108469000D01*
X167305000Y-108469000D01*
X167305000Y-109443250D01*
X167463750Y-109602000D01*
X168179310Y-109602000D01*
X168412699Y-109505327D01*
X168591327Y-109326698D01*
X168688000Y-109093309D01*
X168688000Y-108627750D01*
X168529250Y-108469000D01*
X167305000Y-108469000D01*
X167051000Y-108469000D01*
X165826750Y-108469000D01*
X165668000Y-108627750D01*
X165668000Y-108772727D01*
X165626300Y-108764432D01*
X165546527Y-108780300D01*
X165242000Y-108780300D01*
X165242000Y-108627750D01*
X165083250Y-108469000D01*
X163859000Y-108469000D01*
X163859000Y-108489000D01*
X163605000Y-108489000D01*
X163605000Y-108469000D01*
X162380750Y-108469000D01*
X162222000Y-108627750D01*
X162222000Y-108780300D01*
X161797000Y-108780300D01*
X161797000Y-108627750D01*
X161638250Y-108469000D01*
X160414000Y-108469000D01*
X160414000Y-108489000D01*
X160160000Y-108489000D01*
X160160000Y-108469000D01*
X160140000Y-108469000D01*
X160140000Y-108215000D01*
X160160000Y-108215000D01*
X160160000Y-108195000D01*
X160414000Y-108195000D01*
X160414000Y-108215000D01*
X161638250Y-108215000D01*
X161797000Y-108056250D01*
X161797000Y-107590691D01*
X162222000Y-107590691D01*
X162222000Y-108056250D01*
X162380750Y-108215000D01*
X163605000Y-108215000D01*
X163605000Y-107240750D01*
X163859000Y-107240750D01*
X163859000Y-108215000D01*
X165083250Y-108215000D01*
X165242000Y-108056250D01*
X165242000Y-107590691D01*
X165668000Y-107590691D01*
X165668000Y-108056250D01*
X165826750Y-108215000D01*
X167051000Y-108215000D01*
X167051000Y-107240750D01*
X167305000Y-107240750D01*
X167305000Y-108215000D01*
X168529250Y-108215000D01*
X168688000Y-108056250D01*
X168688000Y-107590691D01*
X168591327Y-107357302D01*
X168412699Y-107178673D01*
X168179310Y-107082000D01*
X167463750Y-107082000D01*
X167305000Y-107240750D01*
X167051000Y-107240750D01*
X166892250Y-107082000D01*
X166176690Y-107082000D01*
X165943301Y-107178673D01*
X165764673Y-107357302D01*
X165668000Y-107590691D01*
X165242000Y-107590691D01*
X165145327Y-107357302D01*
X164966699Y-107178673D01*
X164733310Y-107082000D01*
X164017750Y-107082000D01*
X163859000Y-107240750D01*
X163605000Y-107240750D01*
X163446250Y-107082000D01*
X162730690Y-107082000D01*
X162497301Y-107178673D01*
X162318673Y-107357302D01*
X162222000Y-107590691D01*
X161797000Y-107590691D01*
X161700327Y-107357302D01*
X161521699Y-107178673D01*
X161288310Y-107082000D01*
X160769879Y-107082000D01*
X161830579Y-106021300D01*
X162470836Y-106021300D01*
X162558000Y-106038638D01*
X162903310Y-105969952D01*
X163196049Y-105774349D01*
X163391652Y-105481610D01*
X163421125Y-105333440D01*
X163858000Y-105333440D01*
X164105765Y-105284157D01*
X164315809Y-105143809D01*
X164358000Y-105080666D01*
X164400191Y-105143809D01*
X164610235Y-105284157D01*
X164858000Y-105333440D01*
X167458000Y-105333440D01*
X167705765Y-105284157D01*
X167915809Y-105143809D01*
X168056157Y-104933765D01*
X168091397Y-104756600D01*
X169850560Y-104756600D01*
X169850560Y-106022000D01*
X169899843Y-106269765D01*
X170040191Y-106479809D01*
X170250235Y-106620157D01*
X170295619Y-106629184D01*
X170277375Y-106641375D01*
X169949161Y-107132582D01*
X169833908Y-107712000D01*
X169949161Y-108291418D01*
X170105937Y-108526050D01*
X169565054Y-109066934D01*
X169497424Y-109112123D01*
X169452235Y-109179753D01*
X169318398Y-109380054D01*
X169255532Y-109696100D01*
X169271401Y-109775878D01*
X169271400Y-117098300D01*
X167385473Y-117098300D01*
X167305700Y-117082432D01*
X167225927Y-117098300D01*
X167225926Y-117098300D01*
X166989654Y-117145297D01*
X166721723Y-117324323D01*
X166676534Y-117391953D01*
X166642607Y-117425880D01*
X166641000Y-117425560D01*
X165891000Y-117425560D01*
X165547565Y-117493874D01*
X165256414Y-117688414D01*
X165061874Y-117979565D01*
X164993560Y-118323000D01*
X164993560Y-119573000D01*
X165061874Y-119916435D01*
X165256414Y-120207586D01*
X165547565Y-120402126D01*
X165891000Y-120470440D01*
X166641000Y-120470440D01*
X166984435Y-120402126D01*
X167275586Y-120207586D01*
X167470126Y-119916435D01*
X167538440Y-119573000D01*
X167538440Y-118821073D01*
X167641213Y-118718300D01*
X170001626Y-118718300D01*
X170061913Y-118730292D01*
X169963908Y-119223000D01*
X170079161Y-119802418D01*
X170407375Y-120293625D01*
X170898582Y-120621839D01*
X171331744Y-120708000D01*
X171624256Y-120708000D01*
X172057418Y-120621839D01*
X172548625Y-120293625D01*
X172748000Y-119995239D01*
X172947375Y-120293625D01*
X173438582Y-120621839D01*
X173871744Y-120708000D01*
X174164256Y-120708000D01*
X174597418Y-120621839D01*
X175088625Y-120293625D01*
X175416839Y-119802418D01*
X175532092Y-119223000D01*
X175416839Y-118643582D01*
X175088625Y-118152375D01*
X174790239Y-117953000D01*
X175088625Y-117753625D01*
X175416839Y-117262418D01*
X175532092Y-116683000D01*
X175416839Y-116103582D01*
X175088625Y-115612375D01*
X174597418Y-115284161D01*
X174164256Y-115198000D01*
X173871744Y-115198000D01*
X173438582Y-115284161D01*
X172947375Y-115612375D01*
X172935184Y-115630619D01*
X172926157Y-115585235D01*
X172785809Y-115375191D01*
X172737980Y-115343233D01*
X173089647Y-114991566D01*
X173157277Y-114946377D01*
X173336303Y-114678446D01*
X173383300Y-114442174D01*
X173383300Y-114442173D01*
X173399168Y-114362401D01*
X173383300Y-114282628D01*
X173383300Y-111624071D01*
X173531108Y-111693486D01*
X173761000Y-111572819D01*
X173761000Y-110379000D01*
X174015000Y-110379000D01*
X174015000Y-111572819D01*
X174244892Y-111693486D01*
X174769358Y-111447183D01*
X175159645Y-111018924D01*
X175329476Y-110608890D01*
X175208155Y-110379000D01*
X174015000Y-110379000D01*
X173761000Y-110379000D01*
X173741000Y-110379000D01*
X173741000Y-110125000D01*
X173761000Y-110125000D01*
X173761000Y-110105000D01*
X174015000Y-110105000D01*
X174015000Y-110125000D01*
X175208155Y-110125000D01*
X175329476Y-109895110D01*
X175159645Y-109485076D01*
X174769358Y-109056817D01*
X174639522Y-108995843D01*
X174958625Y-108782625D01*
X175286839Y-108291418D01*
X175402092Y-107712000D01*
X175286839Y-107132582D01*
X175130063Y-106897949D01*
X178868001Y-103160012D01*
X178868000Y-120990909D01*
G36*
X159477000Y-115689227D02*
X159461132Y-115769000D01*
X159477000Y-115848773D01*
X159523997Y-116085045D01*
X159703023Y-116352977D01*
X159770656Y-116398168D01*
X160862048Y-117489560D01*
X160215000Y-117489560D01*
X159871565Y-117557874D01*
X159580414Y-117752414D01*
X159385874Y-118043565D01*
X159317560Y-118387000D01*
X159317560Y-119637000D01*
X159385874Y-119980435D01*
X159580414Y-120271586D01*
X159780000Y-120404945D01*
X159780000Y-121311927D01*
X159764132Y-121391700D01*
X159780000Y-121471473D01*
X159826997Y-121707745D01*
X160006023Y-121975677D01*
X160073656Y-122020868D01*
X160538020Y-122485232D01*
X160490191Y-122517191D01*
X160349843Y-122727235D01*
X160300560Y-122975000D01*
X160300560Y-124290300D01*
X158139538Y-124290300D01*
X158232092Y-123825000D01*
X158116839Y-123245582D01*
X157788625Y-122754375D01*
X157297418Y-122426161D01*
X156864256Y-122340000D01*
X156571744Y-122340000D01*
X156138582Y-122426161D01*
X155647375Y-122754375D01*
X155434157Y-123073478D01*
X155373183Y-122943642D01*
X154944924Y-122553355D01*
X154534890Y-122383524D01*
X154305000Y-122504845D01*
X154305000Y-123698000D01*
X154325000Y-123698000D01*
X154325000Y-123952000D01*
X154305000Y-123952000D01*
X154305000Y-123972000D01*
X154051000Y-123972000D01*
X154051000Y-123952000D01*
X151765000Y-123952000D01*
X151765000Y-123972000D01*
X151511000Y-123972000D01*
X151511000Y-123952000D01*
X151491000Y-123952000D01*
X151491000Y-123698000D01*
X151511000Y-123698000D01*
X151511000Y-122504845D01*
X151765000Y-122504845D01*
X151765000Y-123698000D01*
X154051000Y-123698000D01*
X154051000Y-122504845D01*
X153821110Y-122383524D01*
X153411076Y-122553355D01*
X152982817Y-122943642D01*
X152908000Y-123102954D01*
X152833183Y-122943642D01*
X152404924Y-122553355D01*
X151994890Y-122383524D01*
X151765000Y-122504845D01*
X151511000Y-122504845D01*
X151281110Y-122383524D01*
X150871076Y-122553355D01*
X150442817Y-122943642D01*
X150381843Y-123073478D01*
X150168625Y-122754375D01*
X149677418Y-122426161D01*
X149244256Y-122340000D01*
X149232778Y-122340000D01*
X151184609Y-120388170D01*
X151395565Y-120529126D01*
X151739000Y-120597440D01*
X152489000Y-120597440D01*
X152832435Y-120529126D01*
X153123586Y-120334586D01*
X153318126Y-120043435D01*
X153386440Y-119700000D01*
X153386440Y-118948072D01*
X153641560Y-118692952D01*
X153641560Y-119700000D01*
X153709874Y-120043435D01*
X153904414Y-120334586D01*
X154195565Y-120529126D01*
X154539000Y-120597440D01*
X155289000Y-120597440D01*
X155632435Y-120529126D01*
X155923586Y-120334586D01*
X156118126Y-120043435D01*
X156186440Y-119700000D01*
X156186440Y-118450000D01*
X156118126Y-118106565D01*
X155952800Y-117859136D01*
X155952800Y-117510417D01*
X155810455Y-117166765D01*
X155547435Y-116903745D01*
X155464939Y-116869574D01*
X156980000Y-115354512D01*
X156980001Y-117619055D01*
X156780414Y-117752414D01*
X156585874Y-118043565D01*
X156517560Y-118387000D01*
X156517560Y-119637000D01*
X156585874Y-119980435D01*
X156780414Y-120271586D01*
X157071565Y-120466126D01*
X157415000Y-120534440D01*
X158165000Y-120534440D01*
X158508435Y-120466126D01*
X158799586Y-120271586D01*
X158994126Y-119980435D01*
X159062440Y-119637000D01*
X159062440Y-118387000D01*
X158994126Y-118043565D01*
X158799586Y-117752414D01*
X158600000Y-117619056D01*
X158600000Y-114674112D01*
X159477000Y-113797112D01*
X159477000Y-115689227D01*
X159477000Y-115689227D01*
G37*
X159477000Y-115689227D02*
X159461132Y-115769000D01*
X159477000Y-115848773D01*
X159523997Y-116085045D01*
X159703023Y-116352977D01*
X159770656Y-116398168D01*
X160862048Y-117489560D01*
X160215000Y-117489560D01*
X159871565Y-117557874D01*
X159580414Y-117752414D01*
X159385874Y-118043565D01*
X159317560Y-118387000D01*
X159317560Y-119637000D01*
X159385874Y-119980435D01*
X159580414Y-120271586D01*
X159780000Y-120404945D01*
X159780000Y-121311927D01*
X159764132Y-121391700D01*
X159780000Y-121471473D01*
X159826997Y-121707745D01*
X160006023Y-121975677D01*
X160073656Y-122020868D01*
X160538020Y-122485232D01*
X160490191Y-122517191D01*
X160349843Y-122727235D01*
X160300560Y-122975000D01*
X160300560Y-124290300D01*
X158139538Y-124290300D01*
X158232092Y-123825000D01*
X158116839Y-123245582D01*
X157788625Y-122754375D01*
X157297418Y-122426161D01*
X156864256Y-122340000D01*
X156571744Y-122340000D01*
X156138582Y-122426161D01*
X155647375Y-122754375D01*
X155434157Y-123073478D01*
X155373183Y-122943642D01*
X154944924Y-122553355D01*
X154534890Y-122383524D01*
X154305000Y-122504845D01*
X154305000Y-123698000D01*
X154325000Y-123698000D01*
X154325000Y-123952000D01*
X154305000Y-123952000D01*
X154305000Y-123972000D01*
X154051000Y-123972000D01*
X154051000Y-123952000D01*
X151765000Y-123952000D01*
X151765000Y-123972000D01*
X151511000Y-123972000D01*
X151511000Y-123952000D01*
X151491000Y-123952000D01*
X151491000Y-123698000D01*
X151511000Y-123698000D01*
X151511000Y-122504845D01*
X151765000Y-122504845D01*
X151765000Y-123698000D01*
X154051000Y-123698000D01*
X154051000Y-122504845D01*
X153821110Y-122383524D01*
X153411076Y-122553355D01*
X152982817Y-122943642D01*
X152908000Y-123102954D01*
X152833183Y-122943642D01*
X152404924Y-122553355D01*
X151994890Y-122383524D01*
X151765000Y-122504845D01*
X151511000Y-122504845D01*
X151281110Y-122383524D01*
X150871076Y-122553355D01*
X150442817Y-122943642D01*
X150381843Y-123073478D01*
X150168625Y-122754375D01*
X149677418Y-122426161D01*
X149244256Y-122340000D01*
X149232778Y-122340000D01*
X151184609Y-120388170D01*
X151395565Y-120529126D01*
X151739000Y-120597440D01*
X152489000Y-120597440D01*
X152832435Y-120529126D01*
X153123586Y-120334586D01*
X153318126Y-120043435D01*
X153386440Y-119700000D01*
X153386440Y-118948072D01*
X153641560Y-118692952D01*
X153641560Y-119700000D01*
X153709874Y-120043435D01*
X153904414Y-120334586D01*
X154195565Y-120529126D01*
X154539000Y-120597440D01*
X155289000Y-120597440D01*
X155632435Y-120529126D01*
X155923586Y-120334586D01*
X156118126Y-120043435D01*
X156186440Y-119700000D01*
X156186440Y-118450000D01*
X156118126Y-118106565D01*
X155952800Y-117859136D01*
X155952800Y-117510417D01*
X155810455Y-117166765D01*
X155547435Y-116903745D01*
X155464939Y-116869574D01*
X156980000Y-115354512D01*
X156980001Y-117619055D01*
X156780414Y-117752414D01*
X156585874Y-118043565D01*
X156517560Y-118387000D01*
X156517560Y-119637000D01*
X156585874Y-119980435D01*
X156780414Y-120271586D01*
X157071565Y-120466126D01*
X157415000Y-120534440D01*
X158165000Y-120534440D01*
X158508435Y-120466126D01*
X158799586Y-120271586D01*
X158994126Y-119980435D01*
X159062440Y-119637000D01*
X159062440Y-118387000D01*
X158994126Y-118043565D01*
X158799586Y-117752414D01*
X158600000Y-117619056D01*
X158600000Y-114674112D01*
X159477000Y-113797112D01*
X159477000Y-115689227D01*
G36*
X146737673Y-107371302D02*
X146641000Y-107604691D01*
X146641000Y-108070250D01*
X146799750Y-108229000D01*
X148024000Y-108229000D01*
X148024000Y-108209000D01*
X148278000Y-108209000D01*
X148278000Y-108229000D01*
X148298000Y-108229000D01*
X148298000Y-108483000D01*
X148278000Y-108483000D01*
X148278000Y-109457250D01*
X148436750Y-109616000D01*
X149152310Y-109616000D01*
X149385699Y-109519327D01*
X149564327Y-109340698D01*
X149655200Y-109121312D01*
X150796227Y-110262340D01*
X150798297Y-110272746D01*
X150977323Y-110540677D01*
X151044955Y-110585867D01*
X152514834Y-112055747D01*
X152560023Y-112123377D01*
X152627652Y-112168565D01*
X152827953Y-112302403D01*
X153144000Y-112365268D01*
X153223774Y-112349400D01*
X154097327Y-112349400D01*
X154177100Y-112365268D01*
X154256873Y-112349400D01*
X154256874Y-112349400D01*
X154493146Y-112302403D01*
X154761077Y-112123377D01*
X154806268Y-112055744D01*
X155367950Y-111494063D01*
X155502233Y-111583788D01*
X150111847Y-116974175D01*
X150047476Y-117017186D01*
X149858635Y-116828345D01*
X149514983Y-116686000D01*
X149143017Y-116686000D01*
X148961000Y-116761394D01*
X148961000Y-112391641D01*
X149119435Y-112360126D01*
X149410586Y-112165586D01*
X149605126Y-111874435D01*
X149673440Y-111531000D01*
X149673440Y-110781000D01*
X149605126Y-110437565D01*
X149410586Y-110146414D01*
X149119435Y-109951874D01*
X148776000Y-109883560D01*
X147526000Y-109883560D01*
X147182565Y-109951874D01*
X146891414Y-110146414D01*
X146696874Y-110437565D01*
X146628560Y-110781000D01*
X146628560Y-111531000D01*
X146696874Y-111874435D01*
X146891414Y-112165586D01*
X147182565Y-112360126D01*
X147341000Y-112391641D01*
X147341001Y-117039486D01*
X146814608Y-117565880D01*
X146813000Y-117565560D01*
X146063000Y-117565560D01*
X145719565Y-117633874D01*
X145428414Y-117828414D01*
X145233874Y-118119565D01*
X145165560Y-118463000D01*
X145165560Y-119713000D01*
X145233874Y-120056435D01*
X145428414Y-120347586D01*
X145719565Y-120542126D01*
X146063000Y-120610440D01*
X146813000Y-120610440D01*
X147156435Y-120542126D01*
X147447586Y-120347586D01*
X147642126Y-120056435D01*
X147710440Y-119713000D01*
X147710440Y-118961072D01*
X147965560Y-118705953D01*
X147965560Y-119713000D01*
X148033874Y-120056435D01*
X148228414Y-120347586D01*
X148519565Y-120542126D01*
X148526180Y-120543442D01*
X147828422Y-121241200D01*
X144656596Y-121241200D01*
X144827698Y-121170327D01*
X145006327Y-120991699D01*
X145103000Y-120758310D01*
X145103000Y-120267750D01*
X144944250Y-120109000D01*
X143820000Y-120109000D01*
X143820000Y-120129000D01*
X143566000Y-120129000D01*
X143566000Y-120109000D01*
X142441750Y-120109000D01*
X142283000Y-120267750D01*
X142283000Y-120758310D01*
X142379673Y-120991699D01*
X142558302Y-121170327D01*
X142729404Y-121241200D01*
X136706596Y-121241200D01*
X136877698Y-121170327D01*
X137056327Y-120991699D01*
X137153000Y-120758310D01*
X137153000Y-120267750D01*
X136994250Y-120109000D01*
X135870000Y-120109000D01*
X135870000Y-120129000D01*
X135616000Y-120129000D01*
X135616000Y-120109000D01*
X135596000Y-120109000D01*
X135596000Y-119855000D01*
X135616000Y-119855000D01*
X135616000Y-118855750D01*
X135870000Y-118855750D01*
X135870000Y-119855000D01*
X136994250Y-119855000D01*
X137153000Y-119696250D01*
X137153000Y-119205690D01*
X142283000Y-119205690D01*
X142283000Y-119696250D01*
X142441750Y-119855000D01*
X143566000Y-119855000D01*
X143566000Y-118855750D01*
X143820000Y-118855750D01*
X143820000Y-119855000D01*
X144944250Y-119855000D01*
X145103000Y-119696250D01*
X145103000Y-119205690D01*
X145006327Y-118972301D01*
X144827698Y-118793673D01*
X144594309Y-118697000D01*
X143978750Y-118697000D01*
X143820000Y-118855750D01*
X143566000Y-118855750D01*
X143407250Y-118697000D01*
X142791691Y-118697000D01*
X142558302Y-118793673D01*
X142379673Y-118972301D01*
X142283000Y-119205690D01*
X137153000Y-119205690D01*
X137056327Y-118972301D01*
X136877698Y-118793673D01*
X136644309Y-118697000D01*
X136028750Y-118697000D01*
X135870000Y-118855750D01*
X135616000Y-118855750D01*
X135457250Y-118697000D01*
X135402600Y-118697000D01*
X135402600Y-118174278D01*
X136307156Y-117269723D01*
X136381049Y-117220349D01*
X136431198Y-117145297D01*
X136546433Y-116972835D01*
X136576652Y-116927610D01*
X136609755Y-116761189D01*
X136765765Y-116730157D01*
X136975809Y-116589809D01*
X137116157Y-116379765D01*
X137118696Y-116367000D01*
X142317304Y-116367000D01*
X142319843Y-116379765D01*
X142460191Y-116589809D01*
X142670235Y-116730157D01*
X142918000Y-116779440D01*
X144468000Y-116779440D01*
X144715765Y-116730157D01*
X144925809Y-116589809D01*
X145066157Y-116379765D01*
X145115440Y-116132000D01*
X145115440Y-114832000D01*
X145066157Y-114584235D01*
X144925809Y-114374191D01*
X144715765Y-114233843D01*
X144468000Y-114184560D01*
X142918000Y-114184560D01*
X142670235Y-114233843D01*
X142460191Y-114374191D01*
X142319843Y-114584235D01*
X142317304Y-114597000D01*
X137118696Y-114597000D01*
X137116157Y-114584235D01*
X136975809Y-114374191D01*
X136765765Y-114233843D01*
X136518000Y-114184560D01*
X134968000Y-114184560D01*
X134720235Y-114233843D01*
X134510191Y-114374191D01*
X134369843Y-114584235D01*
X134320560Y-114832000D01*
X134320560Y-116132000D01*
X134369843Y-116379765D01*
X134499665Y-116574056D01*
X133953445Y-117120277D01*
X133879552Y-117169651D01*
X133830178Y-117243544D01*
X133830176Y-117243546D01*
X133683948Y-117462391D01*
X133615263Y-117807700D01*
X133632601Y-117894865D01*
X133632600Y-119738288D01*
X129202800Y-115308488D01*
X129202800Y-111678332D01*
X129497744Y-111737000D01*
X129790256Y-111737000D01*
X130223418Y-111650839D01*
X130714625Y-111322625D01*
X130914000Y-111024239D01*
X131113375Y-111322625D01*
X131604582Y-111650839D01*
X132037744Y-111737000D01*
X132330256Y-111737000D01*
X132763418Y-111650839D01*
X133254625Y-111322625D01*
X133582839Y-110831418D01*
X133621529Y-110636908D01*
X135103577Y-112118956D01*
X135152951Y-112192849D01*
X135226844Y-112242223D01*
X135226845Y-112242224D01*
X135264124Y-112267133D01*
X135445690Y-112388452D01*
X135703835Y-112439800D01*
X135703839Y-112439800D01*
X135790999Y-112457137D01*
X135878159Y-112439800D01*
X142793039Y-112439800D01*
X142880200Y-112457137D01*
X142967361Y-112439800D01*
X142967365Y-112439800D01*
X143225510Y-112388452D01*
X143518249Y-112192849D01*
X143567625Y-112118953D01*
X143964040Y-111722538D01*
X144036744Y-111737000D01*
X144329256Y-111737000D01*
X144762418Y-111650839D01*
X145253625Y-111322625D01*
X145581839Y-110831418D01*
X145697092Y-110252000D01*
X145581839Y-109672582D01*
X145253625Y-109181375D01*
X144955239Y-108982000D01*
X145253625Y-108782625D01*
X145347754Y-108641750D01*
X146641000Y-108641750D01*
X146641000Y-109107309D01*
X146737673Y-109340698D01*
X146916301Y-109519327D01*
X147149690Y-109616000D01*
X147865250Y-109616000D01*
X148024000Y-109457250D01*
X148024000Y-108483000D01*
X146799750Y-108483000D01*
X146641000Y-108641750D01*
X145347754Y-108641750D01*
X145581839Y-108291418D01*
X145697092Y-107712000D01*
X145596701Y-107207300D01*
X146901674Y-107207300D01*
X146737673Y-107371302D01*
X146737673Y-107371302D01*
G37*
X146737673Y-107371302D02*
X146641000Y-107604691D01*
X146641000Y-108070250D01*
X146799750Y-108229000D01*
X148024000Y-108229000D01*
X148024000Y-108209000D01*
X148278000Y-108209000D01*
X148278000Y-108229000D01*
X148298000Y-108229000D01*
X148298000Y-108483000D01*
X148278000Y-108483000D01*
X148278000Y-109457250D01*
X148436750Y-109616000D01*
X149152310Y-109616000D01*
X149385699Y-109519327D01*
X149564327Y-109340698D01*
X149655200Y-109121312D01*
X150796227Y-110262340D01*
X150798297Y-110272746D01*
X150977323Y-110540677D01*
X151044955Y-110585867D01*
X152514834Y-112055747D01*
X152560023Y-112123377D01*
X152627652Y-112168565D01*
X152827953Y-112302403D01*
X153144000Y-112365268D01*
X153223774Y-112349400D01*
X154097327Y-112349400D01*
X154177100Y-112365268D01*
X154256873Y-112349400D01*
X154256874Y-112349400D01*
X154493146Y-112302403D01*
X154761077Y-112123377D01*
X154806268Y-112055744D01*
X155367950Y-111494063D01*
X155502233Y-111583788D01*
X150111847Y-116974175D01*
X150047476Y-117017186D01*
X149858635Y-116828345D01*
X149514983Y-116686000D01*
X149143017Y-116686000D01*
X148961000Y-116761394D01*
X148961000Y-112391641D01*
X149119435Y-112360126D01*
X149410586Y-112165586D01*
X149605126Y-111874435D01*
X149673440Y-111531000D01*
X149673440Y-110781000D01*
X149605126Y-110437565D01*
X149410586Y-110146414D01*
X149119435Y-109951874D01*
X148776000Y-109883560D01*
X147526000Y-109883560D01*
X147182565Y-109951874D01*
X146891414Y-110146414D01*
X146696874Y-110437565D01*
X146628560Y-110781000D01*
X146628560Y-111531000D01*
X146696874Y-111874435D01*
X146891414Y-112165586D01*
X147182565Y-112360126D01*
X147341000Y-112391641D01*
X147341001Y-117039486D01*
X146814608Y-117565880D01*
X146813000Y-117565560D01*
X146063000Y-117565560D01*
X145719565Y-117633874D01*
X145428414Y-117828414D01*
X145233874Y-118119565D01*
X145165560Y-118463000D01*
X145165560Y-119713000D01*
X145233874Y-120056435D01*
X145428414Y-120347586D01*
X145719565Y-120542126D01*
X146063000Y-120610440D01*
X146813000Y-120610440D01*
X147156435Y-120542126D01*
X147447586Y-120347586D01*
X147642126Y-120056435D01*
X147710440Y-119713000D01*
X147710440Y-118961072D01*
X147965560Y-118705953D01*
X147965560Y-119713000D01*
X148033874Y-120056435D01*
X148228414Y-120347586D01*
X148519565Y-120542126D01*
X148526180Y-120543442D01*
X147828422Y-121241200D01*
X144656596Y-121241200D01*
X144827698Y-121170327D01*
X145006327Y-120991699D01*
X145103000Y-120758310D01*
X145103000Y-120267750D01*
X144944250Y-120109000D01*
X143820000Y-120109000D01*
X143820000Y-120129000D01*
X143566000Y-120129000D01*
X143566000Y-120109000D01*
X142441750Y-120109000D01*
X142283000Y-120267750D01*
X142283000Y-120758310D01*
X142379673Y-120991699D01*
X142558302Y-121170327D01*
X142729404Y-121241200D01*
X136706596Y-121241200D01*
X136877698Y-121170327D01*
X137056327Y-120991699D01*
X137153000Y-120758310D01*
X137153000Y-120267750D01*
X136994250Y-120109000D01*
X135870000Y-120109000D01*
X135870000Y-120129000D01*
X135616000Y-120129000D01*
X135616000Y-120109000D01*
X135596000Y-120109000D01*
X135596000Y-119855000D01*
X135616000Y-119855000D01*
X135616000Y-118855750D01*
X135870000Y-118855750D01*
X135870000Y-119855000D01*
X136994250Y-119855000D01*
X137153000Y-119696250D01*
X137153000Y-119205690D01*
X142283000Y-119205690D01*
X142283000Y-119696250D01*
X142441750Y-119855000D01*
X143566000Y-119855000D01*
X143566000Y-118855750D01*
X143820000Y-118855750D01*
X143820000Y-119855000D01*
X144944250Y-119855000D01*
X145103000Y-119696250D01*
X145103000Y-119205690D01*
X145006327Y-118972301D01*
X144827698Y-118793673D01*
X144594309Y-118697000D01*
X143978750Y-118697000D01*
X143820000Y-118855750D01*
X143566000Y-118855750D01*
X143407250Y-118697000D01*
X142791691Y-118697000D01*
X142558302Y-118793673D01*
X142379673Y-118972301D01*
X142283000Y-119205690D01*
X137153000Y-119205690D01*
X137056327Y-118972301D01*
X136877698Y-118793673D01*
X136644309Y-118697000D01*
X136028750Y-118697000D01*
X135870000Y-118855750D01*
X135616000Y-118855750D01*
X135457250Y-118697000D01*
X135402600Y-118697000D01*
X135402600Y-118174278D01*
X136307156Y-117269723D01*
X136381049Y-117220349D01*
X136431198Y-117145297D01*
X136546433Y-116972835D01*
X136576652Y-116927610D01*
X136609755Y-116761189D01*
X136765765Y-116730157D01*
X136975809Y-116589809D01*
X137116157Y-116379765D01*
X137118696Y-116367000D01*
X142317304Y-116367000D01*
X142319843Y-116379765D01*
X142460191Y-116589809D01*
X142670235Y-116730157D01*
X142918000Y-116779440D01*
X144468000Y-116779440D01*
X144715765Y-116730157D01*
X144925809Y-116589809D01*
X145066157Y-116379765D01*
X145115440Y-116132000D01*
X145115440Y-114832000D01*
X145066157Y-114584235D01*
X144925809Y-114374191D01*
X144715765Y-114233843D01*
X144468000Y-114184560D01*
X142918000Y-114184560D01*
X142670235Y-114233843D01*
X142460191Y-114374191D01*
X142319843Y-114584235D01*
X142317304Y-114597000D01*
X137118696Y-114597000D01*
X137116157Y-114584235D01*
X136975809Y-114374191D01*
X136765765Y-114233843D01*
X136518000Y-114184560D01*
X134968000Y-114184560D01*
X134720235Y-114233843D01*
X134510191Y-114374191D01*
X134369843Y-114584235D01*
X134320560Y-114832000D01*
X134320560Y-116132000D01*
X134369843Y-116379765D01*
X134499665Y-116574056D01*
X133953445Y-117120277D01*
X133879552Y-117169651D01*
X133830178Y-117243544D01*
X133830176Y-117243546D01*
X133683948Y-117462391D01*
X133615263Y-117807700D01*
X133632601Y-117894865D01*
X133632600Y-119738288D01*
X129202800Y-115308488D01*
X129202800Y-111678332D01*
X129497744Y-111737000D01*
X129790256Y-111737000D01*
X130223418Y-111650839D01*
X130714625Y-111322625D01*
X130914000Y-111024239D01*
X131113375Y-111322625D01*
X131604582Y-111650839D01*
X132037744Y-111737000D01*
X132330256Y-111737000D01*
X132763418Y-111650839D01*
X133254625Y-111322625D01*
X133582839Y-110831418D01*
X133621529Y-110636908D01*
X135103577Y-112118956D01*
X135152951Y-112192849D01*
X135226844Y-112242223D01*
X135226845Y-112242224D01*
X135264124Y-112267133D01*
X135445690Y-112388452D01*
X135703835Y-112439800D01*
X135703839Y-112439800D01*
X135790999Y-112457137D01*
X135878159Y-112439800D01*
X142793039Y-112439800D01*
X142880200Y-112457137D01*
X142967361Y-112439800D01*
X142967365Y-112439800D01*
X143225510Y-112388452D01*
X143518249Y-112192849D01*
X143567625Y-112118953D01*
X143964040Y-111722538D01*
X144036744Y-111737000D01*
X144329256Y-111737000D01*
X144762418Y-111650839D01*
X145253625Y-111322625D01*
X145581839Y-110831418D01*
X145697092Y-110252000D01*
X145581839Y-109672582D01*
X145253625Y-109181375D01*
X144955239Y-108982000D01*
X145253625Y-108782625D01*
X145347754Y-108641750D01*
X146641000Y-108641750D01*
X146641000Y-109107309D01*
X146737673Y-109340698D01*
X146916301Y-109519327D01*
X147149690Y-109616000D01*
X147865250Y-109616000D01*
X148024000Y-109457250D01*
X148024000Y-108483000D01*
X146799750Y-108483000D01*
X146641000Y-108641750D01*
X145347754Y-108641750D01*
X145581839Y-108291418D01*
X145697092Y-107712000D01*
X145596701Y-107207300D01*
X146901674Y-107207300D01*
X146737673Y-107371302D01*
G36*
X158345423Y-91646577D02*
X158820091Y-91963740D01*
X159238667Y-92047000D01*
X159521333Y-92047000D01*
X159939909Y-91963740D01*
X160213452Y-91780964D01*
X160973134Y-92540647D01*
X161018323Y-92608277D01*
X161085952Y-92653465D01*
X161286253Y-92787303D01*
X161602300Y-92850168D01*
X161682074Y-92834300D01*
X167671588Y-92834300D01*
X171101747Y-96264460D01*
X170957000Y-96264460D01*
X170709235Y-96313743D01*
X170499191Y-96454091D01*
X170358843Y-96664135D01*
X170309560Y-96911900D01*
X170309560Y-98911900D01*
X170358843Y-99159665D01*
X170499191Y-99369709D01*
X170709235Y-99510057D01*
X170957000Y-99559340D01*
X175457000Y-99559340D01*
X175704765Y-99510057D01*
X175914809Y-99369709D01*
X176055157Y-99159665D01*
X176104440Y-98911900D01*
X176104440Y-98560591D01*
X176181000Y-98560591D01*
X176181000Y-99026150D01*
X176339750Y-99184900D01*
X177564000Y-99184900D01*
X177564000Y-98210650D01*
X177405250Y-98051900D01*
X176689690Y-98051900D01*
X176456301Y-98148573D01*
X176277673Y-98327202D01*
X176181000Y-98560591D01*
X176104440Y-98560591D01*
X176104440Y-98034200D01*
X176898927Y-98034200D01*
X176978700Y-98050068D01*
X177058473Y-98034200D01*
X177058474Y-98034200D01*
X177294746Y-97987203D01*
X177562677Y-97808177D01*
X177578604Y-97784340D01*
X178132701Y-97784340D01*
X178132701Y-98051900D01*
X177976750Y-98051900D01*
X177818000Y-98210650D01*
X177818000Y-99184900D01*
X177838000Y-99184900D01*
X177838000Y-99438900D01*
X177818000Y-99438900D01*
X177818000Y-100413150D01*
X177976750Y-100571900D01*
X178132700Y-100571900D01*
X178132700Y-101604287D01*
X175229788Y-104507199D01*
X174958625Y-104101375D01*
X174467418Y-103773161D01*
X174034256Y-103687000D01*
X173741744Y-103687000D01*
X173669040Y-103701462D01*
X173275025Y-103307447D01*
X173225649Y-103233551D01*
X172932910Y-103037948D01*
X172674765Y-102986600D01*
X172674761Y-102986600D01*
X172587600Y-102969263D01*
X172500439Y-102986600D01*
X168085668Y-102986600D01*
X168056157Y-102838235D01*
X167915809Y-102628191D01*
X167705765Y-102487843D01*
X167458000Y-102438560D01*
X164858000Y-102438560D01*
X164610235Y-102487843D01*
X164400191Y-102628191D01*
X164358000Y-102691334D01*
X164315809Y-102628191D01*
X164105765Y-102487843D01*
X163858000Y-102438560D01*
X161258000Y-102438560D01*
X161010235Y-102487843D01*
X160800191Y-102628191D01*
X160659843Y-102838235D01*
X160610560Y-103086000D01*
X160610560Y-104686000D01*
X160619214Y-104729507D01*
X157686242Y-107662480D01*
X157580839Y-107132582D01*
X157424063Y-106897950D01*
X157931547Y-106390466D01*
X157999177Y-106345277D01*
X158178203Y-106077346D01*
X158225200Y-105841074D01*
X158241068Y-105761300D01*
X158225200Y-105681526D01*
X158225200Y-101934374D01*
X158241068Y-101854600D01*
X158178203Y-101538553D01*
X158044365Y-101338252D01*
X157999177Y-101270623D01*
X157931547Y-101225434D01*
X156467400Y-99761288D01*
X156467400Y-99597650D01*
X158713000Y-99597650D01*
X158713000Y-100063209D01*
X158809673Y-100296598D01*
X158988301Y-100475227D01*
X159221690Y-100571900D01*
X159937250Y-100571900D01*
X160096000Y-100413150D01*
X160096000Y-99438900D01*
X160350000Y-99438900D01*
X160350000Y-100413150D01*
X160508750Y-100571900D01*
X161224310Y-100571900D01*
X161457699Y-100475227D01*
X161636327Y-100296598D01*
X161733000Y-100063209D01*
X161733000Y-99597650D01*
X176181000Y-99597650D01*
X176181000Y-100063209D01*
X176277673Y-100296598D01*
X176456301Y-100475227D01*
X176689690Y-100571900D01*
X177405250Y-100571900D01*
X177564000Y-100413150D01*
X177564000Y-99438900D01*
X176339750Y-99438900D01*
X176181000Y-99597650D01*
X161733000Y-99597650D01*
X161574250Y-99438900D01*
X160350000Y-99438900D01*
X160096000Y-99438900D01*
X158871750Y-99438900D01*
X158713000Y-99597650D01*
X156467400Y-99597650D01*
X156467400Y-98560591D01*
X158713000Y-98560591D01*
X158713000Y-99026150D01*
X158871750Y-99184900D01*
X160096000Y-99184900D01*
X160096000Y-98210650D01*
X159937250Y-98051900D01*
X159221690Y-98051900D01*
X158988301Y-98148573D01*
X158809673Y-98327202D01*
X158713000Y-98560591D01*
X156467400Y-98560591D01*
X156467400Y-93901812D01*
X158700880Y-96135292D01*
X158700560Y-96136900D01*
X158700560Y-96886900D01*
X158768874Y-97230335D01*
X158963414Y-97521486D01*
X159254565Y-97716026D01*
X159598000Y-97784340D01*
X160349928Y-97784340D01*
X160617487Y-98051900D01*
X160508750Y-98051900D01*
X160350000Y-98210650D01*
X160350000Y-99184900D01*
X161574250Y-99184900D01*
X161733000Y-99026150D01*
X161733000Y-98721900D01*
X161809560Y-98721900D01*
X161809560Y-98911900D01*
X161858843Y-99159665D01*
X161999191Y-99369709D01*
X162209235Y-99510057D01*
X162457000Y-99559340D01*
X166957000Y-99559340D01*
X167204765Y-99510057D01*
X167414809Y-99369709D01*
X167555157Y-99159665D01*
X167604440Y-98911900D01*
X167604440Y-96911900D01*
X167555157Y-96664135D01*
X167414809Y-96454091D01*
X167204765Y-96313743D01*
X166957000Y-96264460D01*
X162457000Y-96264460D01*
X162209235Y-96313743D01*
X161999191Y-96454091D01*
X161858843Y-96664135D01*
X161809560Y-96911900D01*
X161809560Y-96952947D01*
X161745120Y-96888508D01*
X161745440Y-96886900D01*
X161745440Y-96136900D01*
X161677126Y-95793465D01*
X161482586Y-95502314D01*
X161191435Y-95307774D01*
X160848000Y-95239460D01*
X160096073Y-95239460D01*
X157650000Y-92793388D01*
X157650000Y-91796635D01*
X157874577Y-91646577D01*
X158110000Y-91294242D01*
X158345423Y-91646577D01*
X158345423Y-91646577D01*
G37*
X158345423Y-91646577D02*
X158820091Y-91963740D01*
X159238667Y-92047000D01*
X159521333Y-92047000D01*
X159939909Y-91963740D01*
X160213452Y-91780964D01*
X160973134Y-92540647D01*
X161018323Y-92608277D01*
X161085952Y-92653465D01*
X161286253Y-92787303D01*
X161602300Y-92850168D01*
X161682074Y-92834300D01*
X167671588Y-92834300D01*
X171101747Y-96264460D01*
X170957000Y-96264460D01*
X170709235Y-96313743D01*
X170499191Y-96454091D01*
X170358843Y-96664135D01*
X170309560Y-96911900D01*
X170309560Y-98911900D01*
X170358843Y-99159665D01*
X170499191Y-99369709D01*
X170709235Y-99510057D01*
X170957000Y-99559340D01*
X175457000Y-99559340D01*
X175704765Y-99510057D01*
X175914809Y-99369709D01*
X176055157Y-99159665D01*
X176104440Y-98911900D01*
X176104440Y-98560591D01*
X176181000Y-98560591D01*
X176181000Y-99026150D01*
X176339750Y-99184900D01*
X177564000Y-99184900D01*
X177564000Y-98210650D01*
X177405250Y-98051900D01*
X176689690Y-98051900D01*
X176456301Y-98148573D01*
X176277673Y-98327202D01*
X176181000Y-98560591D01*
X176104440Y-98560591D01*
X176104440Y-98034200D01*
X176898927Y-98034200D01*
X176978700Y-98050068D01*
X177058473Y-98034200D01*
X177058474Y-98034200D01*
X177294746Y-97987203D01*
X177562677Y-97808177D01*
X177578604Y-97784340D01*
X178132701Y-97784340D01*
X178132701Y-98051900D01*
X177976750Y-98051900D01*
X177818000Y-98210650D01*
X177818000Y-99184900D01*
X177838000Y-99184900D01*
X177838000Y-99438900D01*
X177818000Y-99438900D01*
X177818000Y-100413150D01*
X177976750Y-100571900D01*
X178132700Y-100571900D01*
X178132700Y-101604287D01*
X175229788Y-104507199D01*
X174958625Y-104101375D01*
X174467418Y-103773161D01*
X174034256Y-103687000D01*
X173741744Y-103687000D01*
X173669040Y-103701462D01*
X173275025Y-103307447D01*
X173225649Y-103233551D01*
X172932910Y-103037948D01*
X172674765Y-102986600D01*
X172674761Y-102986600D01*
X172587600Y-102969263D01*
X172500439Y-102986600D01*
X168085668Y-102986600D01*
X168056157Y-102838235D01*
X167915809Y-102628191D01*
X167705765Y-102487843D01*
X167458000Y-102438560D01*
X164858000Y-102438560D01*
X164610235Y-102487843D01*
X164400191Y-102628191D01*
X164358000Y-102691334D01*
X164315809Y-102628191D01*
X164105765Y-102487843D01*
X163858000Y-102438560D01*
X161258000Y-102438560D01*
X161010235Y-102487843D01*
X160800191Y-102628191D01*
X160659843Y-102838235D01*
X160610560Y-103086000D01*
X160610560Y-104686000D01*
X160619214Y-104729507D01*
X157686242Y-107662480D01*
X157580839Y-107132582D01*
X157424063Y-106897950D01*
X157931547Y-106390466D01*
X157999177Y-106345277D01*
X158178203Y-106077346D01*
X158225200Y-105841074D01*
X158241068Y-105761300D01*
X158225200Y-105681526D01*
X158225200Y-101934374D01*
X158241068Y-101854600D01*
X158178203Y-101538553D01*
X158044365Y-101338252D01*
X157999177Y-101270623D01*
X157931547Y-101225434D01*
X156467400Y-99761288D01*
X156467400Y-99597650D01*
X158713000Y-99597650D01*
X158713000Y-100063209D01*
X158809673Y-100296598D01*
X158988301Y-100475227D01*
X159221690Y-100571900D01*
X159937250Y-100571900D01*
X160096000Y-100413150D01*
X160096000Y-99438900D01*
X160350000Y-99438900D01*
X160350000Y-100413150D01*
X160508750Y-100571900D01*
X161224310Y-100571900D01*
X161457699Y-100475227D01*
X161636327Y-100296598D01*
X161733000Y-100063209D01*
X161733000Y-99597650D01*
X176181000Y-99597650D01*
X176181000Y-100063209D01*
X176277673Y-100296598D01*
X176456301Y-100475227D01*
X176689690Y-100571900D01*
X177405250Y-100571900D01*
X177564000Y-100413150D01*
X177564000Y-99438900D01*
X176339750Y-99438900D01*
X176181000Y-99597650D01*
X161733000Y-99597650D01*
X161574250Y-99438900D01*
X160350000Y-99438900D01*
X160096000Y-99438900D01*
X158871750Y-99438900D01*
X158713000Y-99597650D01*
X156467400Y-99597650D01*
X156467400Y-98560591D01*
X158713000Y-98560591D01*
X158713000Y-99026150D01*
X158871750Y-99184900D01*
X160096000Y-99184900D01*
X160096000Y-98210650D01*
X159937250Y-98051900D01*
X159221690Y-98051900D01*
X158988301Y-98148573D01*
X158809673Y-98327202D01*
X158713000Y-98560591D01*
X156467400Y-98560591D01*
X156467400Y-93901812D01*
X158700880Y-96135292D01*
X158700560Y-96136900D01*
X158700560Y-96886900D01*
X158768874Y-97230335D01*
X158963414Y-97521486D01*
X159254565Y-97716026D01*
X159598000Y-97784340D01*
X160349928Y-97784340D01*
X160617487Y-98051900D01*
X160508750Y-98051900D01*
X160350000Y-98210650D01*
X160350000Y-99184900D01*
X161574250Y-99184900D01*
X161733000Y-99026150D01*
X161733000Y-98721900D01*
X161809560Y-98721900D01*
X161809560Y-98911900D01*
X161858843Y-99159665D01*
X161999191Y-99369709D01*
X162209235Y-99510057D01*
X162457000Y-99559340D01*
X166957000Y-99559340D01*
X167204765Y-99510057D01*
X167414809Y-99369709D01*
X167555157Y-99159665D01*
X167604440Y-98911900D01*
X167604440Y-96911900D01*
X167555157Y-96664135D01*
X167414809Y-96454091D01*
X167204765Y-96313743D01*
X166957000Y-96264460D01*
X162457000Y-96264460D01*
X162209235Y-96313743D01*
X161999191Y-96454091D01*
X161858843Y-96664135D01*
X161809560Y-96911900D01*
X161809560Y-96952947D01*
X161745120Y-96888508D01*
X161745440Y-96886900D01*
X161745440Y-96136900D01*
X161677126Y-95793465D01*
X161482586Y-95502314D01*
X161191435Y-95307774D01*
X160848000Y-95239460D01*
X160096073Y-95239460D01*
X157650000Y-92793388D01*
X157650000Y-91796635D01*
X157874577Y-91646577D01*
X158110000Y-91294242D01*
X158345423Y-91646577D01*
G04 #@! TD*
M02*
