G04 #@! TF.GenerationSoftware,KiCad,Pcbnew,(5.0.0)*
G04 #@! TF.CreationDate,2018-09-03T12:55:52-05:00*
G04 #@! TF.ProjectId,YAPS_Arduino_Shield_AVR,594150535F41726475696E6F5F536869,1.0*
G04 #@! TF.SameCoordinates,Original*
G04 #@! TF.FileFunction,Legend,Top*
G04 #@! TF.FilePolarity,Positive*
%FSLAX46Y46*%
G04 Gerber Fmt 4.6, Leading zero omitted, Abs format (unit mm)*
G04 Created by KiCad (PCBNEW (5.0.0)) date 09/03/18 12:55:52*
%MOMM*%
%LPD*%
G01*
G04 APERTURE LIST*
%ADD10C,0.150000*%
%ADD11C,0.400000*%
%ADD12C,0.120000*%
G04 APERTURE END LIST*
D10*
X126250391Y-102809513D02*
X126250391Y-103142846D01*
X126774200Y-103142846D02*
X125774200Y-103142846D01*
X125774200Y-102666656D01*
X126774200Y-101714275D02*
X126298010Y-102047608D01*
X126774200Y-102285703D02*
X125774200Y-102285703D01*
X125774200Y-101904751D01*
X125821820Y-101809513D01*
X125869439Y-101761894D01*
X125964677Y-101714275D01*
X126107534Y-101714275D01*
X126202772Y-101761894D01*
X126250391Y-101809513D01*
X126298010Y-101904751D01*
X126298010Y-102285703D01*
X125774200Y-101095227D02*
X125774200Y-100904751D01*
X125821820Y-100809513D01*
X125917058Y-100714275D01*
X126107534Y-100666656D01*
X126440867Y-100666656D01*
X126631343Y-100714275D01*
X126726581Y-100809513D01*
X126774200Y-100904751D01*
X126774200Y-101095227D01*
X126726581Y-101190465D01*
X126631343Y-101285703D01*
X126440867Y-101333322D01*
X126107534Y-101333322D01*
X125917058Y-101285703D01*
X125821820Y-101190465D01*
X125774200Y-101095227D01*
X126774200Y-100238084D02*
X125774200Y-100238084D01*
X126774200Y-99666656D01*
X125774200Y-99666656D01*
X125774200Y-99333322D02*
X125774200Y-98761894D01*
X126774200Y-99047608D02*
X125774200Y-99047608D01*
X126726581Y-97714275D02*
X126774200Y-97571418D01*
X126774200Y-97333322D01*
X126726581Y-97238084D01*
X126678962Y-97190465D01*
X126583724Y-97142846D01*
X126488486Y-97142846D01*
X126393248Y-97190465D01*
X126345629Y-97238084D01*
X126298010Y-97333322D01*
X126250391Y-97523799D01*
X126202772Y-97619037D01*
X126155153Y-97666656D01*
X126059915Y-97714275D01*
X125964677Y-97714275D01*
X125869439Y-97666656D01*
X125821820Y-97619037D01*
X125774200Y-97523799D01*
X125774200Y-97285703D01*
X125821820Y-97142846D01*
X126774200Y-96714275D02*
X125774200Y-96714275D01*
X126774200Y-96238084D02*
X125774200Y-96238084D01*
X125774200Y-95999989D01*
X125821820Y-95857132D01*
X125917058Y-95761894D01*
X126012296Y-95714275D01*
X126202772Y-95666656D01*
X126345629Y-95666656D01*
X126536105Y-95714275D01*
X126631343Y-95761894D01*
X126726581Y-95857132D01*
X126774200Y-95999989D01*
X126774200Y-96238084D01*
X126250391Y-95238084D02*
X126250391Y-94904751D01*
X126774200Y-94761894D02*
X126774200Y-95238084D01*
X125774200Y-95238084D01*
X125774200Y-94761894D01*
X130430167Y-100349346D02*
X130906358Y-100349346D01*
X130334929Y-100635060D02*
X130668262Y-99635060D01*
X131001596Y-100635060D01*
X131192072Y-99635060D02*
X131525405Y-100635060D01*
X131858739Y-99635060D01*
X132763500Y-100635060D02*
X132430167Y-100158870D01*
X132192072Y-100635060D02*
X132192072Y-99635060D01*
X132573024Y-99635060D01*
X132668262Y-99682680D01*
X132715881Y-99730299D01*
X132763500Y-99825537D01*
X132763500Y-99968394D01*
X132715881Y-100063632D01*
X132668262Y-100111251D01*
X132573024Y-100158870D01*
X132192072Y-100158870D01*
X133953977Y-100635060D02*
X133953977Y-99635060D01*
X134334929Y-99635060D01*
X134430167Y-99682680D01*
X134477786Y-99730299D01*
X134525405Y-99825537D01*
X134525405Y-99968394D01*
X134477786Y-100063632D01*
X134430167Y-100111251D01*
X134334929Y-100158870D01*
X133953977Y-100158870D01*
X135525405Y-100635060D02*
X135192072Y-100158870D01*
X134953977Y-100635060D02*
X134953977Y-99635060D01*
X135334929Y-99635060D01*
X135430167Y-99682680D01*
X135477786Y-99730299D01*
X135525405Y-99825537D01*
X135525405Y-99968394D01*
X135477786Y-100063632D01*
X135430167Y-100111251D01*
X135334929Y-100158870D01*
X134953977Y-100158870D01*
X136144453Y-99635060D02*
X136334929Y-99635060D01*
X136430167Y-99682680D01*
X136525405Y-99777918D01*
X136573024Y-99968394D01*
X136573024Y-100301727D01*
X136525405Y-100492203D01*
X136430167Y-100587441D01*
X136334929Y-100635060D01*
X136144453Y-100635060D01*
X136049215Y-100587441D01*
X135953977Y-100492203D01*
X135906358Y-100301727D01*
X135906358Y-99968394D01*
X135953977Y-99777918D01*
X136049215Y-99682680D01*
X136144453Y-99635060D01*
X137525405Y-99682680D02*
X137430167Y-99635060D01*
X137287310Y-99635060D01*
X137144453Y-99682680D01*
X137049215Y-99777918D01*
X137001596Y-99873156D01*
X136953977Y-100063632D01*
X136953977Y-100206489D01*
X137001596Y-100396965D01*
X137049215Y-100492203D01*
X137144453Y-100587441D01*
X137287310Y-100635060D01*
X137382548Y-100635060D01*
X137525405Y-100587441D01*
X137573024Y-100539822D01*
X137573024Y-100206489D01*
X137382548Y-100206489D01*
X138573024Y-100635060D02*
X138239691Y-100158870D01*
X138001596Y-100635060D02*
X138001596Y-99635060D01*
X138382548Y-99635060D01*
X138477786Y-99682680D01*
X138525405Y-99730299D01*
X138573024Y-99825537D01*
X138573024Y-99968394D01*
X138525405Y-100063632D01*
X138477786Y-100111251D01*
X138382548Y-100158870D01*
X138001596Y-100158870D01*
X138953977Y-100349346D02*
X139430167Y-100349346D01*
X138858739Y-100635060D02*
X139192072Y-99635060D01*
X139525405Y-100635060D01*
X139858739Y-100635060D02*
X139858739Y-99635060D01*
X140192072Y-100349346D01*
X140525405Y-99635060D01*
X140525405Y-100635060D01*
X141001596Y-100635060D02*
X141001596Y-99635060D01*
X141334929Y-100349346D01*
X141668262Y-99635060D01*
X141668262Y-100635060D01*
X142144453Y-100635060D02*
X142144453Y-99635060D01*
X142620643Y-100635060D02*
X142620643Y-99635060D01*
X143192072Y-100635060D01*
X143192072Y-99635060D01*
X144192072Y-99682680D02*
X144096834Y-99635060D01*
X143953977Y-99635060D01*
X143811120Y-99682680D01*
X143715881Y-99777918D01*
X143668262Y-99873156D01*
X143620643Y-100063632D01*
X143620643Y-100206489D01*
X143668262Y-100396965D01*
X143715881Y-100492203D01*
X143811120Y-100587441D01*
X143953977Y-100635060D01*
X144049215Y-100635060D01*
X144192072Y-100587441D01*
X144239691Y-100539822D01*
X144239691Y-100206489D01*
X144049215Y-100206489D01*
X145382548Y-100587441D02*
X145525405Y-100635060D01*
X145763500Y-100635060D01*
X145858739Y-100587441D01*
X145906358Y-100539822D01*
X145953977Y-100444584D01*
X145953977Y-100349346D01*
X145906358Y-100254108D01*
X145858739Y-100206489D01*
X145763500Y-100158870D01*
X145573024Y-100111251D01*
X145477786Y-100063632D01*
X145430167Y-100016013D01*
X145382548Y-99920775D01*
X145382548Y-99825537D01*
X145430167Y-99730299D01*
X145477786Y-99682680D01*
X145573024Y-99635060D01*
X145811120Y-99635060D01*
X145953977Y-99682680D01*
X146382548Y-100635060D02*
X146382548Y-99635060D01*
X146382548Y-100111251D02*
X146953977Y-100111251D01*
X146953977Y-100635060D02*
X146953977Y-99635060D01*
X147430167Y-100635060D02*
X147430167Y-99635060D01*
X147906358Y-100111251D02*
X148239691Y-100111251D01*
X148382548Y-100635060D02*
X147906358Y-100635060D01*
X147906358Y-99635060D01*
X148382548Y-99635060D01*
X149287310Y-100635060D02*
X148811120Y-100635060D01*
X148811120Y-99635060D01*
X149620643Y-100635060D02*
X149620643Y-99635060D01*
X149858739Y-99635060D01*
X150001596Y-99682680D01*
X150096834Y-99777918D01*
X150144453Y-99873156D01*
X150192072Y-100063632D01*
X150192072Y-100206489D01*
X150144453Y-100396965D01*
X150096834Y-100492203D01*
X150001596Y-100587441D01*
X149858739Y-100635060D01*
X149620643Y-100635060D01*
X151239691Y-99635060D02*
X151573024Y-100635060D01*
X151906358Y-99635060D01*
X152763500Y-100635060D02*
X152192072Y-100635060D01*
X152477786Y-100635060D02*
X152477786Y-99635060D01*
X152382548Y-99777918D01*
X152287310Y-99873156D01*
X152192072Y-99920775D01*
X153192072Y-100539822D02*
X153239691Y-100587441D01*
X153192072Y-100635060D01*
X153144453Y-100587441D01*
X153192072Y-100539822D01*
X153192072Y-100635060D01*
X153858739Y-99635060D02*
X153953977Y-99635060D01*
X154049215Y-99682680D01*
X154096834Y-99730299D01*
X154144453Y-99825537D01*
X154192072Y-100016013D01*
X154192072Y-100254108D01*
X154144453Y-100444584D01*
X154096834Y-100539822D01*
X154049215Y-100587441D01*
X153953977Y-100635060D01*
X153858739Y-100635060D01*
X153763500Y-100587441D01*
X153715881Y-100539822D01*
X153668262Y-100444584D01*
X153620643Y-100254108D01*
X153620643Y-100016013D01*
X153668262Y-99825537D01*
X153715881Y-99730299D01*
X153763500Y-99682680D01*
X153858739Y-99635060D01*
X127688507Y-124282460D02*
X127355174Y-123806270D01*
X127117079Y-124282460D02*
X127117079Y-123282460D01*
X127498031Y-123282460D01*
X127593269Y-123330080D01*
X127640888Y-123377699D01*
X127688507Y-123472937D01*
X127688507Y-123615794D01*
X127640888Y-123711032D01*
X127593269Y-123758651D01*
X127498031Y-123806270D01*
X127117079Y-123806270D01*
X127878983Y-124377699D02*
X128640888Y-124377699D01*
X128831364Y-123377699D02*
X128878983Y-123330080D01*
X128974221Y-123282460D01*
X129212317Y-123282460D01*
X129307555Y-123330080D01*
X129355174Y-123377699D01*
X129402793Y-123472937D01*
X129402793Y-123568175D01*
X129355174Y-123711032D01*
X128783745Y-124282460D01*
X129402793Y-124282460D01*
X130021840Y-123282460D02*
X130117079Y-123282460D01*
X130212317Y-123330080D01*
X130259936Y-123377699D01*
X130307555Y-123472937D01*
X130355174Y-123663413D01*
X130355174Y-123901508D01*
X130307555Y-124091984D01*
X130259936Y-124187222D01*
X130212317Y-124234841D01*
X130117079Y-124282460D01*
X130021840Y-124282460D01*
X129926602Y-124234841D01*
X129878983Y-124187222D01*
X129831364Y-124091984D01*
X129783745Y-123901508D01*
X129783745Y-123663413D01*
X129831364Y-123472937D01*
X129878983Y-123377699D01*
X129926602Y-123330080D01*
X130021840Y-123282460D01*
X131307555Y-124282460D02*
X130736126Y-124282460D01*
X131021840Y-124282460D02*
X131021840Y-123282460D01*
X130926602Y-123425318D01*
X130831364Y-123520556D01*
X130736126Y-123568175D01*
X131878983Y-123711032D02*
X131783745Y-123663413D01*
X131736126Y-123615794D01*
X131688507Y-123520556D01*
X131688507Y-123472937D01*
X131736126Y-123377699D01*
X131783745Y-123330080D01*
X131878983Y-123282460D01*
X132069460Y-123282460D01*
X132164698Y-123330080D01*
X132212317Y-123377699D01*
X132259936Y-123472937D01*
X132259936Y-123520556D01*
X132212317Y-123615794D01*
X132164698Y-123663413D01*
X132069460Y-123711032D01*
X131878983Y-123711032D01*
X131783745Y-123758651D01*
X131736126Y-123806270D01*
X131688507Y-123901508D01*
X131688507Y-124091984D01*
X131736126Y-124187222D01*
X131783745Y-124234841D01*
X131878983Y-124282460D01*
X132069460Y-124282460D01*
X132164698Y-124234841D01*
X132212317Y-124187222D01*
X132259936Y-124091984D01*
X132259936Y-123901508D01*
X132212317Y-123806270D01*
X132164698Y-123758651D01*
X132069460Y-123711032D01*
X132878983Y-123282460D02*
X132974221Y-123282460D01*
X133069460Y-123330080D01*
X133117079Y-123377699D01*
X133164698Y-123472937D01*
X133212317Y-123663413D01*
X133212317Y-123901508D01*
X133164698Y-124091984D01*
X133117079Y-124187222D01*
X133069460Y-124234841D01*
X132974221Y-124282460D01*
X132878983Y-124282460D01*
X132783745Y-124234841D01*
X132736126Y-124187222D01*
X132688507Y-124091984D01*
X132640888Y-123901508D01*
X132640888Y-123663413D01*
X132688507Y-123472937D01*
X132736126Y-123377699D01*
X132783745Y-123330080D01*
X132878983Y-123282460D01*
X133688507Y-124282460D02*
X133878983Y-124282460D01*
X133974221Y-124234841D01*
X134021840Y-124187222D01*
X134117079Y-124044365D01*
X134164698Y-123853889D01*
X134164698Y-123472937D01*
X134117079Y-123377699D01*
X134069460Y-123330080D01*
X133974221Y-123282460D01*
X133783745Y-123282460D01*
X133688507Y-123330080D01*
X133640888Y-123377699D01*
X133593269Y-123472937D01*
X133593269Y-123711032D01*
X133640888Y-123806270D01*
X133688507Y-123853889D01*
X133783745Y-123901508D01*
X133974221Y-123901508D01*
X134069460Y-123853889D01*
X134117079Y-123806270D01*
X134164698Y-123711032D01*
X134783745Y-123282460D02*
X134878983Y-123282460D01*
X134974221Y-123330080D01*
X135021840Y-123377699D01*
X135069460Y-123472937D01*
X135117079Y-123663413D01*
X135117079Y-123901508D01*
X135069460Y-124091984D01*
X135021840Y-124187222D01*
X134974221Y-124234841D01*
X134878983Y-124282460D01*
X134783745Y-124282460D01*
X134688507Y-124234841D01*
X134640888Y-124187222D01*
X134593269Y-124091984D01*
X134545650Y-123901508D01*
X134545650Y-123663413D01*
X134593269Y-123472937D01*
X134640888Y-123377699D01*
X134688507Y-123330080D01*
X134783745Y-123282460D01*
X135498031Y-123377699D02*
X135545650Y-123330080D01*
X135640888Y-123282460D01*
X135878983Y-123282460D01*
X135974221Y-123330080D01*
X136021840Y-123377699D01*
X136069460Y-123472937D01*
X136069460Y-123568175D01*
X136021840Y-123711032D01*
X135450412Y-124282460D01*
X136069460Y-124282460D01*
D11*
X142211821Y-96102442D02*
X138402298Y-96102442D01*
X139354679Y-97054823D02*
X138402298Y-96102442D01*
X139354679Y-95150061D01*
D10*
X129118122Y-73947160D02*
X129546694Y-73947160D01*
X129032408Y-74204302D02*
X129332408Y-73304302D01*
X129632408Y-74204302D01*
X130360980Y-73304302D02*
X129932408Y-73304302D01*
X129889551Y-73732874D01*
X129932408Y-73690017D01*
X130018122Y-73647160D01*
X130232408Y-73647160D01*
X130318122Y-73690017D01*
X130360980Y-73732874D01*
X130403837Y-73818588D01*
X130403837Y-74032874D01*
X130360980Y-74118588D01*
X130318122Y-74161445D01*
X130232408Y-74204302D01*
X130018122Y-74204302D01*
X129932408Y-74161445D01*
X129889551Y-74118588D01*
X131655582Y-73947160D02*
X132084154Y-73947160D01*
X131569868Y-74204302D02*
X131869868Y-73304302D01*
X132169868Y-74204302D01*
X132855582Y-73604302D02*
X132855582Y-74204302D01*
X132641297Y-73261445D02*
X132427011Y-73904302D01*
X132984154Y-73904302D01*
X133595886Y-73919826D02*
X133929220Y-73919826D01*
X133529220Y-74119826D02*
X133762553Y-73419826D01*
X133995886Y-74119826D01*
X134629220Y-74119826D02*
X134395886Y-73786493D01*
X134229220Y-74119826D02*
X134229220Y-73419826D01*
X134495886Y-73419826D01*
X134562553Y-73453160D01*
X134595886Y-73486493D01*
X134629220Y-73553160D01*
X134629220Y-73653160D01*
X134595886Y-73719826D01*
X134562553Y-73753160D01*
X134495886Y-73786493D01*
X134229220Y-73786493D01*
X134929220Y-73753160D02*
X135162553Y-73753160D01*
X135262553Y-74119826D02*
X134929220Y-74119826D01*
X134929220Y-73419826D01*
X135262553Y-73419826D01*
X135795886Y-73753160D02*
X135562553Y-73753160D01*
X135562553Y-74119826D02*
X135562553Y-73419826D01*
X135895886Y-73419826D01*
X136840045Y-73347160D02*
X136754331Y-73304302D01*
X136625760Y-73304302D01*
X136497188Y-73347160D01*
X136411474Y-73432874D01*
X136368617Y-73518588D01*
X136325760Y-73690017D01*
X136325760Y-73818588D01*
X136368617Y-73990017D01*
X136411474Y-74075731D01*
X136497188Y-74161445D01*
X136625760Y-74204302D01*
X136711474Y-74204302D01*
X136840045Y-74161445D01*
X136882902Y-74118588D01*
X136882902Y-73818588D01*
X136711474Y-73818588D01*
X137268617Y-74204302D02*
X137268617Y-73304302D01*
X137782902Y-74204302D01*
X137782902Y-73304302D01*
X138211474Y-74204302D02*
X138211474Y-73304302D01*
X138425760Y-73304302D01*
X138554331Y-73347160D01*
X138640045Y-73432874D01*
X138682902Y-73518588D01*
X138725760Y-73690017D01*
X138725760Y-73818588D01*
X138682902Y-73990017D01*
X138640045Y-74075731D01*
X138554331Y-74161445D01*
X138425760Y-74204302D01*
X138211474Y-74204302D01*
X139762251Y-74204302D02*
X139247965Y-74204302D01*
X139505108Y-74204302D02*
X139505108Y-73304302D01*
X139419394Y-73432874D01*
X139333680Y-73518588D01*
X139247965Y-73561445D01*
X140062251Y-73304302D02*
X140619394Y-73304302D01*
X140319394Y-73647160D01*
X140447965Y-73647160D01*
X140533680Y-73690017D01*
X140576537Y-73732874D01*
X140619394Y-73818588D01*
X140619394Y-74032874D01*
X140576537Y-74118588D01*
X140533680Y-74161445D01*
X140447965Y-74204302D01*
X140190822Y-74204302D01*
X140105108Y-74161445D01*
X140062251Y-74118588D01*
X142279391Y-74204302D02*
X141765105Y-74204302D01*
X142022248Y-74204302D02*
X142022248Y-73304302D01*
X141936534Y-73432874D01*
X141850820Y-73518588D01*
X141765105Y-73561445D01*
X142622248Y-73390017D02*
X142665105Y-73347160D01*
X142750820Y-73304302D01*
X142965105Y-73304302D01*
X143050820Y-73347160D01*
X143093677Y-73390017D01*
X143136534Y-73475731D01*
X143136534Y-73561445D01*
X143093677Y-73690017D01*
X142579391Y-74204302D01*
X143136534Y-74204302D01*
X144839711Y-74204302D02*
X144325425Y-74204302D01*
X144582568Y-74204302D02*
X144582568Y-73304302D01*
X144496854Y-73432874D01*
X144411140Y-73518588D01*
X144325425Y-73561445D01*
X145696854Y-74204302D02*
X145182568Y-74204302D01*
X145439711Y-74204302D02*
X145439711Y-73304302D01*
X145353997Y-73432874D01*
X145268282Y-73518588D01*
X145182568Y-73561445D01*
X147333991Y-74204302D02*
X146819705Y-74204302D01*
X147076848Y-74204302D02*
X147076848Y-73304302D01*
X146991134Y-73432874D01*
X146905420Y-73518588D01*
X146819705Y-73561445D01*
X147891134Y-73304302D02*
X147976848Y-73304302D01*
X148062562Y-73347160D01*
X148105420Y-73390017D01*
X148148277Y-73475731D01*
X148191134Y-73647160D01*
X148191134Y-73861445D01*
X148148277Y-74032874D01*
X148105420Y-74118588D01*
X148062562Y-74161445D01*
X147976848Y-74204302D01*
X147891134Y-74204302D01*
X147805420Y-74161445D01*
X147762562Y-74118588D01*
X147719705Y-74032874D01*
X147676848Y-73861445D01*
X147676848Y-73647160D01*
X147719705Y-73475731D01*
X147762562Y-73390017D01*
X147805420Y-73347160D01*
X147891134Y-73304302D01*
X149914631Y-74204302D02*
X150086060Y-74204302D01*
X150171774Y-74161445D01*
X150214631Y-74118588D01*
X150300345Y-73990017D01*
X150343202Y-73818588D01*
X150343202Y-73475731D01*
X150300345Y-73390017D01*
X150257488Y-73347160D01*
X150171774Y-73304302D01*
X150000345Y-73304302D01*
X149914631Y-73347160D01*
X149871774Y-73390017D01*
X149828917Y-73475731D01*
X149828917Y-73690017D01*
X149871774Y-73775731D01*
X149914631Y-73818588D01*
X150000345Y-73861445D01*
X150171774Y-73861445D01*
X150257488Y-73818588D01*
X150300345Y-73775731D01*
X150343202Y-73690017D01*
X152626705Y-73690017D02*
X152540991Y-73647160D01*
X152498134Y-73604302D01*
X152455277Y-73518588D01*
X152455277Y-73475731D01*
X152498134Y-73390017D01*
X152540991Y-73347160D01*
X152626705Y-73304302D01*
X152798134Y-73304302D01*
X152883848Y-73347160D01*
X152926705Y-73390017D01*
X152969562Y-73475731D01*
X152969562Y-73518588D01*
X152926705Y-73604302D01*
X152883848Y-73647160D01*
X152798134Y-73690017D01*
X152626705Y-73690017D01*
X152540991Y-73732874D01*
X152498134Y-73775731D01*
X152455277Y-73861445D01*
X152455277Y-74032874D01*
X152498134Y-74118588D01*
X152540991Y-74161445D01*
X152626705Y-74204302D01*
X152798134Y-74204302D01*
X152883848Y-74161445D01*
X152926705Y-74118588D01*
X152969562Y-74032874D01*
X152969562Y-73861445D01*
X152926705Y-73775731D01*
X152883848Y-73732874D01*
X152798134Y-73690017D01*
X156341800Y-73304302D02*
X156941800Y-73304302D01*
X156556085Y-74204302D01*
X159411648Y-73304302D02*
X159240220Y-73304302D01*
X159154505Y-73347160D01*
X159111648Y-73390017D01*
X159025934Y-73518588D01*
X158983077Y-73690017D01*
X158983077Y-74032874D01*
X159025934Y-74118588D01*
X159068791Y-74161445D01*
X159154505Y-74204302D01*
X159325934Y-74204302D01*
X159411648Y-74161445D01*
X159454505Y-74118588D01*
X159497362Y-74032874D01*
X159497362Y-73818588D01*
X159454505Y-73732874D01*
X159411648Y-73690017D01*
X159325934Y-73647160D01*
X159154505Y-73647160D01*
X159068791Y-73690017D01*
X159025934Y-73732874D01*
X158983077Y-73818588D01*
X161961485Y-73304302D02*
X161532914Y-73304302D01*
X161490057Y-73732874D01*
X161532914Y-73690017D01*
X161618628Y-73647160D01*
X161832914Y-73647160D01*
X161918628Y-73690017D01*
X161961485Y-73732874D01*
X162004342Y-73818588D01*
X162004342Y-74032874D01*
X161961485Y-74118588D01*
X161918628Y-74161445D01*
X161832914Y-74204302D01*
X161618628Y-74204302D01*
X161532914Y-74161445D01*
X161490057Y-74118588D01*
X164514508Y-73604302D02*
X164514508Y-74204302D01*
X164300222Y-73261445D02*
X164085937Y-73904302D01*
X164643080Y-73904302D01*
X166659280Y-73304302D02*
X167216422Y-73304302D01*
X166916422Y-73647160D01*
X167044994Y-73647160D01*
X167130708Y-73690017D01*
X167173565Y-73732874D01*
X167216422Y-73818588D01*
X167216422Y-74032874D01*
X167173565Y-74118588D01*
X167130708Y-74161445D01*
X167044994Y-74204302D01*
X166787851Y-74204302D01*
X166702137Y-74161445D01*
X166659280Y-74118588D01*
X169158317Y-73390017D02*
X169201174Y-73347160D01*
X169286888Y-73304302D01*
X169501174Y-73304302D01*
X169586888Y-73347160D01*
X169629745Y-73390017D01*
X169672602Y-73475731D01*
X169672602Y-73561445D01*
X169629745Y-73690017D01*
X169115460Y-74204302D01*
X169672602Y-74204302D01*
X172197362Y-74204302D02*
X171683077Y-74204302D01*
X171940220Y-74204302D02*
X171940220Y-73304302D01*
X171854505Y-73432874D01*
X171768791Y-73518588D01*
X171683077Y-73561445D01*
X174422122Y-73304302D02*
X174507837Y-73304302D01*
X174593551Y-73347160D01*
X174636408Y-73390017D01*
X174679265Y-73475731D01*
X174722122Y-73647160D01*
X174722122Y-73861445D01*
X174679265Y-74032874D01*
X174636408Y-74118588D01*
X174593551Y-74161445D01*
X174507837Y-74204302D01*
X174422122Y-74204302D01*
X174336408Y-74161445D01*
X174293551Y-74118588D01*
X174250694Y-74032874D01*
X174207837Y-73861445D01*
X174207837Y-73647160D01*
X174250694Y-73475731D01*
X174293551Y-73390017D01*
X174336408Y-73347160D01*
X174422122Y-73304302D01*
X140574351Y-126144762D02*
X140574351Y-125244762D01*
X141174351Y-125244762D02*
X141345780Y-125244762D01*
X141431494Y-125287620D01*
X141517208Y-125373334D01*
X141560065Y-125544762D01*
X141560065Y-125844762D01*
X141517208Y-126016191D01*
X141431494Y-126101905D01*
X141345780Y-126144762D01*
X141174351Y-126144762D01*
X141088637Y-126101905D01*
X141002922Y-126016191D01*
X140960065Y-125844762D01*
X140960065Y-125544762D01*
X141002922Y-125373334D01*
X141088637Y-125287620D01*
X141174351Y-125244762D01*
X142460065Y-126144762D02*
X142160065Y-125716191D01*
X141945780Y-126144762D02*
X141945780Y-125244762D01*
X142288637Y-125244762D01*
X142374351Y-125287620D01*
X142417208Y-125330477D01*
X142460065Y-125416191D01*
X142460065Y-125544762D01*
X142417208Y-125630477D01*
X142374351Y-125673334D01*
X142288637Y-125716191D01*
X141945780Y-125716191D01*
X143492122Y-126144762D02*
X143192122Y-125716191D01*
X142977837Y-126144762D02*
X142977837Y-125244762D01*
X143320694Y-125244762D01*
X143406408Y-125287620D01*
X143449265Y-125330477D01*
X143492122Y-125416191D01*
X143492122Y-125544762D01*
X143449265Y-125630477D01*
X143406408Y-125673334D01*
X143320694Y-125716191D01*
X142977837Y-125716191D01*
X143834980Y-126101905D02*
X143963551Y-126144762D01*
X144177837Y-126144762D01*
X144263551Y-126101905D01*
X144306408Y-126059048D01*
X144349265Y-125973334D01*
X144349265Y-125887620D01*
X144306408Y-125801905D01*
X144263551Y-125759048D01*
X144177837Y-125716191D01*
X144006408Y-125673334D01*
X143920694Y-125630477D01*
X143877837Y-125587620D01*
X143834980Y-125501905D01*
X143834980Y-125416191D01*
X143877837Y-125330477D01*
X143920694Y-125287620D01*
X144006408Y-125244762D01*
X144220694Y-125244762D01*
X144349265Y-125287620D01*
X144606408Y-125244762D02*
X145120694Y-125244762D01*
X144863551Y-126144762D02*
X144863551Y-125244762D01*
X145537366Y-125360286D02*
X145970700Y-125360286D01*
X145737366Y-125626953D01*
X145837366Y-125626953D01*
X145904033Y-125660286D01*
X145937366Y-125693620D01*
X145970700Y-125760286D01*
X145970700Y-125926953D01*
X145937366Y-125993620D01*
X145904033Y-126026953D01*
X145837366Y-126060286D01*
X145637366Y-126060286D01*
X145570700Y-126026953D01*
X145537366Y-125993620D01*
X146270700Y-125993620D02*
X146304033Y-126026953D01*
X146270700Y-126060286D01*
X146237366Y-126026953D01*
X146270700Y-125993620D01*
X146270700Y-126060286D01*
X146537366Y-125360286D02*
X146970700Y-125360286D01*
X146737366Y-125626953D01*
X146837366Y-125626953D01*
X146904033Y-125660286D01*
X146937366Y-125693620D01*
X146970700Y-125760286D01*
X146970700Y-125926953D01*
X146937366Y-125993620D01*
X146904033Y-126026953D01*
X146837366Y-126060286D01*
X146637366Y-126060286D01*
X146570700Y-126026953D01*
X146537366Y-125993620D01*
X147170700Y-125360286D02*
X147404033Y-126060286D01*
X147637366Y-125360286D01*
X148936731Y-125244762D02*
X148508160Y-125244762D01*
X148465302Y-125673334D01*
X148508160Y-125630477D01*
X148593874Y-125587620D01*
X148808160Y-125587620D01*
X148893874Y-125630477D01*
X148936731Y-125673334D01*
X148979588Y-125759048D01*
X148979588Y-125973334D01*
X148936731Y-126059048D01*
X148893874Y-126101905D01*
X148808160Y-126144762D01*
X148593874Y-126144762D01*
X148508160Y-126101905D01*
X148465302Y-126059048D01*
X149236731Y-125244762D02*
X149536731Y-126144762D01*
X149836731Y-125244762D01*
X152250225Y-125287620D02*
X152164511Y-125244762D01*
X152035940Y-125244762D01*
X151907368Y-125287620D01*
X151821654Y-125373334D01*
X151778797Y-125459048D01*
X151735940Y-125630477D01*
X151735940Y-125759048D01*
X151778797Y-125930477D01*
X151821654Y-126016191D01*
X151907368Y-126101905D01*
X152035940Y-126144762D01*
X152121654Y-126144762D01*
X152250225Y-126101905D01*
X152293082Y-126059048D01*
X152293082Y-125759048D01*
X152121654Y-125759048D01*
X152678797Y-126144762D02*
X152678797Y-125244762D01*
X153193082Y-126144762D01*
X153193082Y-125244762D01*
X153621654Y-126144762D02*
X153621654Y-125244762D01*
X153835940Y-125244762D01*
X153964511Y-125287620D01*
X154050225Y-125373334D01*
X154093082Y-125459048D01*
X154135940Y-125630477D01*
X154135940Y-125759048D01*
X154093082Y-125930477D01*
X154050225Y-126016191D01*
X153964511Y-126101905D01*
X153835940Y-126144762D01*
X153621654Y-126144762D01*
X155821971Y-125244762D02*
X156121971Y-126144762D01*
X156421971Y-125244762D01*
X156721971Y-126144762D02*
X156721971Y-125544762D01*
X156721971Y-125244762D02*
X156679114Y-125287620D01*
X156721971Y-125330477D01*
X156764828Y-125287620D01*
X156721971Y-125244762D01*
X156721971Y-125330477D01*
X157150542Y-125544762D02*
X157150542Y-126144762D01*
X157150542Y-125630477D02*
X157193400Y-125587620D01*
X157279114Y-125544762D01*
X157407685Y-125544762D01*
X157493400Y-125587620D01*
X157536257Y-125673334D01*
X157536257Y-126144762D01*
X161175462Y-125887620D02*
X161604034Y-125887620D01*
X161089748Y-126144762D02*
X161389748Y-125244762D01*
X161689748Y-126144762D01*
X162161177Y-125244762D02*
X162246891Y-125244762D01*
X162332605Y-125287620D01*
X162375462Y-125330477D01*
X162418320Y-125416191D01*
X162461177Y-125587620D01*
X162461177Y-125801905D01*
X162418320Y-125973334D01*
X162375462Y-126059048D01*
X162332605Y-126101905D01*
X162246891Y-126144762D01*
X162161177Y-126144762D01*
X162075462Y-126101905D01*
X162032605Y-126059048D01*
X161989748Y-125973334D01*
X161946891Y-125801905D01*
X161946891Y-125587620D01*
X161989748Y-125416191D01*
X162032605Y-125330477D01*
X162075462Y-125287620D01*
X162161177Y-125244762D01*
X163756102Y-125887620D02*
X164184674Y-125887620D01*
X163670388Y-126144762D02*
X163970388Y-125244762D01*
X164270388Y-126144762D01*
X165041817Y-126144762D02*
X164527531Y-126144762D01*
X164784674Y-126144762D02*
X164784674Y-125244762D01*
X164698960Y-125373334D01*
X164613245Y-125459048D01*
X164527531Y-125501905D01*
X166222442Y-125887620D02*
X166651014Y-125887620D01*
X166136728Y-126144762D02*
X166436728Y-125244762D01*
X166736728Y-126144762D01*
X166993871Y-125330477D02*
X167036728Y-125287620D01*
X167122442Y-125244762D01*
X167336728Y-125244762D01*
X167422442Y-125287620D01*
X167465300Y-125330477D01*
X167508157Y-125416191D01*
X167508157Y-125501905D01*
X167465300Y-125630477D01*
X166951014Y-126144762D01*
X167508157Y-126144762D01*
X168762442Y-125887620D02*
X169191014Y-125887620D01*
X168676728Y-126144762D02*
X168976728Y-125244762D01*
X169276728Y-126144762D01*
X169491014Y-125244762D02*
X170048157Y-125244762D01*
X169748157Y-125587620D01*
X169876728Y-125587620D01*
X169962442Y-125630477D01*
X170005300Y-125673334D01*
X170048157Y-125759048D01*
X170048157Y-125973334D01*
X170005300Y-126059048D01*
X169962442Y-126101905D01*
X169876728Y-126144762D01*
X169619585Y-126144762D01*
X169533871Y-126101905D01*
X169491014Y-126059048D01*
X171299902Y-125887620D02*
X171728474Y-125887620D01*
X171214188Y-126144762D02*
X171514188Y-125244762D01*
X171814188Y-126144762D01*
X172499902Y-125544762D02*
X172499902Y-126144762D01*
X172285617Y-125201905D02*
X172071331Y-125844762D01*
X172628474Y-125844762D01*
X173791642Y-125887620D02*
X174220214Y-125887620D01*
X173705928Y-126144762D02*
X174005928Y-125244762D01*
X174305928Y-126144762D01*
X175034500Y-125244762D02*
X174605928Y-125244762D01*
X174563071Y-125673334D01*
X174605928Y-125630477D01*
X174691642Y-125587620D01*
X174905928Y-125587620D01*
X174991642Y-125630477D01*
X175034500Y-125673334D01*
X175077357Y-125759048D01*
X175077357Y-125973334D01*
X175034500Y-126059048D01*
X174991642Y-126101905D01*
X174905928Y-126144762D01*
X174691642Y-126144762D01*
X174605928Y-126101905D01*
X174563071Y-126059048D01*
X176820224Y-118682520D02*
X176344034Y-118682520D01*
X176296415Y-119158711D01*
X176344034Y-119111092D01*
X176439272Y-119063473D01*
X176677367Y-119063473D01*
X176772605Y-119111092D01*
X176820224Y-119158711D01*
X176867843Y-119253949D01*
X176867843Y-119492044D01*
X176820224Y-119587282D01*
X176772605Y-119634901D01*
X176677367Y-119682520D01*
X176439272Y-119682520D01*
X176344034Y-119634901D01*
X176296415Y-119587282D01*
X177201177Y-118682520D02*
X177820224Y-118682520D01*
X177486891Y-119063473D01*
X177629748Y-119063473D01*
X177724986Y-119111092D01*
X177772605Y-119158711D01*
X177820224Y-119253949D01*
X177820224Y-119492044D01*
X177772605Y-119587282D01*
X177724986Y-119634901D01*
X177629748Y-119682520D01*
X177344034Y-119682520D01*
X177248796Y-119634901D01*
X177201177Y-119587282D01*
X176711004Y-116150140D02*
X176234814Y-116150140D01*
X176187195Y-116626331D01*
X176234814Y-116578712D01*
X176330052Y-116531093D01*
X176568147Y-116531093D01*
X176663385Y-116578712D01*
X176711004Y-116626331D01*
X176758623Y-116721569D01*
X176758623Y-116959664D01*
X176711004Y-117054902D01*
X176663385Y-117102521D01*
X176568147Y-117150140D01*
X176330052Y-117150140D01*
X176234814Y-117102521D01*
X176187195Y-117054902D01*
X177711004Y-117150140D02*
X177139576Y-117150140D01*
X177425290Y-117150140D02*
X177425290Y-116150140D01*
X177330052Y-116292998D01*
X177234814Y-116388236D01*
X177139576Y-116435855D01*
X168288364Y-118756180D02*
X167812174Y-118756180D01*
X167764555Y-119232371D01*
X167812174Y-119184752D01*
X167907412Y-119137133D01*
X168145507Y-119137133D01*
X168240745Y-119184752D01*
X168288364Y-119232371D01*
X168335983Y-119327609D01*
X168335983Y-119565704D01*
X168288364Y-119660942D01*
X168240745Y-119708561D01*
X168145507Y-119756180D01*
X167907412Y-119756180D01*
X167812174Y-119708561D01*
X167764555Y-119660942D01*
X168716936Y-118851419D02*
X168764555Y-118803800D01*
X168859793Y-118756180D01*
X169097888Y-118756180D01*
X169193126Y-118803800D01*
X169240745Y-118851419D01*
X169288364Y-118946657D01*
X169288364Y-119041895D01*
X169240745Y-119184752D01*
X168669317Y-119756180D01*
X169288364Y-119756180D01*
X168288364Y-116150140D02*
X167812174Y-116150140D01*
X167764555Y-116626331D01*
X167812174Y-116578712D01*
X167907412Y-116531093D01*
X168145507Y-116531093D01*
X168240745Y-116578712D01*
X168288364Y-116626331D01*
X168335983Y-116721569D01*
X168335983Y-116959664D01*
X168288364Y-117054902D01*
X168240745Y-117102521D01*
X168145507Y-117150140D01*
X167907412Y-117150140D01*
X167812174Y-117102521D01*
X167764555Y-117054902D01*
X168955031Y-116150140D02*
X169050269Y-116150140D01*
X169145507Y-116197760D01*
X169193126Y-116245379D01*
X169240745Y-116340617D01*
X169288364Y-116531093D01*
X169288364Y-116769188D01*
X169240745Y-116959664D01*
X169193126Y-117054902D01*
X169145507Y-117102521D01*
X169050269Y-117150140D01*
X168955031Y-117150140D01*
X168859793Y-117102521D01*
X168812174Y-117054902D01*
X168764555Y-116959664D01*
X168716936Y-116769188D01*
X168716936Y-116531093D01*
X168764555Y-116340617D01*
X168812174Y-116245379D01*
X168859793Y-116197760D01*
X168955031Y-116150140D01*
X171753969Y-113271560D02*
X171753969Y-112271560D01*
X172182540Y-113223941D02*
X172325398Y-113271560D01*
X172563493Y-113271560D01*
X172658731Y-113223941D01*
X172706350Y-113176322D01*
X172753969Y-113081084D01*
X172753969Y-112985846D01*
X172706350Y-112890608D01*
X172658731Y-112842989D01*
X172563493Y-112795370D01*
X172373017Y-112747751D01*
X172277779Y-112700132D01*
X172230160Y-112652513D01*
X172182540Y-112557275D01*
X172182540Y-112462037D01*
X172230160Y-112366799D01*
X172277779Y-112319180D01*
X172373017Y-112271560D01*
X172611112Y-112271560D01*
X172753969Y-112319180D01*
X173182540Y-113271560D02*
X173182540Y-112271560D01*
X173563493Y-112271560D01*
X173658731Y-112319180D01*
X173706350Y-112366799D01*
X173753969Y-112462037D01*
X173753969Y-112604894D01*
X173706350Y-112700132D01*
X173658731Y-112747751D01*
X173563493Y-112795370D01*
X173182540Y-112795370D01*
X152441874Y-103142040D02*
X151870445Y-103142040D01*
X152156160Y-103142040D02*
X152156160Y-102142040D01*
X152060921Y-102284898D01*
X151965683Y-102380136D01*
X151870445Y-102427755D01*
X140417514Y-103142040D02*
X139846085Y-103142040D01*
X140131800Y-103142040D02*
X140131800Y-102142040D01*
X140036561Y-102284898D01*
X139941323Y-102380136D01*
X139846085Y-102427755D01*
X128416014Y-103142040D02*
X127844585Y-103142040D01*
X128130300Y-103142040D02*
X128130300Y-102142040D01*
X128035061Y-102284898D01*
X127939823Y-102380136D01*
X127844585Y-102427755D01*
X152341272Y-113365540D02*
X151769843Y-113365540D01*
X152055558Y-113365540D02*
X152055558Y-112365540D01*
X151960320Y-112508398D01*
X151865081Y-112603636D01*
X151769843Y-112651255D01*
X153198415Y-112365540D02*
X153007939Y-112365540D01*
X152912700Y-112413160D01*
X152865081Y-112460779D01*
X152769843Y-112603636D01*
X152722224Y-112794112D01*
X152722224Y-113175064D01*
X152769843Y-113270302D01*
X152817462Y-113317921D01*
X152912700Y-113365540D01*
X153103177Y-113365540D01*
X153198415Y-113317921D01*
X153246034Y-113270302D01*
X153293653Y-113175064D01*
X153293653Y-112936969D01*
X153246034Y-112841731D01*
X153198415Y-112794112D01*
X153103177Y-112746493D01*
X152912700Y-112746493D01*
X152817462Y-112794112D01*
X152769843Y-112841731D01*
X152722224Y-112936969D01*
X153865081Y-112794112D02*
X153769843Y-112746493D01*
X153722224Y-112698874D01*
X153674605Y-112603636D01*
X153674605Y-112556017D01*
X153722224Y-112460779D01*
X153769843Y-112413160D01*
X153865081Y-112365540D01*
X154055558Y-112365540D01*
X154150796Y-112413160D01*
X154198415Y-112460779D01*
X154246034Y-112556017D01*
X154246034Y-112603636D01*
X154198415Y-112698874D01*
X154150796Y-112746493D01*
X154055558Y-112794112D01*
X153865081Y-112794112D01*
X153769843Y-112841731D01*
X153722224Y-112889350D01*
X153674605Y-112984588D01*
X153674605Y-113175064D01*
X153722224Y-113270302D01*
X153769843Y-113317921D01*
X153865081Y-113365540D01*
X154055558Y-113365540D01*
X154150796Y-113317921D01*
X154198415Y-113270302D01*
X154246034Y-113175064D01*
X154246034Y-112984588D01*
X154198415Y-112889350D01*
X154150796Y-112841731D01*
X154055558Y-112794112D01*
X155388891Y-112317921D02*
X154531748Y-113603636D01*
X155626986Y-112365540D02*
X156246034Y-112365540D01*
X155912700Y-112746493D01*
X156055558Y-112746493D01*
X156150796Y-112794112D01*
X156198415Y-112841731D01*
X156246034Y-112936969D01*
X156246034Y-113175064D01*
X156198415Y-113270302D01*
X156150796Y-113317921D01*
X156055558Y-113365540D01*
X155769843Y-113365540D01*
X155674605Y-113317921D01*
X155626986Y-113270302D01*
X156626986Y-112460779D02*
X156674605Y-112413160D01*
X156769843Y-112365540D01*
X157007939Y-112365540D01*
X157103177Y-112413160D01*
X157150796Y-112460779D01*
X157198415Y-112556017D01*
X157198415Y-112651255D01*
X157150796Y-112794112D01*
X156579367Y-113365540D01*
X157198415Y-113365540D01*
X157769843Y-112794112D02*
X157674605Y-112746493D01*
X157626986Y-112698874D01*
X157579367Y-112603636D01*
X157579367Y-112556017D01*
X157626986Y-112460779D01*
X157674605Y-112413160D01*
X157769843Y-112365540D01*
X157960320Y-112365540D01*
X158055558Y-112413160D01*
X158103177Y-112460779D01*
X158150796Y-112556017D01*
X158150796Y-112603636D01*
X158103177Y-112698874D01*
X158055558Y-112746493D01*
X157960320Y-112794112D01*
X157769843Y-112794112D01*
X157674605Y-112841731D01*
X157626986Y-112889350D01*
X157579367Y-112984588D01*
X157579367Y-113175064D01*
X157626986Y-113270302D01*
X157674605Y-113317921D01*
X157769843Y-113365540D01*
X157960320Y-113365540D01*
X158055558Y-113317921D01*
X158103177Y-113270302D01*
X158150796Y-113175064D01*
X158150796Y-112984588D01*
X158103177Y-112889350D01*
X158055558Y-112841731D01*
X157960320Y-112794112D01*
X141158815Y-112698874D02*
X141158815Y-113365540D01*
X140920720Y-112317921D02*
X140682624Y-113032207D01*
X141301672Y-113032207D01*
X142111196Y-112698874D02*
X142111196Y-113365540D01*
X141873100Y-112317921D02*
X141635005Y-113032207D01*
X142254053Y-113032207D01*
X143349291Y-112317921D02*
X142492148Y-113603636D01*
X143825481Y-112794112D02*
X143730243Y-112746493D01*
X143682624Y-112698874D01*
X143635005Y-112603636D01*
X143635005Y-112556017D01*
X143682624Y-112460779D01*
X143730243Y-112413160D01*
X143825481Y-112365540D01*
X144015958Y-112365540D01*
X144111196Y-112413160D01*
X144158815Y-112460779D01*
X144206434Y-112556017D01*
X144206434Y-112603636D01*
X144158815Y-112698874D01*
X144111196Y-112746493D01*
X144015958Y-112794112D01*
X143825481Y-112794112D01*
X143730243Y-112841731D01*
X143682624Y-112889350D01*
X143635005Y-112984588D01*
X143635005Y-113175064D01*
X143682624Y-113270302D01*
X143730243Y-113317921D01*
X143825481Y-113365540D01*
X144015958Y-113365540D01*
X144111196Y-113317921D01*
X144158815Y-113270302D01*
X144206434Y-113175064D01*
X144206434Y-112984588D01*
X144158815Y-112889350D01*
X144111196Y-112841731D01*
X144015958Y-112794112D01*
X145063577Y-112698874D02*
X145063577Y-113365540D01*
X144825481Y-112317921D02*
X144587386Y-113032207D01*
X145206434Y-113032207D01*
X128921095Y-112698874D02*
X128921095Y-113365540D01*
X128683000Y-112317921D02*
X128444904Y-113032207D01*
X129063952Y-113032207D01*
X129587761Y-112794112D02*
X129492523Y-112746493D01*
X129444904Y-112698874D01*
X129397285Y-112603636D01*
X129397285Y-112556017D01*
X129444904Y-112460779D01*
X129492523Y-112413160D01*
X129587761Y-112365540D01*
X129778238Y-112365540D01*
X129873476Y-112413160D01*
X129921095Y-112460779D01*
X129968714Y-112556017D01*
X129968714Y-112603636D01*
X129921095Y-112698874D01*
X129873476Y-112746493D01*
X129778238Y-112794112D01*
X129587761Y-112794112D01*
X129492523Y-112841731D01*
X129444904Y-112889350D01*
X129397285Y-112984588D01*
X129397285Y-113175064D01*
X129444904Y-113270302D01*
X129492523Y-113317921D01*
X129587761Y-113365540D01*
X129778238Y-113365540D01*
X129873476Y-113317921D01*
X129921095Y-113270302D01*
X129968714Y-113175064D01*
X129968714Y-112984588D01*
X129921095Y-112889350D01*
X129873476Y-112841731D01*
X129778238Y-112794112D01*
X131111571Y-112317921D02*
X130254428Y-113603636D01*
X131587761Y-112794112D02*
X131492523Y-112746493D01*
X131444904Y-112698874D01*
X131397285Y-112603636D01*
X131397285Y-112556017D01*
X131444904Y-112460779D01*
X131492523Y-112413160D01*
X131587761Y-112365540D01*
X131778238Y-112365540D01*
X131873476Y-112413160D01*
X131921095Y-112460779D01*
X131968714Y-112556017D01*
X131968714Y-112603636D01*
X131921095Y-112698874D01*
X131873476Y-112746493D01*
X131778238Y-112794112D01*
X131587761Y-112794112D01*
X131492523Y-112841731D01*
X131444904Y-112889350D01*
X131397285Y-112984588D01*
X131397285Y-113175064D01*
X131444904Y-113270302D01*
X131492523Y-113317921D01*
X131587761Y-113365540D01*
X131778238Y-113365540D01*
X131873476Y-113317921D01*
X131921095Y-113270302D01*
X131968714Y-113175064D01*
X131968714Y-112984588D01*
X131921095Y-112889350D01*
X131873476Y-112841731D01*
X131778238Y-112794112D01*
X132873476Y-112365540D02*
X132397285Y-112365540D01*
X132349666Y-112841731D01*
X132397285Y-112794112D01*
X132492523Y-112746493D01*
X132730619Y-112746493D01*
X132825857Y-112794112D01*
X132873476Y-112841731D01*
X132921095Y-112936969D01*
X132921095Y-113175064D01*
X132873476Y-113270302D01*
X132825857Y-113317921D01*
X132730619Y-113365540D01*
X132492523Y-113365540D01*
X132397285Y-113317921D01*
X132349666Y-113270302D01*
X135346939Y-114353600D02*
X135013605Y-113877410D01*
X134775510Y-114353600D02*
X134775510Y-113353600D01*
X135156462Y-113353600D01*
X135251700Y-113401220D01*
X135299320Y-113448839D01*
X135346939Y-113544077D01*
X135346939Y-113686934D01*
X135299320Y-113782172D01*
X135251700Y-113829791D01*
X135156462Y-113877410D01*
X134775510Y-113877410D01*
X135775510Y-113829791D02*
X136108843Y-113829791D01*
X136251700Y-114353600D02*
X135775510Y-114353600D01*
X135775510Y-113353600D01*
X136251700Y-113353600D01*
X136632653Y-114305981D02*
X136775510Y-114353600D01*
X137013605Y-114353600D01*
X137108843Y-114305981D01*
X137156462Y-114258362D01*
X137204081Y-114163124D01*
X137204081Y-114067886D01*
X137156462Y-113972648D01*
X137108843Y-113925029D01*
X137013605Y-113877410D01*
X136823129Y-113829791D01*
X136727891Y-113782172D01*
X136680272Y-113734553D01*
X136632653Y-113639315D01*
X136632653Y-113544077D01*
X136680272Y-113448839D01*
X136727891Y-113401220D01*
X136823129Y-113353600D01*
X137061224Y-113353600D01*
X137204081Y-113401220D01*
X137632653Y-113829791D02*
X137965986Y-113829791D01*
X138108843Y-114353600D02*
X137632653Y-114353600D01*
X137632653Y-113353600D01*
X138108843Y-113353600D01*
X138394558Y-113353600D02*
X138965986Y-113353600D01*
X138680272Y-114353600D02*
X138680272Y-113353600D01*
X162803365Y-117262541D02*
X162946222Y-117310160D01*
X163184318Y-117310160D01*
X163279556Y-117262541D01*
X163327175Y-117214922D01*
X163374794Y-117119684D01*
X163374794Y-117024446D01*
X163327175Y-116929208D01*
X163279556Y-116881589D01*
X163184318Y-116833970D01*
X162993841Y-116786351D01*
X162898603Y-116738732D01*
X162850984Y-116691113D01*
X162803365Y-116595875D01*
X162803365Y-116500637D01*
X162850984Y-116405399D01*
X162898603Y-116357780D01*
X162993841Y-116310160D01*
X163231937Y-116310160D01*
X163374794Y-116357780D01*
X164374794Y-117214922D02*
X164327175Y-117262541D01*
X164184318Y-117310160D01*
X164089080Y-117310160D01*
X163946222Y-117262541D01*
X163850984Y-117167303D01*
X163803365Y-117072065D01*
X163755746Y-116881589D01*
X163755746Y-116738732D01*
X163803365Y-116548256D01*
X163850984Y-116453018D01*
X163946222Y-116357780D01*
X164089080Y-116310160D01*
X164184318Y-116310160D01*
X164327175Y-116357780D01*
X164374794Y-116405399D01*
X164803365Y-117310160D02*
X164803365Y-116310160D01*
X165374794Y-117310160D02*
X164946222Y-116738732D01*
X165374794Y-116310160D02*
X164803365Y-116881589D01*
X156537565Y-117310160D02*
X156537565Y-116310160D01*
X156918518Y-116310160D01*
X157013756Y-116357780D01*
X157061375Y-116405399D01*
X157108994Y-116500637D01*
X157108994Y-116643494D01*
X157061375Y-116738732D01*
X157013756Y-116786351D01*
X156918518Y-116833970D01*
X156537565Y-116833970D01*
X158108994Y-117310160D02*
X157775660Y-116833970D01*
X157537565Y-117310160D02*
X157537565Y-116310160D01*
X157918518Y-116310160D01*
X158013756Y-116357780D01*
X158061375Y-116405399D01*
X158108994Y-116500637D01*
X158108994Y-116643494D01*
X158061375Y-116738732D01*
X158013756Y-116786351D01*
X157918518Y-116833970D01*
X157537565Y-116833970D01*
X158728041Y-116310160D02*
X158918518Y-116310160D01*
X159013756Y-116357780D01*
X159108994Y-116453018D01*
X159156613Y-116643494D01*
X159156613Y-116976827D01*
X159108994Y-117167303D01*
X159013756Y-117262541D01*
X158918518Y-117310160D01*
X158728041Y-117310160D01*
X158632803Y-117262541D01*
X158537565Y-117167303D01*
X158489946Y-116976827D01*
X158489946Y-116643494D01*
X158537565Y-116453018D01*
X158632803Y-116357780D01*
X158728041Y-116310160D01*
X160108994Y-116357780D02*
X160013756Y-116310160D01*
X159870899Y-116310160D01*
X159728041Y-116357780D01*
X159632803Y-116453018D01*
X159585184Y-116548256D01*
X159537565Y-116738732D01*
X159537565Y-116881589D01*
X159585184Y-117072065D01*
X159632803Y-117167303D01*
X159728041Y-117262541D01*
X159870899Y-117310160D01*
X159966137Y-117310160D01*
X160108994Y-117262541D01*
X160156613Y-117214922D01*
X160156613Y-116881589D01*
X159966137Y-116881589D01*
X150454004Y-116786351D02*
X150787338Y-116786351D01*
X150930195Y-117310160D02*
X150454004Y-117310160D01*
X150454004Y-116310160D01*
X150930195Y-116310160D01*
X151930195Y-117310160D02*
X151596861Y-116833970D01*
X151358766Y-117310160D02*
X151358766Y-116310160D01*
X151739719Y-116310160D01*
X151834957Y-116357780D01*
X151882576Y-116405399D01*
X151930195Y-116500637D01*
X151930195Y-116643494D01*
X151882576Y-116738732D01*
X151834957Y-116786351D01*
X151739719Y-116833970D01*
X151358766Y-116833970D01*
X152930195Y-117310160D02*
X152596861Y-116833970D01*
X152358766Y-117310160D02*
X152358766Y-116310160D01*
X152739719Y-116310160D01*
X152834957Y-116357780D01*
X152882576Y-116405399D01*
X152930195Y-116500637D01*
X152930195Y-116643494D01*
X152882576Y-116738732D01*
X152834957Y-116786351D01*
X152739719Y-116833970D01*
X152358766Y-116833970D01*
X153549242Y-116310160D02*
X153739719Y-116310160D01*
X153834957Y-116357780D01*
X153930195Y-116453018D01*
X153977814Y-116643494D01*
X153977814Y-116976827D01*
X153930195Y-117167303D01*
X153834957Y-117262541D01*
X153739719Y-117310160D01*
X153549242Y-117310160D01*
X153454004Y-117262541D01*
X153358766Y-117167303D01*
X153311147Y-116976827D01*
X153311147Y-116643494D01*
X153358766Y-116453018D01*
X153454004Y-116357780D01*
X153549242Y-116310160D01*
X154977814Y-117310160D02*
X154644480Y-116833970D01*
X154406385Y-117310160D02*
X154406385Y-116310160D01*
X154787338Y-116310160D01*
X154882576Y-116357780D01*
X154930195Y-116405399D01*
X154977814Y-116500637D01*
X154977814Y-116643494D01*
X154930195Y-116738732D01*
X154882576Y-116786351D01*
X154787338Y-116833970D01*
X154406385Y-116833970D01*
X144901540Y-117310160D02*
X144901540Y-116310160D01*
X144901540Y-116786351D02*
X145472969Y-116786351D01*
X145472969Y-117310160D02*
X145472969Y-116310160D01*
X145949160Y-116786351D02*
X146282493Y-116786351D01*
X146425350Y-117310160D02*
X145949160Y-117310160D01*
X145949160Y-116310160D01*
X146425350Y-116310160D01*
X146806302Y-117024446D02*
X147282493Y-117024446D01*
X146711064Y-117310160D02*
X147044398Y-116310160D01*
X147377731Y-117310160D01*
X148282493Y-117310160D02*
X147949160Y-116833970D01*
X147711064Y-117310160D02*
X147711064Y-116310160D01*
X148092017Y-116310160D01*
X148187255Y-116357780D01*
X148234874Y-116405399D01*
X148282493Y-116500637D01*
X148282493Y-116643494D01*
X148234874Y-116738732D01*
X148187255Y-116786351D01*
X148092017Y-116833970D01*
X147711064Y-116833970D01*
X148568207Y-116310160D02*
X149139636Y-116310160D01*
X148853921Y-117310160D02*
X148853921Y-116310160D01*
X176805673Y-109619160D02*
X176710435Y-109571540D01*
X176567578Y-109571540D01*
X176424720Y-109619160D01*
X176329482Y-109714398D01*
X176281863Y-109809636D01*
X176234244Y-110000112D01*
X176234244Y-110142969D01*
X176281863Y-110333445D01*
X176329482Y-110428683D01*
X176424720Y-110523921D01*
X176567578Y-110571540D01*
X176662816Y-110571540D01*
X176805673Y-110523921D01*
X176853292Y-110476302D01*
X176853292Y-110142969D01*
X176662816Y-110142969D01*
X177281863Y-110571540D02*
X177281863Y-109571540D01*
X177853292Y-110571540D01*
X177853292Y-109571540D01*
X178329482Y-110571540D02*
X178329482Y-109571540D01*
X178567578Y-109571540D01*
X178710435Y-109619160D01*
X178805673Y-109714398D01*
X178853292Y-109809636D01*
X178900911Y-110000112D01*
X178900911Y-110142969D01*
X178853292Y-110333445D01*
X178805673Y-110428683D01*
X178710435Y-110523921D01*
X178567578Y-110571540D01*
X178329482Y-110571540D01*
X176139006Y-104539800D02*
X176472340Y-105539800D01*
X176805673Y-104539800D01*
X177710435Y-105444562D02*
X177662816Y-105492181D01*
X177519959Y-105539800D01*
X177424720Y-105539800D01*
X177281863Y-105492181D01*
X177186625Y-105396943D01*
X177139006Y-105301705D01*
X177091387Y-105111229D01*
X177091387Y-104968372D01*
X177139006Y-104777896D01*
X177186625Y-104682658D01*
X177281863Y-104587420D01*
X177424720Y-104539800D01*
X177519959Y-104539800D01*
X177662816Y-104587420D01*
X177710435Y-104635039D01*
X178710435Y-105444562D02*
X178662816Y-105492181D01*
X178519959Y-105539800D01*
X178424720Y-105539800D01*
X178281863Y-105492181D01*
X178186625Y-105396943D01*
X178139006Y-105301705D01*
X178091387Y-105111229D01*
X178091387Y-104968372D01*
X178139006Y-104777896D01*
X178186625Y-104682658D01*
X178281863Y-104587420D01*
X178424720Y-104539800D01*
X178519959Y-104539800D01*
X178662816Y-104587420D01*
X178710435Y-104635039D01*
X139390380Y-120999285D02*
X139390380Y-121570714D01*
X139390380Y-121285000D02*
X138390380Y-121285000D01*
X138533238Y-121380238D01*
X138628476Y-121475476D01*
X138676095Y-121570714D01*
D12*
G04 #@! TO.C,D4*
X148648000Y-117953000D02*
X144763000Y-117953000D01*
X144763000Y-117953000D02*
X144763000Y-120223000D01*
X144763000Y-120223000D02*
X148648000Y-120223000D01*
G04 #@! TO.C,R4*
X149828000Y-109139936D02*
X149828000Y-110344064D01*
X148008000Y-109139936D02*
X148008000Y-110344064D01*
G04 #@! TO.C,J3*
X140313000Y-103842000D02*
X141643000Y-103842000D01*
X140313000Y-105172000D02*
X140313000Y-103842000D01*
X142913000Y-103842000D02*
X145513000Y-103842000D01*
X142913000Y-106442000D02*
X142913000Y-103842000D01*
X140313000Y-106442000D02*
X142913000Y-106442000D01*
X145513000Y-103842000D02*
X145513000Y-111582000D01*
X140313000Y-106442000D02*
X140313000Y-111582000D01*
X140313000Y-111582000D02*
X145513000Y-111582000D01*
G04 #@! TO.C,J2*
X128314000Y-111582000D02*
X133514000Y-111582000D01*
X128314000Y-106442000D02*
X128314000Y-111582000D01*
X133514000Y-103842000D02*
X133514000Y-111582000D01*
X128314000Y-106442000D02*
X130914000Y-106442000D01*
X130914000Y-106442000D02*
X130914000Y-103842000D01*
X130914000Y-103842000D02*
X133514000Y-103842000D01*
X128314000Y-105172000D02*
X128314000Y-103842000D01*
X128314000Y-103842000D02*
X129644000Y-103842000D01*
G04 #@! TO.C,J4*
X152312000Y-103842000D02*
X153642000Y-103842000D01*
X152312000Y-105172000D02*
X152312000Y-103842000D01*
X154912000Y-103842000D02*
X157512000Y-103842000D01*
X154912000Y-106442000D02*
X154912000Y-103842000D01*
X152312000Y-106442000D02*
X154912000Y-106442000D01*
X157512000Y-103842000D02*
X157512000Y-111582000D01*
X152312000Y-106442000D02*
X152312000Y-111582000D01*
X152312000Y-111582000D02*
X157512000Y-111582000D01*
G04 #@! TO.C,J1*
X170018000Y-111582000D02*
X175218000Y-111582000D01*
X170018000Y-106442000D02*
X170018000Y-111582000D01*
X175218000Y-103842000D02*
X175218000Y-111582000D01*
X170018000Y-106442000D02*
X172618000Y-106442000D01*
X172618000Y-106442000D02*
X172618000Y-103842000D01*
X172618000Y-103842000D02*
X175218000Y-103842000D01*
X170018000Y-105172000D02*
X170018000Y-103842000D01*
X170018000Y-103842000D02*
X171348000Y-103842000D01*
G04 #@! TO.C,SW1*
X140097000Y-121516000D02*
X140097000Y-121766000D01*
X140097000Y-121766000D02*
X133797000Y-121766000D01*
X133797000Y-121766000D02*
X133797000Y-121516000D01*
X140097000Y-117016000D02*
X140097000Y-119616000D01*
X133797000Y-115116000D02*
X133797000Y-114866000D01*
X133797000Y-114866000D02*
X140097000Y-114866000D01*
X140097000Y-114866000D02*
X140097000Y-115116000D01*
X133797000Y-119616000D02*
X133797000Y-117016000D01*
G04 #@! TO.C,C1*
X161133000Y-97309836D02*
X161133000Y-98513964D01*
X159313000Y-97309836D02*
X159313000Y-98513964D01*
G04 #@! TO.C,C2*
X176781000Y-97309836D02*
X176781000Y-98513964D01*
X178601000Y-97309836D02*
X178601000Y-98513964D01*
G04 #@! TO.C,C3*
X162098000Y-101626000D02*
X162098000Y-102826000D01*
X162098000Y-106146000D02*
X162098000Y-104946000D01*
X165553563Y-106146000D02*
X162098000Y-106146000D01*
X165553563Y-101626000D02*
X162098000Y-101626000D01*
X166618000Y-102690437D02*
X166618000Y-102826000D01*
X166618000Y-105081563D02*
X166618000Y-104946000D01*
X166618000Y-105081563D02*
X165553563Y-106146000D01*
X166618000Y-102690437D02*
X165553563Y-101626000D01*
X167358000Y-105446000D02*
X166858000Y-105446000D01*
X167108000Y-105696000D02*
X167108000Y-105196000D01*
G04 #@! TO.C,D1*
X161791000Y-120083000D02*
X165676000Y-120083000D01*
X161791000Y-117813000D02*
X161791000Y-120083000D01*
X165676000Y-117813000D02*
X161791000Y-117813000D01*
G04 #@! TO.C,D2*
X160000000Y-117877000D02*
X156115000Y-117877000D01*
X156115000Y-117877000D02*
X156115000Y-120147000D01*
X156115000Y-120147000D02*
X160000000Y-120147000D01*
G04 #@! TO.C,D3*
X154324000Y-117940000D02*
X150439000Y-117940000D01*
X150439000Y-117940000D02*
X150439000Y-120210000D01*
X150439000Y-120210000D02*
X154324000Y-120210000D01*
G04 #@! TO.C,J5*
X135190000Y-85802000D02*
G75*
G02X135190000Y-87802000I0J-1000000D01*
G01*
X135190000Y-87802000D02*
X135190000Y-89452000D01*
X135190000Y-89452000D02*
X170870000Y-89452000D01*
X170870000Y-89452000D02*
X170870000Y-84152000D01*
X170870000Y-84152000D02*
X135190000Y-84152000D01*
X135190000Y-84152000D02*
X135190000Y-85802000D01*
X135130000Y-91942000D02*
X170930000Y-91942000D01*
X170930000Y-91942000D02*
X170930000Y-81662000D01*
X170930000Y-81662000D02*
X135130000Y-81662000D01*
X135130000Y-81662000D02*
X135130000Y-91942000D01*
G04 #@! TO.C,J6*
X170148000Y-120553000D02*
X175348000Y-120553000D01*
X170148000Y-117953000D02*
X170148000Y-120553000D01*
X175348000Y-115353000D02*
X175348000Y-120553000D01*
X170148000Y-117953000D02*
X172748000Y-117953000D01*
X172748000Y-117953000D02*
X172748000Y-115353000D01*
X172748000Y-115353000D02*
X175348000Y-115353000D01*
X170148000Y-116683000D02*
X170148000Y-115353000D01*
X170148000Y-115353000D02*
X171478000Y-115353000D01*
G04 #@! TO.C,R1*
X161197000Y-109139936D02*
X161197000Y-110344064D01*
X159377000Y-109139936D02*
X159377000Y-110344064D01*
G04 #@! TO.C,R2*
X162822000Y-109139936D02*
X162822000Y-110344064D01*
X164642000Y-109139936D02*
X164642000Y-110344064D01*
G04 #@! TO.C,R3*
X168088000Y-109139936D02*
X168088000Y-110344064D01*
X166268000Y-109139936D02*
X166268000Y-110344064D01*
G04 #@! TO.C,Y1*
X174857000Y-95361900D02*
X162257000Y-95361900D01*
X162257000Y-95361900D02*
X162257000Y-100461900D01*
X162257000Y-100461900D02*
X174857000Y-100461900D01*
G04 #@! TO.C,D4*
D10*
X146404183Y-119465144D02*
X146404183Y-118665144D01*
X146594660Y-118665144D01*
X146708945Y-118703240D01*
X146785136Y-118779430D01*
X146823231Y-118855620D01*
X146861326Y-119008001D01*
X146861326Y-119122287D01*
X146823231Y-119274668D01*
X146785136Y-119350859D01*
X146708945Y-119427049D01*
X146594660Y-119465144D01*
X146404183Y-119465144D01*
X147547040Y-118931811D02*
X147547040Y-119465144D01*
X147356564Y-118627049D02*
X147166088Y-119198478D01*
X147661326Y-119198478D01*
G04 #@! TO.C,R4*
X149251884Y-109866733D02*
X148870932Y-110133400D01*
X149251884Y-110323876D02*
X148451884Y-110323876D01*
X148451884Y-110019114D01*
X148489980Y-109942923D01*
X148528075Y-109904828D01*
X148604265Y-109866733D01*
X148718551Y-109866733D01*
X148794741Y-109904828D01*
X148832837Y-109942923D01*
X148870932Y-110019114D01*
X148870932Y-110323876D01*
X148718551Y-109181019D02*
X149251884Y-109181019D01*
X148413789Y-109371495D02*
X148985218Y-109561971D01*
X148985218Y-109066733D01*
G04 #@! TO.C,SW1*
X135613666Y-118657261D02*
X135756523Y-118704880D01*
X135994619Y-118704880D01*
X136089857Y-118657261D01*
X136137476Y-118609642D01*
X136185095Y-118514404D01*
X136185095Y-118419166D01*
X136137476Y-118323928D01*
X136089857Y-118276309D01*
X135994619Y-118228690D01*
X135804142Y-118181071D01*
X135708904Y-118133452D01*
X135661285Y-118085833D01*
X135613666Y-117990595D01*
X135613666Y-117895357D01*
X135661285Y-117800119D01*
X135708904Y-117752500D01*
X135804142Y-117704880D01*
X136042238Y-117704880D01*
X136185095Y-117752500D01*
X136518428Y-117704880D02*
X136756523Y-118704880D01*
X136947000Y-117990595D01*
X137137476Y-118704880D01*
X137375571Y-117704880D01*
X138280333Y-118704880D02*
X137708904Y-118704880D01*
X137994619Y-118704880D02*
X137994619Y-117704880D01*
X137899380Y-117847738D01*
X137804142Y-117942976D01*
X137708904Y-117990595D01*
G04 #@! TO.C,C1*
X160480774Y-98037613D02*
X160518869Y-98075708D01*
X160556964Y-98189994D01*
X160556964Y-98266184D01*
X160518869Y-98380470D01*
X160442679Y-98456660D01*
X160366488Y-98494756D01*
X160214107Y-98532851D01*
X160099821Y-98532851D01*
X159947440Y-98494756D01*
X159871250Y-98456660D01*
X159795060Y-98380470D01*
X159756964Y-98266184D01*
X159756964Y-98189994D01*
X159795060Y-98075708D01*
X159833155Y-98037613D01*
X160556964Y-97275708D02*
X160556964Y-97732851D01*
X160556964Y-97504280D02*
X159756964Y-97504280D01*
X159871250Y-97580470D01*
X159947440Y-97656660D01*
X159985536Y-97732851D01*
G04 #@! TO.C,C2*
X177971634Y-98037613D02*
X178009729Y-98075708D01*
X178047824Y-98189994D01*
X178047824Y-98266184D01*
X178009729Y-98380470D01*
X177933539Y-98456660D01*
X177857348Y-98494756D01*
X177704967Y-98532851D01*
X177590681Y-98532851D01*
X177438300Y-98494756D01*
X177362110Y-98456660D01*
X177285920Y-98380470D01*
X177247824Y-98266184D01*
X177247824Y-98189994D01*
X177285920Y-98075708D01*
X177324015Y-98037613D01*
X177324015Y-97732851D02*
X177285920Y-97694756D01*
X177247824Y-97618565D01*
X177247824Y-97428089D01*
X177285920Y-97351899D01*
X177324015Y-97313803D01*
X177400205Y-97275708D01*
X177476396Y-97275708D01*
X177590681Y-97313803D01*
X178047824Y-97770946D01*
X178047824Y-97275708D01*
G04 #@! TO.C,C3*
X164255146Y-105738894D02*
X164217051Y-105776989D01*
X164102765Y-105815084D01*
X164026575Y-105815084D01*
X163912289Y-105776989D01*
X163836099Y-105700799D01*
X163798003Y-105624608D01*
X163759908Y-105472227D01*
X163759908Y-105357941D01*
X163798003Y-105205560D01*
X163836099Y-105129370D01*
X163912289Y-105053180D01*
X164026575Y-105015084D01*
X164102765Y-105015084D01*
X164217051Y-105053180D01*
X164255146Y-105091275D01*
X164521813Y-105015084D02*
X165017051Y-105015084D01*
X164750384Y-105319846D01*
X164864670Y-105319846D01*
X164940860Y-105357941D01*
X164978956Y-105396037D01*
X165017051Y-105472227D01*
X165017051Y-105662703D01*
X164978956Y-105738894D01*
X164940860Y-105776989D01*
X164864670Y-105815084D01*
X164636099Y-105815084D01*
X164559908Y-105776989D01*
X164521813Y-105738894D01*
G04 #@! TO.C,D1*
X163496143Y-119279424D02*
X163496143Y-118479424D01*
X163686620Y-118479424D01*
X163800905Y-118517520D01*
X163877096Y-118593710D01*
X163915191Y-118669900D01*
X163953286Y-118822281D01*
X163953286Y-118936567D01*
X163915191Y-119088948D01*
X163877096Y-119165139D01*
X163800905Y-119241329D01*
X163686620Y-119279424D01*
X163496143Y-119279424D01*
X164715191Y-119279424D02*
X164258048Y-119279424D01*
X164486620Y-119279424D02*
X164486620Y-118479424D01*
X164410429Y-118593710D01*
X164334239Y-118669900D01*
X164258048Y-118707996D01*
G04 #@! TO.C,D2*
X157809523Y-119401844D02*
X157809523Y-118601844D01*
X158000000Y-118601844D01*
X158114285Y-118639940D01*
X158190476Y-118716130D01*
X158228571Y-118792320D01*
X158266666Y-118944701D01*
X158266666Y-119058987D01*
X158228571Y-119211368D01*
X158190476Y-119287559D01*
X158114285Y-119363749D01*
X158000000Y-119401844D01*
X157809523Y-119401844D01*
X158571428Y-118678035D02*
X158609523Y-118639940D01*
X158685714Y-118601844D01*
X158876190Y-118601844D01*
X158952380Y-118639940D01*
X158990476Y-118678035D01*
X159028571Y-118754225D01*
X159028571Y-118830416D01*
X158990476Y-118944701D01*
X158533333Y-119401844D01*
X159028571Y-119401844D01*
G04 #@! TO.C,D3*
X152141143Y-119419124D02*
X152141143Y-118619124D01*
X152331620Y-118619124D01*
X152445905Y-118657220D01*
X152522096Y-118733410D01*
X152560191Y-118809600D01*
X152598286Y-118961981D01*
X152598286Y-119076267D01*
X152560191Y-119228648D01*
X152522096Y-119304839D01*
X152445905Y-119381029D01*
X152331620Y-119419124D01*
X152141143Y-119419124D01*
X152864953Y-118619124D02*
X153360191Y-118619124D01*
X153093524Y-118923886D01*
X153207810Y-118923886D01*
X153284000Y-118961981D01*
X153322096Y-119000077D01*
X153360191Y-119076267D01*
X153360191Y-119266743D01*
X153322096Y-119342934D01*
X153284000Y-119381029D01*
X153207810Y-119419124D01*
X152979239Y-119419124D01*
X152903048Y-119381029D01*
X152864953Y-119342934D01*
G04 #@! TO.C,J5*
X139030540Y-86967693D02*
X139744826Y-86967693D01*
X139887683Y-87015312D01*
X139982921Y-87110550D01*
X140030540Y-87253407D01*
X140030540Y-87348645D01*
X139030540Y-86015312D02*
X139030540Y-86491502D01*
X139506731Y-86539121D01*
X139459112Y-86491502D01*
X139411493Y-86396264D01*
X139411493Y-86158169D01*
X139459112Y-86062931D01*
X139506731Y-86015312D01*
X139601969Y-85967693D01*
X139840064Y-85967693D01*
X139935302Y-86015312D01*
X139982921Y-86062931D01*
X140030540Y-86158169D01*
X140030540Y-86396264D01*
X139982921Y-86491502D01*
X139935302Y-86539121D01*
G04 #@! TO.C,R1*
X160631124Y-109867713D02*
X160250172Y-110134380D01*
X160631124Y-110324856D02*
X159831124Y-110324856D01*
X159831124Y-110020094D01*
X159869220Y-109943903D01*
X159907315Y-109905808D01*
X159983505Y-109867713D01*
X160097791Y-109867713D01*
X160173981Y-109905808D01*
X160212077Y-109943903D01*
X160250172Y-110020094D01*
X160250172Y-110324856D01*
X160631124Y-109105808D02*
X160631124Y-109562951D01*
X160631124Y-109334380D02*
X159831124Y-109334380D01*
X159945410Y-109410570D01*
X160021600Y-109486760D01*
X160059696Y-109562951D01*
G04 #@! TO.C,R2*
X164102305Y-109914452D02*
X163721353Y-110181119D01*
X164102305Y-110371595D02*
X163302305Y-110371595D01*
X163302305Y-110066833D01*
X163340401Y-109990642D01*
X163378496Y-109952547D01*
X163454686Y-109914452D01*
X163568972Y-109914452D01*
X163645162Y-109952547D01*
X163683258Y-109990642D01*
X163721353Y-110066833D01*
X163721353Y-110371595D01*
X163378496Y-109609690D02*
X163340401Y-109571595D01*
X163302305Y-109495404D01*
X163302305Y-109304928D01*
X163340401Y-109228738D01*
X163378496Y-109190642D01*
X163454686Y-109152547D01*
X163530877Y-109152547D01*
X163645162Y-109190642D01*
X164102305Y-109647785D01*
X164102305Y-109152547D01*
G04 #@! TO.C,R3*
X167509424Y-109868173D02*
X167128472Y-110134840D01*
X167509424Y-110325316D02*
X166709424Y-110325316D01*
X166709424Y-110020554D01*
X166747520Y-109944363D01*
X166785615Y-109906268D01*
X166861805Y-109868173D01*
X166976091Y-109868173D01*
X167052281Y-109906268D01*
X167090377Y-109944363D01*
X167128472Y-110020554D01*
X167128472Y-110325316D01*
X166709424Y-109601506D02*
X166709424Y-109106268D01*
X167014186Y-109372935D01*
X167014186Y-109258649D01*
X167052281Y-109182459D01*
X167090377Y-109144363D01*
X167166567Y-109106268D01*
X167357043Y-109106268D01*
X167433234Y-109144363D01*
X167471329Y-109182459D01*
X167509424Y-109258649D01*
X167509424Y-109487220D01*
X167471329Y-109563411D01*
X167433234Y-109601506D01*
G04 #@! TO.C,Y1*
X168498589Y-97877930D02*
X168498589Y-98354120D01*
X168165256Y-97354120D02*
X168498589Y-97877930D01*
X168831922Y-97354120D01*
X169689065Y-98354120D02*
X169117637Y-98354120D01*
X169403351Y-98354120D02*
X169403351Y-97354120D01*
X169308113Y-97496978D01*
X169212875Y-97592216D01*
X169117637Y-97639835D01*
G04 #@! TD*
M02*
