M48
;DRILL file {KiCad (5.0.0)} date 09/03/18 12:55:56
;FORMAT={3:3/ absolute / metric / suppress leading zeros}
FMAT,2
METRIC,TZ
T1C0.400
T2C0.800
T3C1.000
%
G90
G05
M71
T1
X139554Y-109977
X151688Y-106540
X155648Y-116171
X156977Y-98916
T2
X136520Y-82992
X136520Y-90612
X139060Y-82992
X139060Y-90612
X141600Y-82992
X141600Y-90612
X144140Y-82992
X144140Y-90612
X146680Y-82992
X146680Y-90612
X149220Y-82992
X149220Y-90612
X151760Y-82992
X151760Y-90612
X154300Y-82992
X154300Y-90612
X156840Y-82992
X156840Y-90612
X159380Y-82992
X159380Y-90612
X161920Y-82992
X161920Y-90612
X164460Y-82992
X164460Y-90612
X167000Y-82992
X167000Y-90612
X169540Y-82992
X169540Y-90612
T3
X156718Y-75565
X159258Y-75565
X161798Y-75565
X164338Y-75565
X166878Y-75565
X169418Y-75565
X171958Y-75565
X174498Y-75565
X171348Y-105172
X171348Y-107712
X171348Y-110252
X173888Y-105172
X173888Y-107712
X173888Y-110252
X136375Y-97859
X143975Y-97859
X129644Y-105172
X129644Y-107712
X129644Y-110252
X132184Y-105172
X132184Y-107712
X132184Y-110252
X171478Y-116683
X171478Y-119223
X174018Y-116683
X174018Y-119223
X138938Y-123825
X141478Y-123825
X144018Y-123825
X146558Y-123825
X149098Y-123825
X151638Y-123825
X154178Y-123825
X156718Y-123825
X141643Y-105172
X141643Y-107712
X141643Y-110252
X144183Y-105172
X144183Y-107712
X144183Y-110252
X161798Y-123825
X164338Y-123825
X166878Y-123825
X169418Y-123825
X171958Y-123825
X174498Y-123825
X153642Y-105172
X153642Y-107712
X153642Y-110252
X156182Y-105172
X156182Y-107712
X156182Y-110252
X129794Y-75565
X132334Y-75565
X134874Y-75565
X137414Y-75565
X139954Y-75565
X142494Y-75565
X145034Y-75565
X147574Y-75565
X150114Y-75565
X152654Y-75565
T0
M30
