G04 #@! TF.GenerationSoftware,KiCad,Pcbnew,(5.0.0)*
G04 #@! TF.CreationDate,2018-10-08T15:54:37-05:00*
G04 #@! TF.ProjectId,YAPS_Arduino_Shield_AVR,594150535F41726475696E6F5F536869,1.0*
G04 #@! TF.SameCoordinates,Original*
G04 #@! TF.FileFunction,Legend,Bot*
G04 #@! TF.FilePolarity,Positive*
%FSLAX46Y46*%
G04 Gerber Fmt 4.6, Leading zero omitted, Abs format (unit mm)*
G04 Created by KiCad (PCBNEW (5.0.0)) date 10/08/18 15:54:37*
%MOMM*%
%LPD*%
G01*
G04 APERTURE LIST*
%ADD10C,0.150000*%
%ADD11C,0.200000*%
%ADD12C,0.002540*%
%ADD13C,0.010000*%
%ADD14C,0.120000*%
G04 APERTURE END LIST*
D10*
X177502511Y-95025318D02*
X177550130Y-95168175D01*
X177597749Y-95215794D01*
X177692987Y-95263413D01*
X177835844Y-95263413D01*
X177931082Y-95215794D01*
X177978701Y-95168175D01*
X178026320Y-95072937D01*
X178026320Y-94691984D01*
X177026320Y-94691984D01*
X177026320Y-95025318D01*
X177073940Y-95120556D01*
X177121559Y-95168175D01*
X177216797Y-95215794D01*
X177312035Y-95215794D01*
X177407273Y-95168175D01*
X177454892Y-95120556D01*
X177502511Y-95025318D01*
X177502511Y-94691984D01*
X177740606Y-95644365D02*
X177740606Y-96120556D01*
X178026320Y-95549127D02*
X177026320Y-95882460D01*
X178026320Y-96215794D01*
X177931082Y-97120556D02*
X177978701Y-97072937D01*
X178026320Y-96930080D01*
X178026320Y-96834841D01*
X177978701Y-96691984D01*
X177883463Y-96596746D01*
X177788225Y-96549127D01*
X177597749Y-96501508D01*
X177454892Y-96501508D01*
X177264416Y-96549127D01*
X177169178Y-96596746D01*
X177073940Y-96691984D01*
X177026320Y-96834841D01*
X177026320Y-96930080D01*
X177073940Y-97072937D01*
X177121559Y-97120556D01*
X178026320Y-97549127D02*
X177026320Y-97549127D01*
X178026320Y-98120556D02*
X177454892Y-97691984D01*
X177026320Y-98120556D02*
X177597749Y-97549127D01*
X177978701Y-99263413D02*
X178026320Y-99406270D01*
X178026320Y-99644365D01*
X177978701Y-99739603D01*
X177931082Y-99787222D01*
X177835844Y-99834841D01*
X177740606Y-99834841D01*
X177645368Y-99787222D01*
X177597749Y-99739603D01*
X177550130Y-99644365D01*
X177502511Y-99453889D01*
X177454892Y-99358651D01*
X177407273Y-99311032D01*
X177312035Y-99263413D01*
X177216797Y-99263413D01*
X177121559Y-99311032D01*
X177073940Y-99358651D01*
X177026320Y-99453889D01*
X177026320Y-99691984D01*
X177073940Y-99834841D01*
X178026320Y-100263413D02*
X177026320Y-100263413D01*
X178026320Y-100739603D02*
X177026320Y-100739603D01*
X177026320Y-100977699D01*
X177073940Y-101120556D01*
X177169178Y-101215794D01*
X177264416Y-101263413D01*
X177454892Y-101311032D01*
X177597749Y-101311032D01*
X177788225Y-101263413D01*
X177883463Y-101215794D01*
X177978701Y-101120556D01*
X178026320Y-100977699D01*
X178026320Y-100739603D01*
X177502511Y-101739603D02*
X177502511Y-102072937D01*
X178026320Y-102215794D02*
X178026320Y-101739603D01*
X177026320Y-101739603D01*
X177026320Y-102215794D01*
X148436005Y-114063051D02*
X148436005Y-112563051D01*
X148436005Y-113134480D02*
X148293148Y-113063051D01*
X148007434Y-113063051D01*
X147864577Y-113134480D01*
X147793148Y-113205908D01*
X147721720Y-113348765D01*
X147721720Y-113777337D01*
X147793148Y-113920194D01*
X147864577Y-113991622D01*
X148007434Y-114063051D01*
X148293148Y-114063051D01*
X148436005Y-113991622D01*
X147221720Y-113063051D02*
X146864577Y-114063051D01*
X146507434Y-113063051D02*
X146864577Y-114063051D01*
X147007434Y-114420194D01*
X147078862Y-114491622D01*
X147221720Y-114563051D01*
X144793148Y-113277337D02*
X144293148Y-113277337D01*
X144078862Y-114063051D02*
X144793148Y-114063051D01*
X144793148Y-112563051D01*
X144078862Y-112563051D01*
X143221720Y-114063051D02*
X143364577Y-113991622D01*
X143436005Y-113848765D01*
X143436005Y-112563051D01*
X142007434Y-114063051D02*
X142007434Y-113277337D01*
X142078862Y-113134480D01*
X142221720Y-113063051D01*
X142507434Y-113063051D01*
X142650291Y-113134480D01*
X142007434Y-113991622D02*
X142150291Y-114063051D01*
X142507434Y-114063051D01*
X142650291Y-113991622D01*
X142721720Y-113848765D01*
X142721720Y-113705908D01*
X142650291Y-113563051D01*
X142507434Y-113491622D01*
X142150291Y-113491622D01*
X142007434Y-113420194D01*
X140650291Y-114063051D02*
X140650291Y-112563051D01*
X140650291Y-113991622D02*
X140793148Y-114063051D01*
X141078862Y-114063051D01*
X141221720Y-113991622D01*
X141293148Y-113920194D01*
X141364577Y-113777337D01*
X141364577Y-113348765D01*
X141293148Y-113205908D01*
X141221720Y-113134480D01*
X141078862Y-113063051D01*
X140793148Y-113063051D01*
X140650291Y-113134480D01*
X139936005Y-114063051D02*
X139936005Y-113063051D01*
X139936005Y-112563051D02*
X140007434Y-112634480D01*
X139936005Y-112705908D01*
X139864577Y-112634480D01*
X139936005Y-112563051D01*
X139936005Y-112705908D01*
X139007434Y-114063051D02*
X139150291Y-113991622D01*
X139221720Y-113920194D01*
X139293148Y-113777337D01*
X139293148Y-113348765D01*
X139221720Y-113205908D01*
X139150291Y-113134480D01*
X139007434Y-113063051D01*
X138793148Y-113063051D01*
X138650291Y-113134480D01*
X138578862Y-113205908D01*
X138507434Y-113348765D01*
X138507434Y-113777337D01*
X138578862Y-113920194D01*
X138650291Y-113991622D01*
X138793148Y-114063051D01*
X139007434Y-114063051D01*
X136721720Y-114063051D02*
X136721720Y-112563051D01*
X136221720Y-113634480D01*
X135721720Y-112563051D01*
X135721720Y-114063051D01*
X134364577Y-114063051D02*
X134364577Y-113277337D01*
X134436005Y-113134480D01*
X134578862Y-113063051D01*
X134864577Y-113063051D01*
X135007434Y-113134480D01*
X134364577Y-113991622D02*
X134507434Y-114063051D01*
X134864577Y-114063051D01*
X135007434Y-113991622D01*
X135078862Y-113848765D01*
X135078862Y-113705908D01*
X135007434Y-113563051D01*
X134864577Y-113491622D01*
X134507434Y-113491622D01*
X134364577Y-113420194D01*
X133650291Y-114063051D02*
X133650291Y-113063051D01*
X133650291Y-113348765D02*
X133578862Y-113205908D01*
X133507434Y-113134480D01*
X133364577Y-113063051D01*
X133221720Y-113063051D01*
X132936005Y-113063051D02*
X132364577Y-113063051D01*
X132721720Y-112563051D02*
X132721720Y-113848765D01*
X132650291Y-113991622D01*
X132507434Y-114063051D01*
X132364577Y-114063051D01*
X131864577Y-114063051D02*
X131864577Y-113063051D01*
X131864577Y-112563051D02*
X131936005Y-112634480D01*
X131864577Y-112705908D01*
X131793148Y-112634480D01*
X131864577Y-112563051D01*
X131864577Y-112705908D01*
X131150291Y-113063051D02*
X131150291Y-114063051D01*
X131150291Y-113205908D02*
X131078862Y-113134480D01*
X130936005Y-113063051D01*
X130721720Y-113063051D01*
X130578862Y-113134480D01*
X130507434Y-113277337D01*
X130507434Y-114063051D01*
X129221720Y-113991622D02*
X129364577Y-114063051D01*
X129650291Y-114063051D01*
X129793148Y-113991622D01*
X129864577Y-113848765D01*
X129864577Y-113277337D01*
X129793148Y-113134480D01*
X129650291Y-113063051D01*
X129364577Y-113063051D01*
X129221720Y-113134480D01*
X129150291Y-113277337D01*
X129150291Y-113420194D01*
X129864577Y-113563051D01*
X128650291Y-113063051D02*
X127864577Y-113063051D01*
X128650291Y-114063051D01*
X127864577Y-114063051D01*
X149686005Y-115463051D02*
X149400291Y-116463051D01*
X149114577Y-115748765D01*
X148828862Y-116463051D01*
X148543148Y-115463051D01*
X148114577Y-115463051D02*
X147828862Y-116463051D01*
X147543148Y-115748765D01*
X147257434Y-116463051D01*
X146971720Y-115463051D01*
X146543148Y-115463051D02*
X146257434Y-116463051D01*
X145971720Y-115748765D01*
X145686005Y-116463051D01*
X145400291Y-115463051D01*
X144828862Y-116320194D02*
X144757434Y-116391622D01*
X144828862Y-116463051D01*
X144900291Y-116391622D01*
X144828862Y-116320194D01*
X144828862Y-116463051D01*
X144114577Y-116463051D02*
X144114577Y-115463051D01*
X144114577Y-115605908D02*
X144043148Y-115534480D01*
X143900291Y-115463051D01*
X143686005Y-115463051D01*
X143543148Y-115534480D01*
X143471720Y-115677337D01*
X143471720Y-116463051D01*
X143471720Y-115677337D02*
X143400291Y-115534480D01*
X143257434Y-115463051D01*
X143043148Y-115463051D01*
X142900291Y-115534480D01*
X142828862Y-115677337D01*
X142828862Y-116463051D01*
X142114577Y-116463051D02*
X142114577Y-115463051D01*
X142114577Y-114963051D02*
X142186005Y-115034480D01*
X142114577Y-115105908D01*
X142043148Y-115034480D01*
X142114577Y-114963051D01*
X142114577Y-115105908D01*
X141400291Y-115463051D02*
X141400291Y-116463051D01*
X141400291Y-115605908D02*
X141328862Y-115534480D01*
X141186005Y-115463051D01*
X140971720Y-115463051D01*
X140828862Y-115534480D01*
X140757434Y-115677337D01*
X140757434Y-116463051D01*
X140043148Y-116463051D02*
X140043148Y-115463051D01*
X140043148Y-114963051D02*
X140114577Y-115034480D01*
X140043148Y-115105908D01*
X139971720Y-115034480D01*
X140043148Y-114963051D01*
X140043148Y-115105908D01*
X139328862Y-115891622D02*
X138186005Y-115891622D01*
X137471720Y-116463051D02*
X137471720Y-115463051D01*
X137471720Y-115605908D02*
X137400291Y-115534480D01*
X137257434Y-115463051D01*
X137043148Y-115463051D01*
X136900291Y-115534480D01*
X136828862Y-115677337D01*
X136828862Y-116463051D01*
X136828862Y-115677337D02*
X136757434Y-115534480D01*
X136614577Y-115463051D01*
X136400291Y-115463051D01*
X136257434Y-115534480D01*
X136186005Y-115677337D01*
X136186005Y-116463051D01*
X135257434Y-116463051D02*
X135400291Y-116391622D01*
X135471720Y-116320194D01*
X135543148Y-116177337D01*
X135543148Y-115748765D01*
X135471720Y-115605908D01*
X135400291Y-115534480D01*
X135257434Y-115463051D01*
X135043148Y-115463051D01*
X134900291Y-115534480D01*
X134828862Y-115605908D01*
X134757434Y-115748765D01*
X134757434Y-116177337D01*
X134828862Y-116320194D01*
X134900291Y-116391622D01*
X135043148Y-116463051D01*
X135257434Y-116463051D01*
X133471720Y-116463051D02*
X133471720Y-114963051D01*
X133471720Y-116391622D02*
X133614577Y-116463051D01*
X133900291Y-116463051D01*
X134043148Y-116391622D01*
X134114577Y-116320194D01*
X134186005Y-116177337D01*
X134186005Y-115748765D01*
X134114577Y-115605908D01*
X134043148Y-115534480D01*
X133900291Y-115463051D01*
X133614577Y-115463051D01*
X133471720Y-115534480D01*
X132828862Y-116391622D02*
X132686005Y-116463051D01*
X132400291Y-116463051D01*
X132257434Y-116391622D01*
X132186005Y-116248765D01*
X132186005Y-116177337D01*
X132257434Y-116034480D01*
X132400291Y-115963051D01*
X132614577Y-115963051D01*
X132757434Y-115891622D01*
X132828862Y-115748765D01*
X132828862Y-115677337D01*
X132757434Y-115534480D01*
X132614577Y-115463051D01*
X132400291Y-115463051D01*
X132257434Y-115534480D01*
X131543148Y-116320194D02*
X131471720Y-116391622D01*
X131543148Y-116463051D01*
X131614577Y-116391622D01*
X131543148Y-116320194D01*
X131543148Y-116463051D01*
X130186005Y-116391622D02*
X130328862Y-116463051D01*
X130614577Y-116463051D01*
X130757434Y-116391622D01*
X130828862Y-116320194D01*
X130900291Y-116177337D01*
X130900291Y-115748765D01*
X130828862Y-115605908D01*
X130757434Y-115534480D01*
X130614577Y-115463051D01*
X130328862Y-115463051D01*
X130186005Y-115534480D01*
X129328862Y-116463051D02*
X129471720Y-116391622D01*
X129543148Y-116320194D01*
X129614577Y-116177337D01*
X129614577Y-115748765D01*
X129543148Y-115605908D01*
X129471720Y-115534480D01*
X129328862Y-115463051D01*
X129114577Y-115463051D01*
X128971720Y-115534480D01*
X128900291Y-115605908D01*
X128828862Y-115748765D01*
X128828862Y-116177337D01*
X128900291Y-116320194D01*
X128971720Y-116391622D01*
X129114577Y-116463051D01*
X129328862Y-116463051D01*
X128186005Y-116463051D02*
X128186005Y-115463051D01*
X128186005Y-115605908D02*
X128114577Y-115534480D01*
X127971720Y-115463051D01*
X127757434Y-115463051D01*
X127614577Y-115534480D01*
X127543148Y-115677337D01*
X127543148Y-116463051D01*
X127543148Y-115677337D02*
X127471720Y-115534480D01*
X127328862Y-115463051D01*
X127114577Y-115463051D01*
X126971720Y-115534480D01*
X126900291Y-115677337D01*
X126900291Y-116463051D01*
D11*
X168372308Y-87069740D02*
X167658022Y-87069740D01*
X168515165Y-87498311D02*
X168015165Y-85998311D01*
X167515165Y-87498311D01*
X167229451Y-85998311D02*
X166729451Y-87498311D01*
X166229451Y-85998311D01*
X164872308Y-87498311D02*
X165372308Y-86784025D01*
X165729451Y-87498311D02*
X165729451Y-85998311D01*
X165158022Y-85998311D01*
X165015165Y-86069740D01*
X164943737Y-86141168D01*
X164872308Y-86284025D01*
X164872308Y-86498311D01*
X164943737Y-86641168D01*
X165015165Y-86712597D01*
X165158022Y-86784025D01*
X165729451Y-86784025D01*
X163086594Y-87498311D02*
X163086594Y-85998311D01*
X162515165Y-85998311D01*
X162372308Y-86069740D01*
X162300880Y-86141168D01*
X162229451Y-86284025D01*
X162229451Y-86498311D01*
X162300880Y-86641168D01*
X162372308Y-86712597D01*
X162515165Y-86784025D01*
X163086594Y-86784025D01*
X160729451Y-87498311D02*
X161229451Y-86784025D01*
X161586594Y-87498311D02*
X161586594Y-85998311D01*
X161015165Y-85998311D01*
X160872308Y-86069740D01*
X160800880Y-86141168D01*
X160729451Y-86284025D01*
X160729451Y-86498311D01*
X160800880Y-86641168D01*
X160872308Y-86712597D01*
X161015165Y-86784025D01*
X161586594Y-86784025D01*
X159800880Y-85998311D02*
X159515165Y-85998311D01*
X159372308Y-86069740D01*
X159229451Y-86212597D01*
X159158022Y-86498311D01*
X159158022Y-86998311D01*
X159229451Y-87284025D01*
X159372308Y-87426882D01*
X159515165Y-87498311D01*
X159800880Y-87498311D01*
X159943737Y-87426882D01*
X160086594Y-87284025D01*
X160158022Y-86998311D01*
X160158022Y-86498311D01*
X160086594Y-86212597D01*
X159943737Y-86069740D01*
X159800880Y-85998311D01*
X157729451Y-86069740D02*
X157872308Y-85998311D01*
X158086594Y-85998311D01*
X158300880Y-86069740D01*
X158443737Y-86212597D01*
X158515165Y-86355454D01*
X158586594Y-86641168D01*
X158586594Y-86855454D01*
X158515165Y-87141168D01*
X158443737Y-87284025D01*
X158300880Y-87426882D01*
X158086594Y-87498311D01*
X157943737Y-87498311D01*
X157729451Y-87426882D01*
X157658022Y-87355454D01*
X157658022Y-86855454D01*
X157943737Y-86855454D01*
X156158022Y-87498311D02*
X156658022Y-86784025D01*
X157015165Y-87498311D02*
X157015165Y-85998311D01*
X156443737Y-85998311D01*
X156300880Y-86069740D01*
X156229451Y-86141168D01*
X156158022Y-86284025D01*
X156158022Y-86498311D01*
X156229451Y-86641168D01*
X156300880Y-86712597D01*
X156443737Y-86784025D01*
X157015165Y-86784025D01*
X155586594Y-87069740D02*
X154872308Y-87069740D01*
X155729451Y-87498311D02*
X155229451Y-85998311D01*
X154729451Y-87498311D01*
X154229451Y-87498311D02*
X154229451Y-85998311D01*
X153729451Y-87069740D01*
X153229451Y-85998311D01*
X153229451Y-87498311D01*
X152515165Y-87498311D02*
X152515165Y-85998311D01*
X152015165Y-87069740D01*
X151515165Y-85998311D01*
X151515165Y-87498311D01*
X150800880Y-87498311D02*
X150800880Y-85998311D01*
X150086594Y-87498311D02*
X150086594Y-85998311D01*
X149229451Y-87498311D01*
X149229451Y-85998311D01*
X147729451Y-86069740D02*
X147872308Y-85998311D01*
X148086594Y-85998311D01*
X148300880Y-86069740D01*
X148443737Y-86212597D01*
X148515165Y-86355454D01*
X148586594Y-86641168D01*
X148586594Y-86855454D01*
X148515165Y-87141168D01*
X148443737Y-87284025D01*
X148300880Y-87426882D01*
X148086594Y-87498311D01*
X147943737Y-87498311D01*
X147729451Y-87426882D01*
X147658022Y-87355454D01*
X147658022Y-86855454D01*
X147943737Y-86855454D01*
X145943737Y-87426882D02*
X145729451Y-87498311D01*
X145372308Y-87498311D01*
X145229451Y-87426882D01*
X145158022Y-87355454D01*
X145086594Y-87212597D01*
X145086594Y-87069740D01*
X145158022Y-86926882D01*
X145229451Y-86855454D01*
X145372308Y-86784025D01*
X145658022Y-86712597D01*
X145800880Y-86641168D01*
X145872308Y-86569740D01*
X145943737Y-86426882D01*
X145943737Y-86284025D01*
X145872308Y-86141168D01*
X145800880Y-86069740D01*
X145658022Y-85998311D01*
X145300880Y-85998311D01*
X145086594Y-86069740D01*
X144443737Y-87498311D02*
X144443737Y-85998311D01*
X144443737Y-86712597D02*
X143586594Y-86712597D01*
X143586594Y-87498311D02*
X143586594Y-85998311D01*
X142872308Y-87498311D02*
X142872308Y-85998311D01*
X142158022Y-86712597D02*
X141658022Y-86712597D01*
X141443737Y-87498311D02*
X142158022Y-87498311D01*
X142158022Y-85998311D01*
X141443737Y-85998311D01*
X140086594Y-87498311D02*
X140800880Y-87498311D01*
X140800880Y-85998311D01*
X139586594Y-87498311D02*
X139586594Y-85998311D01*
X139229451Y-85998311D01*
X139015165Y-86069740D01*
X138872308Y-86212597D01*
X138800880Y-86355454D01*
X138729451Y-86641168D01*
X138729451Y-86855454D01*
X138800880Y-87141168D01*
X138872308Y-87284025D01*
X139015165Y-87426882D01*
X139229451Y-87498311D01*
X139586594Y-87498311D01*
X137158022Y-85998311D02*
X136658022Y-87498311D01*
X136158022Y-85998311D01*
X134872308Y-87498311D02*
X135729451Y-87498311D01*
X135300880Y-87498311D02*
X135300880Y-85998311D01*
X135443737Y-86212597D01*
X135586594Y-86355454D01*
X135729451Y-86426882D01*
X134229451Y-87355454D02*
X134158022Y-87426882D01*
X134229451Y-87498311D01*
X134300880Y-87426882D01*
X134229451Y-87355454D01*
X134229451Y-87498311D01*
X133229451Y-85998311D02*
X133086594Y-85998311D01*
X132943737Y-86069740D01*
X132872308Y-86141168D01*
X132800880Y-86284025D01*
X132729451Y-86569740D01*
X132729451Y-86926882D01*
X132800880Y-87212597D01*
X132872308Y-87355454D01*
X132943737Y-87426882D01*
X133086594Y-87498311D01*
X133229451Y-87498311D01*
X133372308Y-87426882D01*
X133443737Y-87355454D01*
X133515165Y-87212597D01*
X133586594Y-86926882D01*
X133586594Y-86569740D01*
X133515165Y-86284025D01*
X133443737Y-86141168D01*
X133372308Y-86069740D01*
X133229451Y-85998311D01*
D10*
X135341192Y-124366280D02*
X135674525Y-123890090D01*
X135912620Y-124366280D02*
X135912620Y-123366280D01*
X135531668Y-123366280D01*
X135436430Y-123413900D01*
X135388811Y-123461519D01*
X135341192Y-123556757D01*
X135341192Y-123699614D01*
X135388811Y-123794852D01*
X135436430Y-123842471D01*
X135531668Y-123890090D01*
X135912620Y-123890090D01*
X135150716Y-124461519D02*
X134388811Y-124461519D01*
X134198335Y-123461519D02*
X134150716Y-123413900D01*
X134055478Y-123366280D01*
X133817382Y-123366280D01*
X133722144Y-123413900D01*
X133674525Y-123461519D01*
X133626906Y-123556757D01*
X133626906Y-123651995D01*
X133674525Y-123794852D01*
X134245954Y-124366280D01*
X133626906Y-124366280D01*
X133007859Y-123366280D02*
X132912620Y-123366280D01*
X132817382Y-123413900D01*
X132769763Y-123461519D01*
X132722144Y-123556757D01*
X132674525Y-123747233D01*
X132674525Y-123985328D01*
X132722144Y-124175804D01*
X132769763Y-124271042D01*
X132817382Y-124318661D01*
X132912620Y-124366280D01*
X133007859Y-124366280D01*
X133103097Y-124318661D01*
X133150716Y-124271042D01*
X133198335Y-124175804D01*
X133245954Y-123985328D01*
X133245954Y-123747233D01*
X133198335Y-123556757D01*
X133150716Y-123461519D01*
X133103097Y-123413900D01*
X133007859Y-123366280D01*
X131722144Y-124366280D02*
X132293573Y-124366280D01*
X132007859Y-124366280D02*
X132007859Y-123366280D01*
X132103097Y-123509138D01*
X132198335Y-123604376D01*
X132293573Y-123651995D01*
X131150716Y-123794852D02*
X131245954Y-123747233D01*
X131293573Y-123699614D01*
X131341192Y-123604376D01*
X131341192Y-123556757D01*
X131293573Y-123461519D01*
X131245954Y-123413900D01*
X131150716Y-123366280D01*
X130960240Y-123366280D01*
X130865001Y-123413900D01*
X130817382Y-123461519D01*
X130769763Y-123556757D01*
X130769763Y-123604376D01*
X130817382Y-123699614D01*
X130865001Y-123747233D01*
X130960240Y-123794852D01*
X131150716Y-123794852D01*
X131245954Y-123842471D01*
X131293573Y-123890090D01*
X131341192Y-123985328D01*
X131341192Y-124175804D01*
X131293573Y-124271042D01*
X131245954Y-124318661D01*
X131150716Y-124366280D01*
X130960240Y-124366280D01*
X130865001Y-124318661D01*
X130817382Y-124271042D01*
X130769763Y-124175804D01*
X130769763Y-123985328D01*
X130817382Y-123890090D01*
X130865001Y-123842471D01*
X130960240Y-123794852D01*
X129817382Y-124366280D02*
X130388811Y-124366280D01*
X130103097Y-124366280D02*
X130103097Y-123366280D01*
X130198335Y-123509138D01*
X130293573Y-123604376D01*
X130388811Y-123651995D01*
X129198335Y-123366280D02*
X129103097Y-123366280D01*
X129007859Y-123413900D01*
X128960240Y-123461519D01*
X128912620Y-123556757D01*
X128865001Y-123747233D01*
X128865001Y-123985328D01*
X128912620Y-124175804D01*
X128960240Y-124271042D01*
X129007859Y-124318661D01*
X129103097Y-124366280D01*
X129198335Y-124366280D01*
X129293573Y-124318661D01*
X129341192Y-124271042D01*
X129388811Y-124175804D01*
X129436430Y-123985328D01*
X129436430Y-123747233D01*
X129388811Y-123556757D01*
X129341192Y-123461519D01*
X129293573Y-123413900D01*
X129198335Y-123366280D01*
X128245954Y-123366280D02*
X128150716Y-123366280D01*
X128055478Y-123413900D01*
X128007859Y-123461519D01*
X127960240Y-123556757D01*
X127912620Y-123747233D01*
X127912620Y-123985328D01*
X127960240Y-124175804D01*
X128007859Y-124271042D01*
X128055478Y-124318661D01*
X128150716Y-124366280D01*
X128245954Y-124366280D01*
X128341192Y-124318661D01*
X128388811Y-124271042D01*
X128436430Y-124175804D01*
X128484049Y-123985328D01*
X128484049Y-123747233D01*
X128436430Y-123556757D01*
X128388811Y-123461519D01*
X128341192Y-123413900D01*
X128245954Y-123366280D01*
X127341192Y-123794852D02*
X127436430Y-123747233D01*
X127484049Y-123699614D01*
X127531668Y-123604376D01*
X127531668Y-123556757D01*
X127484049Y-123461519D01*
X127436430Y-123413900D01*
X127341192Y-123366280D01*
X127150716Y-123366280D01*
X127055478Y-123413900D01*
X127007859Y-123461519D01*
X126960240Y-123556757D01*
X126960240Y-123604376D01*
X127007859Y-123699614D01*
X127055478Y-123747233D01*
X127150716Y-123794852D01*
X127341192Y-123794852D01*
X127436430Y-123842471D01*
X127484049Y-123890090D01*
X127531668Y-123985328D01*
X127531668Y-124175804D01*
X127484049Y-124271042D01*
X127436430Y-124318661D01*
X127341192Y-124366280D01*
X127150716Y-124366280D01*
X127055478Y-124318661D01*
X127007859Y-124271042D01*
X126960240Y-124175804D01*
X126960240Y-123985328D01*
X127007859Y-123890090D01*
X127055478Y-123842471D01*
X127150716Y-123794852D01*
X141764188Y-95727733D02*
X141811807Y-95680114D01*
X141907045Y-95537257D01*
X141954664Y-95442019D01*
X142002283Y-95299161D01*
X142049902Y-95061066D01*
X142049902Y-94870590D01*
X142002283Y-94632495D01*
X141954664Y-94489638D01*
X141907045Y-94394400D01*
X141811807Y-94251542D01*
X141764188Y-94203923D01*
X141240379Y-95346780D02*
X141335617Y-95299161D01*
X141383236Y-95251542D01*
X141430855Y-95156304D01*
X141430855Y-94870590D01*
X141383236Y-94775352D01*
X141335617Y-94727733D01*
X141240379Y-94680114D01*
X141097521Y-94680114D01*
X141002283Y-94727733D01*
X140954664Y-94775352D01*
X140907045Y-94870590D01*
X140907045Y-95156304D01*
X140954664Y-95251542D01*
X141002283Y-95299161D01*
X141097521Y-95346780D01*
X141240379Y-95346780D01*
X140478474Y-94680114D02*
X140478474Y-95680114D01*
X140478474Y-94727733D02*
X140383236Y-94680114D01*
X140192760Y-94680114D01*
X140097521Y-94727733D01*
X140049902Y-94775352D01*
X140002283Y-94870590D01*
X140002283Y-95156304D01*
X140049902Y-95251542D01*
X140097521Y-95299161D01*
X140192760Y-95346780D01*
X140383236Y-95346780D01*
X140478474Y-95299161D01*
X139716569Y-94680114D02*
X139335617Y-94680114D01*
X139573712Y-94346780D02*
X139573712Y-95203923D01*
X139526093Y-95299161D01*
X139430855Y-95346780D01*
X139335617Y-95346780D01*
X139002283Y-95251542D02*
X138954664Y-95299161D01*
X139002283Y-95346780D01*
X139049902Y-95299161D01*
X139002283Y-95251542D01*
X139002283Y-95346780D01*
X138621331Y-95727733D02*
X138573712Y-95680114D01*
X138478474Y-95537257D01*
X138430855Y-95442019D01*
X138383236Y-95299161D01*
X138335617Y-95061066D01*
X138335617Y-94870590D01*
X138383236Y-94632495D01*
X138430855Y-94489638D01*
X138478474Y-94394400D01*
X138573712Y-94251542D01*
X138621331Y-94203923D01*
D12*
G04 #@! TO.C,G02*
G36*
X149481283Y-97834617D02*
X149488903Y-97956537D01*
X149514303Y-98075917D01*
X149554943Y-98187677D01*
X149582883Y-98230857D01*
X149620983Y-98281657D01*
X149661623Y-98329917D01*
X149666703Y-98334997D01*
X149763223Y-98413737D01*
X149872443Y-98472157D01*
X149989283Y-98502637D01*
X150113743Y-98515337D01*
X150240743Y-98505177D01*
X150248363Y-98502637D01*
X150355043Y-98472157D01*
X150451563Y-98416277D01*
X150530303Y-98342617D01*
X150596343Y-98248637D01*
X150644603Y-98136877D01*
X150662383Y-98068297D01*
X150672543Y-98032737D01*
X150512523Y-98032737D01*
X150352503Y-98032737D01*
X150344883Y-98086077D01*
X150327103Y-98139417D01*
X150294083Y-98187677D01*
X150253443Y-98223237D01*
X150248363Y-98225777D01*
X150220423Y-98235937D01*
X150179783Y-98246097D01*
X150149303Y-98251177D01*
X150062943Y-98256257D01*
X149986743Y-98235937D01*
X149920703Y-98195297D01*
X149867363Y-98131797D01*
X149829263Y-98047977D01*
X149803863Y-97943837D01*
X149796243Y-97852397D01*
X149801323Y-97758417D01*
X149816563Y-97669517D01*
X149844503Y-97593317D01*
X149847043Y-97585697D01*
X149890223Y-97527277D01*
X149948643Y-97481557D01*
X150009603Y-97458697D01*
X150088343Y-97448537D01*
X150167083Y-97458697D01*
X150235663Y-97486637D01*
X150291543Y-97529817D01*
X150324563Y-97578077D01*
X150344883Y-97621257D01*
X150349963Y-97646657D01*
X150339803Y-97659357D01*
X150314403Y-97664437D01*
X150304243Y-97664437D01*
X150255983Y-97664437D01*
X150380443Y-97788897D01*
X150504903Y-97913357D01*
X150629363Y-97788897D01*
X150753823Y-97664437D01*
X150708103Y-97664437D01*
X150670003Y-97656817D01*
X150649683Y-97636497D01*
X150644603Y-97600937D01*
X150639523Y-97570457D01*
X150619203Y-97524737D01*
X150591263Y-97471397D01*
X150560783Y-97418057D01*
X150527763Y-97372337D01*
X150499823Y-97339317D01*
X150416003Y-97273277D01*
X150319483Y-97225017D01*
X150212803Y-97197077D01*
X150098503Y-97189457D01*
X149981663Y-97199617D01*
X149867363Y-97232637D01*
X149801323Y-97263117D01*
X149709883Y-97321537D01*
X149633683Y-97400277D01*
X149570183Y-97494257D01*
X149524463Y-97600937D01*
X149493983Y-97715237D01*
X149481283Y-97834617D01*
X149481283Y-97834617D01*
G37*
X149481283Y-97834617D02*
X149488903Y-97956537D01*
X149514303Y-98075917D01*
X149554943Y-98187677D01*
X149582883Y-98230857D01*
X149620983Y-98281657D01*
X149661623Y-98329917D01*
X149666703Y-98334997D01*
X149763223Y-98413737D01*
X149872443Y-98472157D01*
X149989283Y-98502637D01*
X150113743Y-98515337D01*
X150240743Y-98505177D01*
X150248363Y-98502637D01*
X150355043Y-98472157D01*
X150451563Y-98416277D01*
X150530303Y-98342617D01*
X150596343Y-98248637D01*
X150644603Y-98136877D01*
X150662383Y-98068297D01*
X150672543Y-98032737D01*
X150512523Y-98032737D01*
X150352503Y-98032737D01*
X150344883Y-98086077D01*
X150327103Y-98139417D01*
X150294083Y-98187677D01*
X150253443Y-98223237D01*
X150248363Y-98225777D01*
X150220423Y-98235937D01*
X150179783Y-98246097D01*
X150149303Y-98251177D01*
X150062943Y-98256257D01*
X149986743Y-98235937D01*
X149920703Y-98195297D01*
X149867363Y-98131797D01*
X149829263Y-98047977D01*
X149803863Y-97943837D01*
X149796243Y-97852397D01*
X149801323Y-97758417D01*
X149816563Y-97669517D01*
X149844503Y-97593317D01*
X149847043Y-97585697D01*
X149890223Y-97527277D01*
X149948643Y-97481557D01*
X150009603Y-97458697D01*
X150088343Y-97448537D01*
X150167083Y-97458697D01*
X150235663Y-97486637D01*
X150291543Y-97529817D01*
X150324563Y-97578077D01*
X150344883Y-97621257D01*
X150349963Y-97646657D01*
X150339803Y-97659357D01*
X150314403Y-97664437D01*
X150304243Y-97664437D01*
X150255983Y-97664437D01*
X150380443Y-97788897D01*
X150504903Y-97913357D01*
X150629363Y-97788897D01*
X150753823Y-97664437D01*
X150708103Y-97664437D01*
X150670003Y-97656817D01*
X150649683Y-97636497D01*
X150644603Y-97600937D01*
X150639523Y-97570457D01*
X150619203Y-97524737D01*
X150591263Y-97471397D01*
X150560783Y-97418057D01*
X150527763Y-97372337D01*
X150499823Y-97339317D01*
X150416003Y-97273277D01*
X150319483Y-97225017D01*
X150212803Y-97197077D01*
X150098503Y-97189457D01*
X149981663Y-97199617D01*
X149867363Y-97232637D01*
X149801323Y-97263117D01*
X149709883Y-97321537D01*
X149633683Y-97400277D01*
X149570183Y-97494257D01*
X149524463Y-97600937D01*
X149493983Y-97715237D01*
X149481283Y-97834617D01*
G36*
X152719783Y-97230097D02*
X152729943Y-97280897D01*
X152757883Y-97326617D01*
X152798523Y-97364717D01*
X152856943Y-97387577D01*
X152862023Y-97387577D01*
X152897583Y-97387577D01*
X152940763Y-97379957D01*
X152950923Y-97374877D01*
X152983943Y-97364717D01*
X153001723Y-97357097D01*
X153004263Y-97357097D01*
X153011883Y-97346937D01*
X153027123Y-97324077D01*
X153032203Y-97313917D01*
X153057603Y-97252957D01*
X153060143Y-97191997D01*
X153042363Y-97138657D01*
X153006803Y-97092937D01*
X152956003Y-97059917D01*
X152895043Y-97047217D01*
X152884883Y-97047217D01*
X152823923Y-97057377D01*
X152775663Y-97087857D01*
X152742643Y-97128497D01*
X152724863Y-97176757D01*
X152719783Y-97230097D01*
X152719783Y-97230097D01*
G37*
X152719783Y-97230097D02*
X152729943Y-97280897D01*
X152757883Y-97326617D01*
X152798523Y-97364717D01*
X152856943Y-97387577D01*
X152862023Y-97387577D01*
X152897583Y-97387577D01*
X152940763Y-97379957D01*
X152950923Y-97374877D01*
X152983943Y-97364717D01*
X153001723Y-97357097D01*
X153004263Y-97357097D01*
X153011883Y-97346937D01*
X153027123Y-97324077D01*
X153032203Y-97313917D01*
X153057603Y-97252957D01*
X153060143Y-97191997D01*
X153042363Y-97138657D01*
X153006803Y-97092937D01*
X152956003Y-97059917D01*
X152895043Y-97047217D01*
X152884883Y-97047217D01*
X152823923Y-97057377D01*
X152775663Y-97087857D01*
X152742643Y-97128497D01*
X152724863Y-97176757D01*
X152719783Y-97230097D01*
G36*
X152557223Y-97572997D02*
X152559763Y-97613637D01*
X152559763Y-97669517D01*
X152559763Y-97738097D01*
X152559763Y-97804137D01*
X152562303Y-98032737D01*
X152628343Y-98037817D01*
X152694383Y-98040357D01*
X152699463Y-98337537D01*
X152702003Y-98632177D01*
X152892503Y-98632177D01*
X153085543Y-98632177D01*
X153085543Y-98332457D01*
X153085543Y-98032737D01*
X153138883Y-98035277D01*
X153176983Y-98035277D01*
X153204923Y-98035277D01*
X153210003Y-98035277D01*
X153215083Y-98027657D01*
X153220163Y-98007337D01*
X153222703Y-97971777D01*
X153225243Y-97915897D01*
X153225243Y-97839697D01*
X153225243Y-97773657D01*
X153225243Y-97684757D01*
X153225243Y-97613637D01*
X153222703Y-97562837D01*
X153217623Y-97529817D01*
X153215083Y-97504417D01*
X153207463Y-97489177D01*
X153204923Y-97486637D01*
X153197303Y-97479017D01*
X153189683Y-97471397D01*
X153174443Y-97466317D01*
X153151583Y-97463777D01*
X153118563Y-97461237D01*
X153067763Y-97458697D01*
X152999183Y-97458697D01*
X152907743Y-97458697D01*
X152892503Y-97458697D01*
X152793443Y-97458697D01*
X152714703Y-97461237D01*
X152656283Y-97463777D01*
X152613103Y-97468857D01*
X152585163Y-97476477D01*
X152569923Y-97489177D01*
X152562303Y-97506957D01*
X152559763Y-97529817D01*
X152557223Y-97555217D01*
X152557223Y-97572997D01*
X152557223Y-97572997D01*
G37*
X152557223Y-97572997D02*
X152559763Y-97613637D01*
X152559763Y-97669517D01*
X152559763Y-97738097D01*
X152559763Y-97804137D01*
X152562303Y-98032737D01*
X152628343Y-98037817D01*
X152694383Y-98040357D01*
X152699463Y-98337537D01*
X152702003Y-98632177D01*
X152892503Y-98632177D01*
X153085543Y-98632177D01*
X153085543Y-98332457D01*
X153085543Y-98032737D01*
X153138883Y-98035277D01*
X153176983Y-98035277D01*
X153204923Y-98035277D01*
X153210003Y-98035277D01*
X153215083Y-98027657D01*
X153220163Y-98007337D01*
X153222703Y-97971777D01*
X153225243Y-97915897D01*
X153225243Y-97839697D01*
X153225243Y-97773657D01*
X153225243Y-97684757D01*
X153225243Y-97613637D01*
X153222703Y-97562837D01*
X153217623Y-97529817D01*
X153215083Y-97504417D01*
X153207463Y-97489177D01*
X153204923Y-97486637D01*
X153197303Y-97479017D01*
X153189683Y-97471397D01*
X153174443Y-97466317D01*
X153151583Y-97463777D01*
X153118563Y-97461237D01*
X153067763Y-97458697D01*
X152999183Y-97458697D01*
X152907743Y-97458697D01*
X152892503Y-97458697D01*
X152793443Y-97458697D01*
X152714703Y-97461237D01*
X152656283Y-97463777D01*
X152613103Y-97468857D01*
X152585163Y-97476477D01*
X152569923Y-97489177D01*
X152562303Y-97506957D01*
X152559763Y-97529817D01*
X152557223Y-97555217D01*
X152557223Y-97572997D01*
G36*
X155236923Y-98581377D02*
X155236923Y-98596617D01*
X155252163Y-98624557D01*
X155267403Y-98647417D01*
X155341063Y-98728697D01*
X155422343Y-98784577D01*
X155513783Y-98822677D01*
X155617923Y-98837917D01*
X155734763Y-98835377D01*
X155831283Y-98817597D01*
X155915103Y-98782037D01*
X155991303Y-98728697D01*
X156004003Y-98715997D01*
X156070043Y-98637257D01*
X156118303Y-98545817D01*
X156146243Y-98439137D01*
X156148783Y-98418817D01*
X156153863Y-98299437D01*
X156141163Y-98190217D01*
X156108143Y-98086077D01*
X156057343Y-97997177D01*
X155991303Y-97923517D01*
X155910023Y-97865097D01*
X155861763Y-97842237D01*
X155762703Y-97819377D01*
X155656023Y-97811757D01*
X155549343Y-97821917D01*
X155450283Y-97849857D01*
X155437583Y-97854937D01*
X155391863Y-97880337D01*
X155341063Y-97918437D01*
X155295343Y-97961617D01*
X155259783Y-98002257D01*
X155247083Y-98020037D01*
X155239463Y-98037817D01*
X155239463Y-98050517D01*
X155252163Y-98060677D01*
X155277563Y-98075917D01*
X155320743Y-98098777D01*
X155338523Y-98108937D01*
X155445203Y-98162277D01*
X155506163Y-98098777D01*
X155541723Y-98063217D01*
X155564583Y-98045437D01*
X155589983Y-98035277D01*
X155623003Y-98032737D01*
X155638243Y-98032737D01*
X155709363Y-98042897D01*
X155765243Y-98070837D01*
X155808423Y-98121637D01*
X155828743Y-98154657D01*
X155849063Y-98220697D01*
X155859223Y-98299437D01*
X155859223Y-98383257D01*
X155843983Y-98459457D01*
X155831283Y-98495017D01*
X155793183Y-98553437D01*
X155742383Y-98594077D01*
X155681423Y-98614397D01*
X155615383Y-98616937D01*
X155551883Y-98596617D01*
X155496003Y-98555977D01*
X155468063Y-98525497D01*
X155447743Y-98500097D01*
X155442663Y-98489937D01*
X155435043Y-98484857D01*
X155417263Y-98484857D01*
X155386783Y-98497557D01*
X155341063Y-98522957D01*
X155297883Y-98545817D01*
X155259783Y-98566137D01*
X155239463Y-98578837D01*
X155236923Y-98581377D01*
X155236923Y-98581377D01*
G37*
X155236923Y-98581377D02*
X155236923Y-98596617D01*
X155252163Y-98624557D01*
X155267403Y-98647417D01*
X155341063Y-98728697D01*
X155422343Y-98784577D01*
X155513783Y-98822677D01*
X155617923Y-98837917D01*
X155734763Y-98835377D01*
X155831283Y-98817597D01*
X155915103Y-98782037D01*
X155991303Y-98728697D01*
X156004003Y-98715997D01*
X156070043Y-98637257D01*
X156118303Y-98545817D01*
X156146243Y-98439137D01*
X156148783Y-98418817D01*
X156153863Y-98299437D01*
X156141163Y-98190217D01*
X156108143Y-98086077D01*
X156057343Y-97997177D01*
X155991303Y-97923517D01*
X155910023Y-97865097D01*
X155861763Y-97842237D01*
X155762703Y-97819377D01*
X155656023Y-97811757D01*
X155549343Y-97821917D01*
X155450283Y-97849857D01*
X155437583Y-97854937D01*
X155391863Y-97880337D01*
X155341063Y-97918437D01*
X155295343Y-97961617D01*
X155259783Y-98002257D01*
X155247083Y-98020037D01*
X155239463Y-98037817D01*
X155239463Y-98050517D01*
X155252163Y-98060677D01*
X155277563Y-98075917D01*
X155320743Y-98098777D01*
X155338523Y-98108937D01*
X155445203Y-98162277D01*
X155506163Y-98098777D01*
X155541723Y-98063217D01*
X155564583Y-98045437D01*
X155589983Y-98035277D01*
X155623003Y-98032737D01*
X155638243Y-98032737D01*
X155709363Y-98042897D01*
X155765243Y-98070837D01*
X155808423Y-98121637D01*
X155828743Y-98154657D01*
X155849063Y-98220697D01*
X155859223Y-98299437D01*
X155859223Y-98383257D01*
X155843983Y-98459457D01*
X155831283Y-98495017D01*
X155793183Y-98553437D01*
X155742383Y-98594077D01*
X155681423Y-98614397D01*
X155615383Y-98616937D01*
X155551883Y-98596617D01*
X155496003Y-98555977D01*
X155468063Y-98525497D01*
X155447743Y-98500097D01*
X155442663Y-98489937D01*
X155435043Y-98484857D01*
X155417263Y-98484857D01*
X155386783Y-98497557D01*
X155341063Y-98522957D01*
X155297883Y-98545817D01*
X155259783Y-98566137D01*
X155239463Y-98578837D01*
X155236923Y-98581377D01*
G36*
X156186883Y-98583917D02*
X156209743Y-98622017D01*
X156242763Y-98667737D01*
X156293563Y-98715997D01*
X156346903Y-98761717D01*
X156400243Y-98794737D01*
X156412943Y-98799817D01*
X156504383Y-98827757D01*
X156611063Y-98837917D01*
X156692343Y-98835377D01*
X156801563Y-98812517D01*
X156895543Y-98771877D01*
X156974283Y-98710917D01*
X157037783Y-98632177D01*
X157083503Y-98538197D01*
X157111443Y-98434057D01*
X157116523Y-98312137D01*
X157113983Y-98279117D01*
X157098743Y-98167357D01*
X157063183Y-98073377D01*
X157009843Y-97989557D01*
X156989523Y-97964157D01*
X156908243Y-97893037D01*
X156811723Y-97842237D01*
X156707583Y-97814297D01*
X156593283Y-97811757D01*
X156542483Y-97816837D01*
X156484063Y-97829537D01*
X156423103Y-97844777D01*
X156382463Y-97862557D01*
X156344363Y-97885417D01*
X156301183Y-97918437D01*
X156260543Y-97956537D01*
X156227523Y-97992097D01*
X156204663Y-98025117D01*
X156199583Y-98040357D01*
X156209743Y-98055597D01*
X156237683Y-98075917D01*
X156280863Y-98098777D01*
X156301183Y-98111477D01*
X156402783Y-98162277D01*
X156463743Y-98098777D01*
X156499303Y-98063217D01*
X156524703Y-98045437D01*
X156547563Y-98035277D01*
X156580583Y-98032737D01*
X156598363Y-98032737D01*
X156669483Y-98045437D01*
X156727903Y-98075917D01*
X156776163Y-98129257D01*
X156778703Y-98136877D01*
X156796483Y-98180057D01*
X156806643Y-98243557D01*
X156811723Y-98312137D01*
X156809183Y-98385797D01*
X156801563Y-98449297D01*
X156793943Y-98479777D01*
X156763463Y-98540737D01*
X156720283Y-98583917D01*
X156661863Y-98606777D01*
X156600903Y-98611857D01*
X156532323Y-98606777D01*
X156484063Y-98586457D01*
X156440883Y-98545817D01*
X156423103Y-98520417D01*
X156402783Y-98492477D01*
X156387543Y-98479777D01*
X156372303Y-98484857D01*
X156339283Y-98500097D01*
X156298643Y-98522957D01*
X156280863Y-98530577D01*
X156186883Y-98583917D01*
X156186883Y-98583917D01*
G37*
X156186883Y-98583917D02*
X156209743Y-98622017D01*
X156242763Y-98667737D01*
X156293563Y-98715997D01*
X156346903Y-98761717D01*
X156400243Y-98794737D01*
X156412943Y-98799817D01*
X156504383Y-98827757D01*
X156611063Y-98837917D01*
X156692343Y-98835377D01*
X156801563Y-98812517D01*
X156895543Y-98771877D01*
X156974283Y-98710917D01*
X157037783Y-98632177D01*
X157083503Y-98538197D01*
X157111443Y-98434057D01*
X157116523Y-98312137D01*
X157113983Y-98279117D01*
X157098743Y-98167357D01*
X157063183Y-98073377D01*
X157009843Y-97989557D01*
X156989523Y-97964157D01*
X156908243Y-97893037D01*
X156811723Y-97842237D01*
X156707583Y-97814297D01*
X156593283Y-97811757D01*
X156542483Y-97816837D01*
X156484063Y-97829537D01*
X156423103Y-97844777D01*
X156382463Y-97862557D01*
X156344363Y-97885417D01*
X156301183Y-97918437D01*
X156260543Y-97956537D01*
X156227523Y-97992097D01*
X156204663Y-98025117D01*
X156199583Y-98040357D01*
X156209743Y-98055597D01*
X156237683Y-98075917D01*
X156280863Y-98098777D01*
X156301183Y-98111477D01*
X156402783Y-98162277D01*
X156463743Y-98098777D01*
X156499303Y-98063217D01*
X156524703Y-98045437D01*
X156547563Y-98035277D01*
X156580583Y-98032737D01*
X156598363Y-98032737D01*
X156669483Y-98045437D01*
X156727903Y-98075917D01*
X156776163Y-98129257D01*
X156778703Y-98136877D01*
X156796483Y-98180057D01*
X156806643Y-98243557D01*
X156811723Y-98312137D01*
X156809183Y-98385797D01*
X156801563Y-98449297D01*
X156793943Y-98479777D01*
X156763463Y-98540737D01*
X156720283Y-98583917D01*
X156661863Y-98606777D01*
X156600903Y-98611857D01*
X156532323Y-98606777D01*
X156484063Y-98586457D01*
X156440883Y-98545817D01*
X156423103Y-98520417D01*
X156402783Y-98492477D01*
X156387543Y-98479777D01*
X156372303Y-98484857D01*
X156339283Y-98500097D01*
X156298643Y-98522957D01*
X156280863Y-98530577D01*
X156186883Y-98583917D01*
G36*
X148876763Y-97870177D02*
X148879303Y-97969237D01*
X148886923Y-98058137D01*
X148897083Y-98129257D01*
X148899623Y-98139417D01*
X148952963Y-98307057D01*
X149031703Y-98461997D01*
X149102823Y-98563597D01*
X149102823Y-97880337D01*
X149102823Y-97804137D01*
X149110443Y-97699997D01*
X149123143Y-97613637D01*
X149140923Y-97534897D01*
X149171403Y-97456157D01*
X149201883Y-97390117D01*
X149280623Y-97260577D01*
X149377143Y-97143737D01*
X149493983Y-97039597D01*
X149620983Y-96953237D01*
X149758143Y-96889737D01*
X149801323Y-96874497D01*
X149890223Y-96851637D01*
X149994363Y-96838937D01*
X150106123Y-96833857D01*
X150215343Y-96836397D01*
X150311863Y-96849097D01*
X150322023Y-96851637D01*
X150469343Y-96897357D01*
X150606503Y-96965937D01*
X150733503Y-97052297D01*
X150845263Y-97158977D01*
X150941783Y-97283437D01*
X151020523Y-97420597D01*
X151068783Y-97534897D01*
X151086563Y-97585697D01*
X151096723Y-97628877D01*
X151104343Y-97666977D01*
X151109423Y-97710157D01*
X151111963Y-97766037D01*
X151111963Y-97837157D01*
X151109423Y-97946377D01*
X151099263Y-98040357D01*
X151078943Y-98124177D01*
X151051003Y-98205457D01*
X151020523Y-98268957D01*
X150959563Y-98370557D01*
X150883363Y-98472157D01*
X150794463Y-98563597D01*
X150700483Y-98647417D01*
X150614123Y-98705837D01*
X150482043Y-98771877D01*
X150339803Y-98815057D01*
X150189943Y-98840457D01*
X150037543Y-98842997D01*
X149890223Y-98822677D01*
X149841963Y-98809977D01*
X149707343Y-98761717D01*
X149575263Y-98690597D01*
X149455883Y-98604237D01*
X149346663Y-98500097D01*
X149257763Y-98390877D01*
X149189183Y-98271497D01*
X149181563Y-98256257D01*
X149138383Y-98136877D01*
X149112983Y-98014957D01*
X149102823Y-97880337D01*
X149102823Y-98563597D01*
X149130763Y-98604237D01*
X149250143Y-98733777D01*
X149359363Y-98825217D01*
X149509223Y-98921737D01*
X149666703Y-98995397D01*
X149834343Y-99046197D01*
X150007063Y-99071597D01*
X150184863Y-99074137D01*
X150314403Y-99058897D01*
X150476963Y-99020797D01*
X150631903Y-98959837D01*
X150779223Y-98873477D01*
X150918923Y-98766797D01*
X151043383Y-98639797D01*
X151061163Y-98619477D01*
X151165303Y-98479777D01*
X151244043Y-98329917D01*
X151302463Y-98169897D01*
X151335483Y-98004797D01*
X151345643Y-97837157D01*
X151332943Y-97666977D01*
X151297383Y-97499337D01*
X151236423Y-97334237D01*
X151218643Y-97298677D01*
X151134823Y-97151357D01*
X151028143Y-97014197D01*
X150906223Y-96894817D01*
X150769063Y-96793217D01*
X150621743Y-96709397D01*
X150464263Y-96650977D01*
X150428703Y-96638277D01*
X150382983Y-96628117D01*
X150339803Y-96620497D01*
X150294083Y-96615417D01*
X150238203Y-96612877D01*
X150167083Y-96610337D01*
X150103583Y-96610337D01*
X150014683Y-96612877D01*
X149948643Y-96615417D01*
X149895303Y-96617957D01*
X149849583Y-96625577D01*
X149806403Y-96633197D01*
X149783543Y-96640817D01*
X149679403Y-96673837D01*
X149570183Y-96722097D01*
X149466043Y-96775437D01*
X149387303Y-96826237D01*
X149333963Y-96869417D01*
X149270463Y-96927837D01*
X149204423Y-96991337D01*
X149143463Y-97057377D01*
X149095203Y-97115797D01*
X149077423Y-97143737D01*
X149029163Y-97219937D01*
X148983443Y-97311377D01*
X148942803Y-97405357D01*
X148912323Y-97496797D01*
X148907243Y-97517117D01*
X148892003Y-97585697D01*
X148884383Y-97672057D01*
X148876763Y-97768577D01*
X148876763Y-97870177D01*
X148876763Y-97870177D01*
G37*
X148876763Y-97870177D02*
X148879303Y-97969237D01*
X148886923Y-98058137D01*
X148897083Y-98129257D01*
X148899623Y-98139417D01*
X148952963Y-98307057D01*
X149031703Y-98461997D01*
X149102823Y-98563597D01*
X149102823Y-97880337D01*
X149102823Y-97804137D01*
X149110443Y-97699997D01*
X149123143Y-97613637D01*
X149140923Y-97534897D01*
X149171403Y-97456157D01*
X149201883Y-97390117D01*
X149280623Y-97260577D01*
X149377143Y-97143737D01*
X149493983Y-97039597D01*
X149620983Y-96953237D01*
X149758143Y-96889737D01*
X149801323Y-96874497D01*
X149890223Y-96851637D01*
X149994363Y-96838937D01*
X150106123Y-96833857D01*
X150215343Y-96836397D01*
X150311863Y-96849097D01*
X150322023Y-96851637D01*
X150469343Y-96897357D01*
X150606503Y-96965937D01*
X150733503Y-97052297D01*
X150845263Y-97158977D01*
X150941783Y-97283437D01*
X151020523Y-97420597D01*
X151068783Y-97534897D01*
X151086563Y-97585697D01*
X151096723Y-97628877D01*
X151104343Y-97666977D01*
X151109423Y-97710157D01*
X151111963Y-97766037D01*
X151111963Y-97837157D01*
X151109423Y-97946377D01*
X151099263Y-98040357D01*
X151078943Y-98124177D01*
X151051003Y-98205457D01*
X151020523Y-98268957D01*
X150959563Y-98370557D01*
X150883363Y-98472157D01*
X150794463Y-98563597D01*
X150700483Y-98647417D01*
X150614123Y-98705837D01*
X150482043Y-98771877D01*
X150339803Y-98815057D01*
X150189943Y-98840457D01*
X150037543Y-98842997D01*
X149890223Y-98822677D01*
X149841963Y-98809977D01*
X149707343Y-98761717D01*
X149575263Y-98690597D01*
X149455883Y-98604237D01*
X149346663Y-98500097D01*
X149257763Y-98390877D01*
X149189183Y-98271497D01*
X149181563Y-98256257D01*
X149138383Y-98136877D01*
X149112983Y-98014957D01*
X149102823Y-97880337D01*
X149102823Y-98563597D01*
X149130763Y-98604237D01*
X149250143Y-98733777D01*
X149359363Y-98825217D01*
X149509223Y-98921737D01*
X149666703Y-98995397D01*
X149834343Y-99046197D01*
X150007063Y-99071597D01*
X150184863Y-99074137D01*
X150314403Y-99058897D01*
X150476963Y-99020797D01*
X150631903Y-98959837D01*
X150779223Y-98873477D01*
X150918923Y-98766797D01*
X151043383Y-98639797D01*
X151061163Y-98619477D01*
X151165303Y-98479777D01*
X151244043Y-98329917D01*
X151302463Y-98169897D01*
X151335483Y-98004797D01*
X151345643Y-97837157D01*
X151332943Y-97666977D01*
X151297383Y-97499337D01*
X151236423Y-97334237D01*
X151218643Y-97298677D01*
X151134823Y-97151357D01*
X151028143Y-97014197D01*
X150906223Y-96894817D01*
X150769063Y-96793217D01*
X150621743Y-96709397D01*
X150464263Y-96650977D01*
X150428703Y-96638277D01*
X150382983Y-96628117D01*
X150339803Y-96620497D01*
X150294083Y-96615417D01*
X150238203Y-96612877D01*
X150167083Y-96610337D01*
X150103583Y-96610337D01*
X150014683Y-96612877D01*
X149948643Y-96615417D01*
X149895303Y-96617957D01*
X149849583Y-96625577D01*
X149806403Y-96633197D01*
X149783543Y-96640817D01*
X149679403Y-96673837D01*
X149570183Y-96722097D01*
X149466043Y-96775437D01*
X149387303Y-96826237D01*
X149333963Y-96869417D01*
X149270463Y-96927837D01*
X149204423Y-96991337D01*
X149143463Y-97057377D01*
X149095203Y-97115797D01*
X149077423Y-97143737D01*
X149029163Y-97219937D01*
X148983443Y-97311377D01*
X148942803Y-97405357D01*
X148912323Y-97496797D01*
X148907243Y-97517117D01*
X148892003Y-97585697D01*
X148884383Y-97672057D01*
X148876763Y-97768577D01*
X148876763Y-97870177D01*
G36*
X151650443Y-97842237D02*
X151660603Y-98014957D01*
X151688543Y-98172437D01*
X151736803Y-98317217D01*
X151805383Y-98454377D01*
X151884123Y-98563597D01*
X151884123Y-97842237D01*
X151891743Y-97705077D01*
X151912063Y-97583157D01*
X151950163Y-97466317D01*
X151978103Y-97402817D01*
X152051763Y-97275817D01*
X152148283Y-97158977D01*
X152260043Y-97054837D01*
X152384503Y-96965937D01*
X152519123Y-96899897D01*
X152600403Y-96869417D01*
X152641043Y-96856717D01*
X152681683Y-96849097D01*
X152727403Y-96844017D01*
X152780743Y-96841477D01*
X152851863Y-96838937D01*
X152887423Y-96838937D01*
X152966163Y-96841477D01*
X153027123Y-96841477D01*
X153075383Y-96846557D01*
X153116023Y-96854177D01*
X153156663Y-96864337D01*
X153174443Y-96869417D01*
X153321763Y-96927837D01*
X153453843Y-97009117D01*
X153575763Y-97108177D01*
X153682443Y-97225017D01*
X153771343Y-97357097D01*
X153837383Y-97501877D01*
X153865323Y-97583157D01*
X153880563Y-97664437D01*
X153890723Y-97760957D01*
X153893263Y-97862557D01*
X153888183Y-97961617D01*
X153878023Y-98050517D01*
X153870403Y-98083537D01*
X153814523Y-98233397D01*
X153738323Y-98373097D01*
X153641803Y-98500097D01*
X153527503Y-98611857D01*
X153458923Y-98662657D01*
X153326843Y-98743937D01*
X153182063Y-98802357D01*
X153029663Y-98837917D01*
X152872183Y-98845537D01*
X152742643Y-98835377D01*
X152625803Y-98809977D01*
X152506423Y-98769337D01*
X152394663Y-98715997D01*
X152366723Y-98700757D01*
X152326083Y-98672817D01*
X152275283Y-98632177D01*
X152219403Y-98581377D01*
X152166063Y-98530577D01*
X152107643Y-98474697D01*
X152064463Y-98423897D01*
X152031443Y-98378177D01*
X152003503Y-98329917D01*
X151988263Y-98301977D01*
X151940003Y-98190217D01*
X151906983Y-98078457D01*
X151889203Y-97964157D01*
X151884123Y-97842237D01*
X151884123Y-98563597D01*
X151894283Y-98581377D01*
X151993343Y-98690597D01*
X152130503Y-98812517D01*
X152272743Y-98911577D01*
X152425143Y-98987777D01*
X152585163Y-99038577D01*
X152587703Y-99041117D01*
X152663903Y-99053817D01*
X152752803Y-99063977D01*
X152849323Y-99071597D01*
X152943303Y-99074137D01*
X153024583Y-99071597D01*
X153077923Y-99066517D01*
X153245563Y-99025877D01*
X153405583Y-98962377D01*
X153555443Y-98876017D01*
X153697683Y-98769337D01*
X153758643Y-98710917D01*
X153878023Y-98573757D01*
X153974543Y-98431517D01*
X154048203Y-98274037D01*
X154088843Y-98149577D01*
X154101543Y-98093697D01*
X154111703Y-98040357D01*
X154116783Y-97987017D01*
X154119323Y-97923517D01*
X154121863Y-97849857D01*
X154116783Y-97730477D01*
X154109163Y-97633957D01*
X154099003Y-97578077D01*
X154050743Y-97412977D01*
X153979623Y-97258037D01*
X153888183Y-97115797D01*
X153778963Y-96983717D01*
X153654503Y-96869417D01*
X153517343Y-96772897D01*
X153370023Y-96696697D01*
X153210003Y-96640817D01*
X153179523Y-96633197D01*
X153100783Y-96620497D01*
X153004263Y-96612877D01*
X152902663Y-96610337D01*
X152795983Y-96610337D01*
X152696923Y-96617957D01*
X152610563Y-96630657D01*
X152567383Y-96640817D01*
X152402283Y-96696697D01*
X152247343Y-96777977D01*
X152102563Y-96882117D01*
X151973023Y-97006577D01*
X151858723Y-97148817D01*
X151846023Y-97164057D01*
X151772363Y-97285977D01*
X151719023Y-97405357D01*
X151680923Y-97532357D01*
X151658063Y-97672057D01*
X151650443Y-97826997D01*
X151650443Y-97842237D01*
X151650443Y-97842237D01*
G37*
X151650443Y-97842237D02*
X151660603Y-98014957D01*
X151688543Y-98172437D01*
X151736803Y-98317217D01*
X151805383Y-98454377D01*
X151884123Y-98563597D01*
X151884123Y-97842237D01*
X151891743Y-97705077D01*
X151912063Y-97583157D01*
X151950163Y-97466317D01*
X151978103Y-97402817D01*
X152051763Y-97275817D01*
X152148283Y-97158977D01*
X152260043Y-97054837D01*
X152384503Y-96965937D01*
X152519123Y-96899897D01*
X152600403Y-96869417D01*
X152641043Y-96856717D01*
X152681683Y-96849097D01*
X152727403Y-96844017D01*
X152780743Y-96841477D01*
X152851863Y-96838937D01*
X152887423Y-96838937D01*
X152966163Y-96841477D01*
X153027123Y-96841477D01*
X153075383Y-96846557D01*
X153116023Y-96854177D01*
X153156663Y-96864337D01*
X153174443Y-96869417D01*
X153321763Y-96927837D01*
X153453843Y-97009117D01*
X153575763Y-97108177D01*
X153682443Y-97225017D01*
X153771343Y-97357097D01*
X153837383Y-97501877D01*
X153865323Y-97583157D01*
X153880563Y-97664437D01*
X153890723Y-97760957D01*
X153893263Y-97862557D01*
X153888183Y-97961617D01*
X153878023Y-98050517D01*
X153870403Y-98083537D01*
X153814523Y-98233397D01*
X153738323Y-98373097D01*
X153641803Y-98500097D01*
X153527503Y-98611857D01*
X153458923Y-98662657D01*
X153326843Y-98743937D01*
X153182063Y-98802357D01*
X153029663Y-98837917D01*
X152872183Y-98845537D01*
X152742643Y-98835377D01*
X152625803Y-98809977D01*
X152506423Y-98769337D01*
X152394663Y-98715997D01*
X152366723Y-98700757D01*
X152326083Y-98672817D01*
X152275283Y-98632177D01*
X152219403Y-98581377D01*
X152166063Y-98530577D01*
X152107643Y-98474697D01*
X152064463Y-98423897D01*
X152031443Y-98378177D01*
X152003503Y-98329917D01*
X151988263Y-98301977D01*
X151940003Y-98190217D01*
X151906983Y-98078457D01*
X151889203Y-97964157D01*
X151884123Y-97842237D01*
X151884123Y-98563597D01*
X151894283Y-98581377D01*
X151993343Y-98690597D01*
X152130503Y-98812517D01*
X152272743Y-98911577D01*
X152425143Y-98987777D01*
X152585163Y-99038577D01*
X152587703Y-99041117D01*
X152663903Y-99053817D01*
X152752803Y-99063977D01*
X152849323Y-99071597D01*
X152943303Y-99074137D01*
X153024583Y-99071597D01*
X153077923Y-99066517D01*
X153245563Y-99025877D01*
X153405583Y-98962377D01*
X153555443Y-98876017D01*
X153697683Y-98769337D01*
X153758643Y-98710917D01*
X153878023Y-98573757D01*
X153974543Y-98431517D01*
X154048203Y-98274037D01*
X154088843Y-98149577D01*
X154101543Y-98093697D01*
X154111703Y-98040357D01*
X154116783Y-97987017D01*
X154119323Y-97923517D01*
X154121863Y-97849857D01*
X154116783Y-97730477D01*
X154109163Y-97633957D01*
X154099003Y-97578077D01*
X154050743Y-97412977D01*
X153979623Y-97258037D01*
X153888183Y-97115797D01*
X153778963Y-96983717D01*
X153654503Y-96869417D01*
X153517343Y-96772897D01*
X153370023Y-96696697D01*
X153210003Y-96640817D01*
X153179523Y-96633197D01*
X153100783Y-96620497D01*
X153004263Y-96612877D01*
X152902663Y-96610337D01*
X152795983Y-96610337D01*
X152696923Y-96617957D01*
X152610563Y-96630657D01*
X152567383Y-96640817D01*
X152402283Y-96696697D01*
X152247343Y-96777977D01*
X152102563Y-96882117D01*
X151973023Y-97006577D01*
X151858723Y-97148817D01*
X151846023Y-97164057D01*
X151772363Y-97285977D01*
X151719023Y-97405357D01*
X151680923Y-97532357D01*
X151658063Y-97672057D01*
X151650443Y-97826997D01*
X151650443Y-97842237D01*
G36*
X154515563Y-98304517D02*
X154515563Y-98395957D01*
X154520643Y-98517877D01*
X154530803Y-98624557D01*
X154548583Y-98718537D01*
X154571443Y-98809977D01*
X154601923Y-98903957D01*
X154627323Y-98969997D01*
X154706063Y-99135097D01*
X154807663Y-99292577D01*
X154810203Y-99295117D01*
X154810203Y-98304517D01*
X154822903Y-98126717D01*
X154861003Y-97953997D01*
X154919423Y-97786357D01*
X154998163Y-97628877D01*
X155099763Y-97484097D01*
X155219143Y-97349477D01*
X155358843Y-97230097D01*
X155516323Y-97128497D01*
X155523943Y-97123417D01*
X155676343Y-97052297D01*
X155841443Y-97001497D01*
X156011623Y-96973557D01*
X156186883Y-96963397D01*
X156359603Y-96976097D01*
X156529783Y-97009117D01*
X156692343Y-97064997D01*
X156796483Y-97113257D01*
X156941263Y-97204697D01*
X157075883Y-97316457D01*
X157200343Y-97443457D01*
X157307023Y-97583157D01*
X157393383Y-97733017D01*
X157461963Y-97887957D01*
X157487363Y-97976857D01*
X157525463Y-98162277D01*
X157535623Y-98342617D01*
X157522923Y-98520417D01*
X157482283Y-98693137D01*
X157421323Y-98860777D01*
X157334963Y-99020797D01*
X157228283Y-99170657D01*
X157098743Y-99307817D01*
X156953963Y-99429737D01*
X156799023Y-99528797D01*
X156639003Y-99602457D01*
X156468823Y-99653257D01*
X156291023Y-99678657D01*
X156105603Y-99681197D01*
X155937963Y-99663417D01*
X155780483Y-99627857D01*
X155628083Y-99569437D01*
X155478223Y-99490697D01*
X155338523Y-99394177D01*
X155211523Y-99284957D01*
X155097223Y-99160497D01*
X155000703Y-99028417D01*
X154927043Y-98888717D01*
X154909263Y-98845537D01*
X154850843Y-98665197D01*
X154817823Y-98482317D01*
X154810203Y-98304517D01*
X154810203Y-99295117D01*
X154927043Y-99437357D01*
X155061663Y-99569437D01*
X155211523Y-99686277D01*
X155371543Y-99787877D01*
X155539183Y-99869157D01*
X155714443Y-99930117D01*
X155889703Y-99968217D01*
X155976063Y-99978377D01*
X156057343Y-99985997D01*
X156120843Y-99988537D01*
X156174183Y-99991077D01*
X156224983Y-99991077D01*
X156275783Y-99988537D01*
X156321503Y-99985997D01*
X156517083Y-99958057D01*
X156702503Y-99909797D01*
X156877763Y-99836137D01*
X157047943Y-99742157D01*
X157207963Y-99622777D01*
X157365443Y-99477997D01*
X157367983Y-99472917D01*
X157505143Y-99317977D01*
X157616903Y-99157957D01*
X157703263Y-98990317D01*
X157769303Y-98815057D01*
X157809943Y-98627097D01*
X157830263Y-98431517D01*
X157835343Y-98327377D01*
X157825183Y-98144497D01*
X157802323Y-97974317D01*
X157761683Y-97814297D01*
X157700723Y-97656817D01*
X157652463Y-97560297D01*
X157548323Y-97385037D01*
X157426403Y-97227557D01*
X157286703Y-97085317D01*
X157131763Y-96960857D01*
X156966663Y-96856717D01*
X156788863Y-96770357D01*
X156603443Y-96709397D01*
X156486603Y-96683997D01*
X156402783Y-96671297D01*
X156301183Y-96666217D01*
X156189423Y-96663677D01*
X156077663Y-96663677D01*
X155973523Y-96671297D01*
X155882083Y-96681457D01*
X155861763Y-96683997D01*
X155668723Y-96732257D01*
X155483303Y-96800837D01*
X155308043Y-96892277D01*
X155148023Y-97004037D01*
X155000703Y-97133577D01*
X154868623Y-97278357D01*
X154754323Y-97438377D01*
X154660343Y-97611097D01*
X154586683Y-97796517D01*
X154571443Y-97842237D01*
X154548583Y-97931137D01*
X154533343Y-98014957D01*
X154520643Y-98101317D01*
X154515563Y-98195297D01*
X154515563Y-98304517D01*
X154515563Y-98304517D01*
G37*
X154515563Y-98304517D02*
X154515563Y-98395957D01*
X154520643Y-98517877D01*
X154530803Y-98624557D01*
X154548583Y-98718537D01*
X154571443Y-98809977D01*
X154601923Y-98903957D01*
X154627323Y-98969997D01*
X154706063Y-99135097D01*
X154807663Y-99292577D01*
X154810203Y-99295117D01*
X154810203Y-98304517D01*
X154822903Y-98126717D01*
X154861003Y-97953997D01*
X154919423Y-97786357D01*
X154998163Y-97628877D01*
X155099763Y-97484097D01*
X155219143Y-97349477D01*
X155358843Y-97230097D01*
X155516323Y-97128497D01*
X155523943Y-97123417D01*
X155676343Y-97052297D01*
X155841443Y-97001497D01*
X156011623Y-96973557D01*
X156186883Y-96963397D01*
X156359603Y-96976097D01*
X156529783Y-97009117D01*
X156692343Y-97064997D01*
X156796483Y-97113257D01*
X156941263Y-97204697D01*
X157075883Y-97316457D01*
X157200343Y-97443457D01*
X157307023Y-97583157D01*
X157393383Y-97733017D01*
X157461963Y-97887957D01*
X157487363Y-97976857D01*
X157525463Y-98162277D01*
X157535623Y-98342617D01*
X157522923Y-98520417D01*
X157482283Y-98693137D01*
X157421323Y-98860777D01*
X157334963Y-99020797D01*
X157228283Y-99170657D01*
X157098743Y-99307817D01*
X156953963Y-99429737D01*
X156799023Y-99528797D01*
X156639003Y-99602457D01*
X156468823Y-99653257D01*
X156291023Y-99678657D01*
X156105603Y-99681197D01*
X155937963Y-99663417D01*
X155780483Y-99627857D01*
X155628083Y-99569437D01*
X155478223Y-99490697D01*
X155338523Y-99394177D01*
X155211523Y-99284957D01*
X155097223Y-99160497D01*
X155000703Y-99028417D01*
X154927043Y-98888717D01*
X154909263Y-98845537D01*
X154850843Y-98665197D01*
X154817823Y-98482317D01*
X154810203Y-98304517D01*
X154810203Y-99295117D01*
X154927043Y-99437357D01*
X155061663Y-99569437D01*
X155211523Y-99686277D01*
X155371543Y-99787877D01*
X155539183Y-99869157D01*
X155714443Y-99930117D01*
X155889703Y-99968217D01*
X155976063Y-99978377D01*
X156057343Y-99985997D01*
X156120843Y-99988537D01*
X156174183Y-99991077D01*
X156224983Y-99991077D01*
X156275783Y-99988537D01*
X156321503Y-99985997D01*
X156517083Y-99958057D01*
X156702503Y-99909797D01*
X156877763Y-99836137D01*
X157047943Y-99742157D01*
X157207963Y-99622777D01*
X157365443Y-99477997D01*
X157367983Y-99472917D01*
X157505143Y-99317977D01*
X157616903Y-99157957D01*
X157703263Y-98990317D01*
X157769303Y-98815057D01*
X157809943Y-98627097D01*
X157830263Y-98431517D01*
X157835343Y-98327377D01*
X157825183Y-98144497D01*
X157802323Y-97974317D01*
X157761683Y-97814297D01*
X157700723Y-97656817D01*
X157652463Y-97560297D01*
X157548323Y-97385037D01*
X157426403Y-97227557D01*
X157286703Y-97085317D01*
X157131763Y-96960857D01*
X156966663Y-96856717D01*
X156788863Y-96770357D01*
X156603443Y-96709397D01*
X156486603Y-96683997D01*
X156402783Y-96671297D01*
X156301183Y-96666217D01*
X156189423Y-96663677D01*
X156077663Y-96663677D01*
X155973523Y-96671297D01*
X155882083Y-96681457D01*
X155861763Y-96683997D01*
X155668723Y-96732257D01*
X155483303Y-96800837D01*
X155308043Y-96892277D01*
X155148023Y-97004037D01*
X155000703Y-97133577D01*
X154868623Y-97278357D01*
X154754323Y-97438377D01*
X154660343Y-97611097D01*
X154586683Y-97796517D01*
X154571443Y-97842237D01*
X154548583Y-97931137D01*
X154533343Y-98014957D01*
X154520643Y-98101317D01*
X154515563Y-98195297D01*
X154515563Y-98304517D01*
G36*
X149560023Y-100422877D02*
X149570183Y-100427957D01*
X149603203Y-100430497D01*
X149641303Y-100433037D01*
X149722583Y-100433037D01*
X149745443Y-100356837D01*
X149768303Y-100280637D01*
X149816563Y-100280637D01*
X149816563Y-100151097D01*
X149857203Y-100036797D01*
X149872443Y-99988537D01*
X149890223Y-99950437D01*
X149900383Y-99932657D01*
X149902923Y-99930117D01*
X149913083Y-99945357D01*
X149925783Y-99978377D01*
X149941023Y-100021557D01*
X149956263Y-100067277D01*
X149971503Y-100107917D01*
X149979123Y-100135857D01*
X149981663Y-100143477D01*
X149968963Y-100148557D01*
X149938483Y-100151097D01*
X149900383Y-100151097D01*
X149816563Y-100151097D01*
X149816563Y-100280637D01*
X149900383Y-100280637D01*
X150029923Y-100280637D01*
X150057863Y-100356837D01*
X150085803Y-100433037D01*
X150167083Y-100433037D01*
X150245823Y-100433037D01*
X150113743Y-100085057D01*
X149984203Y-99737077D01*
X149897843Y-99737077D01*
X149814023Y-99737077D01*
X149687023Y-100074897D01*
X149654003Y-100163797D01*
X149623523Y-100242537D01*
X149598123Y-100311117D01*
X149580343Y-100366997D01*
X149565103Y-100405097D01*
X149560023Y-100422877D01*
X149560023Y-100422877D01*
G37*
X149560023Y-100422877D02*
X149570183Y-100427957D01*
X149603203Y-100430497D01*
X149641303Y-100433037D01*
X149722583Y-100433037D01*
X149745443Y-100356837D01*
X149768303Y-100280637D01*
X149816563Y-100280637D01*
X149816563Y-100151097D01*
X149857203Y-100036797D01*
X149872443Y-99988537D01*
X149890223Y-99950437D01*
X149900383Y-99932657D01*
X149902923Y-99930117D01*
X149913083Y-99945357D01*
X149925783Y-99978377D01*
X149941023Y-100021557D01*
X149956263Y-100067277D01*
X149971503Y-100107917D01*
X149979123Y-100135857D01*
X149981663Y-100143477D01*
X149968963Y-100148557D01*
X149938483Y-100151097D01*
X149900383Y-100151097D01*
X149816563Y-100151097D01*
X149816563Y-100280637D01*
X149900383Y-100280637D01*
X150029923Y-100280637D01*
X150057863Y-100356837D01*
X150085803Y-100433037D01*
X150167083Y-100433037D01*
X150245823Y-100433037D01*
X150113743Y-100085057D01*
X149984203Y-99737077D01*
X149897843Y-99737077D01*
X149814023Y-99737077D01*
X149687023Y-100074897D01*
X149654003Y-100163797D01*
X149623523Y-100242537D01*
X149598123Y-100311117D01*
X149580343Y-100366997D01*
X149565103Y-100405097D01*
X149560023Y-100422877D01*
G36*
X152280363Y-99729457D02*
X152414983Y-99952977D01*
X152549603Y-100176497D01*
X152549603Y-100303497D01*
X152549603Y-100433037D01*
X152625803Y-100433037D01*
X152702003Y-100433037D01*
X152702003Y-100298417D01*
X152702003Y-100161257D01*
X152826463Y-99955517D01*
X152864563Y-99889477D01*
X152897583Y-99831057D01*
X152925523Y-99785337D01*
X152945843Y-99754857D01*
X152953463Y-99739617D01*
X152943303Y-99734537D01*
X152915363Y-99731997D01*
X152874723Y-99729457D01*
X152869643Y-99729457D01*
X152780743Y-99729457D01*
X152702003Y-99866617D01*
X152663903Y-99927577D01*
X152638503Y-99965677D01*
X152620723Y-99985997D01*
X152610563Y-99983457D01*
X152600403Y-99965677D01*
X152580083Y-99932657D01*
X152554683Y-99886937D01*
X152531823Y-99851377D01*
X152465783Y-99737077D01*
X152374343Y-99731997D01*
X152280363Y-99729457D01*
X152280363Y-99729457D01*
G37*
X152280363Y-99729457D02*
X152414983Y-99952977D01*
X152549603Y-100176497D01*
X152549603Y-100303497D01*
X152549603Y-100433037D01*
X152625803Y-100433037D01*
X152702003Y-100433037D01*
X152702003Y-100298417D01*
X152702003Y-100161257D01*
X152826463Y-99955517D01*
X152864563Y-99889477D01*
X152897583Y-99831057D01*
X152925523Y-99785337D01*
X152945843Y-99754857D01*
X152953463Y-99739617D01*
X152943303Y-99734537D01*
X152915363Y-99731997D01*
X152874723Y-99729457D01*
X152869643Y-99729457D01*
X152780743Y-99729457D01*
X152702003Y-99866617D01*
X152663903Y-99927577D01*
X152638503Y-99965677D01*
X152620723Y-99985997D01*
X152610563Y-99983457D01*
X152600403Y-99965677D01*
X152580083Y-99932657D01*
X152554683Y-99886937D01*
X152531823Y-99851377D01*
X152465783Y-99737077D01*
X152374343Y-99731997D01*
X152280363Y-99729457D01*
G36*
X152986483Y-100255237D02*
X153006803Y-100321277D01*
X153047443Y-100374617D01*
X153103323Y-100407637D01*
X153126183Y-100417797D01*
X153149043Y-100422877D01*
X153149043Y-100214597D01*
X153154123Y-100176497D01*
X153169363Y-100151097D01*
X153174443Y-100148557D01*
X153174443Y-99922497D01*
X153187143Y-99886937D01*
X153194763Y-99876777D01*
X153215083Y-99866617D01*
X153248103Y-99861537D01*
X153303983Y-99858997D01*
X153314143Y-99858997D01*
X153410663Y-99858997D01*
X153415743Y-99899637D01*
X153418283Y-99940277D01*
X153418283Y-99975837D01*
X153413203Y-99993617D01*
X153405583Y-100003777D01*
X153390343Y-100008857D01*
X153354783Y-100011397D01*
X153324303Y-100011397D01*
X153258263Y-100008857D01*
X153215083Y-99998697D01*
X153202383Y-99991077D01*
X153179523Y-99960597D01*
X153174443Y-99922497D01*
X153174443Y-100148557D01*
X153199843Y-100135857D01*
X153250643Y-100128237D01*
X153311603Y-100125697D01*
X153413203Y-100125697D01*
X153413203Y-100214597D01*
X153413203Y-100306037D01*
X153306523Y-100306037D01*
X153245563Y-100303497D01*
X153207463Y-100298417D01*
X153182063Y-100290797D01*
X153171903Y-100283177D01*
X153154123Y-100250157D01*
X153149043Y-100214597D01*
X153149043Y-100422877D01*
X153154123Y-100422877D01*
X153189683Y-100427957D01*
X153240483Y-100430497D01*
X153306523Y-100433037D01*
X153370023Y-100433037D01*
X153580843Y-100433037D01*
X153580843Y-100082517D01*
X153580843Y-99729457D01*
X153372563Y-99729457D01*
X153278583Y-99731997D01*
X153210003Y-99734537D01*
X153156663Y-99739617D01*
X153118563Y-99749777D01*
X153088083Y-99762477D01*
X153065223Y-99782797D01*
X153055063Y-99790417D01*
X153037283Y-99825977D01*
X153024583Y-99876777D01*
X153022043Y-99927577D01*
X153027123Y-99952977D01*
X153042363Y-99985997D01*
X153067763Y-100019017D01*
X153070303Y-100021557D01*
X153090623Y-100041877D01*
X153093163Y-100054577D01*
X153085543Y-100059657D01*
X153049983Y-100082517D01*
X153016963Y-100120617D01*
X152994103Y-100163797D01*
X152989023Y-100181577D01*
X152986483Y-100255237D01*
X152986483Y-100255237D01*
G37*
X152986483Y-100255237D02*
X153006803Y-100321277D01*
X153047443Y-100374617D01*
X153103323Y-100407637D01*
X153126183Y-100417797D01*
X153149043Y-100422877D01*
X153149043Y-100214597D01*
X153154123Y-100176497D01*
X153169363Y-100151097D01*
X153174443Y-100148557D01*
X153174443Y-99922497D01*
X153187143Y-99886937D01*
X153194763Y-99876777D01*
X153215083Y-99866617D01*
X153248103Y-99861537D01*
X153303983Y-99858997D01*
X153314143Y-99858997D01*
X153410663Y-99858997D01*
X153415743Y-99899637D01*
X153418283Y-99940277D01*
X153418283Y-99975837D01*
X153413203Y-99993617D01*
X153405583Y-100003777D01*
X153390343Y-100008857D01*
X153354783Y-100011397D01*
X153324303Y-100011397D01*
X153258263Y-100008857D01*
X153215083Y-99998697D01*
X153202383Y-99991077D01*
X153179523Y-99960597D01*
X153174443Y-99922497D01*
X153174443Y-100148557D01*
X153199843Y-100135857D01*
X153250643Y-100128237D01*
X153311603Y-100125697D01*
X153413203Y-100125697D01*
X153413203Y-100214597D01*
X153413203Y-100306037D01*
X153306523Y-100306037D01*
X153245563Y-100303497D01*
X153207463Y-100298417D01*
X153182063Y-100290797D01*
X153171903Y-100283177D01*
X153154123Y-100250157D01*
X153149043Y-100214597D01*
X153149043Y-100422877D01*
X153154123Y-100422877D01*
X153189683Y-100427957D01*
X153240483Y-100430497D01*
X153306523Y-100433037D01*
X153370023Y-100433037D01*
X153580843Y-100433037D01*
X153580843Y-100082517D01*
X153580843Y-99729457D01*
X153372563Y-99729457D01*
X153278583Y-99731997D01*
X153210003Y-99734537D01*
X153156663Y-99739617D01*
X153118563Y-99749777D01*
X153088083Y-99762477D01*
X153065223Y-99782797D01*
X153055063Y-99790417D01*
X153037283Y-99825977D01*
X153024583Y-99876777D01*
X153022043Y-99927577D01*
X153027123Y-99952977D01*
X153042363Y-99985997D01*
X153067763Y-100019017D01*
X153070303Y-100021557D01*
X153090623Y-100041877D01*
X153093163Y-100054577D01*
X153085543Y-100059657D01*
X153049983Y-100082517D01*
X153016963Y-100120617D01*
X152994103Y-100163797D01*
X152989023Y-100181577D01*
X152986483Y-100255237D01*
G36*
X150263603Y-100255237D02*
X150276303Y-100303497D01*
X150304243Y-100349217D01*
X150314403Y-100361917D01*
X150365203Y-100402557D01*
X150433783Y-100433037D01*
X150512523Y-100448277D01*
X150591263Y-100450817D01*
X150601423Y-100448277D01*
X150690323Y-100427957D01*
X150761443Y-100389857D01*
X150814783Y-100339057D01*
X150847803Y-100273017D01*
X150850343Y-100265397D01*
X150857963Y-100227297D01*
X150850343Y-100204437D01*
X150827483Y-100191737D01*
X150784303Y-100191737D01*
X150774143Y-100191737D01*
X150733503Y-100196817D01*
X150710643Y-100204437D01*
X150700483Y-100219677D01*
X150692863Y-100239997D01*
X150664923Y-100285717D01*
X150621743Y-100313657D01*
X150568403Y-100328897D01*
X150507443Y-100323817D01*
X150471883Y-100311117D01*
X150433783Y-100288257D01*
X150418543Y-100260317D01*
X150421083Y-100224757D01*
X150428703Y-100206977D01*
X150446483Y-100189197D01*
X150479503Y-100173957D01*
X150527763Y-100153637D01*
X150596343Y-100133317D01*
X150634443Y-100120617D01*
X150692863Y-100100297D01*
X150736043Y-100082517D01*
X150766523Y-100062197D01*
X150784303Y-100044417D01*
X150819863Y-99985997D01*
X150832563Y-99930117D01*
X150827483Y-99871697D01*
X150802083Y-99820897D01*
X150758903Y-99775177D01*
X150705563Y-99739617D01*
X150639523Y-99716757D01*
X150565863Y-99709137D01*
X150494743Y-99716757D01*
X150410923Y-99739617D01*
X150349963Y-99777717D01*
X150311863Y-99828517D01*
X150291543Y-99892017D01*
X150291543Y-99894557D01*
X150283923Y-99947897D01*
X150357583Y-99947897D01*
X150398223Y-99945357D01*
X150421083Y-99940277D01*
X150433783Y-99930117D01*
X150443943Y-99907257D01*
X150469343Y-99869157D01*
X150509983Y-99843757D01*
X150558243Y-99833597D01*
X150606503Y-99838677D01*
X150649683Y-99861537D01*
X150652223Y-99864077D01*
X150677623Y-99892017D01*
X150680163Y-99912337D01*
X150667463Y-99937737D01*
X150662383Y-99945357D01*
X150634443Y-99963137D01*
X150581103Y-99985997D01*
X150504903Y-100008857D01*
X150499823Y-100008857D01*
X150413463Y-100036797D01*
X150352503Y-100064737D01*
X150309323Y-100095217D01*
X150281383Y-100135857D01*
X150266143Y-100184117D01*
X150266143Y-100194277D01*
X150263603Y-100255237D01*
X150263603Y-100255237D01*
G37*
X150263603Y-100255237D02*
X150276303Y-100303497D01*
X150304243Y-100349217D01*
X150314403Y-100361917D01*
X150365203Y-100402557D01*
X150433783Y-100433037D01*
X150512523Y-100448277D01*
X150591263Y-100450817D01*
X150601423Y-100448277D01*
X150690323Y-100427957D01*
X150761443Y-100389857D01*
X150814783Y-100339057D01*
X150847803Y-100273017D01*
X150850343Y-100265397D01*
X150857963Y-100227297D01*
X150850343Y-100204437D01*
X150827483Y-100191737D01*
X150784303Y-100191737D01*
X150774143Y-100191737D01*
X150733503Y-100196817D01*
X150710643Y-100204437D01*
X150700483Y-100219677D01*
X150692863Y-100239997D01*
X150664923Y-100285717D01*
X150621743Y-100313657D01*
X150568403Y-100328897D01*
X150507443Y-100323817D01*
X150471883Y-100311117D01*
X150433783Y-100288257D01*
X150418543Y-100260317D01*
X150421083Y-100224757D01*
X150428703Y-100206977D01*
X150446483Y-100189197D01*
X150479503Y-100173957D01*
X150527763Y-100153637D01*
X150596343Y-100133317D01*
X150634443Y-100120617D01*
X150692863Y-100100297D01*
X150736043Y-100082517D01*
X150766523Y-100062197D01*
X150784303Y-100044417D01*
X150819863Y-99985997D01*
X150832563Y-99930117D01*
X150827483Y-99871697D01*
X150802083Y-99820897D01*
X150758903Y-99775177D01*
X150705563Y-99739617D01*
X150639523Y-99716757D01*
X150565863Y-99709137D01*
X150494743Y-99716757D01*
X150410923Y-99739617D01*
X150349963Y-99777717D01*
X150311863Y-99828517D01*
X150291543Y-99892017D01*
X150291543Y-99894557D01*
X150283923Y-99947897D01*
X150357583Y-99947897D01*
X150398223Y-99945357D01*
X150421083Y-99940277D01*
X150433783Y-99930117D01*
X150443943Y-99907257D01*
X150469343Y-99869157D01*
X150509983Y-99843757D01*
X150558243Y-99833597D01*
X150606503Y-99838677D01*
X150649683Y-99861537D01*
X150652223Y-99864077D01*
X150677623Y-99892017D01*
X150680163Y-99912337D01*
X150667463Y-99937737D01*
X150662383Y-99945357D01*
X150634443Y-99963137D01*
X150581103Y-99985997D01*
X150504903Y-100008857D01*
X150499823Y-100008857D01*
X150413463Y-100036797D01*
X150352503Y-100064737D01*
X150309323Y-100095217D01*
X150281383Y-100135857D01*
X150266143Y-100184117D01*
X150266143Y-100194277D01*
X150263603Y-100255237D01*
G36*
X148396703Y-100712437D02*
X148511003Y-100712437D01*
X148511003Y-99371317D01*
X148511003Y-97905737D01*
X148511003Y-96435077D01*
X148549103Y-96396977D01*
X148587203Y-96361417D01*
X153397963Y-96361417D01*
X158206183Y-96361417D01*
X158244283Y-96396977D01*
X158282383Y-96435077D01*
X158282383Y-97905737D01*
X158279843Y-99371317D01*
X158053783Y-99373857D01*
X157827723Y-99373857D01*
X157743903Y-99503397D01*
X157621983Y-99671037D01*
X157479743Y-99823437D01*
X157319723Y-99960597D01*
X157144463Y-100079977D01*
X156956503Y-100179037D01*
X156758383Y-100257777D01*
X156552643Y-100313657D01*
X156387543Y-100341597D01*
X156301183Y-100349217D01*
X156199583Y-100351757D01*
X156087823Y-100349217D01*
X155978603Y-100341597D01*
X155879543Y-100328897D01*
X155818583Y-100318737D01*
X155602683Y-100262857D01*
X155399483Y-100184117D01*
X155211523Y-100087597D01*
X155033723Y-99965677D01*
X154868623Y-99820897D01*
X154800043Y-99752317D01*
X154744163Y-99691357D01*
X154688283Y-99620237D01*
X154634943Y-99549117D01*
X154601923Y-99503397D01*
X154520643Y-99373857D01*
X151518363Y-99373857D01*
X148511003Y-99371317D01*
X148511003Y-100712437D01*
X148526243Y-100712437D01*
X148526243Y-100610837D01*
X148526243Y-100049497D01*
X148526243Y-99488157D01*
X151482803Y-99488157D01*
X154436823Y-99488157D01*
X154515563Y-99604997D01*
X154612083Y-99742157D01*
X154708603Y-99861537D01*
X154807663Y-99960597D01*
X154911803Y-100049497D01*
X155028643Y-100128237D01*
X155115003Y-100179037D01*
X155254703Y-100250157D01*
X155379163Y-100308577D01*
X155496003Y-100356837D01*
X155615383Y-100394937D01*
X155739843Y-100425417D01*
X155744923Y-100425417D01*
X155927803Y-100460977D01*
X156100523Y-100476217D01*
X156265623Y-100476217D01*
X156433263Y-100458437D01*
X156603443Y-100425417D01*
X156799023Y-100366997D01*
X156994603Y-100285717D01*
X157195263Y-100176497D01*
X157395923Y-100044417D01*
X157464503Y-99996157D01*
X157515303Y-99952977D01*
X157576263Y-99894557D01*
X157639763Y-99828517D01*
X157705803Y-99759937D01*
X157769303Y-99686277D01*
X157822643Y-99620237D01*
X157865823Y-99561817D01*
X157888683Y-99526257D01*
X157909003Y-99488157D01*
X158102043Y-99488157D01*
X158295083Y-99488157D01*
X158295083Y-100049497D01*
X158295083Y-100610837D01*
X153408123Y-100610837D01*
X148526243Y-100610837D01*
X148526243Y-100712437D01*
X153390343Y-100712437D01*
X158381443Y-100712437D01*
X158389063Y-100532097D01*
X158391603Y-100493997D01*
X158391603Y-100435577D01*
X158391603Y-100354297D01*
X158391603Y-100255237D01*
X158394143Y-100138397D01*
X158394143Y-100006317D01*
X158394143Y-99858997D01*
X158394143Y-99698977D01*
X158394143Y-99528797D01*
X158394143Y-99348457D01*
X158394143Y-99160497D01*
X158394143Y-98967457D01*
X158394143Y-98769337D01*
X158394143Y-98568677D01*
X158394143Y-98368017D01*
X158394143Y-98164817D01*
X158391603Y-97964157D01*
X158391603Y-97768577D01*
X158391603Y-97575537D01*
X158391603Y-97390117D01*
X158389063Y-97214857D01*
X158389063Y-97047217D01*
X158386523Y-96892277D01*
X158386523Y-96750037D01*
X158386523Y-96623037D01*
X158383983Y-96513817D01*
X158383983Y-96419837D01*
X158381443Y-96348717D01*
X158381443Y-96295377D01*
X158378903Y-96267437D01*
X158378903Y-96262357D01*
X158366203Y-96262357D01*
X158328103Y-96262357D01*
X158267143Y-96259817D01*
X158183323Y-96259817D01*
X158079183Y-96259817D01*
X157952183Y-96259817D01*
X157809943Y-96257277D01*
X157647383Y-96257277D01*
X157467043Y-96257277D01*
X157271463Y-96257277D01*
X157060643Y-96254737D01*
X156837123Y-96254737D01*
X156598363Y-96254737D01*
X156349443Y-96254737D01*
X156090363Y-96254737D01*
X155821123Y-96252197D01*
X155544263Y-96252197D01*
X155257243Y-96252197D01*
X154967683Y-96252197D01*
X154670503Y-96252197D01*
X154368243Y-96252197D01*
X154063443Y-96249657D01*
X153756103Y-96249657D01*
X153446223Y-96249657D01*
X153141423Y-96249657D01*
X152834083Y-96249657D01*
X152529283Y-96249657D01*
X152227023Y-96249657D01*
X151927303Y-96249657D01*
X151635203Y-96249657D01*
X151348183Y-96249657D01*
X151068783Y-96249657D01*
X150797003Y-96249657D01*
X150535383Y-96249657D01*
X150283923Y-96249657D01*
X150045163Y-96249657D01*
X149819103Y-96249657D01*
X149605743Y-96249657D01*
X149407623Y-96249657D01*
X149224743Y-96249657D01*
X149057103Y-96249657D01*
X148909783Y-96252197D01*
X148780243Y-96252197D01*
X148673563Y-96252197D01*
X148584663Y-96252197D01*
X148518623Y-96254737D01*
X148475443Y-96254737D01*
X148457663Y-96254737D01*
X148396703Y-96262357D01*
X148396703Y-98487397D01*
X148396703Y-100712437D01*
X148396703Y-100712437D01*
G37*
X148396703Y-100712437D02*
X148511003Y-100712437D01*
X148511003Y-99371317D01*
X148511003Y-97905737D01*
X148511003Y-96435077D01*
X148549103Y-96396977D01*
X148587203Y-96361417D01*
X153397963Y-96361417D01*
X158206183Y-96361417D01*
X158244283Y-96396977D01*
X158282383Y-96435077D01*
X158282383Y-97905737D01*
X158279843Y-99371317D01*
X158053783Y-99373857D01*
X157827723Y-99373857D01*
X157743903Y-99503397D01*
X157621983Y-99671037D01*
X157479743Y-99823437D01*
X157319723Y-99960597D01*
X157144463Y-100079977D01*
X156956503Y-100179037D01*
X156758383Y-100257777D01*
X156552643Y-100313657D01*
X156387543Y-100341597D01*
X156301183Y-100349217D01*
X156199583Y-100351757D01*
X156087823Y-100349217D01*
X155978603Y-100341597D01*
X155879543Y-100328897D01*
X155818583Y-100318737D01*
X155602683Y-100262857D01*
X155399483Y-100184117D01*
X155211523Y-100087597D01*
X155033723Y-99965677D01*
X154868623Y-99820897D01*
X154800043Y-99752317D01*
X154744163Y-99691357D01*
X154688283Y-99620237D01*
X154634943Y-99549117D01*
X154601923Y-99503397D01*
X154520643Y-99373857D01*
X151518363Y-99373857D01*
X148511003Y-99371317D01*
X148511003Y-100712437D01*
X148526243Y-100712437D01*
X148526243Y-100610837D01*
X148526243Y-100049497D01*
X148526243Y-99488157D01*
X151482803Y-99488157D01*
X154436823Y-99488157D01*
X154515563Y-99604997D01*
X154612083Y-99742157D01*
X154708603Y-99861537D01*
X154807663Y-99960597D01*
X154911803Y-100049497D01*
X155028643Y-100128237D01*
X155115003Y-100179037D01*
X155254703Y-100250157D01*
X155379163Y-100308577D01*
X155496003Y-100356837D01*
X155615383Y-100394937D01*
X155739843Y-100425417D01*
X155744923Y-100425417D01*
X155927803Y-100460977D01*
X156100523Y-100476217D01*
X156265623Y-100476217D01*
X156433263Y-100458437D01*
X156603443Y-100425417D01*
X156799023Y-100366997D01*
X156994603Y-100285717D01*
X157195263Y-100176497D01*
X157395923Y-100044417D01*
X157464503Y-99996157D01*
X157515303Y-99952977D01*
X157576263Y-99894557D01*
X157639763Y-99828517D01*
X157705803Y-99759937D01*
X157769303Y-99686277D01*
X157822643Y-99620237D01*
X157865823Y-99561817D01*
X157888683Y-99526257D01*
X157909003Y-99488157D01*
X158102043Y-99488157D01*
X158295083Y-99488157D01*
X158295083Y-100049497D01*
X158295083Y-100610837D01*
X153408123Y-100610837D01*
X148526243Y-100610837D01*
X148526243Y-100712437D01*
X153390343Y-100712437D01*
X158381443Y-100712437D01*
X158389063Y-100532097D01*
X158391603Y-100493997D01*
X158391603Y-100435577D01*
X158391603Y-100354297D01*
X158391603Y-100255237D01*
X158394143Y-100138397D01*
X158394143Y-100006317D01*
X158394143Y-99858997D01*
X158394143Y-99698977D01*
X158394143Y-99528797D01*
X158394143Y-99348457D01*
X158394143Y-99160497D01*
X158394143Y-98967457D01*
X158394143Y-98769337D01*
X158394143Y-98568677D01*
X158394143Y-98368017D01*
X158394143Y-98164817D01*
X158391603Y-97964157D01*
X158391603Y-97768577D01*
X158391603Y-97575537D01*
X158391603Y-97390117D01*
X158389063Y-97214857D01*
X158389063Y-97047217D01*
X158386523Y-96892277D01*
X158386523Y-96750037D01*
X158386523Y-96623037D01*
X158383983Y-96513817D01*
X158383983Y-96419837D01*
X158381443Y-96348717D01*
X158381443Y-96295377D01*
X158378903Y-96267437D01*
X158378903Y-96262357D01*
X158366203Y-96262357D01*
X158328103Y-96262357D01*
X158267143Y-96259817D01*
X158183323Y-96259817D01*
X158079183Y-96259817D01*
X157952183Y-96259817D01*
X157809943Y-96257277D01*
X157647383Y-96257277D01*
X157467043Y-96257277D01*
X157271463Y-96257277D01*
X157060643Y-96254737D01*
X156837123Y-96254737D01*
X156598363Y-96254737D01*
X156349443Y-96254737D01*
X156090363Y-96254737D01*
X155821123Y-96252197D01*
X155544263Y-96252197D01*
X155257243Y-96252197D01*
X154967683Y-96252197D01*
X154670503Y-96252197D01*
X154368243Y-96252197D01*
X154063443Y-96249657D01*
X153756103Y-96249657D01*
X153446223Y-96249657D01*
X153141423Y-96249657D01*
X152834083Y-96249657D01*
X152529283Y-96249657D01*
X152227023Y-96249657D01*
X151927303Y-96249657D01*
X151635203Y-96249657D01*
X151348183Y-96249657D01*
X151068783Y-96249657D01*
X150797003Y-96249657D01*
X150535383Y-96249657D01*
X150283923Y-96249657D01*
X150045163Y-96249657D01*
X149819103Y-96249657D01*
X149605743Y-96249657D01*
X149407623Y-96249657D01*
X149224743Y-96249657D01*
X149057103Y-96249657D01*
X148909783Y-96252197D01*
X148780243Y-96252197D01*
X148673563Y-96252197D01*
X148584663Y-96252197D01*
X148518623Y-96254737D01*
X148475443Y-96254737D01*
X148457663Y-96254737D01*
X148396703Y-96262357D01*
X148396703Y-98487397D01*
X148396703Y-100712437D01*
D13*
G04 #@! TO.C,REF01*
G36*
X167873502Y-94761036D02*
X167767768Y-94761615D01*
X167691248Y-94763182D01*
X167639008Y-94766232D01*
X167606117Y-94771256D01*
X167587643Y-94778749D01*
X167578653Y-94789204D01*
X167574217Y-94803113D01*
X167573786Y-94804914D01*
X167567047Y-94837405D01*
X167554572Y-94901512D01*
X167537661Y-94990411D01*
X167517609Y-95097279D01*
X167495716Y-95215293D01*
X167494951Y-95219438D01*
X167473021Y-95335091D01*
X167452503Y-95437274D01*
X167434721Y-95519858D01*
X167420999Y-95576716D01*
X167412662Y-95601718D01*
X167412264Y-95602161D01*
X167387703Y-95614370D01*
X167337065Y-95634716D01*
X167271285Y-95658805D01*
X167270919Y-95658934D01*
X167188063Y-95690078D01*
X167090380Y-95729751D01*
X166998303Y-95769641D01*
X166993946Y-95771613D01*
X166843973Y-95839680D01*
X166511882Y-95612899D01*
X166410006Y-95543764D01*
X166317723Y-95481957D01*
X166240377Y-95430993D01*
X166183316Y-95394387D01*
X166151885Y-95375654D01*
X166148901Y-95374264D01*
X166126059Y-95380450D01*
X166083398Y-95410295D01*
X166019252Y-95465207D01*
X165931959Y-95546594D01*
X165842845Y-95633182D01*
X165756939Y-95718507D01*
X165680053Y-95796368D01*
X165616816Y-95861957D01*
X165571857Y-95910465D01*
X165549804Y-95937085D01*
X165548984Y-95938455D01*
X165546546Y-95956723D01*
X165555730Y-95986555D01*
X165578806Y-96031981D01*
X165618043Y-96097030D01*
X165675710Y-96185730D01*
X165752585Y-96299917D01*
X165820810Y-96400422D01*
X165881798Y-96490563D01*
X165932024Y-96565109D01*
X165967964Y-96618825D01*
X165986093Y-96646478D01*
X165987234Y-96648355D01*
X165985021Y-96674850D01*
X165968242Y-96726346D01*
X165940238Y-96793111D01*
X165930258Y-96814432D01*
X165886708Y-96909419D01*
X165840246Y-97017197D01*
X165802503Y-97110452D01*
X165775307Y-97179666D01*
X165753705Y-97232266D01*
X165741222Y-97259757D01*
X165739671Y-97261876D01*
X165716712Y-97265384D01*
X165662594Y-97274998D01*
X165584512Y-97289349D01*
X165489661Y-97307067D01*
X165385237Y-97326785D01*
X165278436Y-97347134D01*
X165176454Y-97366746D01*
X165086486Y-97384251D01*
X165015727Y-97398282D01*
X164971374Y-97407469D01*
X164960495Y-97410067D01*
X164949258Y-97416478D01*
X164940775Y-97430957D01*
X164934666Y-97458393D01*
X164930548Y-97503671D01*
X164928039Y-97571680D01*
X164926759Y-97667307D01*
X164926326Y-97795440D01*
X164926303Y-97847961D01*
X164926303Y-98275105D01*
X165028880Y-98295351D01*
X165085949Y-98306330D01*
X165171111Y-98322355D01*
X165274008Y-98341493D01*
X165384284Y-98361811D01*
X165414765Y-98367392D01*
X165516525Y-98387177D01*
X165605175Y-98406633D01*
X165673272Y-98423957D01*
X165713376Y-98437348D01*
X165720057Y-98441339D01*
X165736461Y-98469602D01*
X165759981Y-98524369D01*
X165786064Y-98594848D01*
X165791238Y-98610029D01*
X165825424Y-98704156D01*
X165867857Y-98810361D01*
X165909383Y-98905733D01*
X165909588Y-98906176D01*
X165978740Y-99055785D01*
X165523868Y-99724877D01*
X165815880Y-100017376D01*
X165904200Y-100104430D01*
X165984755Y-100181169D01*
X166053020Y-100243497D01*
X166104472Y-100287316D01*
X166134586Y-100308530D01*
X166138906Y-100309876D01*
X166164269Y-100299276D01*
X166216022Y-100269807D01*
X166288512Y-100224965D01*
X166376086Y-100168244D01*
X166470768Y-100104722D01*
X166566864Y-100039928D01*
X166652543Y-99983547D01*
X166722364Y-99939048D01*
X166770886Y-99909899D01*
X166792598Y-99899568D01*
X166819087Y-99908310D01*
X166869318Y-99931347D01*
X166932929Y-99963891D01*
X166939672Y-99967509D01*
X167025334Y-100010470D01*
X167084074Y-100031539D01*
X167120608Y-100031763D01*
X167139649Y-100012188D01*
X167139760Y-100011914D01*
X167149278Y-99988732D01*
X167171977Y-99933701D01*
X167206098Y-99851082D01*
X167249880Y-99745132D01*
X167301564Y-99620112D01*
X167359388Y-99480280D01*
X167415389Y-99344897D01*
X167476933Y-99195494D01*
X167533441Y-99057092D01*
X167583219Y-98933933D01*
X167624574Y-98830262D01*
X167655812Y-98750319D01*
X167675239Y-98698348D01*
X167681226Y-98678952D01*
X167666212Y-98656703D01*
X167626941Y-98621242D01*
X167574573Y-98582147D01*
X167425439Y-98458505D01*
X167308869Y-98316782D01*
X167226262Y-98159964D01*
X167179014Y-97991035D01*
X167168523Y-97812982D01*
X167176149Y-97730799D01*
X167217698Y-97560291D01*
X167289257Y-97409719D01*
X167386385Y-97280569D01*
X167504646Y-97174324D01*
X167639600Y-97092470D01*
X167786809Y-97036492D01*
X167941836Y-97007875D01*
X168100241Y-97008104D01*
X168257586Y-97038665D01*
X168409434Y-97101042D01*
X168551345Y-97196720D01*
X168610577Y-97250832D01*
X168724177Y-97389780D01*
X168803274Y-97541621D01*
X168848394Y-97701927D01*
X168860064Y-97866272D01*
X168838811Y-98030231D01*
X168785160Y-98189378D01*
X168699640Y-98339285D01*
X168582775Y-98475527D01*
X168452187Y-98582147D01*
X168397792Y-98622902D01*
X168359366Y-98657978D01*
X168345534Y-98678986D01*
X168352777Y-98701895D01*
X168373375Y-98756625D01*
X168405634Y-98838932D01*
X168447859Y-98944575D01*
X168498357Y-99069310D01*
X168555432Y-99208896D01*
X168611526Y-99344930D01*
X168673413Y-99494461D01*
X168730736Y-99633027D01*
X168781736Y-99756367D01*
X168824653Y-99860224D01*
X168857727Y-99940340D01*
X168879199Y-99992455D01*
X168887155Y-100011914D01*
X168905951Y-100031683D01*
X168942306Y-100031625D01*
X169000901Y-100010701D01*
X169086412Y-99967873D01*
X169087088Y-99967509D01*
X169151473Y-99934272D01*
X169203519Y-99910062D01*
X169232868Y-99899664D01*
X169234163Y-99899568D01*
X169256256Y-99910115D01*
X169305032Y-99939444D01*
X169375049Y-99984087D01*
X169460866Y-100040574D01*
X169555992Y-100104722D01*
X169652840Y-100169671D01*
X169740127Y-100226156D01*
X169812199Y-100270681D01*
X169863403Y-100299750D01*
X169887854Y-100309876D01*
X169910370Y-100296567D01*
X169955638Y-100259372D01*
X170019136Y-100202388D01*
X170096341Y-100129709D01*
X170182729Y-100045431D01*
X170210981Y-100017276D01*
X170503093Y-99724676D01*
X170280749Y-99398364D01*
X170213178Y-99298157D01*
X170153873Y-99208223D01*
X170106163Y-99133770D01*
X170073373Y-99080011D01*
X170058832Y-99052154D01*
X170058406Y-99050172D01*
X170066072Y-99023915D01*
X170086691Y-98971097D01*
X170116695Y-98900570D01*
X170137755Y-98853353D01*
X170177132Y-98762954D01*
X170214215Y-98671626D01*
X170242965Y-98594460D01*
X170250775Y-98570952D01*
X170272963Y-98508176D01*
X170294653Y-98459671D01*
X170306567Y-98441339D01*
X170332857Y-98430119D01*
X170390238Y-98414214D01*
X170471262Y-98395427D01*
X170568485Y-98375559D01*
X170611995Y-98367392D01*
X170722484Y-98347089D01*
X170828464Y-98327430D01*
X170919579Y-98310348D01*
X170985472Y-98297778D01*
X170997880Y-98295351D01*
X171100457Y-98275105D01*
X171100457Y-97847961D01*
X171100227Y-97707506D01*
X171099281Y-97601239D01*
X171097239Y-97524273D01*
X171093718Y-97471720D01*
X171088337Y-97438693D01*
X171080714Y-97420305D01*
X171070468Y-97411668D01*
X171066265Y-97410067D01*
X171040910Y-97404387D01*
X170984896Y-97393055D01*
X170905416Y-97377439D01*
X170809668Y-97358907D01*
X170704847Y-97338829D01*
X170598148Y-97318572D01*
X170496767Y-97299506D01*
X170407901Y-97282999D01*
X170338743Y-97270419D01*
X170296491Y-97263135D01*
X170287090Y-97261876D01*
X170278573Y-97245023D01*
X170259720Y-97200130D01*
X170234056Y-97135690D01*
X170224257Y-97110452D01*
X170184732Y-97012946D01*
X170138188Y-96905219D01*
X170096503Y-96814432D01*
X170065830Y-96745013D01*
X170045424Y-96687970D01*
X170038612Y-96653037D01*
X170039698Y-96648355D01*
X170054095Y-96626251D01*
X170086968Y-96577091D01*
X170134790Y-96506108D01*
X170194032Y-96418538D01*
X170261165Y-96319617D01*
X170274439Y-96300090D01*
X170352334Y-96184400D01*
X170409593Y-96096304D01*
X170448499Y-96031746D01*
X170471336Y-95986671D01*
X170480386Y-95957023D01*
X170477932Y-95938745D01*
X170477869Y-95938629D01*
X170458553Y-95914621D01*
X170415829Y-95868207D01*
X170354329Y-95804197D01*
X170278682Y-95727405D01*
X170193519Y-95642642D01*
X170183915Y-95633182D01*
X170076590Y-95529249D01*
X169993765Y-95452935D01*
X169933775Y-95402831D01*
X169894957Y-95377530D01*
X169877860Y-95374264D01*
X169852907Y-95388510D01*
X169801125Y-95421416D01*
X169727860Y-95469468D01*
X169638460Y-95529150D01*
X169538269Y-95596948D01*
X169514879Y-95612899D01*
X169182787Y-95839680D01*
X169032815Y-95771613D01*
X168941610Y-95731945D01*
X168843711Y-95692051D01*
X168759549Y-95660243D01*
X168755842Y-95658934D01*
X168690011Y-95634836D01*
X168639264Y-95614460D01*
X168614538Y-95602196D01*
X168614496Y-95602161D01*
X168606651Y-95579994D01*
X168593314Y-95525477D01*
X168575810Y-95444740D01*
X168555463Y-95343910D01*
X168533598Y-95229116D01*
X168531809Y-95219438D01*
X168509876Y-95101164D01*
X168489740Y-94993802D01*
X168472700Y-94904177D01*
X168460052Y-94839111D01*
X168453096Y-94805428D01*
X168452974Y-94804914D01*
X168448741Y-94790585D01*
X168440509Y-94779767D01*
X168423347Y-94771966D01*
X168392322Y-94766689D01*
X168342502Y-94763442D01*
X168268956Y-94761732D01*
X168166751Y-94761067D01*
X168030955Y-94760953D01*
X168013380Y-94760952D01*
X167873502Y-94761036D01*
X167873502Y-94761036D01*
G37*
X167873502Y-94761036D02*
X167767768Y-94761615D01*
X167691248Y-94763182D01*
X167639008Y-94766232D01*
X167606117Y-94771256D01*
X167587643Y-94778749D01*
X167578653Y-94789204D01*
X167574217Y-94803113D01*
X167573786Y-94804914D01*
X167567047Y-94837405D01*
X167554572Y-94901512D01*
X167537661Y-94990411D01*
X167517609Y-95097279D01*
X167495716Y-95215293D01*
X167494951Y-95219438D01*
X167473021Y-95335091D01*
X167452503Y-95437274D01*
X167434721Y-95519858D01*
X167420999Y-95576716D01*
X167412662Y-95601718D01*
X167412264Y-95602161D01*
X167387703Y-95614370D01*
X167337065Y-95634716D01*
X167271285Y-95658805D01*
X167270919Y-95658934D01*
X167188063Y-95690078D01*
X167090380Y-95729751D01*
X166998303Y-95769641D01*
X166993946Y-95771613D01*
X166843973Y-95839680D01*
X166511882Y-95612899D01*
X166410006Y-95543764D01*
X166317723Y-95481957D01*
X166240377Y-95430993D01*
X166183316Y-95394387D01*
X166151885Y-95375654D01*
X166148901Y-95374264D01*
X166126059Y-95380450D01*
X166083398Y-95410295D01*
X166019252Y-95465207D01*
X165931959Y-95546594D01*
X165842845Y-95633182D01*
X165756939Y-95718507D01*
X165680053Y-95796368D01*
X165616816Y-95861957D01*
X165571857Y-95910465D01*
X165549804Y-95937085D01*
X165548984Y-95938455D01*
X165546546Y-95956723D01*
X165555730Y-95986555D01*
X165578806Y-96031981D01*
X165618043Y-96097030D01*
X165675710Y-96185730D01*
X165752585Y-96299917D01*
X165820810Y-96400422D01*
X165881798Y-96490563D01*
X165932024Y-96565109D01*
X165967964Y-96618825D01*
X165986093Y-96646478D01*
X165987234Y-96648355D01*
X165985021Y-96674850D01*
X165968242Y-96726346D01*
X165940238Y-96793111D01*
X165930258Y-96814432D01*
X165886708Y-96909419D01*
X165840246Y-97017197D01*
X165802503Y-97110452D01*
X165775307Y-97179666D01*
X165753705Y-97232266D01*
X165741222Y-97259757D01*
X165739671Y-97261876D01*
X165716712Y-97265384D01*
X165662594Y-97274998D01*
X165584512Y-97289349D01*
X165489661Y-97307067D01*
X165385237Y-97326785D01*
X165278436Y-97347134D01*
X165176454Y-97366746D01*
X165086486Y-97384251D01*
X165015727Y-97398282D01*
X164971374Y-97407469D01*
X164960495Y-97410067D01*
X164949258Y-97416478D01*
X164940775Y-97430957D01*
X164934666Y-97458393D01*
X164930548Y-97503671D01*
X164928039Y-97571680D01*
X164926759Y-97667307D01*
X164926326Y-97795440D01*
X164926303Y-97847961D01*
X164926303Y-98275105D01*
X165028880Y-98295351D01*
X165085949Y-98306330D01*
X165171111Y-98322355D01*
X165274008Y-98341493D01*
X165384284Y-98361811D01*
X165414765Y-98367392D01*
X165516525Y-98387177D01*
X165605175Y-98406633D01*
X165673272Y-98423957D01*
X165713376Y-98437348D01*
X165720057Y-98441339D01*
X165736461Y-98469602D01*
X165759981Y-98524369D01*
X165786064Y-98594848D01*
X165791238Y-98610029D01*
X165825424Y-98704156D01*
X165867857Y-98810361D01*
X165909383Y-98905733D01*
X165909588Y-98906176D01*
X165978740Y-99055785D01*
X165523868Y-99724877D01*
X165815880Y-100017376D01*
X165904200Y-100104430D01*
X165984755Y-100181169D01*
X166053020Y-100243497D01*
X166104472Y-100287316D01*
X166134586Y-100308530D01*
X166138906Y-100309876D01*
X166164269Y-100299276D01*
X166216022Y-100269807D01*
X166288512Y-100224965D01*
X166376086Y-100168244D01*
X166470768Y-100104722D01*
X166566864Y-100039928D01*
X166652543Y-99983547D01*
X166722364Y-99939048D01*
X166770886Y-99909899D01*
X166792598Y-99899568D01*
X166819087Y-99908310D01*
X166869318Y-99931347D01*
X166932929Y-99963891D01*
X166939672Y-99967509D01*
X167025334Y-100010470D01*
X167084074Y-100031539D01*
X167120608Y-100031763D01*
X167139649Y-100012188D01*
X167139760Y-100011914D01*
X167149278Y-99988732D01*
X167171977Y-99933701D01*
X167206098Y-99851082D01*
X167249880Y-99745132D01*
X167301564Y-99620112D01*
X167359388Y-99480280D01*
X167415389Y-99344897D01*
X167476933Y-99195494D01*
X167533441Y-99057092D01*
X167583219Y-98933933D01*
X167624574Y-98830262D01*
X167655812Y-98750319D01*
X167675239Y-98698348D01*
X167681226Y-98678952D01*
X167666212Y-98656703D01*
X167626941Y-98621242D01*
X167574573Y-98582147D01*
X167425439Y-98458505D01*
X167308869Y-98316782D01*
X167226262Y-98159964D01*
X167179014Y-97991035D01*
X167168523Y-97812982D01*
X167176149Y-97730799D01*
X167217698Y-97560291D01*
X167289257Y-97409719D01*
X167386385Y-97280569D01*
X167504646Y-97174324D01*
X167639600Y-97092470D01*
X167786809Y-97036492D01*
X167941836Y-97007875D01*
X168100241Y-97008104D01*
X168257586Y-97038665D01*
X168409434Y-97101042D01*
X168551345Y-97196720D01*
X168610577Y-97250832D01*
X168724177Y-97389780D01*
X168803274Y-97541621D01*
X168848394Y-97701927D01*
X168860064Y-97866272D01*
X168838811Y-98030231D01*
X168785160Y-98189378D01*
X168699640Y-98339285D01*
X168582775Y-98475527D01*
X168452187Y-98582147D01*
X168397792Y-98622902D01*
X168359366Y-98657978D01*
X168345534Y-98678986D01*
X168352777Y-98701895D01*
X168373375Y-98756625D01*
X168405634Y-98838932D01*
X168447859Y-98944575D01*
X168498357Y-99069310D01*
X168555432Y-99208896D01*
X168611526Y-99344930D01*
X168673413Y-99494461D01*
X168730736Y-99633027D01*
X168781736Y-99756367D01*
X168824653Y-99860224D01*
X168857727Y-99940340D01*
X168879199Y-99992455D01*
X168887155Y-100011914D01*
X168905951Y-100031683D01*
X168942306Y-100031625D01*
X169000901Y-100010701D01*
X169086412Y-99967873D01*
X169087088Y-99967509D01*
X169151473Y-99934272D01*
X169203519Y-99910062D01*
X169232868Y-99899664D01*
X169234163Y-99899568D01*
X169256256Y-99910115D01*
X169305032Y-99939444D01*
X169375049Y-99984087D01*
X169460866Y-100040574D01*
X169555992Y-100104722D01*
X169652840Y-100169671D01*
X169740127Y-100226156D01*
X169812199Y-100270681D01*
X169863403Y-100299750D01*
X169887854Y-100309876D01*
X169910370Y-100296567D01*
X169955638Y-100259372D01*
X170019136Y-100202388D01*
X170096341Y-100129709D01*
X170182729Y-100045431D01*
X170210981Y-100017276D01*
X170503093Y-99724676D01*
X170280749Y-99398364D01*
X170213178Y-99298157D01*
X170153873Y-99208223D01*
X170106163Y-99133770D01*
X170073373Y-99080011D01*
X170058832Y-99052154D01*
X170058406Y-99050172D01*
X170066072Y-99023915D01*
X170086691Y-98971097D01*
X170116695Y-98900570D01*
X170137755Y-98853353D01*
X170177132Y-98762954D01*
X170214215Y-98671626D01*
X170242965Y-98594460D01*
X170250775Y-98570952D01*
X170272963Y-98508176D01*
X170294653Y-98459671D01*
X170306567Y-98441339D01*
X170332857Y-98430119D01*
X170390238Y-98414214D01*
X170471262Y-98395427D01*
X170568485Y-98375559D01*
X170611995Y-98367392D01*
X170722484Y-98347089D01*
X170828464Y-98327430D01*
X170919579Y-98310348D01*
X170985472Y-98297778D01*
X170997880Y-98295351D01*
X171100457Y-98275105D01*
X171100457Y-97847961D01*
X171100227Y-97707506D01*
X171099281Y-97601239D01*
X171097239Y-97524273D01*
X171093718Y-97471720D01*
X171088337Y-97438693D01*
X171080714Y-97420305D01*
X171070468Y-97411668D01*
X171066265Y-97410067D01*
X171040910Y-97404387D01*
X170984896Y-97393055D01*
X170905416Y-97377439D01*
X170809668Y-97358907D01*
X170704847Y-97338829D01*
X170598148Y-97318572D01*
X170496767Y-97299506D01*
X170407901Y-97282999D01*
X170338743Y-97270419D01*
X170296491Y-97263135D01*
X170287090Y-97261876D01*
X170278573Y-97245023D01*
X170259720Y-97200130D01*
X170234056Y-97135690D01*
X170224257Y-97110452D01*
X170184732Y-97012946D01*
X170138188Y-96905219D01*
X170096503Y-96814432D01*
X170065830Y-96745013D01*
X170045424Y-96687970D01*
X170038612Y-96653037D01*
X170039698Y-96648355D01*
X170054095Y-96626251D01*
X170086968Y-96577091D01*
X170134790Y-96506108D01*
X170194032Y-96418538D01*
X170261165Y-96319617D01*
X170274439Y-96300090D01*
X170352334Y-96184400D01*
X170409593Y-96096304D01*
X170448499Y-96031746D01*
X170471336Y-95986671D01*
X170480386Y-95957023D01*
X170477932Y-95938745D01*
X170477869Y-95938629D01*
X170458553Y-95914621D01*
X170415829Y-95868207D01*
X170354329Y-95804197D01*
X170278682Y-95727405D01*
X170193519Y-95642642D01*
X170183915Y-95633182D01*
X170076590Y-95529249D01*
X169993765Y-95452935D01*
X169933775Y-95402831D01*
X169894957Y-95377530D01*
X169877860Y-95374264D01*
X169852907Y-95388510D01*
X169801125Y-95421416D01*
X169727860Y-95469468D01*
X169638460Y-95529150D01*
X169538269Y-95596948D01*
X169514879Y-95612899D01*
X169182787Y-95839680D01*
X169032815Y-95771613D01*
X168941610Y-95731945D01*
X168843711Y-95692051D01*
X168759549Y-95660243D01*
X168755842Y-95658934D01*
X168690011Y-95634836D01*
X168639264Y-95614460D01*
X168614538Y-95602196D01*
X168614496Y-95602161D01*
X168606651Y-95579994D01*
X168593314Y-95525477D01*
X168575810Y-95444740D01*
X168555463Y-95343910D01*
X168533598Y-95229116D01*
X168531809Y-95219438D01*
X168509876Y-95101164D01*
X168489740Y-94993802D01*
X168472700Y-94904177D01*
X168460052Y-94839111D01*
X168453096Y-94805428D01*
X168452974Y-94804914D01*
X168448741Y-94790585D01*
X168440509Y-94779767D01*
X168423347Y-94771966D01*
X168392322Y-94766689D01*
X168342502Y-94763442D01*
X168268956Y-94761732D01*
X168166751Y-94761067D01*
X168030955Y-94760953D01*
X168013380Y-94760952D01*
X167873502Y-94761036D01*
G36*
X163768156Y-101121098D02*
X163690852Y-101171621D01*
X163653566Y-101216850D01*
X163624027Y-101298923D01*
X163621681Y-101363867D01*
X163626995Y-101450705D01*
X163827265Y-101538363D01*
X163924641Y-101583147D01*
X163988267Y-101619173D01*
X164021351Y-101650377D01*
X164027100Y-101680696D01*
X164008722Y-101714065D01*
X163988457Y-101736183D01*
X163929491Y-101771653D01*
X163865356Y-101774139D01*
X163806454Y-101746495D01*
X163763183Y-101691580D01*
X163755444Y-101672188D01*
X163718374Y-101611624D01*
X163675726Y-101585812D01*
X163617226Y-101563731D01*
X163617226Y-101647444D01*
X163622398Y-101704410D01*
X163642657Y-101752449D01*
X163685118Y-101807606D01*
X163691429Y-101814774D01*
X163738660Y-101863845D01*
X163779259Y-101890180D01*
X163830052Y-101902295D01*
X163872160Y-101906263D01*
X163947478Y-101907251D01*
X164001094Y-101894726D01*
X164034542Y-101876129D01*
X164087112Y-101835235D01*
X164123501Y-101791008D01*
X164146530Y-101735386D01*
X164159021Y-101660307D01*
X164163793Y-101557709D01*
X164164174Y-101505636D01*
X164162879Y-101443208D01*
X164044909Y-101443208D01*
X164043541Y-101476698D01*
X164040131Y-101482183D01*
X164017627Y-101474732D01*
X163969198Y-101455013D01*
X163904472Y-101426978D01*
X163890937Y-101420952D01*
X163809136Y-101379356D01*
X163764068Y-101342798D01*
X163754163Y-101308556D01*
X163777854Y-101273908D01*
X163797420Y-101258599D01*
X163868020Y-101227981D01*
X163934100Y-101233040D01*
X163989421Y-101270411D01*
X164027744Y-101336733D01*
X164040031Y-101389376D01*
X164044909Y-101443208D01*
X164162879Y-101443208D01*
X164161650Y-101383980D01*
X164152348Y-101293970D01*
X164133920Y-101228427D01*
X164104020Y-101180172D01*
X164060300Y-101142027D01*
X164041239Y-101129700D01*
X163954654Y-101097596D01*
X163859858Y-101095576D01*
X163768156Y-101121098D01*
X163768156Y-101121098D01*
G37*
X163768156Y-101121098D02*
X163690852Y-101171621D01*
X163653566Y-101216850D01*
X163624027Y-101298923D01*
X163621681Y-101363867D01*
X163626995Y-101450705D01*
X163827265Y-101538363D01*
X163924641Y-101583147D01*
X163988267Y-101619173D01*
X164021351Y-101650377D01*
X164027100Y-101680696D01*
X164008722Y-101714065D01*
X163988457Y-101736183D01*
X163929491Y-101771653D01*
X163865356Y-101774139D01*
X163806454Y-101746495D01*
X163763183Y-101691580D01*
X163755444Y-101672188D01*
X163718374Y-101611624D01*
X163675726Y-101585812D01*
X163617226Y-101563731D01*
X163617226Y-101647444D01*
X163622398Y-101704410D01*
X163642657Y-101752449D01*
X163685118Y-101807606D01*
X163691429Y-101814774D01*
X163738660Y-101863845D01*
X163779259Y-101890180D01*
X163830052Y-101902295D01*
X163872160Y-101906263D01*
X163947478Y-101907251D01*
X164001094Y-101894726D01*
X164034542Y-101876129D01*
X164087112Y-101835235D01*
X164123501Y-101791008D01*
X164146530Y-101735386D01*
X164159021Y-101660307D01*
X164163793Y-101557709D01*
X164164174Y-101505636D01*
X164162879Y-101443208D01*
X164044909Y-101443208D01*
X164043541Y-101476698D01*
X164040131Y-101482183D01*
X164017627Y-101474732D01*
X163969198Y-101455013D01*
X163904472Y-101426978D01*
X163890937Y-101420952D01*
X163809136Y-101379356D01*
X163764068Y-101342798D01*
X163754163Y-101308556D01*
X163777854Y-101273908D01*
X163797420Y-101258599D01*
X163868020Y-101227981D01*
X163934100Y-101233040D01*
X163989421Y-101270411D01*
X164027744Y-101336733D01*
X164040031Y-101389376D01*
X164044909Y-101443208D01*
X164162879Y-101443208D01*
X164161650Y-101383980D01*
X164152348Y-101293970D01*
X164133920Y-101228427D01*
X164104020Y-101180172D01*
X164060300Y-101142027D01*
X164041239Y-101129700D01*
X163954654Y-101097596D01*
X163859858Y-101095576D01*
X163768156Y-101121098D01*
G36*
X164442573Y-101110042D02*
X164419219Y-101120248D01*
X164363478Y-101164394D01*
X164315811Y-101228227D01*
X164286332Y-101296347D01*
X164281534Y-101329930D01*
X164297620Y-101376816D01*
X164332905Y-101401625D01*
X164370736Y-101416647D01*
X164388059Y-101419415D01*
X164396494Y-101399326D01*
X164413150Y-101355611D01*
X164420457Y-101335858D01*
X164461432Y-101267531D01*
X164520758Y-101233451D01*
X164596828Y-101234499D01*
X164602462Y-101235841D01*
X164643075Y-101255096D01*
X164672932Y-101292635D01*
X164693325Y-101353069D01*
X164705544Y-101441011D01*
X164710880Y-101561073D01*
X164711380Y-101624958D01*
X164711628Y-101725663D01*
X164713254Y-101794314D01*
X164717579Y-101837933D01*
X164725926Y-101863542D01*
X164739615Y-101878163D01*
X164759969Y-101888818D01*
X164761146Y-101889355D01*
X164800342Y-101905927D01*
X164819761Y-101912029D01*
X164822745Y-101893579D01*
X164825299Y-101842583D01*
X164827240Y-101765568D01*
X164828383Y-101669065D01*
X164828611Y-101598444D01*
X164827448Y-101461785D01*
X164822901Y-101358111D01*
X164813381Y-101281368D01*
X164797299Y-101225506D01*
X164773067Y-101184472D01*
X164739094Y-101152214D01*
X164705547Y-101129700D01*
X164624881Y-101099736D01*
X164530999Y-101092978D01*
X164442573Y-101110042D01*
X164442573Y-101110042D01*
G37*
X164442573Y-101110042D02*
X164419219Y-101120248D01*
X164363478Y-101164394D01*
X164315811Y-101228227D01*
X164286332Y-101296347D01*
X164281534Y-101329930D01*
X164297620Y-101376816D01*
X164332905Y-101401625D01*
X164370736Y-101416647D01*
X164388059Y-101419415D01*
X164396494Y-101399326D01*
X164413150Y-101355611D01*
X164420457Y-101335858D01*
X164461432Y-101267531D01*
X164520758Y-101233451D01*
X164596828Y-101234499D01*
X164602462Y-101235841D01*
X164643075Y-101255096D01*
X164672932Y-101292635D01*
X164693325Y-101353069D01*
X164705544Y-101441011D01*
X164710880Y-101561073D01*
X164711380Y-101624958D01*
X164711628Y-101725663D01*
X164713254Y-101794314D01*
X164717579Y-101837933D01*
X164725926Y-101863542D01*
X164739615Y-101878163D01*
X164759969Y-101888818D01*
X164761146Y-101889355D01*
X164800342Y-101905927D01*
X164819761Y-101912029D01*
X164822745Y-101893579D01*
X164825299Y-101842583D01*
X164827240Y-101765568D01*
X164828383Y-101669065D01*
X164828611Y-101598444D01*
X164827448Y-101461785D01*
X164822901Y-101358111D01*
X164813381Y-101281368D01*
X164797299Y-101225506D01*
X164773067Y-101184472D01*
X164739094Y-101152214D01*
X164705547Y-101129700D01*
X164624881Y-101099736D01*
X164530999Y-101092978D01*
X164442573Y-101110042D01*
G36*
X165126047Y-101106788D02*
X165069790Y-101132377D01*
X165025633Y-101163384D01*
X164993279Y-101198055D01*
X164970942Y-101242780D01*
X164956834Y-101303952D01*
X164949169Y-101387961D01*
X164946160Y-101501200D01*
X164945842Y-101575769D01*
X164945842Y-101866680D01*
X164995607Y-101889355D01*
X165034804Y-101905927D01*
X165054223Y-101912029D01*
X165057938Y-101893870D01*
X165060885Y-101844908D01*
X165062689Y-101773413D01*
X165063072Y-101716645D01*
X165064719Y-101634631D01*
X165069158Y-101569569D01*
X165075640Y-101529727D01*
X165080790Y-101521260D01*
X165115403Y-101529906D01*
X165169740Y-101552083D01*
X165232658Y-101582146D01*
X165293012Y-101614452D01*
X165339659Y-101643358D01*
X165361454Y-101663221D01*
X165361541Y-101663435D01*
X165359666Y-101700195D01*
X165342855Y-101735286D01*
X165313341Y-101763788D01*
X165270264Y-101773321D01*
X165233448Y-101772210D01*
X165181306Y-101771393D01*
X165153936Y-101783609D01*
X165137498Y-101815884D01*
X165135425Y-101821970D01*
X165128299Y-101867999D01*
X165147356Y-101895947D01*
X165197027Y-101909267D01*
X165250683Y-101911730D01*
X165347238Y-101893470D01*
X165397221Y-101867391D01*
X165458951Y-101806128D01*
X165491690Y-101730930D01*
X165494627Y-101651471D01*
X165466956Y-101577427D01*
X165425333Y-101531029D01*
X165383776Y-101505053D01*
X165318458Y-101472167D01*
X165242342Y-101438817D01*
X165229654Y-101433721D01*
X165146047Y-101396825D01*
X165097850Y-101364306D01*
X165082350Y-101331978D01*
X165096830Y-101295654D01*
X165121688Y-101267260D01*
X165180441Y-101232299D01*
X165245087Y-101229677D01*
X165304372Y-101256618D01*
X165347041Y-101310348D01*
X165352641Y-101324210D01*
X165385247Y-101375196D01*
X165432850Y-101413047D01*
X165492919Y-101444110D01*
X165492919Y-101356028D01*
X165489383Y-101302211D01*
X165474224Y-101259794D01*
X165440612Y-101214539D01*
X165408345Y-101179680D01*
X165358171Y-101130322D01*
X165319187Y-101103807D01*
X165277316Y-101093171D01*
X165229920Y-101091414D01*
X165126047Y-101106788D01*
X165126047Y-101106788D01*
G37*
X165126047Y-101106788D02*
X165069790Y-101132377D01*
X165025633Y-101163384D01*
X164993279Y-101198055D01*
X164970942Y-101242780D01*
X164956834Y-101303952D01*
X164949169Y-101387961D01*
X164946160Y-101501200D01*
X164945842Y-101575769D01*
X164945842Y-101866680D01*
X164995607Y-101889355D01*
X165034804Y-101905927D01*
X165054223Y-101912029D01*
X165057938Y-101893870D01*
X165060885Y-101844908D01*
X165062689Y-101773413D01*
X165063072Y-101716645D01*
X165064719Y-101634631D01*
X165069158Y-101569569D01*
X165075640Y-101529727D01*
X165080790Y-101521260D01*
X165115403Y-101529906D01*
X165169740Y-101552083D01*
X165232658Y-101582146D01*
X165293012Y-101614452D01*
X165339659Y-101643358D01*
X165361454Y-101663221D01*
X165361541Y-101663435D01*
X165359666Y-101700195D01*
X165342855Y-101735286D01*
X165313341Y-101763788D01*
X165270264Y-101773321D01*
X165233448Y-101772210D01*
X165181306Y-101771393D01*
X165153936Y-101783609D01*
X165137498Y-101815884D01*
X165135425Y-101821970D01*
X165128299Y-101867999D01*
X165147356Y-101895947D01*
X165197027Y-101909267D01*
X165250683Y-101911730D01*
X165347238Y-101893470D01*
X165397221Y-101867391D01*
X165458951Y-101806128D01*
X165491690Y-101730930D01*
X165494627Y-101651471D01*
X165466956Y-101577427D01*
X165425333Y-101531029D01*
X165383776Y-101505053D01*
X165318458Y-101472167D01*
X165242342Y-101438817D01*
X165229654Y-101433721D01*
X165146047Y-101396825D01*
X165097850Y-101364306D01*
X165082350Y-101331978D01*
X165096830Y-101295654D01*
X165121688Y-101267260D01*
X165180441Y-101232299D01*
X165245087Y-101229677D01*
X165304372Y-101256618D01*
X165347041Y-101310348D01*
X165352641Y-101324210D01*
X165385247Y-101375196D01*
X165432850Y-101413047D01*
X165492919Y-101444110D01*
X165492919Y-101356028D01*
X165489383Y-101302211D01*
X165474224Y-101259794D01*
X165440612Y-101214539D01*
X165408345Y-101179680D01*
X165358171Y-101130322D01*
X165319187Y-101103807D01*
X165277316Y-101093171D01*
X165229920Y-101091414D01*
X165126047Y-101106788D01*
G36*
X165617451Y-101109922D02*
X165614469Y-101161328D01*
X165612133Y-101239452D01*
X165610631Y-101338117D01*
X165610149Y-101441603D01*
X165610149Y-101791793D01*
X165671979Y-101853623D01*
X165714587Y-101891722D01*
X165751990Y-101907155D01*
X165803110Y-101906178D01*
X165823402Y-101903693D01*
X165886826Y-101896460D01*
X165939285Y-101892315D01*
X165952072Y-101891932D01*
X165995181Y-101894436D01*
X166056836Y-101900722D01*
X166080742Y-101903693D01*
X166139458Y-101908288D01*
X166178916Y-101898306D01*
X166218042Y-101867488D01*
X166232165Y-101853623D01*
X166293995Y-101791793D01*
X166293995Y-101136763D01*
X166244230Y-101114089D01*
X166201378Y-101097294D01*
X166176307Y-101091414D01*
X166169879Y-101109996D01*
X166163871Y-101161915D01*
X166158683Y-101241432D01*
X166154716Y-101342806D01*
X166152803Y-101428452D01*
X166147457Y-101765491D01*
X166100820Y-101772085D01*
X166058404Y-101767474D01*
X166037620Y-101752547D01*
X166031810Y-101724637D01*
X166026850Y-101665185D01*
X166023134Y-101581726D01*
X166021056Y-101481792D01*
X166020756Y-101430364D01*
X166020457Y-101134314D01*
X165958926Y-101112864D01*
X165915376Y-101098280D01*
X165891686Y-101091479D01*
X165891003Y-101091414D01*
X165888626Y-101109902D01*
X165886014Y-101161166D01*
X165883385Y-101238909D01*
X165880959Y-101336834D01*
X165879265Y-101428452D01*
X165873919Y-101765491D01*
X165756688Y-101765491D01*
X165751308Y-101458006D01*
X165745929Y-101150521D01*
X165688779Y-101120967D01*
X165646583Y-101100673D01*
X165621610Y-101091464D01*
X165620889Y-101091414D01*
X165617451Y-101109922D01*
X165617451Y-101109922D01*
G37*
X165617451Y-101109922D02*
X165614469Y-101161328D01*
X165612133Y-101239452D01*
X165610631Y-101338117D01*
X165610149Y-101441603D01*
X165610149Y-101791793D01*
X165671979Y-101853623D01*
X165714587Y-101891722D01*
X165751990Y-101907155D01*
X165803110Y-101906178D01*
X165823402Y-101903693D01*
X165886826Y-101896460D01*
X165939285Y-101892315D01*
X165952072Y-101891932D01*
X165995181Y-101894436D01*
X166056836Y-101900722D01*
X166080742Y-101903693D01*
X166139458Y-101908288D01*
X166178916Y-101898306D01*
X166218042Y-101867488D01*
X166232165Y-101853623D01*
X166293995Y-101791793D01*
X166293995Y-101136763D01*
X166244230Y-101114089D01*
X166201378Y-101097294D01*
X166176307Y-101091414D01*
X166169879Y-101109996D01*
X166163871Y-101161915D01*
X166158683Y-101241432D01*
X166154716Y-101342806D01*
X166152803Y-101428452D01*
X166147457Y-101765491D01*
X166100820Y-101772085D01*
X166058404Y-101767474D01*
X166037620Y-101752547D01*
X166031810Y-101724637D01*
X166026850Y-101665185D01*
X166023134Y-101581726D01*
X166021056Y-101481792D01*
X166020756Y-101430364D01*
X166020457Y-101134314D01*
X165958926Y-101112864D01*
X165915376Y-101098280D01*
X165891686Y-101091479D01*
X165891003Y-101091414D01*
X165888626Y-101109902D01*
X165886014Y-101161166D01*
X165883385Y-101238909D01*
X165880959Y-101336834D01*
X165879265Y-101428452D01*
X165873919Y-101765491D01*
X165756688Y-101765491D01*
X165751308Y-101458006D01*
X165745929Y-101150521D01*
X165688779Y-101120967D01*
X165646583Y-101100673D01*
X165621610Y-101091464D01*
X165620889Y-101091414D01*
X165617451Y-101109922D01*
G36*
X166411299Y-101253549D02*
X166411547Y-101399580D01*
X166412508Y-101511915D01*
X166414586Y-101595938D01*
X166418187Y-101657029D01*
X166423715Y-101700569D01*
X166431576Y-101731939D01*
X166442173Y-101756522D01*
X166450198Y-101770554D01*
X166516652Y-101846648D01*
X166600910Y-101894344D01*
X166694131Y-101911459D01*
X166787480Y-101895806D01*
X166843068Y-101867678D01*
X166901423Y-101819020D01*
X166941194Y-101759593D01*
X166965190Y-101681767D01*
X166976219Y-101577912D01*
X166977781Y-101501722D01*
X166977571Y-101496246D01*
X166841072Y-101496246D01*
X166840239Y-101583615D01*
X166836419Y-101641452D01*
X166827634Y-101679289D01*
X166811906Y-101706658D01*
X166793114Y-101727302D01*
X166730005Y-101767150D01*
X166662243Y-101770555D01*
X166598201Y-101737285D01*
X166593216Y-101732777D01*
X166571941Y-101709327D01*
X166558601Y-101681426D01*
X166551379Y-101639901D01*
X166548457Y-101575576D01*
X166547995Y-101504460D01*
X166548997Y-101415118D01*
X166553142Y-101355518D01*
X166562144Y-101316349D01*
X166577713Y-101288300D01*
X166590478Y-101273404D01*
X166649780Y-101235835D01*
X166718079Y-101231317D01*
X166783270Y-101260013D01*
X166795852Y-101270666D01*
X166817269Y-101294323D01*
X166830636Y-101322511D01*
X166837814Y-101364505D01*
X166840661Y-101429579D01*
X166841072Y-101496246D01*
X166977571Y-101496246D01*
X166973058Y-101379025D01*
X166957018Y-101286837D01*
X166926852Y-101217529D01*
X166879751Y-101163471D01*
X166843068Y-101135765D01*
X166776390Y-101105832D01*
X166699108Y-101091938D01*
X166627270Y-101095657D01*
X166587072Y-101110660D01*
X166571298Y-101114930D01*
X166560830Y-101099010D01*
X166553524Y-101056349D01*
X166547995Y-100991366D01*
X166541943Y-100918992D01*
X166533536Y-100875447D01*
X166518239Y-100850547D01*
X166491516Y-100834105D01*
X166474726Y-100826824D01*
X166411226Y-100800223D01*
X166411299Y-101253549D01*
X166411299Y-101253549D01*
G37*
X166411299Y-101253549D02*
X166411547Y-101399580D01*
X166412508Y-101511915D01*
X166414586Y-101595938D01*
X166418187Y-101657029D01*
X166423715Y-101700569D01*
X166431576Y-101731939D01*
X166442173Y-101756522D01*
X166450198Y-101770554D01*
X166516652Y-101846648D01*
X166600910Y-101894344D01*
X166694131Y-101911459D01*
X166787480Y-101895806D01*
X166843068Y-101867678D01*
X166901423Y-101819020D01*
X166941194Y-101759593D01*
X166965190Y-101681767D01*
X166976219Y-101577912D01*
X166977781Y-101501722D01*
X166977571Y-101496246D01*
X166841072Y-101496246D01*
X166840239Y-101583615D01*
X166836419Y-101641452D01*
X166827634Y-101679289D01*
X166811906Y-101706658D01*
X166793114Y-101727302D01*
X166730005Y-101767150D01*
X166662243Y-101770555D01*
X166598201Y-101737285D01*
X166593216Y-101732777D01*
X166571941Y-101709327D01*
X166558601Y-101681426D01*
X166551379Y-101639901D01*
X166548457Y-101575576D01*
X166547995Y-101504460D01*
X166548997Y-101415118D01*
X166553142Y-101355518D01*
X166562144Y-101316349D01*
X166577713Y-101288300D01*
X166590478Y-101273404D01*
X166649780Y-101235835D01*
X166718079Y-101231317D01*
X166783270Y-101260013D01*
X166795852Y-101270666D01*
X166817269Y-101294323D01*
X166830636Y-101322511D01*
X166837814Y-101364505D01*
X166840661Y-101429579D01*
X166841072Y-101496246D01*
X166977571Y-101496246D01*
X166973058Y-101379025D01*
X166957018Y-101286837D01*
X166926852Y-101217529D01*
X166879751Y-101163471D01*
X166843068Y-101135765D01*
X166776390Y-101105832D01*
X166699108Y-101091938D01*
X166627270Y-101095657D01*
X166587072Y-101110660D01*
X166571298Y-101114930D01*
X166560830Y-101099010D01*
X166553524Y-101056349D01*
X166547995Y-100991366D01*
X166541943Y-100918992D01*
X166533536Y-100875447D01*
X166518239Y-100850547D01*
X166491516Y-100834105D01*
X166474726Y-100826824D01*
X166411226Y-100800223D01*
X166411299Y-101253549D01*
G36*
X167300018Y-101097930D02*
X167211263Y-101130681D01*
X167139358Y-101188610D01*
X167111236Y-101229388D01*
X167080578Y-101304214D01*
X167081215Y-101358318D01*
X167113393Y-101394706D01*
X167125299Y-101400893D01*
X167176705Y-101420185D01*
X167202958Y-101415242D01*
X167211850Y-101382847D01*
X167212303Y-101364952D01*
X167228583Y-101299119D01*
X167271015Y-101253067D01*
X167329992Y-101230824D01*
X167395905Y-101236421D01*
X167449485Y-101265489D01*
X167467582Y-101282070D01*
X167480409Y-101302185D01*
X167489074Y-101332592D01*
X167494684Y-101380048D01*
X167498345Y-101451310D01*
X167501165Y-101553135D01*
X167501896Y-101585375D01*
X167504560Y-101695670D01*
X167507588Y-101773296D01*
X167512130Y-101824656D01*
X167519334Y-101856150D01*
X167530347Y-101874180D01*
X167546320Y-101885148D01*
X167556546Y-101889993D01*
X167599974Y-101906561D01*
X167625538Y-101912029D01*
X167633985Y-101893767D01*
X167639141Y-101838556D01*
X167641034Y-101745759D01*
X167639691Y-101614738D01*
X167639273Y-101594529D01*
X167636322Y-101474993D01*
X167632832Y-101387709D01*
X167627866Y-101325851D01*
X167620487Y-101282596D01*
X167609756Y-101251120D01*
X167594735Y-101224599D01*
X167586878Y-101213235D01*
X167541827Y-101162952D01*
X167491440Y-101123841D01*
X167485272Y-101120427D01*
X167394922Y-101093472D01*
X167300018Y-101097930D01*
X167300018Y-101097930D01*
G37*
X167300018Y-101097930D02*
X167211263Y-101130681D01*
X167139358Y-101188610D01*
X167111236Y-101229388D01*
X167080578Y-101304214D01*
X167081215Y-101358318D01*
X167113393Y-101394706D01*
X167125299Y-101400893D01*
X167176705Y-101420185D01*
X167202958Y-101415242D01*
X167211850Y-101382847D01*
X167212303Y-101364952D01*
X167228583Y-101299119D01*
X167271015Y-101253067D01*
X167329992Y-101230824D01*
X167395905Y-101236421D01*
X167449485Y-101265489D01*
X167467582Y-101282070D01*
X167480409Y-101302185D01*
X167489074Y-101332592D01*
X167494684Y-101380048D01*
X167498345Y-101451310D01*
X167501165Y-101553135D01*
X167501896Y-101585375D01*
X167504560Y-101695670D01*
X167507588Y-101773296D01*
X167512130Y-101824656D01*
X167519334Y-101856150D01*
X167530347Y-101874180D01*
X167546320Y-101885148D01*
X167556546Y-101889993D01*
X167599974Y-101906561D01*
X167625538Y-101912029D01*
X167633985Y-101893767D01*
X167639141Y-101838556D01*
X167641034Y-101745759D01*
X167639691Y-101614738D01*
X167639273Y-101594529D01*
X167636322Y-101474993D01*
X167632832Y-101387709D01*
X167627866Y-101325851D01*
X167620487Y-101282596D01*
X167609756Y-101251120D01*
X167594735Y-101224599D01*
X167586878Y-101213235D01*
X167541827Y-101162952D01*
X167491440Y-101123841D01*
X167485272Y-101120427D01*
X167394922Y-101093472D01*
X167300018Y-101097930D01*
G36*
X167959879Y-101099563D02*
X167883320Y-101127993D01*
X167882444Y-101128539D01*
X167835095Y-101163387D01*
X167800139Y-101204112D01*
X167775555Y-101257185D01*
X167759318Y-101329074D01*
X167749405Y-101426252D01*
X167743794Y-101555188D01*
X167743303Y-101573558D01*
X167736239Y-101850547D01*
X167795685Y-101881288D01*
X167838699Y-101902062D01*
X167864670Y-101911906D01*
X167865871Y-101912029D01*
X167870366Y-101893866D01*
X167873936Y-101844872D01*
X167876132Y-101773291D01*
X167876611Y-101715328D01*
X167876622Y-101621430D01*
X167880914Y-101562463D01*
X167895877Y-101534339D01*
X167927898Y-101532966D01*
X167983366Y-101554258D01*
X168067111Y-101593396D01*
X168128691Y-101625903D01*
X168160363Y-101654105D01*
X168169674Y-101684842D01*
X168169688Y-101686364D01*
X168154323Y-101739314D01*
X168108833Y-101767920D01*
X168039214Y-101772063D01*
X167989067Y-101771344D01*
X167962626Y-101785787D01*
X167946137Y-101820478D01*
X167936647Y-101864676D01*
X167950323Y-101889753D01*
X167955473Y-101893342D01*
X168003955Y-101907756D01*
X168071849Y-101909797D01*
X168141768Y-101900243D01*
X168191312Y-101882782D01*
X168259810Y-101824624D01*
X168298746Y-101743668D01*
X168306457Y-101680420D01*
X168300573Y-101623371D01*
X168279279Y-101576802D01*
X168237115Y-101535441D01*
X168168621Y-101494015D01*
X168068336Y-101447253D01*
X168062226Y-101444610D01*
X167971890Y-101402877D01*
X167916145Y-101368651D01*
X167892251Y-101337895D01*
X167897467Y-101306571D01*
X167929052Y-101270643D01*
X167938497Y-101262376D01*
X168001763Y-101230318D01*
X168067316Y-101231667D01*
X168124408Y-101263098D01*
X168162287Y-101321284D01*
X168165806Y-101332706D01*
X168200080Y-101388097D01*
X168243571Y-101414778D01*
X168306457Y-101441220D01*
X168306457Y-101372808D01*
X168287328Y-101273370D01*
X168230549Y-101182162D01*
X168201002Y-101151649D01*
X168133838Y-101112488D01*
X168048424Y-101094760D01*
X167959879Y-101099563D01*
X167959879Y-101099563D01*
G37*
X167959879Y-101099563D02*
X167883320Y-101127993D01*
X167882444Y-101128539D01*
X167835095Y-101163387D01*
X167800139Y-101204112D01*
X167775555Y-101257185D01*
X167759318Y-101329074D01*
X167749405Y-101426252D01*
X167743794Y-101555188D01*
X167743303Y-101573558D01*
X167736239Y-101850547D01*
X167795685Y-101881288D01*
X167838699Y-101902062D01*
X167864670Y-101911906D01*
X167865871Y-101912029D01*
X167870366Y-101893866D01*
X167873936Y-101844872D01*
X167876132Y-101773291D01*
X167876611Y-101715328D01*
X167876622Y-101621430D01*
X167880914Y-101562463D01*
X167895877Y-101534339D01*
X167927898Y-101532966D01*
X167983366Y-101554258D01*
X168067111Y-101593396D01*
X168128691Y-101625903D01*
X168160363Y-101654105D01*
X168169674Y-101684842D01*
X168169688Y-101686364D01*
X168154323Y-101739314D01*
X168108833Y-101767920D01*
X168039214Y-101772063D01*
X167989067Y-101771344D01*
X167962626Y-101785787D01*
X167946137Y-101820478D01*
X167936647Y-101864676D01*
X167950323Y-101889753D01*
X167955473Y-101893342D01*
X168003955Y-101907756D01*
X168071849Y-101909797D01*
X168141768Y-101900243D01*
X168191312Y-101882782D01*
X168259810Y-101824624D01*
X168298746Y-101743668D01*
X168306457Y-101680420D01*
X168300573Y-101623371D01*
X168279279Y-101576802D01*
X168237115Y-101535441D01*
X168168621Y-101494015D01*
X168068336Y-101447253D01*
X168062226Y-101444610D01*
X167971890Y-101402877D01*
X167916145Y-101368651D01*
X167892251Y-101337895D01*
X167897467Y-101306571D01*
X167929052Y-101270643D01*
X167938497Y-101262376D01*
X168001763Y-101230318D01*
X168067316Y-101231667D01*
X168124408Y-101263098D01*
X168162287Y-101321284D01*
X168165806Y-101332706D01*
X168200080Y-101388097D01*
X168243571Y-101414778D01*
X168306457Y-101441220D01*
X168306457Y-101372808D01*
X168287328Y-101273370D01*
X168230549Y-101182162D01*
X168201002Y-101151649D01*
X168133838Y-101112488D01*
X168048424Y-101094760D01*
X167959879Y-101099563D01*
G36*
X168853534Y-100965380D02*
X168847808Y-101045240D01*
X168841231Y-101092299D01*
X168832118Y-101112826D01*
X168818782Y-101113089D01*
X168814457Y-101110638D01*
X168756936Y-101092896D01*
X168682112Y-101093932D01*
X168606041Y-101112170D01*
X168558462Y-101135765D01*
X168509678Y-101173458D01*
X168474016Y-101216115D01*
X168449535Y-101270317D01*
X168434293Y-101342644D01*
X168426350Y-101439679D01*
X168423764Y-101568002D01*
X168423718Y-101592618D01*
X168423688Y-101869130D01*
X168485219Y-101890580D01*
X168528921Y-101905172D01*
X168552898Y-101911966D01*
X168553603Y-101912029D01*
X168555965Y-101893605D01*
X168557974Y-101842786D01*
X168559479Y-101766253D01*
X168560327Y-101670690D01*
X168560457Y-101612589D01*
X168560729Y-101498031D01*
X168562128Y-101415927D01*
X168565531Y-101359653D01*
X168571813Y-101322586D01*
X168581851Y-101298104D01*
X168596519Y-101279585D01*
X168605678Y-101270666D01*
X168668591Y-101234726D01*
X168737244Y-101232035D01*
X168799532Y-101262430D01*
X168811051Y-101273404D01*
X168827947Y-101294039D01*
X168839666Y-101318516D01*
X168847147Y-101353907D01*
X168851326Y-101407286D01*
X168853143Y-101485726D01*
X168853534Y-101593877D01*
X168853534Y-101869130D01*
X168915065Y-101890580D01*
X168958767Y-101905172D01*
X168982744Y-101911966D01*
X168983450Y-101912029D01*
X168985254Y-101893329D01*
X168986880Y-101840582D01*
X168988263Y-101758817D01*
X168989338Y-101653065D01*
X168990040Y-101528354D01*
X168990303Y-101389715D01*
X168990303Y-100855066D01*
X168863303Y-100801496D01*
X168853534Y-100965380D01*
X168853534Y-100965380D01*
G37*
X168853534Y-100965380D02*
X168847808Y-101045240D01*
X168841231Y-101092299D01*
X168832118Y-101112826D01*
X168818782Y-101113089D01*
X168814457Y-101110638D01*
X168756936Y-101092896D01*
X168682112Y-101093932D01*
X168606041Y-101112170D01*
X168558462Y-101135765D01*
X168509678Y-101173458D01*
X168474016Y-101216115D01*
X168449535Y-101270317D01*
X168434293Y-101342644D01*
X168426350Y-101439679D01*
X168423764Y-101568002D01*
X168423718Y-101592618D01*
X168423688Y-101869130D01*
X168485219Y-101890580D01*
X168528921Y-101905172D01*
X168552898Y-101911966D01*
X168553603Y-101912029D01*
X168555965Y-101893605D01*
X168557974Y-101842786D01*
X168559479Y-101766253D01*
X168560327Y-101670690D01*
X168560457Y-101612589D01*
X168560729Y-101498031D01*
X168562128Y-101415927D01*
X168565531Y-101359653D01*
X168571813Y-101322586D01*
X168581851Y-101298104D01*
X168596519Y-101279585D01*
X168605678Y-101270666D01*
X168668591Y-101234726D01*
X168737244Y-101232035D01*
X168799532Y-101262430D01*
X168811051Y-101273404D01*
X168827947Y-101294039D01*
X168839666Y-101318516D01*
X168847147Y-101353907D01*
X168851326Y-101407286D01*
X168853143Y-101485726D01*
X168853534Y-101593877D01*
X168853534Y-101869130D01*
X168915065Y-101890580D01*
X168958767Y-101905172D01*
X168982744Y-101911966D01*
X168983450Y-101912029D01*
X168985254Y-101893329D01*
X168986880Y-101840582D01*
X168988263Y-101758817D01*
X168989338Y-101653065D01*
X168990040Y-101528354D01*
X168990303Y-101389715D01*
X168990303Y-100855066D01*
X168863303Y-100801496D01*
X168853534Y-100965380D01*
G36*
X170479126Y-101073005D02*
X170402094Y-101124827D01*
X170342564Y-101199672D01*
X170307002Y-101294914D01*
X170299809Y-101365016D01*
X170300626Y-101394269D01*
X170307466Y-101416667D01*
X170326268Y-101436734D01*
X170362972Y-101458993D01*
X170423518Y-101487969D01*
X170513846Y-101528187D01*
X170514303Y-101528389D01*
X170597447Y-101566470D01*
X170665627Y-101600285D01*
X170711875Y-101626193D01*
X170729222Y-101640555D01*
X170729226Y-101640671D01*
X170713937Y-101671945D01*
X170678184Y-101706417D01*
X170637138Y-101731250D01*
X170616343Y-101736183D01*
X170559610Y-101719122D01*
X170510753Y-101676393D01*
X170486915Y-101629415D01*
X170463983Y-101594782D01*
X170419062Y-101555341D01*
X170366257Y-101521269D01*
X170319670Y-101502740D01*
X170309928Y-101501722D01*
X170298962Y-101518475D01*
X170298301Y-101561299D01*
X170306360Y-101619041D01*
X170321553Y-101680549D01*
X170342294Y-101734669D01*
X170343342Y-101736770D01*
X170405759Y-101823920D01*
X170486654Y-101883199D01*
X170578524Y-101912294D01*
X170673867Y-101908894D01*
X170765182Y-101870688D01*
X170769242Y-101868001D01*
X170841074Y-101802902D01*
X170888307Y-101717965D01*
X170914446Y-101606281D01*
X170917954Y-101574903D01*
X170924167Y-101426796D01*
X170916719Y-101357728D01*
X170729226Y-101357728D01*
X170726790Y-101400812D01*
X170713466Y-101413386D01*
X170680248Y-101403979D01*
X170627886Y-101381743D01*
X170569356Y-101353870D01*
X170567901Y-101353132D01*
X170518291Y-101327037D01*
X170498380Y-101309623D01*
X170503290Y-101291367D01*
X170523964Y-101267380D01*
X170576561Y-101232666D01*
X170633203Y-101230116D01*
X170684011Y-101255379D01*
X170719104Y-101304107D01*
X170729226Y-101357728D01*
X170916719Y-101357728D01*
X170911388Y-101308296D01*
X170878602Y-101214315D01*
X170832959Y-101148475D01*
X170750578Y-101081941D01*
X170659834Y-101048936D01*
X170567195Y-101046833D01*
X170479126Y-101073005D01*
X170479126Y-101073005D01*
G37*
X170479126Y-101073005D02*
X170402094Y-101124827D01*
X170342564Y-101199672D01*
X170307002Y-101294914D01*
X170299809Y-101365016D01*
X170300626Y-101394269D01*
X170307466Y-101416667D01*
X170326268Y-101436734D01*
X170362972Y-101458993D01*
X170423518Y-101487969D01*
X170513846Y-101528187D01*
X170514303Y-101528389D01*
X170597447Y-101566470D01*
X170665627Y-101600285D01*
X170711875Y-101626193D01*
X170729222Y-101640555D01*
X170729226Y-101640671D01*
X170713937Y-101671945D01*
X170678184Y-101706417D01*
X170637138Y-101731250D01*
X170616343Y-101736183D01*
X170559610Y-101719122D01*
X170510753Y-101676393D01*
X170486915Y-101629415D01*
X170463983Y-101594782D01*
X170419062Y-101555341D01*
X170366257Y-101521269D01*
X170319670Y-101502740D01*
X170309928Y-101501722D01*
X170298962Y-101518475D01*
X170298301Y-101561299D01*
X170306360Y-101619041D01*
X170321553Y-101680549D01*
X170342294Y-101734669D01*
X170343342Y-101736770D01*
X170405759Y-101823920D01*
X170486654Y-101883199D01*
X170578524Y-101912294D01*
X170673867Y-101908894D01*
X170765182Y-101870688D01*
X170769242Y-101868001D01*
X170841074Y-101802902D01*
X170888307Y-101717965D01*
X170914446Y-101606281D01*
X170917954Y-101574903D01*
X170924167Y-101426796D01*
X170916719Y-101357728D01*
X170729226Y-101357728D01*
X170726790Y-101400812D01*
X170713466Y-101413386D01*
X170680248Y-101403979D01*
X170627886Y-101381743D01*
X170569356Y-101353870D01*
X170567901Y-101353132D01*
X170518291Y-101327037D01*
X170498380Y-101309623D01*
X170503290Y-101291367D01*
X170523964Y-101267380D01*
X170576561Y-101232666D01*
X170633203Y-101230116D01*
X170684011Y-101255379D01*
X170719104Y-101304107D01*
X170729226Y-101357728D01*
X170916719Y-101357728D01*
X170911388Y-101308296D01*
X170878602Y-101214315D01*
X170832959Y-101148475D01*
X170750578Y-101081941D01*
X170659834Y-101048936D01*
X170567195Y-101046833D01*
X170479126Y-101073005D01*
G36*
X171996494Y-101060516D02*
X171904916Y-101108669D01*
X171837331Y-101186165D01*
X171813323Y-101235987D01*
X171794642Y-101310793D01*
X171785079Y-101405312D01*
X171784172Y-101508470D01*
X171791459Y-101609195D01*
X171806477Y-101696413D01*
X171828765Y-101759051D01*
X171835615Y-101769839D01*
X171916748Y-101850365D01*
X172013114Y-101898596D01*
X172117679Y-101912710D01*
X172223412Y-101890889D01*
X172252837Y-101877807D01*
X172310139Y-101837491D01*
X172360430Y-101784035D01*
X172365183Y-101777255D01*
X172384502Y-101744581D01*
X172397272Y-101709654D01*
X172404816Y-101663674D01*
X172408456Y-101597844D01*
X172409515Y-101503365D01*
X172409534Y-101482183D01*
X172409486Y-101475442D01*
X172214149Y-101475442D01*
X172213012Y-101564609D01*
X172208539Y-101623780D01*
X172199134Y-101662001D01*
X172183204Y-101688313D01*
X172175072Y-101697106D01*
X172128322Y-101730521D01*
X172082933Y-101728997D01*
X172037040Y-101700012D01*
X172009668Y-101669069D01*
X171993457Y-101623903D01*
X171984354Y-101552680D01*
X171983729Y-101544374D01*
X171982176Y-101415297D01*
X171998415Y-101319432D01*
X172032228Y-101257367D01*
X172083396Y-101229692D01*
X172101660Y-101228183D01*
X172149620Y-101235773D01*
X172182427Y-101262068D01*
X172202485Y-101312355D01*
X172212202Y-101391924D01*
X172214149Y-101475442D01*
X172409486Y-101475442D01*
X172408806Y-101381509D01*
X172405751Y-101311166D01*
X172399058Y-101262423D01*
X172387420Y-101226548D01*
X172369527Y-101194808D01*
X172365572Y-101188908D01*
X172299113Y-101109364D01*
X172226695Y-101063189D01*
X172138531Y-101044859D01*
X172108593Y-101043963D01*
X171996494Y-101060516D01*
X171996494Y-101060516D01*
G37*
X171996494Y-101060516D02*
X171904916Y-101108669D01*
X171837331Y-101186165D01*
X171813323Y-101235987D01*
X171794642Y-101310793D01*
X171785079Y-101405312D01*
X171784172Y-101508470D01*
X171791459Y-101609195D01*
X171806477Y-101696413D01*
X171828765Y-101759051D01*
X171835615Y-101769839D01*
X171916748Y-101850365D01*
X172013114Y-101898596D01*
X172117679Y-101912710D01*
X172223412Y-101890889D01*
X172252837Y-101877807D01*
X172310139Y-101837491D01*
X172360430Y-101784035D01*
X172365183Y-101777255D01*
X172384502Y-101744581D01*
X172397272Y-101709654D01*
X172404816Y-101663674D01*
X172408456Y-101597844D01*
X172409515Y-101503365D01*
X172409534Y-101482183D01*
X172409486Y-101475442D01*
X172214149Y-101475442D01*
X172213012Y-101564609D01*
X172208539Y-101623780D01*
X172199134Y-101662001D01*
X172183204Y-101688313D01*
X172175072Y-101697106D01*
X172128322Y-101730521D01*
X172082933Y-101728997D01*
X172037040Y-101700012D01*
X172009668Y-101669069D01*
X171993457Y-101623903D01*
X171984354Y-101552680D01*
X171983729Y-101544374D01*
X171982176Y-101415297D01*
X171998415Y-101319432D01*
X172032228Y-101257367D01*
X172083396Y-101229692D01*
X172101660Y-101228183D01*
X172149620Y-101235773D01*
X172182427Y-101262068D01*
X172202485Y-101312355D01*
X172212202Y-101391924D01*
X172214149Y-101475442D01*
X172409486Y-101475442D01*
X172408806Y-101381509D01*
X172405751Y-101311166D01*
X172399058Y-101262423D01*
X172387420Y-101226548D01*
X172369527Y-101194808D01*
X172365572Y-101188908D01*
X172299113Y-101109364D01*
X172226695Y-101063189D01*
X172138531Y-101044859D01*
X172108593Y-101043963D01*
X171996494Y-101060516D01*
G36*
X169741716Y-101068349D02*
X169679013Y-101104618D01*
X169635419Y-101140618D01*
X169603535Y-101178335D01*
X169581570Y-101224459D01*
X169567731Y-101285681D01*
X169560227Y-101368691D01*
X169557263Y-101480179D01*
X169556919Y-101560322D01*
X169556919Y-101855325D01*
X169722995Y-101929775D01*
X169732765Y-101606662D01*
X169736801Y-101485989D01*
X169741036Y-101398401D01*
X169746283Y-101337910D01*
X169753355Y-101298528D01*
X169763069Y-101274267D01*
X169776236Y-101259140D01*
X169780461Y-101255866D01*
X169844471Y-101230294D01*
X169909172Y-101240413D01*
X169947688Y-101267260D01*
X169963355Y-101286284D01*
X169974200Y-101311248D01*
X169981092Y-101349094D01*
X169984901Y-101406762D01*
X169986497Y-101491195D01*
X169986765Y-101579188D01*
X169986817Y-101689583D01*
X169988708Y-101767723D01*
X169995035Y-101820425D01*
X170008397Y-101854502D01*
X170031395Y-101876771D01*
X170066626Y-101894047D01*
X170113683Y-101911998D01*
X170165077Y-101931538D01*
X170158959Y-101584745D01*
X170156496Y-101459728D01*
X170153613Y-101367342D01*
X170149482Y-101301141D01*
X170143273Y-101254680D01*
X170134154Y-101221516D01*
X170121297Y-101195204D01*
X170105796Y-101171989D01*
X170031009Y-101097829D01*
X169939752Y-101054944D01*
X169840497Y-101044672D01*
X169741716Y-101068349D01*
X169741716Y-101068349D01*
G37*
X169741716Y-101068349D02*
X169679013Y-101104618D01*
X169635419Y-101140618D01*
X169603535Y-101178335D01*
X169581570Y-101224459D01*
X169567731Y-101285681D01*
X169560227Y-101368691D01*
X169557263Y-101480179D01*
X169556919Y-101560322D01*
X169556919Y-101855325D01*
X169722995Y-101929775D01*
X169732765Y-101606662D01*
X169736801Y-101485989D01*
X169741036Y-101398401D01*
X169746283Y-101337910D01*
X169753355Y-101298528D01*
X169763069Y-101274267D01*
X169776236Y-101259140D01*
X169780461Y-101255866D01*
X169844471Y-101230294D01*
X169909172Y-101240413D01*
X169947688Y-101267260D01*
X169963355Y-101286284D01*
X169974200Y-101311248D01*
X169981092Y-101349094D01*
X169984901Y-101406762D01*
X169986497Y-101491195D01*
X169986765Y-101579188D01*
X169986817Y-101689583D01*
X169988708Y-101767723D01*
X169995035Y-101820425D01*
X170008397Y-101854502D01*
X170031395Y-101876771D01*
X170066626Y-101894047D01*
X170113683Y-101911998D01*
X170165077Y-101931538D01*
X170158959Y-101584745D01*
X170156496Y-101459728D01*
X170153613Y-101367342D01*
X170149482Y-101301141D01*
X170143273Y-101254680D01*
X170134154Y-101221516D01*
X170121297Y-101195204D01*
X170105796Y-101171989D01*
X170031009Y-101097829D01*
X169939752Y-101054944D01*
X169840497Y-101044672D01*
X169741716Y-101068349D01*
G36*
X171244494Y-101057765D02*
X171169841Y-101094987D01*
X171103949Y-101163521D01*
X171085803Y-101188908D01*
X171066035Y-101222126D01*
X171053208Y-101258205D01*
X171045870Y-101306358D01*
X171042567Y-101375796D01*
X171041842Y-101467466D01*
X171045117Y-101593090D01*
X171056503Y-101687414D01*
X171078339Y-101757783D01*
X171112961Y-101811546D01*
X171162710Y-101856048D01*
X171166366Y-101858683D01*
X171215395Y-101885637D01*
X171274435Y-101898972D01*
X171349521Y-101902260D01*
X171471585Y-101902260D01*
X171471636Y-102020757D01*
X171472772Y-102086752D01*
X171479694Y-102125462D01*
X171497782Y-102148679D01*
X171532418Y-102168193D01*
X171540735Y-102172180D01*
X171579660Y-102190863D01*
X171609797Y-102202663D01*
X171632206Y-102203682D01*
X171647947Y-102190021D01*
X171658078Y-102157782D01*
X171663657Y-102103064D01*
X171665745Y-102021971D01*
X171665399Y-101910604D01*
X171663680Y-101765062D01*
X171663143Y-101721529D01*
X171661208Y-101571465D01*
X171659476Y-101473302D01*
X171471688Y-101473302D01*
X171470632Y-101556624D01*
X171465942Y-101611140D01*
X171455329Y-101647097D01*
X171436508Y-101674742D01*
X171423730Y-101688225D01*
X171371490Y-101727677D01*
X171325238Y-101730888D01*
X171277513Y-101698309D01*
X171276303Y-101697106D01*
X171256886Y-101671928D01*
X171245073Y-101637707D01*
X171239115Y-101585008D01*
X171237260Y-101504391D01*
X171237226Y-101486531D01*
X171241710Y-101375435D01*
X171256306Y-101298421D01*
X171282730Y-101251407D01*
X171322697Y-101230310D01*
X171345796Y-101228183D01*
X171400618Y-101238160D01*
X171438222Y-101271012D01*
X171460857Y-101331117D01*
X171470774Y-101422858D01*
X171471688Y-101473302D01*
X171659476Y-101473302D01*
X171659158Y-101455320D01*
X171656507Y-101367939D01*
X171652774Y-101304165D01*
X171647473Y-101258842D01*
X171640122Y-101226815D01*
X171630237Y-101202928D01*
X171617334Y-101182024D01*
X171611801Y-101174158D01*
X171538411Y-101099855D01*
X171445620Y-101057727D01*
X171338284Y-101045982D01*
X171244494Y-101057765D01*
X171244494Y-101057765D01*
G37*
X171244494Y-101057765D02*
X171169841Y-101094987D01*
X171103949Y-101163521D01*
X171085803Y-101188908D01*
X171066035Y-101222126D01*
X171053208Y-101258205D01*
X171045870Y-101306358D01*
X171042567Y-101375796D01*
X171041842Y-101467466D01*
X171045117Y-101593090D01*
X171056503Y-101687414D01*
X171078339Y-101757783D01*
X171112961Y-101811546D01*
X171162710Y-101856048D01*
X171166366Y-101858683D01*
X171215395Y-101885637D01*
X171274435Y-101898972D01*
X171349521Y-101902260D01*
X171471585Y-101902260D01*
X171471636Y-102020757D01*
X171472772Y-102086752D01*
X171479694Y-102125462D01*
X171497782Y-102148679D01*
X171532418Y-102168193D01*
X171540735Y-102172180D01*
X171579660Y-102190863D01*
X171609797Y-102202663D01*
X171632206Y-102203682D01*
X171647947Y-102190021D01*
X171658078Y-102157782D01*
X171663657Y-102103064D01*
X171665745Y-102021971D01*
X171665399Y-101910604D01*
X171663680Y-101765062D01*
X171663143Y-101721529D01*
X171661208Y-101571465D01*
X171659476Y-101473302D01*
X171471688Y-101473302D01*
X171470632Y-101556624D01*
X171465942Y-101611140D01*
X171455329Y-101647097D01*
X171436508Y-101674742D01*
X171423730Y-101688225D01*
X171371490Y-101727677D01*
X171325238Y-101730888D01*
X171277513Y-101698309D01*
X171276303Y-101697106D01*
X171256886Y-101671928D01*
X171245073Y-101637707D01*
X171239115Y-101585008D01*
X171237260Y-101504391D01*
X171237226Y-101486531D01*
X171241710Y-101375435D01*
X171256306Y-101298421D01*
X171282730Y-101251407D01*
X171322697Y-101230310D01*
X171345796Y-101228183D01*
X171400618Y-101238160D01*
X171438222Y-101271012D01*
X171460857Y-101331117D01*
X171470774Y-101422858D01*
X171471688Y-101473302D01*
X171659476Y-101473302D01*
X171659158Y-101455320D01*
X171656507Y-101367939D01*
X171652774Y-101304165D01*
X171647473Y-101258842D01*
X171640122Y-101226815D01*
X171630237Y-101202928D01*
X171617334Y-101182024D01*
X171611801Y-101174158D01*
X171538411Y-101099855D01*
X171445620Y-101057727D01*
X171338284Y-101045982D01*
X171244494Y-101057765D01*
D14*
G04 #@! TO.C,P4*
X155388000Y-74235000D02*
X155388000Y-75565000D01*
X156718000Y-74235000D02*
X155388000Y-74235000D01*
X157988000Y-74235000D02*
X157988000Y-76895000D01*
X157988000Y-76895000D02*
X175828000Y-76895000D01*
X157988000Y-74235000D02*
X175828000Y-74235000D01*
X175828000Y-74235000D02*
X175828000Y-76895000D01*
G04 #@! TO.C,P3*
X128464000Y-74235000D02*
X128464000Y-75565000D01*
X129794000Y-74235000D02*
X128464000Y-74235000D01*
X131064000Y-74235000D02*
X131064000Y-76895000D01*
X131064000Y-76895000D02*
X153984000Y-76895000D01*
X131064000Y-74235000D02*
X153984000Y-74235000D01*
X153984000Y-74235000D02*
X153984000Y-76895000D01*
G04 #@! TO.C,P2*
X160468000Y-122495000D02*
X160468000Y-123825000D01*
X161798000Y-122495000D02*
X160468000Y-122495000D01*
X163068000Y-122495000D02*
X163068000Y-125155000D01*
X163068000Y-125155000D02*
X175828000Y-125155000D01*
X163068000Y-122495000D02*
X175828000Y-122495000D01*
X175828000Y-122495000D02*
X175828000Y-125155000D01*
G04 #@! TO.C,P1*
X137608000Y-122495000D02*
X137608000Y-123825000D01*
X138938000Y-122495000D02*
X137608000Y-122495000D01*
X140208000Y-122495000D02*
X140208000Y-125155000D01*
X140208000Y-125155000D02*
X158048000Y-125155000D01*
X140208000Y-122495000D02*
X158048000Y-122495000D01*
X158048000Y-122495000D02*
X158048000Y-125155000D01*
G04 #@! TO.C,BZ1*
X143019000Y-98482300D02*
G75*
G03X143019000Y-98482300I-6100000J0D01*
G01*
D13*
G04 #@! TO.C,G01*
G36*
X166551523Y-118403948D02*
X166534518Y-118426562D01*
X166423798Y-118529827D01*
X166293701Y-118501857D01*
X166243376Y-118472797D01*
X166111137Y-118416950D01*
X165996812Y-118460472D01*
X165859895Y-118599797D01*
X165703851Y-118792787D01*
X165662641Y-118910568D01*
X165729960Y-118996247D01*
X165795960Y-119036933D01*
X165893322Y-119124758D01*
X165839540Y-119226145D01*
X165838293Y-119227407D01*
X165749014Y-119346760D01*
X165771469Y-119448748D01*
X165922680Y-119571793D01*
X166017620Y-119632175D01*
X166221798Y-119755365D01*
X166332765Y-119793846D01*
X166403353Y-119748609D01*
X166473770Y-119640748D01*
X166577785Y-119527576D01*
X166715183Y-119537943D01*
X166784989Y-119567174D01*
X166936887Y-119612616D01*
X167061896Y-119563137D01*
X167205971Y-119417340D01*
X167365705Y-119220615D01*
X167409528Y-119100050D01*
X167386065Y-119069767D01*
X167041301Y-119069767D01*
X167034919Y-119168617D01*
X166983438Y-119256875D01*
X166896755Y-119244869D01*
X166772462Y-119169188D01*
X166616726Y-119082342D01*
X166522179Y-119104737D01*
X166439219Y-119208483D01*
X166285697Y-119363921D01*
X166159970Y-119357854D01*
X166119389Y-119310007D01*
X166136251Y-119202226D01*
X166199059Y-119130306D01*
X166312368Y-118991644D01*
X166291349Y-118897797D01*
X166203124Y-118877080D01*
X166054641Y-118818551D01*
X166005407Y-118688144D01*
X166027722Y-118624814D01*
X166134312Y-118594462D01*
X166239649Y-118642223D01*
X166385762Y-118694274D01*
X166528782Y-118624261D01*
X166576391Y-118583223D01*
X166727780Y-118481035D01*
X166837221Y-118509672D01*
X166852061Y-118523481D01*
X166907201Y-118638781D01*
X166850060Y-118724680D01*
X166755832Y-118863556D01*
X166820341Y-118952399D01*
X166918143Y-118986370D01*
X167041301Y-119069767D01*
X167386065Y-119069767D01*
X167341679Y-119012482D01*
X167250994Y-118958821D01*
X167133639Y-118866605D01*
X167161572Y-118763420D01*
X167178392Y-118742130D01*
X167243003Y-118654788D01*
X167234238Y-118591457D01*
X167125119Y-118516513D01*
X166931528Y-118416163D01*
X166741175Y-118328122D01*
X166635658Y-118323497D01*
X166551523Y-118403948D01*
X166551523Y-118403948D01*
G37*
X166551523Y-118403948D02*
X166534518Y-118426562D01*
X166423798Y-118529827D01*
X166293701Y-118501857D01*
X166243376Y-118472797D01*
X166111137Y-118416950D01*
X165996812Y-118460472D01*
X165859895Y-118599797D01*
X165703851Y-118792787D01*
X165662641Y-118910568D01*
X165729960Y-118996247D01*
X165795960Y-119036933D01*
X165893322Y-119124758D01*
X165839540Y-119226145D01*
X165838293Y-119227407D01*
X165749014Y-119346760D01*
X165771469Y-119448748D01*
X165922680Y-119571793D01*
X166017620Y-119632175D01*
X166221798Y-119755365D01*
X166332765Y-119793846D01*
X166403353Y-119748609D01*
X166473770Y-119640748D01*
X166577785Y-119527576D01*
X166715183Y-119537943D01*
X166784989Y-119567174D01*
X166936887Y-119612616D01*
X167061896Y-119563137D01*
X167205971Y-119417340D01*
X167365705Y-119220615D01*
X167409528Y-119100050D01*
X167386065Y-119069767D01*
X167041301Y-119069767D01*
X167034919Y-119168617D01*
X166983438Y-119256875D01*
X166896755Y-119244869D01*
X166772462Y-119169188D01*
X166616726Y-119082342D01*
X166522179Y-119104737D01*
X166439219Y-119208483D01*
X166285697Y-119363921D01*
X166159970Y-119357854D01*
X166119389Y-119310007D01*
X166136251Y-119202226D01*
X166199059Y-119130306D01*
X166312368Y-118991644D01*
X166291349Y-118897797D01*
X166203124Y-118877080D01*
X166054641Y-118818551D01*
X166005407Y-118688144D01*
X166027722Y-118624814D01*
X166134312Y-118594462D01*
X166239649Y-118642223D01*
X166385762Y-118694274D01*
X166528782Y-118624261D01*
X166576391Y-118583223D01*
X166727780Y-118481035D01*
X166837221Y-118509672D01*
X166852061Y-118523481D01*
X166907201Y-118638781D01*
X166850060Y-118724680D01*
X166755832Y-118863556D01*
X166820341Y-118952399D01*
X166918143Y-118986370D01*
X167041301Y-119069767D01*
X167386065Y-119069767D01*
X167341679Y-119012482D01*
X167250994Y-118958821D01*
X167133639Y-118866605D01*
X167161572Y-118763420D01*
X167178392Y-118742130D01*
X167243003Y-118654788D01*
X167234238Y-118591457D01*
X167125119Y-118516513D01*
X166931528Y-118416163D01*
X166741175Y-118328122D01*
X166635658Y-118323497D01*
X166551523Y-118403948D01*
G36*
X158197127Y-115490414D02*
X159128460Y-115490414D01*
X159128460Y-112188414D01*
X158197127Y-112188414D01*
X158197127Y-115490414D01*
X158197127Y-115490414D01*
G37*
X158197127Y-115490414D02*
X159128460Y-115490414D01*
X159128460Y-112188414D01*
X158197127Y-112188414D01*
X158197127Y-115490414D01*
G36*
X159382460Y-115490414D02*
X160311533Y-115490414D01*
X161118127Y-114100512D01*
X161142718Y-114795463D01*
X161167308Y-115490414D01*
X162091793Y-115490414D01*
X162091793Y-113839414D01*
X161634598Y-113839414D01*
X161633011Y-114226135D01*
X161628479Y-114492307D01*
X161621576Y-114624867D01*
X161612874Y-114610749D01*
X161605673Y-114499450D01*
X161594769Y-114085664D01*
X161595288Y-113612831D01*
X161605457Y-113229450D01*
X161615033Y-113082986D01*
X161623296Y-113093922D01*
X161629677Y-113250328D01*
X161633605Y-113540272D01*
X161634598Y-113839414D01*
X162091793Y-113839414D01*
X162091793Y-112188414D01*
X161604960Y-112189132D01*
X161118127Y-112189851D01*
X160718365Y-112887632D01*
X160318602Y-113585414D01*
X160316198Y-112886914D01*
X160313793Y-112188414D01*
X159382460Y-112188414D01*
X159382460Y-115490414D01*
X159382460Y-115490414D01*
G37*
X159382460Y-115490414D02*
X160311533Y-115490414D01*
X161118127Y-114100512D01*
X161142718Y-114795463D01*
X161167308Y-115490414D01*
X162091793Y-115490414D01*
X162091793Y-113839414D01*
X161634598Y-113839414D01*
X161633011Y-114226135D01*
X161628479Y-114492307D01*
X161621576Y-114624867D01*
X161612874Y-114610749D01*
X161605673Y-114499450D01*
X161594769Y-114085664D01*
X161595288Y-113612831D01*
X161605457Y-113229450D01*
X161615033Y-113082986D01*
X161623296Y-113093922D01*
X161629677Y-113250328D01*
X161633605Y-113540272D01*
X161634598Y-113839414D01*
X162091793Y-113839414D01*
X162091793Y-112188414D01*
X161604960Y-112189132D01*
X161118127Y-112189851D01*
X160718365Y-112887632D01*
X160318602Y-113585414D01*
X160316198Y-112886914D01*
X160313793Y-112188414D01*
X159382460Y-112188414D01*
X159382460Y-115490414D01*
G36*
X162261127Y-115490414D02*
X163192460Y-115490414D01*
X163192460Y-112188414D01*
X162261127Y-112188414D01*
X162261127Y-115490414D01*
X162261127Y-115490414D01*
G37*
X162261127Y-115490414D02*
X163192460Y-115490414D01*
X163192460Y-112188414D01*
X162261127Y-112188414D01*
X162261127Y-115490414D01*
G36*
X165687165Y-113079537D02*
X165522965Y-113422795D01*
X165379788Y-113693131D01*
X165273328Y-113862812D01*
X165220014Y-113905037D01*
X165162605Y-113804613D01*
X165053952Y-113584463D01*
X164911057Y-113279834D01*
X164790324Y-113014194D01*
X164420127Y-112188974D01*
X163933293Y-112188694D01*
X163446460Y-112188414D01*
X163446460Y-115490414D01*
X164377793Y-115490414D01*
X164385075Y-114961247D01*
X164392356Y-114432080D01*
X164886356Y-115490414D01*
X165625192Y-115490414D01*
X165886008Y-114918914D01*
X166146823Y-114347414D01*
X166155793Y-115490414D01*
X167087127Y-115490414D01*
X167087127Y-112188414D01*
X166094824Y-112188414D01*
X165687165Y-113079537D01*
X165687165Y-113079537D01*
G37*
X165687165Y-113079537D02*
X165522965Y-113422795D01*
X165379788Y-113693131D01*
X165273328Y-113862812D01*
X165220014Y-113905037D01*
X165162605Y-113804613D01*
X165053952Y-113584463D01*
X164911057Y-113279834D01*
X164790324Y-113014194D01*
X164420127Y-112188974D01*
X163933293Y-112188694D01*
X163446460Y-112188414D01*
X163446460Y-115490414D01*
X164377793Y-115490414D01*
X164385075Y-114961247D01*
X164392356Y-114432080D01*
X164886356Y-115490414D01*
X165625192Y-115490414D01*
X165886008Y-114918914D01*
X166146823Y-114347414D01*
X166155793Y-115490414D01*
X167087127Y-115490414D01*
X167087127Y-112188414D01*
X166094824Y-112188414D01*
X165687165Y-113079537D01*
G36*
X167539337Y-115179315D02*
X167541717Y-115268480D01*
X167597579Y-115315841D01*
X168157400Y-115668538D01*
X168552639Y-116000800D01*
X168783252Y-116309940D01*
X168849194Y-116593270D01*
X168750421Y-116848101D01*
X168486887Y-117071745D01*
X168058549Y-117261513D01*
X167631827Y-117379377D01*
X167321247Y-117467666D01*
X167144624Y-117554237D01*
X167109401Y-117627195D01*
X167223019Y-117674648D01*
X167439905Y-117686083D01*
X167771014Y-117655080D01*
X168104363Y-117586408D01*
X168147234Y-117573741D01*
X168626645Y-117367438D01*
X168696806Y-117310747D01*
X168441793Y-117310747D01*
X168399460Y-117353080D01*
X168357127Y-117310747D01*
X168399460Y-117268414D01*
X168441793Y-117310747D01*
X168696806Y-117310747D01*
X168928732Y-117123349D01*
X168682146Y-117123349D01*
X168661545Y-117170665D01*
X168576295Y-117261559D01*
X168527284Y-117242913D01*
X168526460Y-117231077D01*
X168586597Y-117159464D01*
X168624209Y-117133329D01*
X168682146Y-117123349D01*
X168928732Y-117123349D01*
X168961357Y-117096988D01*
X169081121Y-116921378D01*
X169127440Y-116802747D01*
X169034460Y-116802747D01*
X168992127Y-116845080D01*
X168949793Y-116802747D01*
X168992127Y-116760414D01*
X169034460Y-116802747D01*
X169127440Y-116802747D01*
X169182419Y-116661939D01*
X169176534Y-116434556D01*
X169054443Y-116184499D01*
X168931477Y-116013547D01*
X168749898Y-115825219D01*
X168499578Y-115625721D01*
X168218097Y-115437573D01*
X167943034Y-115283296D01*
X167711971Y-115185407D01*
X167562486Y-115166427D01*
X167539337Y-115179315D01*
X167539337Y-115179315D01*
G37*
X167539337Y-115179315D02*
X167541717Y-115268480D01*
X167597579Y-115315841D01*
X168157400Y-115668538D01*
X168552639Y-116000800D01*
X168783252Y-116309940D01*
X168849194Y-116593270D01*
X168750421Y-116848101D01*
X168486887Y-117071745D01*
X168058549Y-117261513D01*
X167631827Y-117379377D01*
X167321247Y-117467666D01*
X167144624Y-117554237D01*
X167109401Y-117627195D01*
X167223019Y-117674648D01*
X167439905Y-117686083D01*
X167771014Y-117655080D01*
X168104363Y-117586408D01*
X168147234Y-117573741D01*
X168626645Y-117367438D01*
X168696806Y-117310747D01*
X168441793Y-117310747D01*
X168399460Y-117353080D01*
X168357127Y-117310747D01*
X168399460Y-117268414D01*
X168441793Y-117310747D01*
X168696806Y-117310747D01*
X168928732Y-117123349D01*
X168682146Y-117123349D01*
X168661545Y-117170665D01*
X168576295Y-117261559D01*
X168527284Y-117242913D01*
X168526460Y-117231077D01*
X168586597Y-117159464D01*
X168624209Y-117133329D01*
X168682146Y-117123349D01*
X168928732Y-117123349D01*
X168961357Y-117096988D01*
X169081121Y-116921378D01*
X169127440Y-116802747D01*
X169034460Y-116802747D01*
X168992127Y-116845080D01*
X168949793Y-116802747D01*
X168992127Y-116760414D01*
X169034460Y-116802747D01*
X169127440Y-116802747D01*
X169182419Y-116661939D01*
X169176534Y-116434556D01*
X169054443Y-116184499D01*
X168931477Y-116013547D01*
X168749898Y-115825219D01*
X168499578Y-115625721D01*
X168218097Y-115437573D01*
X167943034Y-115283296D01*
X167711971Y-115185407D01*
X167562486Y-115166427D01*
X167539337Y-115179315D01*
G36*
X149467611Y-118369080D02*
X150255202Y-118370377D01*
X150654299Y-118381452D01*
X150968040Y-118410314D01*
X151176352Y-118452570D01*
X151259165Y-118503824D01*
X151196410Y-118559682D01*
X151167421Y-118570111D01*
X151018612Y-118598023D01*
X150763977Y-118627632D01*
X150542011Y-118646288D01*
X150241228Y-118678981D01*
X150040699Y-118744431D01*
X149871363Y-118872930D01*
X149758844Y-118989793D01*
X149591171Y-119194373D01*
X149506838Y-119382085D01*
X149478369Y-119629165D01*
X149476460Y-119773303D01*
X149487953Y-120064143D01*
X149540680Y-120258792D01*
X149662013Y-120429827D01*
X149764327Y-120536547D01*
X150052193Y-120824414D01*
X152101127Y-120824414D01*
X152101127Y-119893080D01*
X151268571Y-119893080D01*
X150908644Y-119887742D01*
X150614845Y-119873377D01*
X150426612Y-119852458D01*
X150380306Y-119837370D01*
X150352098Y-119732265D01*
X150465628Y-119641779D01*
X150693314Y-119578350D01*
X151007574Y-119554414D01*
X151007881Y-119554414D01*
X151313013Y-119541982D01*
X151522194Y-119488771D01*
X151707962Y-119370905D01*
X151799224Y-119293946D01*
X152049826Y-118974995D01*
X152159679Y-118608988D01*
X152130340Y-118235365D01*
X151963367Y-117893567D01*
X151735198Y-117672005D01*
X151601429Y-117587939D01*
X151456267Y-117532577D01*
X151261785Y-117500062D01*
X150980055Y-117484536D01*
X150573149Y-117480142D01*
X150492460Y-117480080D01*
X149518793Y-117480080D01*
X149467611Y-118369080D01*
X149467611Y-118369080D01*
G37*
X149467611Y-118369080D02*
X150255202Y-118370377D01*
X150654299Y-118381452D01*
X150968040Y-118410314D01*
X151176352Y-118452570D01*
X151259165Y-118503824D01*
X151196410Y-118559682D01*
X151167421Y-118570111D01*
X151018612Y-118598023D01*
X150763977Y-118627632D01*
X150542011Y-118646288D01*
X150241228Y-118678981D01*
X150040699Y-118744431D01*
X149871363Y-118872930D01*
X149758844Y-118989793D01*
X149591171Y-119194373D01*
X149506838Y-119382085D01*
X149478369Y-119629165D01*
X149476460Y-119773303D01*
X149487953Y-120064143D01*
X149540680Y-120258792D01*
X149662013Y-120429827D01*
X149764327Y-120536547D01*
X150052193Y-120824414D01*
X152101127Y-120824414D01*
X152101127Y-119893080D01*
X151268571Y-119893080D01*
X150908644Y-119887742D01*
X150614845Y-119873377D01*
X150426612Y-119852458D01*
X150380306Y-119837370D01*
X150352098Y-119732265D01*
X150465628Y-119641779D01*
X150693314Y-119578350D01*
X151007574Y-119554414D01*
X151007881Y-119554414D01*
X151313013Y-119541982D01*
X151522194Y-119488771D01*
X151707962Y-119370905D01*
X151799224Y-119293946D01*
X152049826Y-118974995D01*
X152159679Y-118608988D01*
X152130340Y-118235365D01*
X151963367Y-117893567D01*
X151735198Y-117672005D01*
X151601429Y-117587939D01*
X151456267Y-117532577D01*
X151261785Y-117500062D01*
X150980055Y-117484536D01*
X150573149Y-117480142D01*
X150492460Y-117480080D01*
X149518793Y-117480080D01*
X149467611Y-118369080D01*
G36*
X153942627Y-117451938D02*
X153367315Y-117488574D01*
X152939051Y-117567807D01*
X152636928Y-117710684D01*
X152440038Y-117938251D01*
X152327474Y-118271558D01*
X152278327Y-118731649D01*
X152270460Y-119135247D01*
X152288194Y-119712625D01*
X152355069Y-120143667D01*
X152491597Y-120448931D01*
X152718287Y-120648976D01*
X153055651Y-120764359D01*
X153524199Y-120815641D01*
X153955690Y-120824414D01*
X154895127Y-120824414D01*
X154895127Y-120358747D01*
X153201793Y-120358747D01*
X153159460Y-120401080D01*
X153117127Y-120358747D01*
X153159460Y-120316414D01*
X153201793Y-120358747D01*
X154895127Y-120358747D01*
X154895127Y-119902816D01*
X153963793Y-119902816D01*
X153603960Y-119876782D01*
X153244127Y-119850747D01*
X153219150Y-119180765D01*
X153219041Y-119173414D01*
X152748407Y-119173414D01*
X152745272Y-119454996D01*
X152737187Y-119607496D01*
X152725508Y-119615928D01*
X152716122Y-119530692D01*
X152703311Y-119191784D01*
X152710756Y-118848718D01*
X152716592Y-118768692D01*
X152730139Y-118689530D01*
X152740789Y-118762400D01*
X152747181Y-118970006D01*
X152748407Y-119173414D01*
X153219041Y-119173414D01*
X153213582Y-118805966D01*
X153242720Y-118568598D01*
X153324568Y-118437586D01*
X153477128Y-118381852D01*
X153688627Y-118370377D01*
X153963793Y-118369080D01*
X153963793Y-119902816D01*
X154895127Y-119902816D01*
X154895127Y-117419471D01*
X153942627Y-117451938D01*
X153942627Y-117451938D01*
G37*
X153942627Y-117451938D02*
X153367315Y-117488574D01*
X152939051Y-117567807D01*
X152636928Y-117710684D01*
X152440038Y-117938251D01*
X152327474Y-118271558D01*
X152278327Y-118731649D01*
X152270460Y-119135247D01*
X152288194Y-119712625D01*
X152355069Y-120143667D01*
X152491597Y-120448931D01*
X152718287Y-120648976D01*
X153055651Y-120764359D01*
X153524199Y-120815641D01*
X153955690Y-120824414D01*
X154895127Y-120824414D01*
X154895127Y-120358747D01*
X153201793Y-120358747D01*
X153159460Y-120401080D01*
X153117127Y-120358747D01*
X153159460Y-120316414D01*
X153201793Y-120358747D01*
X154895127Y-120358747D01*
X154895127Y-119902816D01*
X153963793Y-119902816D01*
X153603960Y-119876782D01*
X153244127Y-119850747D01*
X153219150Y-119180765D01*
X153219041Y-119173414D01*
X152748407Y-119173414D01*
X152745272Y-119454996D01*
X152737187Y-119607496D01*
X152725508Y-119615928D01*
X152716122Y-119530692D01*
X152703311Y-119191784D01*
X152710756Y-118848718D01*
X152716592Y-118768692D01*
X152730139Y-118689530D01*
X152740789Y-118762400D01*
X152747181Y-118970006D01*
X152748407Y-119173414D01*
X153219041Y-119173414D01*
X153213582Y-118805966D01*
X153242720Y-118568598D01*
X153324568Y-118437586D01*
X153477128Y-118381852D01*
X153688627Y-118370377D01*
X153963793Y-118369080D01*
X153963793Y-119902816D01*
X154895127Y-119902816D01*
X154895127Y-117419471D01*
X153942627Y-117451938D01*
G36*
X155971359Y-117509721D02*
X155579805Y-117611542D01*
X155305635Y-117804885D01*
X155129074Y-118109095D01*
X155030350Y-118543517D01*
X154996195Y-118951315D01*
X154994399Y-119541949D01*
X155056288Y-119996758D01*
X155187710Y-120339069D01*
X155394513Y-120592207D01*
X155411222Y-120606566D01*
X155549283Y-120710716D01*
X155690928Y-120775009D01*
X155880756Y-120808731D01*
X156163370Y-120821166D01*
X156446790Y-120822161D01*
X156879750Y-120810694D01*
X157181507Y-120775666D01*
X157389213Y-120711690D01*
X157455814Y-120675841D01*
X157661867Y-120506711D01*
X157754301Y-120358747D01*
X155911127Y-120358747D01*
X155868793Y-120401080D01*
X155826460Y-120358747D01*
X155868793Y-120316414D01*
X155911127Y-120358747D01*
X157754301Y-120358747D01*
X157804309Y-120278698D01*
X157892335Y-119962731D01*
X157935142Y-119529737D01*
X157942354Y-119173414D01*
X157489741Y-119173414D01*
X157486605Y-119454996D01*
X157478520Y-119607496D01*
X157466841Y-119615928D01*
X157457456Y-119530692D01*
X157444644Y-119191784D01*
X157444758Y-119186512D01*
X157011793Y-119186512D01*
X157011793Y-119901160D01*
X156482627Y-119875954D01*
X155953460Y-119850747D01*
X155928426Y-119229082D01*
X155926616Y-118836346D01*
X155969933Y-118582317D01*
X156074541Y-118438863D01*
X156256604Y-118377852D01*
X156422569Y-118369080D01*
X156693886Y-118376922D01*
X156865813Y-118421387D01*
X156960991Y-118533883D01*
X157002059Y-118745819D01*
X157011657Y-119088604D01*
X157011793Y-119186512D01*
X157444758Y-119186512D01*
X157452089Y-118848718D01*
X157457925Y-118768692D01*
X157471473Y-118689530D01*
X157482122Y-118762400D01*
X157488515Y-118970006D01*
X157489741Y-119173414D01*
X157942354Y-119173414D01*
X157943127Y-119135247D01*
X157921650Y-118560214D01*
X157845915Y-118130908D01*
X157698967Y-117827881D01*
X157463851Y-117631686D01*
X157123612Y-117522876D01*
X156661295Y-117482003D01*
X156500070Y-117480080D01*
X155971359Y-117509721D01*
X155971359Y-117509721D01*
G37*
X155971359Y-117509721D02*
X155579805Y-117611542D01*
X155305635Y-117804885D01*
X155129074Y-118109095D01*
X155030350Y-118543517D01*
X154996195Y-118951315D01*
X154994399Y-119541949D01*
X155056288Y-119996758D01*
X155187710Y-120339069D01*
X155394513Y-120592207D01*
X155411222Y-120606566D01*
X155549283Y-120710716D01*
X155690928Y-120775009D01*
X155880756Y-120808731D01*
X156163370Y-120821166D01*
X156446790Y-120822161D01*
X156879750Y-120810694D01*
X157181507Y-120775666D01*
X157389213Y-120711690D01*
X157455814Y-120675841D01*
X157661867Y-120506711D01*
X157754301Y-120358747D01*
X155911127Y-120358747D01*
X155868793Y-120401080D01*
X155826460Y-120358747D01*
X155868793Y-120316414D01*
X155911127Y-120358747D01*
X157754301Y-120358747D01*
X157804309Y-120278698D01*
X157892335Y-119962731D01*
X157935142Y-119529737D01*
X157942354Y-119173414D01*
X157489741Y-119173414D01*
X157486605Y-119454996D01*
X157478520Y-119607496D01*
X157466841Y-119615928D01*
X157457456Y-119530692D01*
X157444644Y-119191784D01*
X157444758Y-119186512D01*
X157011793Y-119186512D01*
X157011793Y-119901160D01*
X156482627Y-119875954D01*
X155953460Y-119850747D01*
X155928426Y-119229082D01*
X155926616Y-118836346D01*
X155969933Y-118582317D01*
X156074541Y-118438863D01*
X156256604Y-118377852D01*
X156422569Y-118369080D01*
X156693886Y-118376922D01*
X156865813Y-118421387D01*
X156960991Y-118533883D01*
X157002059Y-118745819D01*
X157011657Y-119088604D01*
X157011793Y-119186512D01*
X157444758Y-119186512D01*
X157452089Y-118848718D01*
X157457925Y-118768692D01*
X157471473Y-118689530D01*
X157482122Y-118762400D01*
X157488515Y-118970006D01*
X157489741Y-119173414D01*
X157942354Y-119173414D01*
X157943127Y-119135247D01*
X157921650Y-118560214D01*
X157845915Y-118130908D01*
X157698967Y-117827881D01*
X157463851Y-117631686D01*
X157123612Y-117522876D01*
X156661295Y-117482003D01*
X156500070Y-117480080D01*
X155971359Y-117509721D01*
G36*
X160288995Y-118378490D02*
X159843639Y-119328178D01*
X159400279Y-118382962D01*
X158956919Y-117437747D01*
X158027793Y-117437747D01*
X158027793Y-120824414D01*
X158959127Y-120824414D01*
X158964210Y-120295247D01*
X158969292Y-119766080D01*
X159236291Y-120295247D01*
X159380466Y-120572076D01*
X159488387Y-120730251D01*
X159598737Y-120802966D01*
X159750200Y-120823415D01*
X159852960Y-120824414D01*
X160033883Y-120818835D01*
X160156041Y-120780437D01*
X160254465Y-120676729D01*
X160364184Y-120475217D01*
X160379193Y-120443414D01*
X159890460Y-120443414D01*
X159848127Y-120485747D01*
X159805793Y-120443414D01*
X159848127Y-120401080D01*
X159890460Y-120443414D01*
X160379193Y-120443414D01*
X160469103Y-120252914D01*
X160735576Y-119681414D01*
X160736352Y-120252914D01*
X160737127Y-120824414D01*
X161672040Y-120824414D01*
X161649083Y-119152247D01*
X161626127Y-117480080D01*
X161180239Y-117454441D01*
X160734352Y-117428801D01*
X160288995Y-118378490D01*
X160288995Y-118378490D01*
G37*
X160288995Y-118378490D02*
X159843639Y-119328178D01*
X159400279Y-118382962D01*
X158956919Y-117437747D01*
X158027793Y-117437747D01*
X158027793Y-120824414D01*
X158959127Y-120824414D01*
X158964210Y-120295247D01*
X158969292Y-119766080D01*
X159236291Y-120295247D01*
X159380466Y-120572076D01*
X159488387Y-120730251D01*
X159598737Y-120802966D01*
X159750200Y-120823415D01*
X159852960Y-120824414D01*
X160033883Y-120818835D01*
X160156041Y-120780437D01*
X160254465Y-120676729D01*
X160364184Y-120475217D01*
X160379193Y-120443414D01*
X159890460Y-120443414D01*
X159848127Y-120485747D01*
X159805793Y-120443414D01*
X159848127Y-120401080D01*
X159890460Y-120443414D01*
X160379193Y-120443414D01*
X160469103Y-120252914D01*
X160735576Y-119681414D01*
X160736352Y-120252914D01*
X160737127Y-120824414D01*
X161672040Y-120824414D01*
X161649083Y-119152247D01*
X161626127Y-117480080D01*
X161180239Y-117454441D01*
X160734352Y-117428801D01*
X160288995Y-118378490D01*
G36*
X163237908Y-116774504D02*
X162958504Y-117001278D01*
X162687184Y-117229604D01*
X162538550Y-117359999D01*
X162352136Y-117512005D01*
X162209489Y-117599069D01*
X162178717Y-117607080D01*
X162126213Y-117682450D01*
X162096895Y-117872006D01*
X162094529Y-117966914D01*
X162097265Y-118326747D01*
X164469547Y-119850747D01*
X165039753Y-120215729D01*
X165566769Y-120550521D01*
X166033165Y-120844249D01*
X166421512Y-121086036D01*
X166714378Y-121265008D01*
X166894335Y-121370289D01*
X166943312Y-121394237D01*
X167022129Y-121333962D01*
X167175687Y-121154777D01*
X167386232Y-120879613D01*
X167636013Y-120531399D01*
X167828222Y-120251237D01*
X168119108Y-119816667D01*
X168327517Y-119493424D01*
X168467124Y-119253449D01*
X168551604Y-119068682D01*
X168594632Y-118911063D01*
X168604611Y-118807326D01*
X168426987Y-118807326D01*
X168421566Y-118936581D01*
X168371356Y-119095876D01*
X168263459Y-119309655D01*
X168084977Y-119602362D01*
X167823012Y-119998440D01*
X167713018Y-120160437D01*
X167456624Y-120533173D01*
X167233906Y-120850837D01*
X167061942Y-121089553D01*
X166957808Y-121225447D01*
X166935309Y-121247747D01*
X166858074Y-121203502D01*
X166655737Y-121077975D01*
X166345296Y-120881974D01*
X165943749Y-120626310D01*
X165468096Y-120321791D01*
X164935335Y-119979226D01*
X164580112Y-119750089D01*
X163931971Y-119329968D01*
X163413599Y-118989783D01*
X163011308Y-118719502D01*
X162711414Y-118509089D01*
X162500229Y-118348510D01*
X162364069Y-118227732D01*
X162289247Y-118136719D01*
X162262078Y-118065438D01*
X162261127Y-118049851D01*
X162261127Y-117847269D01*
X162578627Y-118041420D01*
X162733590Y-118137773D01*
X163009250Y-118310832D01*
X163383344Y-118546551D01*
X163833608Y-118830886D01*
X164337778Y-119149789D01*
X164873590Y-119489217D01*
X164878076Y-119492061D01*
X165395556Y-119816489D01*
X165866210Y-120104599D01*
X166271386Y-120345534D01*
X166592435Y-120528436D01*
X166810707Y-120642447D01*
X166907550Y-120676711D01*
X166910076Y-120675023D01*
X166974104Y-120582719D01*
X166986519Y-120564901D01*
X166812368Y-120564901D01*
X166800787Y-120570414D01*
X166723522Y-120510810D01*
X166706127Y-120485747D01*
X166684552Y-120406593D01*
X166696133Y-120401080D01*
X166773399Y-120460684D01*
X166790793Y-120485747D01*
X166812368Y-120564901D01*
X166986519Y-120564901D01*
X167104508Y-120395568D01*
X166558368Y-120395568D01*
X166546787Y-120401080D01*
X166469522Y-120341477D01*
X166452127Y-120316414D01*
X166430552Y-120237259D01*
X166442133Y-120231747D01*
X166519399Y-120291350D01*
X166536793Y-120316414D01*
X166558368Y-120395568D01*
X167104508Y-120395568D01*
X167116686Y-120378091D01*
X167319364Y-120087602D01*
X167543874Y-119766080D01*
X167425793Y-119766080D01*
X167383460Y-119808414D01*
X167341127Y-119766080D01*
X167383460Y-119723747D01*
X167425793Y-119766080D01*
X167543874Y-119766080D01*
X167563680Y-119737716D01*
X167679793Y-119571510D01*
X167721556Y-119512080D01*
X167595127Y-119512080D01*
X167552793Y-119554414D01*
X167510460Y-119512080D01*
X167552793Y-119469747D01*
X167595127Y-119512080D01*
X167721556Y-119512080D01*
X167956871Y-119177225D01*
X168144236Y-118919414D01*
X168018460Y-118919414D01*
X167976127Y-118961747D01*
X167933793Y-118919414D01*
X167976127Y-118877080D01*
X168018460Y-118919414D01*
X168144236Y-118919414D01*
X168152934Y-118907446D01*
X168282769Y-118747051D01*
X168361162Y-118680919D01*
X168402899Y-118693928D01*
X168422765Y-118770954D01*
X168426987Y-118807326D01*
X168604611Y-118807326D01*
X168609883Y-118752533D01*
X168611093Y-118665414D01*
X168187793Y-118665414D01*
X168145460Y-118707747D01*
X168103127Y-118665414D01*
X168145460Y-118623080D01*
X168187793Y-118665414D01*
X168611093Y-118665414D01*
X168611388Y-118644247D01*
X168604482Y-118544453D01*
X168018460Y-118544453D01*
X167972946Y-118629704D01*
X167848773Y-118825205D01*
X167664496Y-119102561D01*
X167438667Y-119433373D01*
X167420535Y-119459601D01*
X166822611Y-120323725D01*
X166611407Y-120195371D01*
X166325127Y-120195371D01*
X166262902Y-120194796D01*
X166155793Y-120147080D01*
X166022735Y-120059644D01*
X165986460Y-120014122D01*
X166048685Y-120014698D01*
X166155793Y-120062414D01*
X166288852Y-120149850D01*
X166325127Y-120195371D01*
X166611407Y-120195371D01*
X166510369Y-120133968D01*
X166281856Y-119994422D01*
X166245689Y-119972234D01*
X165881035Y-119972234D01*
X165869454Y-119977747D01*
X165792188Y-119918143D01*
X165774793Y-119893080D01*
X165753219Y-119813926D01*
X165764800Y-119808414D01*
X165842065Y-119868017D01*
X165859460Y-119893080D01*
X165881035Y-119972234D01*
X166245689Y-119972234D01*
X165972978Y-119804934D01*
X165909844Y-119766080D01*
X165647793Y-119766080D01*
X165605460Y-119808414D01*
X165563127Y-119766080D01*
X165605460Y-119723747D01*
X165647793Y-119766080D01*
X165909844Y-119766080D01*
X165647419Y-119604581D01*
X165634715Y-119596747D01*
X165393793Y-119596747D01*
X165351460Y-119639080D01*
X165309127Y-119596747D01*
X165351460Y-119554414D01*
X165393793Y-119596747D01*
X165634715Y-119596747D01*
X165621594Y-119588657D01*
X165497425Y-119512080D01*
X165224460Y-119512080D01*
X165182127Y-119554414D01*
X165139793Y-119512080D01*
X165182127Y-119469747D01*
X165224460Y-119512080D01*
X165497425Y-119512080D01*
X165045062Y-119233102D01*
X165241800Y-119004080D01*
X165055127Y-119004080D01*
X165012793Y-119046414D01*
X164970460Y-119004080D01*
X165012793Y-118961747D01*
X165055127Y-119004080D01*
X165241800Y-119004080D01*
X165325261Y-118906925D01*
X165521120Y-118691515D01*
X165612701Y-118601448D01*
X165374937Y-118601448D01*
X165370963Y-118670353D01*
X165327653Y-118728914D01*
X165195095Y-118857452D01*
X165145380Y-118850897D01*
X165170411Y-118750080D01*
X165165396Y-118641413D01*
X165122636Y-118623080D01*
X164990738Y-118570779D01*
X164866125Y-118478280D01*
X164736844Y-118384362D01*
X164653196Y-118413287D01*
X164618638Y-118457113D01*
X164555442Y-118535051D01*
X164566789Y-118467426D01*
X164572422Y-118449242D01*
X164532508Y-118314778D01*
X164419625Y-118242080D01*
X164123793Y-118242080D01*
X164081460Y-118284414D01*
X164039127Y-118242080D01*
X164081460Y-118199747D01*
X164123793Y-118242080D01*
X164419625Y-118242080D01*
X164368743Y-118209312D01*
X164276927Y-118157414D01*
X163954460Y-118157414D01*
X163912127Y-118199747D01*
X163869793Y-118157414D01*
X163912127Y-118115080D01*
X163954460Y-118157414D01*
X164276927Y-118157414D01*
X164198546Y-118113110D01*
X164123936Y-118029620D01*
X164123793Y-118027026D01*
X164193952Y-118027166D01*
X164381583Y-118090132D01*
X164652420Y-118203592D01*
X164790442Y-118266956D01*
X165108377Y-118420130D01*
X165295309Y-118524833D01*
X165374937Y-118601448D01*
X165612701Y-118601448D01*
X165697779Y-118517778D01*
X165759314Y-118466129D01*
X165862411Y-118328388D01*
X165863768Y-118291952D01*
X165732460Y-118291952D01*
X165663746Y-118280789D01*
X165480331Y-118203698D01*
X165216308Y-118075587D01*
X165097460Y-118014284D01*
X164809301Y-117859284D01*
X164589423Y-117733389D01*
X164472602Y-117656822D01*
X164462460Y-117645005D01*
X164532149Y-117662896D01*
X164717980Y-117742192D01*
X164985101Y-117867653D01*
X165097460Y-117922673D01*
X165387463Y-118072288D01*
X165607960Y-118197693D01*
X165723431Y-118278231D01*
X165732460Y-118291952D01*
X165863768Y-118291952D01*
X165866117Y-118228898D01*
X165865228Y-118148976D01*
X165906811Y-118160514D01*
X166018501Y-118142985D01*
X166178766Y-118029421D01*
X166205859Y-118003439D01*
X166247216Y-117962082D01*
X165986016Y-117962082D01*
X165915594Y-117958577D01*
X165728532Y-117896532D01*
X165461814Y-117788634D01*
X165393793Y-117758976D01*
X165111887Y-117626552D01*
X164902694Y-117513218D01*
X164804199Y-117439933D01*
X164801127Y-117431929D01*
X164871402Y-117433030D01*
X165057738Y-117494517D01*
X165323397Y-117603791D01*
X165393350Y-117635035D01*
X165674580Y-117769537D01*
X165883617Y-117882952D01*
X165982709Y-117954448D01*
X165986016Y-117962082D01*
X166247216Y-117962082D01*
X166417163Y-117792135D01*
X167217812Y-118142783D01*
X167549842Y-118292819D01*
X167814659Y-118421279D01*
X167979697Y-118511826D01*
X168018460Y-118544453D01*
X168604482Y-118544453D01*
X168591370Y-118355000D01*
X168535274Y-118215007D01*
X168448406Y-118231249D01*
X168375341Y-118333527D01*
X168325529Y-118381702D01*
X168233198Y-118388108D01*
X168072240Y-118345272D01*
X167816548Y-118245722D01*
X167440015Y-118081985D01*
X167339119Y-118036943D01*
X166902376Y-117847938D01*
X166598265Y-117732786D01*
X166409782Y-117686067D01*
X166319927Y-117702362D01*
X166313777Y-117710111D01*
X166214280Y-117725433D01*
X166014164Y-117673700D01*
X165757871Y-117575206D01*
X165489847Y-117450246D01*
X165254534Y-117319116D01*
X165096378Y-117202111D01*
X165055127Y-117135347D01*
X165051407Y-117131466D01*
X164906608Y-117131466D01*
X164705701Y-117284988D01*
X164538068Y-117420361D01*
X164298309Y-117622567D01*
X164060293Y-117828668D01*
X163780060Y-118090440D01*
X163638033Y-118263784D01*
X163631016Y-118353437D01*
X163695570Y-118369080D01*
X163828370Y-118414810D01*
X164042018Y-118532873D01*
X164294808Y-118694576D01*
X164545033Y-118871230D01*
X164750987Y-119034142D01*
X164870961Y-119154620D01*
X164885793Y-119187867D01*
X164837871Y-119265901D01*
X164779960Y-119247991D01*
X164659211Y-119174298D01*
X164440439Y-119038746D01*
X164169054Y-118869479D01*
X164144960Y-118854404D01*
X163888595Y-118685297D01*
X163700616Y-118544782D01*
X163617098Y-118460125D01*
X163615793Y-118454472D01*
X163551114Y-118368884D01*
X163390692Y-118242699D01*
X163340627Y-118209488D01*
X163182586Y-118098766D01*
X163130149Y-118044408D01*
X163065460Y-118044408D01*
X162769127Y-117853162D01*
X162580140Y-117731114D01*
X162463663Y-117655741D01*
X162449581Y-117646564D01*
X162486736Y-117589614D01*
X162571667Y-117513312D01*
X162670878Y-117441663D01*
X162663264Y-117483740D01*
X162647586Y-117510626D01*
X162656096Y-117649721D01*
X162821833Y-117835124D01*
X163065460Y-118044408D01*
X163130149Y-118044408D01*
X163122635Y-118036619D01*
X163130109Y-118031840D01*
X163246221Y-118071214D01*
X163360082Y-118133660D01*
X163484552Y-118183051D01*
X163608624Y-118139948D01*
X163782267Y-117990820D01*
X163866497Y-117903414D01*
X163277127Y-117903414D01*
X163234793Y-117945747D01*
X163192460Y-117903414D01*
X163234793Y-117861080D01*
X163277127Y-117903414D01*
X163866497Y-117903414D01*
X163941638Y-117825440D01*
X164031671Y-117707392D01*
X164039127Y-117686286D01*
X164022477Y-117670222D01*
X163659327Y-117670222D01*
X163613244Y-117798573D01*
X163527065Y-117861080D01*
X163422774Y-117799501D01*
X163398277Y-117766947D01*
X163406489Y-117657770D01*
X163507124Y-117572410D01*
X163627420Y-117571959D01*
X163629220Y-117573045D01*
X163659327Y-117670222D01*
X164022477Y-117670222D01*
X163970074Y-117619665D01*
X163790267Y-117504558D01*
X163669612Y-117437747D01*
X163107793Y-117437747D01*
X163039217Y-117512861D01*
X162980793Y-117522414D01*
X162868122Y-117476696D01*
X162853793Y-117437747D01*
X162922370Y-117362632D01*
X162980793Y-117353080D01*
X163093465Y-117398798D01*
X163107793Y-117437747D01*
X163669612Y-117437747D01*
X163573679Y-117384626D01*
X163334921Y-117246483D01*
X163176378Y-117128772D01*
X163133808Y-117064028D01*
X163212838Y-116965440D01*
X163374362Y-116822613D01*
X163408755Y-116795740D01*
X163658127Y-116604836D01*
X164282367Y-116868151D01*
X164906608Y-117131466D01*
X165051407Y-117131466D01*
X164982379Y-117059466D01*
X164787743Y-116941252D01*
X164506632Y-116801064D01*
X164359741Y-116735541D01*
X163664356Y-116436089D01*
X163237908Y-116774504D01*
X163237908Y-116774504D01*
G37*
X163237908Y-116774504D02*
X162958504Y-117001278D01*
X162687184Y-117229604D01*
X162538550Y-117359999D01*
X162352136Y-117512005D01*
X162209489Y-117599069D01*
X162178717Y-117607080D01*
X162126213Y-117682450D01*
X162096895Y-117872006D01*
X162094529Y-117966914D01*
X162097265Y-118326747D01*
X164469547Y-119850747D01*
X165039753Y-120215729D01*
X165566769Y-120550521D01*
X166033165Y-120844249D01*
X166421512Y-121086036D01*
X166714378Y-121265008D01*
X166894335Y-121370289D01*
X166943312Y-121394237D01*
X167022129Y-121333962D01*
X167175687Y-121154777D01*
X167386232Y-120879613D01*
X167636013Y-120531399D01*
X167828222Y-120251237D01*
X168119108Y-119816667D01*
X168327517Y-119493424D01*
X168467124Y-119253449D01*
X168551604Y-119068682D01*
X168594632Y-118911063D01*
X168604611Y-118807326D01*
X168426987Y-118807326D01*
X168421566Y-118936581D01*
X168371356Y-119095876D01*
X168263459Y-119309655D01*
X168084977Y-119602362D01*
X167823012Y-119998440D01*
X167713018Y-120160437D01*
X167456624Y-120533173D01*
X167233906Y-120850837D01*
X167061942Y-121089553D01*
X166957808Y-121225447D01*
X166935309Y-121247747D01*
X166858074Y-121203502D01*
X166655737Y-121077975D01*
X166345296Y-120881974D01*
X165943749Y-120626310D01*
X165468096Y-120321791D01*
X164935335Y-119979226D01*
X164580112Y-119750089D01*
X163931971Y-119329968D01*
X163413599Y-118989783D01*
X163011308Y-118719502D01*
X162711414Y-118509089D01*
X162500229Y-118348510D01*
X162364069Y-118227732D01*
X162289247Y-118136719D01*
X162262078Y-118065438D01*
X162261127Y-118049851D01*
X162261127Y-117847269D01*
X162578627Y-118041420D01*
X162733590Y-118137773D01*
X163009250Y-118310832D01*
X163383344Y-118546551D01*
X163833608Y-118830886D01*
X164337778Y-119149789D01*
X164873590Y-119489217D01*
X164878076Y-119492061D01*
X165395556Y-119816489D01*
X165866210Y-120104599D01*
X166271386Y-120345534D01*
X166592435Y-120528436D01*
X166810707Y-120642447D01*
X166907550Y-120676711D01*
X166910076Y-120675023D01*
X166974104Y-120582719D01*
X166986519Y-120564901D01*
X166812368Y-120564901D01*
X166800787Y-120570414D01*
X166723522Y-120510810D01*
X166706127Y-120485747D01*
X166684552Y-120406593D01*
X166696133Y-120401080D01*
X166773399Y-120460684D01*
X166790793Y-120485747D01*
X166812368Y-120564901D01*
X166986519Y-120564901D01*
X167104508Y-120395568D01*
X166558368Y-120395568D01*
X166546787Y-120401080D01*
X166469522Y-120341477D01*
X166452127Y-120316414D01*
X166430552Y-120237259D01*
X166442133Y-120231747D01*
X166519399Y-120291350D01*
X166536793Y-120316414D01*
X166558368Y-120395568D01*
X167104508Y-120395568D01*
X167116686Y-120378091D01*
X167319364Y-120087602D01*
X167543874Y-119766080D01*
X167425793Y-119766080D01*
X167383460Y-119808414D01*
X167341127Y-119766080D01*
X167383460Y-119723747D01*
X167425793Y-119766080D01*
X167543874Y-119766080D01*
X167563680Y-119737716D01*
X167679793Y-119571510D01*
X167721556Y-119512080D01*
X167595127Y-119512080D01*
X167552793Y-119554414D01*
X167510460Y-119512080D01*
X167552793Y-119469747D01*
X167595127Y-119512080D01*
X167721556Y-119512080D01*
X167956871Y-119177225D01*
X168144236Y-118919414D01*
X168018460Y-118919414D01*
X167976127Y-118961747D01*
X167933793Y-118919414D01*
X167976127Y-118877080D01*
X168018460Y-118919414D01*
X168144236Y-118919414D01*
X168152934Y-118907446D01*
X168282769Y-118747051D01*
X168361162Y-118680919D01*
X168402899Y-118693928D01*
X168422765Y-118770954D01*
X168426987Y-118807326D01*
X168604611Y-118807326D01*
X168609883Y-118752533D01*
X168611093Y-118665414D01*
X168187793Y-118665414D01*
X168145460Y-118707747D01*
X168103127Y-118665414D01*
X168145460Y-118623080D01*
X168187793Y-118665414D01*
X168611093Y-118665414D01*
X168611388Y-118644247D01*
X168604482Y-118544453D01*
X168018460Y-118544453D01*
X167972946Y-118629704D01*
X167848773Y-118825205D01*
X167664496Y-119102561D01*
X167438667Y-119433373D01*
X167420535Y-119459601D01*
X166822611Y-120323725D01*
X166611407Y-120195371D01*
X166325127Y-120195371D01*
X166262902Y-120194796D01*
X166155793Y-120147080D01*
X166022735Y-120059644D01*
X165986460Y-120014122D01*
X166048685Y-120014698D01*
X166155793Y-120062414D01*
X166288852Y-120149850D01*
X166325127Y-120195371D01*
X166611407Y-120195371D01*
X166510369Y-120133968D01*
X166281856Y-119994422D01*
X166245689Y-119972234D01*
X165881035Y-119972234D01*
X165869454Y-119977747D01*
X165792188Y-119918143D01*
X165774793Y-119893080D01*
X165753219Y-119813926D01*
X165764800Y-119808414D01*
X165842065Y-119868017D01*
X165859460Y-119893080D01*
X165881035Y-119972234D01*
X166245689Y-119972234D01*
X165972978Y-119804934D01*
X165909844Y-119766080D01*
X165647793Y-119766080D01*
X165605460Y-119808414D01*
X165563127Y-119766080D01*
X165605460Y-119723747D01*
X165647793Y-119766080D01*
X165909844Y-119766080D01*
X165647419Y-119604581D01*
X165634715Y-119596747D01*
X165393793Y-119596747D01*
X165351460Y-119639080D01*
X165309127Y-119596747D01*
X165351460Y-119554414D01*
X165393793Y-119596747D01*
X165634715Y-119596747D01*
X165621594Y-119588657D01*
X165497425Y-119512080D01*
X165224460Y-119512080D01*
X165182127Y-119554414D01*
X165139793Y-119512080D01*
X165182127Y-119469747D01*
X165224460Y-119512080D01*
X165497425Y-119512080D01*
X165045062Y-119233102D01*
X165241800Y-119004080D01*
X165055127Y-119004080D01*
X165012793Y-119046414D01*
X164970460Y-119004080D01*
X165012793Y-118961747D01*
X165055127Y-119004080D01*
X165241800Y-119004080D01*
X165325261Y-118906925D01*
X165521120Y-118691515D01*
X165612701Y-118601448D01*
X165374937Y-118601448D01*
X165370963Y-118670353D01*
X165327653Y-118728914D01*
X165195095Y-118857452D01*
X165145380Y-118850897D01*
X165170411Y-118750080D01*
X165165396Y-118641413D01*
X165122636Y-118623080D01*
X164990738Y-118570779D01*
X164866125Y-118478280D01*
X164736844Y-118384362D01*
X164653196Y-118413287D01*
X164618638Y-118457113D01*
X164555442Y-118535051D01*
X164566789Y-118467426D01*
X164572422Y-118449242D01*
X164532508Y-118314778D01*
X164419625Y-118242080D01*
X164123793Y-118242080D01*
X164081460Y-118284414D01*
X164039127Y-118242080D01*
X164081460Y-118199747D01*
X164123793Y-118242080D01*
X164419625Y-118242080D01*
X164368743Y-118209312D01*
X164276927Y-118157414D01*
X163954460Y-118157414D01*
X163912127Y-118199747D01*
X163869793Y-118157414D01*
X163912127Y-118115080D01*
X163954460Y-118157414D01*
X164276927Y-118157414D01*
X164198546Y-118113110D01*
X164123936Y-118029620D01*
X164123793Y-118027026D01*
X164193952Y-118027166D01*
X164381583Y-118090132D01*
X164652420Y-118203592D01*
X164790442Y-118266956D01*
X165108377Y-118420130D01*
X165295309Y-118524833D01*
X165374937Y-118601448D01*
X165612701Y-118601448D01*
X165697779Y-118517778D01*
X165759314Y-118466129D01*
X165862411Y-118328388D01*
X165863768Y-118291952D01*
X165732460Y-118291952D01*
X165663746Y-118280789D01*
X165480331Y-118203698D01*
X165216308Y-118075587D01*
X165097460Y-118014284D01*
X164809301Y-117859284D01*
X164589423Y-117733389D01*
X164472602Y-117656822D01*
X164462460Y-117645005D01*
X164532149Y-117662896D01*
X164717980Y-117742192D01*
X164985101Y-117867653D01*
X165097460Y-117922673D01*
X165387463Y-118072288D01*
X165607960Y-118197693D01*
X165723431Y-118278231D01*
X165732460Y-118291952D01*
X165863768Y-118291952D01*
X165866117Y-118228898D01*
X165865228Y-118148976D01*
X165906811Y-118160514D01*
X166018501Y-118142985D01*
X166178766Y-118029421D01*
X166205859Y-118003439D01*
X166247216Y-117962082D01*
X165986016Y-117962082D01*
X165915594Y-117958577D01*
X165728532Y-117896532D01*
X165461814Y-117788634D01*
X165393793Y-117758976D01*
X165111887Y-117626552D01*
X164902694Y-117513218D01*
X164804199Y-117439933D01*
X164801127Y-117431929D01*
X164871402Y-117433030D01*
X165057738Y-117494517D01*
X165323397Y-117603791D01*
X165393350Y-117635035D01*
X165674580Y-117769537D01*
X165883617Y-117882952D01*
X165982709Y-117954448D01*
X165986016Y-117962082D01*
X166247216Y-117962082D01*
X166417163Y-117792135D01*
X167217812Y-118142783D01*
X167549842Y-118292819D01*
X167814659Y-118421279D01*
X167979697Y-118511826D01*
X168018460Y-118544453D01*
X168604482Y-118544453D01*
X168591370Y-118355000D01*
X168535274Y-118215007D01*
X168448406Y-118231249D01*
X168375341Y-118333527D01*
X168325529Y-118381702D01*
X168233198Y-118388108D01*
X168072240Y-118345272D01*
X167816548Y-118245722D01*
X167440015Y-118081985D01*
X167339119Y-118036943D01*
X166902376Y-117847938D01*
X166598265Y-117732786D01*
X166409782Y-117686067D01*
X166319927Y-117702362D01*
X166313777Y-117710111D01*
X166214280Y-117725433D01*
X166014164Y-117673700D01*
X165757871Y-117575206D01*
X165489847Y-117450246D01*
X165254534Y-117319116D01*
X165096378Y-117202111D01*
X165055127Y-117135347D01*
X165051407Y-117131466D01*
X164906608Y-117131466D01*
X164705701Y-117284988D01*
X164538068Y-117420361D01*
X164298309Y-117622567D01*
X164060293Y-117828668D01*
X163780060Y-118090440D01*
X163638033Y-118263784D01*
X163631016Y-118353437D01*
X163695570Y-118369080D01*
X163828370Y-118414810D01*
X164042018Y-118532873D01*
X164294808Y-118694576D01*
X164545033Y-118871230D01*
X164750987Y-119034142D01*
X164870961Y-119154620D01*
X164885793Y-119187867D01*
X164837871Y-119265901D01*
X164779960Y-119247991D01*
X164659211Y-119174298D01*
X164440439Y-119038746D01*
X164169054Y-118869479D01*
X164144960Y-118854404D01*
X163888595Y-118685297D01*
X163700616Y-118544782D01*
X163617098Y-118460125D01*
X163615793Y-118454472D01*
X163551114Y-118368884D01*
X163390692Y-118242699D01*
X163340627Y-118209488D01*
X163182586Y-118098766D01*
X163130149Y-118044408D01*
X163065460Y-118044408D01*
X162769127Y-117853162D01*
X162580140Y-117731114D01*
X162463663Y-117655741D01*
X162449581Y-117646564D01*
X162486736Y-117589614D01*
X162571667Y-117513312D01*
X162670878Y-117441663D01*
X162663264Y-117483740D01*
X162647586Y-117510626D01*
X162656096Y-117649721D01*
X162821833Y-117835124D01*
X163065460Y-118044408D01*
X163130149Y-118044408D01*
X163122635Y-118036619D01*
X163130109Y-118031840D01*
X163246221Y-118071214D01*
X163360082Y-118133660D01*
X163484552Y-118183051D01*
X163608624Y-118139948D01*
X163782267Y-117990820D01*
X163866497Y-117903414D01*
X163277127Y-117903414D01*
X163234793Y-117945747D01*
X163192460Y-117903414D01*
X163234793Y-117861080D01*
X163277127Y-117903414D01*
X163866497Y-117903414D01*
X163941638Y-117825440D01*
X164031671Y-117707392D01*
X164039127Y-117686286D01*
X164022477Y-117670222D01*
X163659327Y-117670222D01*
X163613244Y-117798573D01*
X163527065Y-117861080D01*
X163422774Y-117799501D01*
X163398277Y-117766947D01*
X163406489Y-117657770D01*
X163507124Y-117572410D01*
X163627420Y-117571959D01*
X163629220Y-117573045D01*
X163659327Y-117670222D01*
X164022477Y-117670222D01*
X163970074Y-117619665D01*
X163790267Y-117504558D01*
X163669612Y-117437747D01*
X163107793Y-117437747D01*
X163039217Y-117512861D01*
X162980793Y-117522414D01*
X162868122Y-117476696D01*
X162853793Y-117437747D01*
X162922370Y-117362632D01*
X162980793Y-117353080D01*
X163093465Y-117398798D01*
X163107793Y-117437747D01*
X163669612Y-117437747D01*
X163573679Y-117384626D01*
X163334921Y-117246483D01*
X163176378Y-117128772D01*
X163133808Y-117064028D01*
X163212838Y-116965440D01*
X163374362Y-116822613D01*
X163408755Y-116795740D01*
X163658127Y-116604836D01*
X164282367Y-116868151D01*
X164906608Y-117131466D01*
X165051407Y-117131466D01*
X164982379Y-117059466D01*
X164787743Y-116941252D01*
X164506632Y-116801064D01*
X164359741Y-116735541D01*
X163664356Y-116436089D01*
X163237908Y-116774504D01*
G04 #@! TO.C,BZ1*
D10*
X137759152Y-102289451D02*
X137616295Y-102337070D01*
X137568676Y-102384689D01*
X137521057Y-102479927D01*
X137521057Y-102622784D01*
X137568676Y-102718022D01*
X137616295Y-102765641D01*
X137711533Y-102813260D01*
X138092485Y-102813260D01*
X138092485Y-101813260D01*
X137759152Y-101813260D01*
X137663914Y-101860880D01*
X137616295Y-101908499D01*
X137568676Y-102003737D01*
X137568676Y-102098975D01*
X137616295Y-102194213D01*
X137663914Y-102241832D01*
X137759152Y-102289451D01*
X138092485Y-102289451D01*
X137187723Y-101813260D02*
X136521057Y-101813260D01*
X137187723Y-102813260D01*
X136521057Y-102813260D01*
X135616295Y-102813260D02*
X136187723Y-102813260D01*
X135902009Y-102813260D02*
X135902009Y-101813260D01*
X135997247Y-101956118D01*
X136092485Y-102051356D01*
X136187723Y-102098975D01*
X133489952Y-101093728D02*
X132728047Y-101093728D01*
X133109000Y-101474680D02*
X133109000Y-100712776D01*
G04 #@! TD*
M02*
