G04 #@! TF.GenerationSoftware,KiCad,Pcbnew,(5.0.0)*
G04 #@! TF.CreationDate,2018-09-03T12:55:52-05:00*
G04 #@! TF.ProjectId,YAPS_Arduino_Shield_AVR,594150535F41726475696E6F5F536869,1.0*
G04 #@! TF.SameCoordinates,Original*
G04 #@! TF.FileFunction,Legend,Bot*
G04 #@! TF.FilePolarity,Positive*
%FSLAX46Y46*%
G04 Gerber Fmt 4.6, Leading zero omitted, Abs format (unit mm)*
G04 Created by KiCad (PCBNEW (5.0.0)) date 09/03/18 12:55:52*
%MOMM*%
%LPD*%
G01*
G04 APERTURE LIST*
%ADD10C,0.150000*%
%ADD11C,0.200000*%
%ADD12C,0.120000*%
%ADD13C,0.010000*%
G04 APERTURE END LIST*
D10*
X177502511Y-95025318D02*
X177550130Y-95168175D01*
X177597749Y-95215794D01*
X177692987Y-95263413D01*
X177835844Y-95263413D01*
X177931082Y-95215794D01*
X177978701Y-95168175D01*
X178026320Y-95072937D01*
X178026320Y-94691984D01*
X177026320Y-94691984D01*
X177026320Y-95025318D01*
X177073940Y-95120556D01*
X177121559Y-95168175D01*
X177216797Y-95215794D01*
X177312035Y-95215794D01*
X177407273Y-95168175D01*
X177454892Y-95120556D01*
X177502511Y-95025318D01*
X177502511Y-94691984D01*
X177740606Y-95644365D02*
X177740606Y-96120556D01*
X178026320Y-95549127D02*
X177026320Y-95882460D01*
X178026320Y-96215794D01*
X177931082Y-97120556D02*
X177978701Y-97072937D01*
X178026320Y-96930080D01*
X178026320Y-96834841D01*
X177978701Y-96691984D01*
X177883463Y-96596746D01*
X177788225Y-96549127D01*
X177597749Y-96501508D01*
X177454892Y-96501508D01*
X177264416Y-96549127D01*
X177169178Y-96596746D01*
X177073940Y-96691984D01*
X177026320Y-96834841D01*
X177026320Y-96930080D01*
X177073940Y-97072937D01*
X177121559Y-97120556D01*
X178026320Y-97549127D02*
X177026320Y-97549127D01*
X178026320Y-98120556D02*
X177454892Y-97691984D01*
X177026320Y-98120556D02*
X177597749Y-97549127D01*
X177978701Y-99263413D02*
X178026320Y-99406270D01*
X178026320Y-99644365D01*
X177978701Y-99739603D01*
X177931082Y-99787222D01*
X177835844Y-99834841D01*
X177740606Y-99834841D01*
X177645368Y-99787222D01*
X177597749Y-99739603D01*
X177550130Y-99644365D01*
X177502511Y-99453889D01*
X177454892Y-99358651D01*
X177407273Y-99311032D01*
X177312035Y-99263413D01*
X177216797Y-99263413D01*
X177121559Y-99311032D01*
X177073940Y-99358651D01*
X177026320Y-99453889D01*
X177026320Y-99691984D01*
X177073940Y-99834841D01*
X178026320Y-100263413D02*
X177026320Y-100263413D01*
X178026320Y-100739603D02*
X177026320Y-100739603D01*
X177026320Y-100977699D01*
X177073940Y-101120556D01*
X177169178Y-101215794D01*
X177264416Y-101263413D01*
X177454892Y-101311032D01*
X177597749Y-101311032D01*
X177788225Y-101263413D01*
X177883463Y-101215794D01*
X177978701Y-101120556D01*
X178026320Y-100977699D01*
X178026320Y-100739603D01*
X177502511Y-101739603D02*
X177502511Y-102072937D01*
X178026320Y-102215794D02*
X178026320Y-101739603D01*
X177026320Y-101739603D01*
X177026320Y-102215794D01*
X142430283Y-116351205D02*
X142430283Y-115351205D01*
X142430283Y-115732158D02*
X142335045Y-115684539D01*
X142144569Y-115684539D01*
X142049331Y-115732158D01*
X142001712Y-115779777D01*
X141954093Y-115875015D01*
X141954093Y-116160729D01*
X142001712Y-116255967D01*
X142049331Y-116303586D01*
X142144569Y-116351205D01*
X142335045Y-116351205D01*
X142430283Y-116303586D01*
X141620760Y-115684539D02*
X141382664Y-116351205D01*
X141144569Y-115684539D02*
X141382664Y-116351205D01*
X141477902Y-116589301D01*
X141525521Y-116636920D01*
X141620760Y-116684539D01*
X140001712Y-115827396D02*
X139668379Y-115827396D01*
X139525521Y-116351205D02*
X140001712Y-116351205D01*
X140001712Y-115351205D01*
X139525521Y-115351205D01*
X138954093Y-116351205D02*
X139049331Y-116303586D01*
X139096950Y-116208348D01*
X139096950Y-115351205D01*
X138144569Y-116351205D02*
X138144569Y-115827396D01*
X138192188Y-115732158D01*
X138287426Y-115684539D01*
X138477902Y-115684539D01*
X138573140Y-115732158D01*
X138144569Y-116303586D02*
X138239807Y-116351205D01*
X138477902Y-116351205D01*
X138573140Y-116303586D01*
X138620760Y-116208348D01*
X138620760Y-116113110D01*
X138573140Y-116017872D01*
X138477902Y-115970253D01*
X138239807Y-115970253D01*
X138144569Y-115922634D01*
X137239807Y-116351205D02*
X137239807Y-115351205D01*
X137239807Y-116303586D02*
X137335045Y-116351205D01*
X137525521Y-116351205D01*
X137620760Y-116303586D01*
X137668379Y-116255967D01*
X137715998Y-116160729D01*
X137715998Y-115875015D01*
X137668379Y-115779777D01*
X137620760Y-115732158D01*
X137525521Y-115684539D01*
X137335045Y-115684539D01*
X137239807Y-115732158D01*
X136763617Y-116351205D02*
X136763617Y-115684539D01*
X136763617Y-115351205D02*
X136811236Y-115398825D01*
X136763617Y-115446444D01*
X136715998Y-115398825D01*
X136763617Y-115351205D01*
X136763617Y-115446444D01*
X136144569Y-116351205D02*
X136239807Y-116303586D01*
X136287426Y-116255967D01*
X136335045Y-116160729D01*
X136335045Y-115875015D01*
X136287426Y-115779777D01*
X136239807Y-115732158D01*
X136144569Y-115684539D01*
X136001712Y-115684539D01*
X135906474Y-115732158D01*
X135858855Y-115779777D01*
X135811236Y-115875015D01*
X135811236Y-116160729D01*
X135858855Y-116255967D01*
X135906474Y-116303586D01*
X136001712Y-116351205D01*
X136144569Y-116351205D01*
X134620760Y-116351205D02*
X134620760Y-115351205D01*
X134287426Y-116065491D01*
X133954093Y-115351205D01*
X133954093Y-116351205D01*
X133049331Y-116351205D02*
X133049331Y-115827396D01*
X133096950Y-115732158D01*
X133192188Y-115684539D01*
X133382664Y-115684539D01*
X133477902Y-115732158D01*
X133049331Y-116303586D02*
X133144569Y-116351205D01*
X133382664Y-116351205D01*
X133477902Y-116303586D01*
X133525521Y-116208348D01*
X133525521Y-116113110D01*
X133477902Y-116017872D01*
X133382664Y-115970253D01*
X133144569Y-115970253D01*
X133049331Y-115922634D01*
X132573140Y-116351205D02*
X132573140Y-115684539D01*
X132573140Y-115875015D02*
X132525521Y-115779777D01*
X132477902Y-115732158D01*
X132382664Y-115684539D01*
X132287426Y-115684539D01*
X132096950Y-115684539D02*
X131715998Y-115684539D01*
X131954093Y-115351205D02*
X131954093Y-116208348D01*
X131906474Y-116303586D01*
X131811236Y-116351205D01*
X131715998Y-116351205D01*
X131382664Y-116351205D02*
X131382664Y-115684539D01*
X131382664Y-115351205D02*
X131430283Y-115398825D01*
X131382664Y-115446444D01*
X131335045Y-115398825D01*
X131382664Y-115351205D01*
X131382664Y-115446444D01*
X130906474Y-115684539D02*
X130906474Y-116351205D01*
X130906474Y-115779777D02*
X130858855Y-115732158D01*
X130763617Y-115684539D01*
X130620760Y-115684539D01*
X130525521Y-115732158D01*
X130477902Y-115827396D01*
X130477902Y-116351205D01*
X129620760Y-116303586D02*
X129715998Y-116351205D01*
X129906474Y-116351205D01*
X130001712Y-116303586D01*
X130049331Y-116208348D01*
X130049331Y-115827396D01*
X130001712Y-115732158D01*
X129906474Y-115684539D01*
X129715998Y-115684539D01*
X129620760Y-115732158D01*
X129573140Y-115827396D01*
X129573140Y-115922634D01*
X130049331Y-116017872D01*
X129239807Y-115684539D02*
X128715998Y-115684539D01*
X129239807Y-116351205D01*
X128715998Y-116351205D01*
X143263617Y-117334539D02*
X143073140Y-118001205D01*
X142882664Y-117525015D01*
X142692188Y-118001205D01*
X142501712Y-117334539D01*
X142215998Y-117334539D02*
X142025521Y-118001205D01*
X141835045Y-117525015D01*
X141644569Y-118001205D01*
X141454093Y-117334539D01*
X141168379Y-117334539D02*
X140977902Y-118001205D01*
X140787426Y-117525015D01*
X140596950Y-118001205D01*
X140406474Y-117334539D01*
X140025521Y-117905967D02*
X139977902Y-117953586D01*
X140025521Y-118001205D01*
X140073140Y-117953586D01*
X140025521Y-117905967D01*
X140025521Y-118001205D01*
X139549331Y-118001205D02*
X139549331Y-117334539D01*
X139549331Y-117429777D02*
X139501712Y-117382158D01*
X139406474Y-117334539D01*
X139263617Y-117334539D01*
X139168379Y-117382158D01*
X139120760Y-117477396D01*
X139120760Y-118001205D01*
X139120760Y-117477396D02*
X139073140Y-117382158D01*
X138977902Y-117334539D01*
X138835045Y-117334539D01*
X138739807Y-117382158D01*
X138692188Y-117477396D01*
X138692188Y-118001205D01*
X138215998Y-118001205D02*
X138215998Y-117334539D01*
X138215998Y-117001205D02*
X138263617Y-117048825D01*
X138215998Y-117096444D01*
X138168379Y-117048825D01*
X138215998Y-117001205D01*
X138215998Y-117096444D01*
X137739807Y-117334539D02*
X137739807Y-118001205D01*
X137739807Y-117429777D02*
X137692188Y-117382158D01*
X137596950Y-117334539D01*
X137454093Y-117334539D01*
X137358855Y-117382158D01*
X137311236Y-117477396D01*
X137311236Y-118001205D01*
X136835045Y-118001205D02*
X136835045Y-117334539D01*
X136835045Y-117001205D02*
X136882664Y-117048825D01*
X136835045Y-117096444D01*
X136787426Y-117048825D01*
X136835045Y-117001205D01*
X136835045Y-117096444D01*
X136358855Y-117620253D02*
X135596950Y-117620253D01*
X135120760Y-118001205D02*
X135120760Y-117334539D01*
X135120760Y-117429777D02*
X135073140Y-117382158D01*
X134977902Y-117334539D01*
X134835045Y-117334539D01*
X134739807Y-117382158D01*
X134692188Y-117477396D01*
X134692188Y-118001205D01*
X134692188Y-117477396D02*
X134644569Y-117382158D01*
X134549331Y-117334539D01*
X134406474Y-117334539D01*
X134311236Y-117382158D01*
X134263617Y-117477396D01*
X134263617Y-118001205D01*
X133644569Y-118001205D02*
X133739807Y-117953586D01*
X133787426Y-117905967D01*
X133835045Y-117810729D01*
X133835045Y-117525015D01*
X133787426Y-117429777D01*
X133739807Y-117382158D01*
X133644569Y-117334539D01*
X133501712Y-117334539D01*
X133406474Y-117382158D01*
X133358855Y-117429777D01*
X133311236Y-117525015D01*
X133311236Y-117810729D01*
X133358855Y-117905967D01*
X133406474Y-117953586D01*
X133501712Y-118001205D01*
X133644569Y-118001205D01*
X132454093Y-118001205D02*
X132454093Y-117001205D01*
X132454093Y-117953586D02*
X132549331Y-118001205D01*
X132739807Y-118001205D01*
X132835045Y-117953586D01*
X132882664Y-117905967D01*
X132930283Y-117810729D01*
X132930283Y-117525015D01*
X132882664Y-117429777D01*
X132835045Y-117382158D01*
X132739807Y-117334539D01*
X132549331Y-117334539D01*
X132454093Y-117382158D01*
X132025521Y-117953586D02*
X131930283Y-118001205D01*
X131739807Y-118001205D01*
X131644569Y-117953586D01*
X131596950Y-117858348D01*
X131596950Y-117810729D01*
X131644569Y-117715491D01*
X131739807Y-117667872D01*
X131882664Y-117667872D01*
X131977902Y-117620253D01*
X132025521Y-117525015D01*
X132025521Y-117477396D01*
X131977902Y-117382158D01*
X131882664Y-117334539D01*
X131739807Y-117334539D01*
X131644569Y-117382158D01*
X131168379Y-117905967D02*
X131120760Y-117953586D01*
X131168379Y-118001205D01*
X131215998Y-117953586D01*
X131168379Y-117905967D01*
X131168379Y-118001205D01*
X130263617Y-117953586D02*
X130358855Y-118001205D01*
X130549331Y-118001205D01*
X130644569Y-117953586D01*
X130692188Y-117905967D01*
X130739807Y-117810729D01*
X130739807Y-117525015D01*
X130692188Y-117429777D01*
X130644569Y-117382158D01*
X130549331Y-117334539D01*
X130358855Y-117334539D01*
X130263617Y-117382158D01*
X129692188Y-118001205D02*
X129787426Y-117953586D01*
X129835045Y-117905967D01*
X129882664Y-117810729D01*
X129882664Y-117525015D01*
X129835045Y-117429777D01*
X129787426Y-117382158D01*
X129692188Y-117334539D01*
X129549331Y-117334539D01*
X129454093Y-117382158D01*
X129406474Y-117429777D01*
X129358855Y-117525015D01*
X129358855Y-117810729D01*
X129406474Y-117905967D01*
X129454093Y-117953586D01*
X129549331Y-118001205D01*
X129692188Y-118001205D01*
X128930283Y-118001205D02*
X128930283Y-117334539D01*
X128930283Y-117429777D02*
X128882664Y-117382158D01*
X128787426Y-117334539D01*
X128644569Y-117334539D01*
X128549331Y-117382158D01*
X128501712Y-117477396D01*
X128501712Y-118001205D01*
X128501712Y-117477396D02*
X128454093Y-117382158D01*
X128358855Y-117334539D01*
X128215998Y-117334539D01*
X128120760Y-117382158D01*
X128073140Y-117477396D01*
X128073140Y-118001205D01*
D11*
X168372308Y-87069740D02*
X167658022Y-87069740D01*
X168515165Y-87498311D02*
X168015165Y-85998311D01*
X167515165Y-87498311D01*
X167229451Y-85998311D02*
X166729451Y-87498311D01*
X166229451Y-85998311D01*
X164872308Y-87498311D02*
X165372308Y-86784025D01*
X165729451Y-87498311D02*
X165729451Y-85998311D01*
X165158022Y-85998311D01*
X165015165Y-86069740D01*
X164943737Y-86141168D01*
X164872308Y-86284025D01*
X164872308Y-86498311D01*
X164943737Y-86641168D01*
X165015165Y-86712597D01*
X165158022Y-86784025D01*
X165729451Y-86784025D01*
X163086594Y-87498311D02*
X163086594Y-85998311D01*
X162515165Y-85998311D01*
X162372308Y-86069740D01*
X162300880Y-86141168D01*
X162229451Y-86284025D01*
X162229451Y-86498311D01*
X162300880Y-86641168D01*
X162372308Y-86712597D01*
X162515165Y-86784025D01*
X163086594Y-86784025D01*
X160729451Y-87498311D02*
X161229451Y-86784025D01*
X161586594Y-87498311D02*
X161586594Y-85998311D01*
X161015165Y-85998311D01*
X160872308Y-86069740D01*
X160800880Y-86141168D01*
X160729451Y-86284025D01*
X160729451Y-86498311D01*
X160800880Y-86641168D01*
X160872308Y-86712597D01*
X161015165Y-86784025D01*
X161586594Y-86784025D01*
X159800880Y-85998311D02*
X159515165Y-85998311D01*
X159372308Y-86069740D01*
X159229451Y-86212597D01*
X159158022Y-86498311D01*
X159158022Y-86998311D01*
X159229451Y-87284025D01*
X159372308Y-87426882D01*
X159515165Y-87498311D01*
X159800880Y-87498311D01*
X159943737Y-87426882D01*
X160086594Y-87284025D01*
X160158022Y-86998311D01*
X160158022Y-86498311D01*
X160086594Y-86212597D01*
X159943737Y-86069740D01*
X159800880Y-85998311D01*
X157729451Y-86069740D02*
X157872308Y-85998311D01*
X158086594Y-85998311D01*
X158300880Y-86069740D01*
X158443737Y-86212597D01*
X158515165Y-86355454D01*
X158586594Y-86641168D01*
X158586594Y-86855454D01*
X158515165Y-87141168D01*
X158443737Y-87284025D01*
X158300880Y-87426882D01*
X158086594Y-87498311D01*
X157943737Y-87498311D01*
X157729451Y-87426882D01*
X157658022Y-87355454D01*
X157658022Y-86855454D01*
X157943737Y-86855454D01*
X156158022Y-87498311D02*
X156658022Y-86784025D01*
X157015165Y-87498311D02*
X157015165Y-85998311D01*
X156443737Y-85998311D01*
X156300880Y-86069740D01*
X156229451Y-86141168D01*
X156158022Y-86284025D01*
X156158022Y-86498311D01*
X156229451Y-86641168D01*
X156300880Y-86712597D01*
X156443737Y-86784025D01*
X157015165Y-86784025D01*
X155586594Y-87069740D02*
X154872308Y-87069740D01*
X155729451Y-87498311D02*
X155229451Y-85998311D01*
X154729451Y-87498311D01*
X154229451Y-87498311D02*
X154229451Y-85998311D01*
X153729451Y-87069740D01*
X153229451Y-85998311D01*
X153229451Y-87498311D01*
X152515165Y-87498311D02*
X152515165Y-85998311D01*
X152015165Y-87069740D01*
X151515165Y-85998311D01*
X151515165Y-87498311D01*
X150800880Y-87498311D02*
X150800880Y-85998311D01*
X150086594Y-87498311D02*
X150086594Y-85998311D01*
X149229451Y-87498311D01*
X149229451Y-85998311D01*
X147729451Y-86069740D02*
X147872308Y-85998311D01*
X148086594Y-85998311D01*
X148300880Y-86069740D01*
X148443737Y-86212597D01*
X148515165Y-86355454D01*
X148586594Y-86641168D01*
X148586594Y-86855454D01*
X148515165Y-87141168D01*
X148443737Y-87284025D01*
X148300880Y-87426882D01*
X148086594Y-87498311D01*
X147943737Y-87498311D01*
X147729451Y-87426882D01*
X147658022Y-87355454D01*
X147658022Y-86855454D01*
X147943737Y-86855454D01*
X145943737Y-87426882D02*
X145729451Y-87498311D01*
X145372308Y-87498311D01*
X145229451Y-87426882D01*
X145158022Y-87355454D01*
X145086594Y-87212597D01*
X145086594Y-87069740D01*
X145158022Y-86926882D01*
X145229451Y-86855454D01*
X145372308Y-86784025D01*
X145658022Y-86712597D01*
X145800880Y-86641168D01*
X145872308Y-86569740D01*
X145943737Y-86426882D01*
X145943737Y-86284025D01*
X145872308Y-86141168D01*
X145800880Y-86069740D01*
X145658022Y-85998311D01*
X145300880Y-85998311D01*
X145086594Y-86069740D01*
X144443737Y-87498311D02*
X144443737Y-85998311D01*
X144443737Y-86712597D02*
X143586594Y-86712597D01*
X143586594Y-87498311D02*
X143586594Y-85998311D01*
X142872308Y-87498311D02*
X142872308Y-85998311D01*
X142158022Y-86712597D02*
X141658022Y-86712597D01*
X141443737Y-87498311D02*
X142158022Y-87498311D01*
X142158022Y-85998311D01*
X141443737Y-85998311D01*
X140086594Y-87498311D02*
X140800880Y-87498311D01*
X140800880Y-85998311D01*
X139586594Y-87498311D02*
X139586594Y-85998311D01*
X139229451Y-85998311D01*
X139015165Y-86069740D01*
X138872308Y-86212597D01*
X138800880Y-86355454D01*
X138729451Y-86641168D01*
X138729451Y-86855454D01*
X138800880Y-87141168D01*
X138872308Y-87284025D01*
X139015165Y-87426882D01*
X139229451Y-87498311D01*
X139586594Y-87498311D01*
X137158022Y-85998311D02*
X136658022Y-87498311D01*
X136158022Y-85998311D01*
X134872308Y-87498311D02*
X135729451Y-87498311D01*
X135300880Y-87498311D02*
X135300880Y-85998311D01*
X135443737Y-86212597D01*
X135586594Y-86355454D01*
X135729451Y-86426882D01*
X134229451Y-87355454D02*
X134158022Y-87426882D01*
X134229451Y-87498311D01*
X134300880Y-87426882D01*
X134229451Y-87355454D01*
X134229451Y-87498311D01*
X133229451Y-85998311D02*
X133086594Y-85998311D01*
X132943737Y-86069740D01*
X132872308Y-86141168D01*
X132800880Y-86284025D01*
X132729451Y-86569740D01*
X132729451Y-86926882D01*
X132800880Y-87212597D01*
X132872308Y-87355454D01*
X132943737Y-87426882D01*
X133086594Y-87498311D01*
X133229451Y-87498311D01*
X133372308Y-87426882D01*
X133443737Y-87355454D01*
X133515165Y-87212597D01*
X133586594Y-86926882D01*
X133586594Y-86569740D01*
X133515165Y-86284025D01*
X133443737Y-86141168D01*
X133372308Y-86069740D01*
X133229451Y-85998311D01*
D10*
X135341192Y-124366280D02*
X135674525Y-123890090D01*
X135912620Y-124366280D02*
X135912620Y-123366280D01*
X135531668Y-123366280D01*
X135436430Y-123413900D01*
X135388811Y-123461519D01*
X135341192Y-123556757D01*
X135341192Y-123699614D01*
X135388811Y-123794852D01*
X135436430Y-123842471D01*
X135531668Y-123890090D01*
X135912620Y-123890090D01*
X135150716Y-124461519D02*
X134388811Y-124461519D01*
X134198335Y-123461519D02*
X134150716Y-123413900D01*
X134055478Y-123366280D01*
X133817382Y-123366280D01*
X133722144Y-123413900D01*
X133674525Y-123461519D01*
X133626906Y-123556757D01*
X133626906Y-123651995D01*
X133674525Y-123794852D01*
X134245954Y-124366280D01*
X133626906Y-124366280D01*
X133007859Y-123366280D02*
X132912620Y-123366280D01*
X132817382Y-123413900D01*
X132769763Y-123461519D01*
X132722144Y-123556757D01*
X132674525Y-123747233D01*
X132674525Y-123985328D01*
X132722144Y-124175804D01*
X132769763Y-124271042D01*
X132817382Y-124318661D01*
X132912620Y-124366280D01*
X133007859Y-124366280D01*
X133103097Y-124318661D01*
X133150716Y-124271042D01*
X133198335Y-124175804D01*
X133245954Y-123985328D01*
X133245954Y-123747233D01*
X133198335Y-123556757D01*
X133150716Y-123461519D01*
X133103097Y-123413900D01*
X133007859Y-123366280D01*
X131722144Y-124366280D02*
X132293573Y-124366280D01*
X132007859Y-124366280D02*
X132007859Y-123366280D01*
X132103097Y-123509138D01*
X132198335Y-123604376D01*
X132293573Y-123651995D01*
X131150716Y-123794852D02*
X131245954Y-123747233D01*
X131293573Y-123699614D01*
X131341192Y-123604376D01*
X131341192Y-123556757D01*
X131293573Y-123461519D01*
X131245954Y-123413900D01*
X131150716Y-123366280D01*
X130960240Y-123366280D01*
X130865001Y-123413900D01*
X130817382Y-123461519D01*
X130769763Y-123556757D01*
X130769763Y-123604376D01*
X130817382Y-123699614D01*
X130865001Y-123747233D01*
X130960240Y-123794852D01*
X131150716Y-123794852D01*
X131245954Y-123842471D01*
X131293573Y-123890090D01*
X131341192Y-123985328D01*
X131341192Y-124175804D01*
X131293573Y-124271042D01*
X131245954Y-124318661D01*
X131150716Y-124366280D01*
X130960240Y-124366280D01*
X130865001Y-124318661D01*
X130817382Y-124271042D01*
X130769763Y-124175804D01*
X130769763Y-123985328D01*
X130817382Y-123890090D01*
X130865001Y-123842471D01*
X130960240Y-123794852D01*
X130150716Y-123366280D02*
X130055478Y-123366280D01*
X129960240Y-123413900D01*
X129912620Y-123461519D01*
X129865001Y-123556757D01*
X129817382Y-123747233D01*
X129817382Y-123985328D01*
X129865001Y-124175804D01*
X129912620Y-124271042D01*
X129960240Y-124318661D01*
X130055478Y-124366280D01*
X130150716Y-124366280D01*
X130245954Y-124318661D01*
X130293573Y-124271042D01*
X130341192Y-124175804D01*
X130388811Y-123985328D01*
X130388811Y-123747233D01*
X130341192Y-123556757D01*
X130293573Y-123461519D01*
X130245954Y-123413900D01*
X130150716Y-123366280D01*
X129341192Y-124366280D02*
X129150716Y-124366280D01*
X129055478Y-124318661D01*
X129007859Y-124271042D01*
X128912620Y-124128185D01*
X128865001Y-123937709D01*
X128865001Y-123556757D01*
X128912620Y-123461519D01*
X128960240Y-123413900D01*
X129055478Y-123366280D01*
X129245954Y-123366280D01*
X129341192Y-123413900D01*
X129388811Y-123461519D01*
X129436430Y-123556757D01*
X129436430Y-123794852D01*
X129388811Y-123890090D01*
X129341192Y-123937709D01*
X129245954Y-123985328D01*
X129055478Y-123985328D01*
X128960240Y-123937709D01*
X128912620Y-123890090D01*
X128865001Y-123794852D01*
X128245954Y-123366280D02*
X128150716Y-123366280D01*
X128055478Y-123413900D01*
X128007859Y-123461519D01*
X127960240Y-123556757D01*
X127912620Y-123747233D01*
X127912620Y-123985328D01*
X127960240Y-124175804D01*
X128007859Y-124271042D01*
X128055478Y-124318661D01*
X128150716Y-124366280D01*
X128245954Y-124366280D01*
X128341192Y-124318661D01*
X128388811Y-124271042D01*
X128436430Y-124175804D01*
X128484049Y-123985328D01*
X128484049Y-123747233D01*
X128436430Y-123556757D01*
X128388811Y-123461519D01*
X128341192Y-123413900D01*
X128245954Y-123366280D01*
X127531668Y-123461519D02*
X127484049Y-123413900D01*
X127388811Y-123366280D01*
X127150716Y-123366280D01*
X127055478Y-123413900D01*
X127007859Y-123461519D01*
X126960240Y-123556757D01*
X126960240Y-123651995D01*
X127007859Y-123794852D01*
X127579287Y-124366280D01*
X126960240Y-124366280D01*
X141764188Y-95727733D02*
X141811807Y-95680114D01*
X141907045Y-95537257D01*
X141954664Y-95442019D01*
X142002283Y-95299161D01*
X142049902Y-95061066D01*
X142049902Y-94870590D01*
X142002283Y-94632495D01*
X141954664Y-94489638D01*
X141907045Y-94394400D01*
X141811807Y-94251542D01*
X141764188Y-94203923D01*
X141240379Y-95346780D02*
X141335617Y-95299161D01*
X141383236Y-95251542D01*
X141430855Y-95156304D01*
X141430855Y-94870590D01*
X141383236Y-94775352D01*
X141335617Y-94727733D01*
X141240379Y-94680114D01*
X141097521Y-94680114D01*
X141002283Y-94727733D01*
X140954664Y-94775352D01*
X140907045Y-94870590D01*
X140907045Y-95156304D01*
X140954664Y-95251542D01*
X141002283Y-95299161D01*
X141097521Y-95346780D01*
X141240379Y-95346780D01*
X140478474Y-94680114D02*
X140478474Y-95680114D01*
X140478474Y-94727733D02*
X140383236Y-94680114D01*
X140192760Y-94680114D01*
X140097521Y-94727733D01*
X140049902Y-94775352D01*
X140002283Y-94870590D01*
X140002283Y-95156304D01*
X140049902Y-95251542D01*
X140097521Y-95299161D01*
X140192760Y-95346780D01*
X140383236Y-95346780D01*
X140478474Y-95299161D01*
X139716569Y-94680114D02*
X139335617Y-94680114D01*
X139573712Y-94346780D02*
X139573712Y-95203923D01*
X139526093Y-95299161D01*
X139430855Y-95346780D01*
X139335617Y-95346780D01*
X139002283Y-95251542D02*
X138954664Y-95299161D01*
X139002283Y-95346780D01*
X139049902Y-95299161D01*
X139002283Y-95251542D01*
X139002283Y-95346780D01*
X138621331Y-95727733D02*
X138573712Y-95680114D01*
X138478474Y-95537257D01*
X138430855Y-95442019D01*
X138383236Y-95299161D01*
X138335617Y-95061066D01*
X138335617Y-94870590D01*
X138383236Y-94632495D01*
X138430855Y-94489638D01*
X138478474Y-94394400D01*
X138573712Y-94251542D01*
X138621331Y-94203923D01*
D12*
G04 #@! TO.C,P4*
X155388000Y-74235000D02*
X155388000Y-75565000D01*
X156718000Y-74235000D02*
X155388000Y-74235000D01*
X157988000Y-74235000D02*
X157988000Y-76895000D01*
X157988000Y-76895000D02*
X175828000Y-76895000D01*
X157988000Y-74235000D02*
X175828000Y-74235000D01*
X175828000Y-74235000D02*
X175828000Y-76895000D01*
G04 #@! TO.C,P3*
X128464000Y-74235000D02*
X128464000Y-75565000D01*
X129794000Y-74235000D02*
X128464000Y-74235000D01*
X131064000Y-74235000D02*
X131064000Y-76895000D01*
X131064000Y-76895000D02*
X153984000Y-76895000D01*
X131064000Y-74235000D02*
X153984000Y-74235000D01*
X153984000Y-74235000D02*
X153984000Y-76895000D01*
G04 #@! TO.C,P2*
X160468000Y-122495000D02*
X160468000Y-123825000D01*
X161798000Y-122495000D02*
X160468000Y-122495000D01*
X163068000Y-122495000D02*
X163068000Y-125155000D01*
X163068000Y-125155000D02*
X175828000Y-125155000D01*
X163068000Y-122495000D02*
X175828000Y-122495000D01*
X175828000Y-122495000D02*
X175828000Y-125155000D01*
G04 #@! TO.C,P1*
X137608000Y-122495000D02*
X137608000Y-123825000D01*
X138938000Y-122495000D02*
X137608000Y-122495000D01*
X140208000Y-122495000D02*
X140208000Y-125155000D01*
X140208000Y-125155000D02*
X158048000Y-125155000D01*
X140208000Y-122495000D02*
X158048000Y-122495000D01*
X158048000Y-122495000D02*
X158048000Y-125155000D01*
G04 #@! TO.C,BZ1*
X146275000Y-97858600D02*
G75*
G03X146275000Y-97858600I-6100000J0D01*
G01*
D13*
G04 #@! TO.C,G01*
G36*
X166551523Y-118403948D02*
X166534518Y-118426562D01*
X166423798Y-118529827D01*
X166293701Y-118501857D01*
X166243376Y-118472797D01*
X166111137Y-118416950D01*
X165996812Y-118460472D01*
X165859895Y-118599797D01*
X165703851Y-118792787D01*
X165662641Y-118910568D01*
X165729960Y-118996247D01*
X165795960Y-119036933D01*
X165893322Y-119124758D01*
X165839540Y-119226145D01*
X165838293Y-119227407D01*
X165749014Y-119346760D01*
X165771469Y-119448748D01*
X165922680Y-119571793D01*
X166017620Y-119632175D01*
X166221798Y-119755365D01*
X166332765Y-119793846D01*
X166403353Y-119748609D01*
X166473770Y-119640748D01*
X166577785Y-119527576D01*
X166715183Y-119537943D01*
X166784989Y-119567174D01*
X166936887Y-119612616D01*
X167061896Y-119563137D01*
X167205971Y-119417340D01*
X167365705Y-119220615D01*
X167409528Y-119100050D01*
X167386065Y-119069767D01*
X167041301Y-119069767D01*
X167034919Y-119168617D01*
X166983438Y-119256875D01*
X166896755Y-119244869D01*
X166772462Y-119169188D01*
X166616726Y-119082342D01*
X166522179Y-119104737D01*
X166439219Y-119208483D01*
X166285697Y-119363921D01*
X166159970Y-119357854D01*
X166119389Y-119310007D01*
X166136251Y-119202226D01*
X166199059Y-119130306D01*
X166312368Y-118991644D01*
X166291349Y-118897797D01*
X166203124Y-118877080D01*
X166054641Y-118818551D01*
X166005407Y-118688144D01*
X166027722Y-118624814D01*
X166134312Y-118594462D01*
X166239649Y-118642223D01*
X166385762Y-118694274D01*
X166528782Y-118624261D01*
X166576391Y-118583223D01*
X166727780Y-118481035D01*
X166837221Y-118509672D01*
X166852061Y-118523481D01*
X166907201Y-118638781D01*
X166850060Y-118724680D01*
X166755832Y-118863556D01*
X166820341Y-118952399D01*
X166918143Y-118986370D01*
X167041301Y-119069767D01*
X167386065Y-119069767D01*
X167341679Y-119012482D01*
X167250994Y-118958821D01*
X167133639Y-118866605D01*
X167161572Y-118763420D01*
X167178392Y-118742130D01*
X167243003Y-118654788D01*
X167234238Y-118591457D01*
X167125119Y-118516513D01*
X166931528Y-118416163D01*
X166741175Y-118328122D01*
X166635658Y-118323497D01*
X166551523Y-118403948D01*
X166551523Y-118403948D01*
G37*
X166551523Y-118403948D02*
X166534518Y-118426562D01*
X166423798Y-118529827D01*
X166293701Y-118501857D01*
X166243376Y-118472797D01*
X166111137Y-118416950D01*
X165996812Y-118460472D01*
X165859895Y-118599797D01*
X165703851Y-118792787D01*
X165662641Y-118910568D01*
X165729960Y-118996247D01*
X165795960Y-119036933D01*
X165893322Y-119124758D01*
X165839540Y-119226145D01*
X165838293Y-119227407D01*
X165749014Y-119346760D01*
X165771469Y-119448748D01*
X165922680Y-119571793D01*
X166017620Y-119632175D01*
X166221798Y-119755365D01*
X166332765Y-119793846D01*
X166403353Y-119748609D01*
X166473770Y-119640748D01*
X166577785Y-119527576D01*
X166715183Y-119537943D01*
X166784989Y-119567174D01*
X166936887Y-119612616D01*
X167061896Y-119563137D01*
X167205971Y-119417340D01*
X167365705Y-119220615D01*
X167409528Y-119100050D01*
X167386065Y-119069767D01*
X167041301Y-119069767D01*
X167034919Y-119168617D01*
X166983438Y-119256875D01*
X166896755Y-119244869D01*
X166772462Y-119169188D01*
X166616726Y-119082342D01*
X166522179Y-119104737D01*
X166439219Y-119208483D01*
X166285697Y-119363921D01*
X166159970Y-119357854D01*
X166119389Y-119310007D01*
X166136251Y-119202226D01*
X166199059Y-119130306D01*
X166312368Y-118991644D01*
X166291349Y-118897797D01*
X166203124Y-118877080D01*
X166054641Y-118818551D01*
X166005407Y-118688144D01*
X166027722Y-118624814D01*
X166134312Y-118594462D01*
X166239649Y-118642223D01*
X166385762Y-118694274D01*
X166528782Y-118624261D01*
X166576391Y-118583223D01*
X166727780Y-118481035D01*
X166837221Y-118509672D01*
X166852061Y-118523481D01*
X166907201Y-118638781D01*
X166850060Y-118724680D01*
X166755832Y-118863556D01*
X166820341Y-118952399D01*
X166918143Y-118986370D01*
X167041301Y-119069767D01*
X167386065Y-119069767D01*
X167341679Y-119012482D01*
X167250994Y-118958821D01*
X167133639Y-118866605D01*
X167161572Y-118763420D01*
X167178392Y-118742130D01*
X167243003Y-118654788D01*
X167234238Y-118591457D01*
X167125119Y-118516513D01*
X166931528Y-118416163D01*
X166741175Y-118328122D01*
X166635658Y-118323497D01*
X166551523Y-118403948D01*
G36*
X158197127Y-115490414D02*
X159128460Y-115490414D01*
X159128460Y-112188414D01*
X158197127Y-112188414D01*
X158197127Y-115490414D01*
X158197127Y-115490414D01*
G37*
X158197127Y-115490414D02*
X159128460Y-115490414D01*
X159128460Y-112188414D01*
X158197127Y-112188414D01*
X158197127Y-115490414D01*
G36*
X159382460Y-115490414D02*
X160311533Y-115490414D01*
X161118127Y-114100512D01*
X161142718Y-114795463D01*
X161167308Y-115490414D01*
X162091793Y-115490414D01*
X162091793Y-113839414D01*
X161634598Y-113839414D01*
X161633011Y-114226135D01*
X161628479Y-114492307D01*
X161621576Y-114624867D01*
X161612874Y-114610749D01*
X161605673Y-114499450D01*
X161594769Y-114085664D01*
X161595288Y-113612831D01*
X161605457Y-113229450D01*
X161615033Y-113082986D01*
X161623296Y-113093922D01*
X161629677Y-113250328D01*
X161633605Y-113540272D01*
X161634598Y-113839414D01*
X162091793Y-113839414D01*
X162091793Y-112188414D01*
X161604960Y-112189132D01*
X161118127Y-112189851D01*
X160718365Y-112887632D01*
X160318602Y-113585414D01*
X160316198Y-112886914D01*
X160313793Y-112188414D01*
X159382460Y-112188414D01*
X159382460Y-115490414D01*
X159382460Y-115490414D01*
G37*
X159382460Y-115490414D02*
X160311533Y-115490414D01*
X161118127Y-114100512D01*
X161142718Y-114795463D01*
X161167308Y-115490414D01*
X162091793Y-115490414D01*
X162091793Y-113839414D01*
X161634598Y-113839414D01*
X161633011Y-114226135D01*
X161628479Y-114492307D01*
X161621576Y-114624867D01*
X161612874Y-114610749D01*
X161605673Y-114499450D01*
X161594769Y-114085664D01*
X161595288Y-113612831D01*
X161605457Y-113229450D01*
X161615033Y-113082986D01*
X161623296Y-113093922D01*
X161629677Y-113250328D01*
X161633605Y-113540272D01*
X161634598Y-113839414D01*
X162091793Y-113839414D01*
X162091793Y-112188414D01*
X161604960Y-112189132D01*
X161118127Y-112189851D01*
X160718365Y-112887632D01*
X160318602Y-113585414D01*
X160316198Y-112886914D01*
X160313793Y-112188414D01*
X159382460Y-112188414D01*
X159382460Y-115490414D01*
G36*
X162261127Y-115490414D02*
X163192460Y-115490414D01*
X163192460Y-112188414D01*
X162261127Y-112188414D01*
X162261127Y-115490414D01*
X162261127Y-115490414D01*
G37*
X162261127Y-115490414D02*
X163192460Y-115490414D01*
X163192460Y-112188414D01*
X162261127Y-112188414D01*
X162261127Y-115490414D01*
G36*
X165687165Y-113079537D02*
X165522965Y-113422795D01*
X165379788Y-113693131D01*
X165273328Y-113862812D01*
X165220014Y-113905037D01*
X165162605Y-113804613D01*
X165053952Y-113584463D01*
X164911057Y-113279834D01*
X164790324Y-113014194D01*
X164420127Y-112188974D01*
X163933293Y-112188694D01*
X163446460Y-112188414D01*
X163446460Y-115490414D01*
X164377793Y-115490414D01*
X164385075Y-114961247D01*
X164392356Y-114432080D01*
X164886356Y-115490414D01*
X165625192Y-115490414D01*
X165886008Y-114918914D01*
X166146823Y-114347414D01*
X166155793Y-115490414D01*
X167087127Y-115490414D01*
X167087127Y-112188414D01*
X166094824Y-112188414D01*
X165687165Y-113079537D01*
X165687165Y-113079537D01*
G37*
X165687165Y-113079537D02*
X165522965Y-113422795D01*
X165379788Y-113693131D01*
X165273328Y-113862812D01*
X165220014Y-113905037D01*
X165162605Y-113804613D01*
X165053952Y-113584463D01*
X164911057Y-113279834D01*
X164790324Y-113014194D01*
X164420127Y-112188974D01*
X163933293Y-112188694D01*
X163446460Y-112188414D01*
X163446460Y-115490414D01*
X164377793Y-115490414D01*
X164385075Y-114961247D01*
X164392356Y-114432080D01*
X164886356Y-115490414D01*
X165625192Y-115490414D01*
X165886008Y-114918914D01*
X166146823Y-114347414D01*
X166155793Y-115490414D01*
X167087127Y-115490414D01*
X167087127Y-112188414D01*
X166094824Y-112188414D01*
X165687165Y-113079537D01*
G36*
X167539337Y-115179315D02*
X167541717Y-115268480D01*
X167597579Y-115315841D01*
X168157400Y-115668538D01*
X168552639Y-116000800D01*
X168783252Y-116309940D01*
X168849194Y-116593270D01*
X168750421Y-116848101D01*
X168486887Y-117071745D01*
X168058549Y-117261513D01*
X167631827Y-117379377D01*
X167321247Y-117467666D01*
X167144624Y-117554237D01*
X167109401Y-117627195D01*
X167223019Y-117674648D01*
X167439905Y-117686083D01*
X167771014Y-117655080D01*
X168104363Y-117586408D01*
X168147234Y-117573741D01*
X168626645Y-117367438D01*
X168696806Y-117310747D01*
X168441793Y-117310747D01*
X168399460Y-117353080D01*
X168357127Y-117310747D01*
X168399460Y-117268414D01*
X168441793Y-117310747D01*
X168696806Y-117310747D01*
X168928732Y-117123349D01*
X168682146Y-117123349D01*
X168661545Y-117170665D01*
X168576295Y-117261559D01*
X168527284Y-117242913D01*
X168526460Y-117231077D01*
X168586597Y-117159464D01*
X168624209Y-117133329D01*
X168682146Y-117123349D01*
X168928732Y-117123349D01*
X168961357Y-117096988D01*
X169081121Y-116921378D01*
X169127440Y-116802747D01*
X169034460Y-116802747D01*
X168992127Y-116845080D01*
X168949793Y-116802747D01*
X168992127Y-116760414D01*
X169034460Y-116802747D01*
X169127440Y-116802747D01*
X169182419Y-116661939D01*
X169176534Y-116434556D01*
X169054443Y-116184499D01*
X168931477Y-116013547D01*
X168749898Y-115825219D01*
X168499578Y-115625721D01*
X168218097Y-115437573D01*
X167943034Y-115283296D01*
X167711971Y-115185407D01*
X167562486Y-115166427D01*
X167539337Y-115179315D01*
X167539337Y-115179315D01*
G37*
X167539337Y-115179315D02*
X167541717Y-115268480D01*
X167597579Y-115315841D01*
X168157400Y-115668538D01*
X168552639Y-116000800D01*
X168783252Y-116309940D01*
X168849194Y-116593270D01*
X168750421Y-116848101D01*
X168486887Y-117071745D01*
X168058549Y-117261513D01*
X167631827Y-117379377D01*
X167321247Y-117467666D01*
X167144624Y-117554237D01*
X167109401Y-117627195D01*
X167223019Y-117674648D01*
X167439905Y-117686083D01*
X167771014Y-117655080D01*
X168104363Y-117586408D01*
X168147234Y-117573741D01*
X168626645Y-117367438D01*
X168696806Y-117310747D01*
X168441793Y-117310747D01*
X168399460Y-117353080D01*
X168357127Y-117310747D01*
X168399460Y-117268414D01*
X168441793Y-117310747D01*
X168696806Y-117310747D01*
X168928732Y-117123349D01*
X168682146Y-117123349D01*
X168661545Y-117170665D01*
X168576295Y-117261559D01*
X168527284Y-117242913D01*
X168526460Y-117231077D01*
X168586597Y-117159464D01*
X168624209Y-117133329D01*
X168682146Y-117123349D01*
X168928732Y-117123349D01*
X168961357Y-117096988D01*
X169081121Y-116921378D01*
X169127440Y-116802747D01*
X169034460Y-116802747D01*
X168992127Y-116845080D01*
X168949793Y-116802747D01*
X168992127Y-116760414D01*
X169034460Y-116802747D01*
X169127440Y-116802747D01*
X169182419Y-116661939D01*
X169176534Y-116434556D01*
X169054443Y-116184499D01*
X168931477Y-116013547D01*
X168749898Y-115825219D01*
X168499578Y-115625721D01*
X168218097Y-115437573D01*
X167943034Y-115283296D01*
X167711971Y-115185407D01*
X167562486Y-115166427D01*
X167539337Y-115179315D01*
G36*
X149467611Y-118369080D02*
X150255202Y-118370377D01*
X150654299Y-118381452D01*
X150968040Y-118410314D01*
X151176352Y-118452570D01*
X151259165Y-118503824D01*
X151196410Y-118559682D01*
X151167421Y-118570111D01*
X151018612Y-118598023D01*
X150763977Y-118627632D01*
X150542011Y-118646288D01*
X150241228Y-118678981D01*
X150040699Y-118744431D01*
X149871363Y-118872930D01*
X149758844Y-118989793D01*
X149591171Y-119194373D01*
X149506838Y-119382085D01*
X149478369Y-119629165D01*
X149476460Y-119773303D01*
X149487953Y-120064143D01*
X149540680Y-120258792D01*
X149662013Y-120429827D01*
X149764327Y-120536547D01*
X150052193Y-120824414D01*
X152101127Y-120824414D01*
X152101127Y-119893080D01*
X151268571Y-119893080D01*
X150908644Y-119887742D01*
X150614845Y-119873377D01*
X150426612Y-119852458D01*
X150380306Y-119837370D01*
X150352098Y-119732265D01*
X150465628Y-119641779D01*
X150693314Y-119578350D01*
X151007574Y-119554414D01*
X151007881Y-119554414D01*
X151313013Y-119541982D01*
X151522194Y-119488771D01*
X151707962Y-119370905D01*
X151799224Y-119293946D01*
X152049826Y-118974995D01*
X152159679Y-118608988D01*
X152130340Y-118235365D01*
X151963367Y-117893567D01*
X151735198Y-117672005D01*
X151601429Y-117587939D01*
X151456267Y-117532577D01*
X151261785Y-117500062D01*
X150980055Y-117484536D01*
X150573149Y-117480142D01*
X150492460Y-117480080D01*
X149518793Y-117480080D01*
X149467611Y-118369080D01*
X149467611Y-118369080D01*
G37*
X149467611Y-118369080D02*
X150255202Y-118370377D01*
X150654299Y-118381452D01*
X150968040Y-118410314D01*
X151176352Y-118452570D01*
X151259165Y-118503824D01*
X151196410Y-118559682D01*
X151167421Y-118570111D01*
X151018612Y-118598023D01*
X150763977Y-118627632D01*
X150542011Y-118646288D01*
X150241228Y-118678981D01*
X150040699Y-118744431D01*
X149871363Y-118872930D01*
X149758844Y-118989793D01*
X149591171Y-119194373D01*
X149506838Y-119382085D01*
X149478369Y-119629165D01*
X149476460Y-119773303D01*
X149487953Y-120064143D01*
X149540680Y-120258792D01*
X149662013Y-120429827D01*
X149764327Y-120536547D01*
X150052193Y-120824414D01*
X152101127Y-120824414D01*
X152101127Y-119893080D01*
X151268571Y-119893080D01*
X150908644Y-119887742D01*
X150614845Y-119873377D01*
X150426612Y-119852458D01*
X150380306Y-119837370D01*
X150352098Y-119732265D01*
X150465628Y-119641779D01*
X150693314Y-119578350D01*
X151007574Y-119554414D01*
X151007881Y-119554414D01*
X151313013Y-119541982D01*
X151522194Y-119488771D01*
X151707962Y-119370905D01*
X151799224Y-119293946D01*
X152049826Y-118974995D01*
X152159679Y-118608988D01*
X152130340Y-118235365D01*
X151963367Y-117893567D01*
X151735198Y-117672005D01*
X151601429Y-117587939D01*
X151456267Y-117532577D01*
X151261785Y-117500062D01*
X150980055Y-117484536D01*
X150573149Y-117480142D01*
X150492460Y-117480080D01*
X149518793Y-117480080D01*
X149467611Y-118369080D01*
G36*
X153942627Y-117451938D02*
X153367315Y-117488574D01*
X152939051Y-117567807D01*
X152636928Y-117710684D01*
X152440038Y-117938251D01*
X152327474Y-118271558D01*
X152278327Y-118731649D01*
X152270460Y-119135247D01*
X152288194Y-119712625D01*
X152355069Y-120143667D01*
X152491597Y-120448931D01*
X152718287Y-120648976D01*
X153055651Y-120764359D01*
X153524199Y-120815641D01*
X153955690Y-120824414D01*
X154895127Y-120824414D01*
X154895127Y-120358747D01*
X153201793Y-120358747D01*
X153159460Y-120401080D01*
X153117127Y-120358747D01*
X153159460Y-120316414D01*
X153201793Y-120358747D01*
X154895127Y-120358747D01*
X154895127Y-119902816D01*
X153963793Y-119902816D01*
X153603960Y-119876782D01*
X153244127Y-119850747D01*
X153219150Y-119180765D01*
X153219041Y-119173414D01*
X152748407Y-119173414D01*
X152745272Y-119454996D01*
X152737187Y-119607496D01*
X152725508Y-119615928D01*
X152716122Y-119530692D01*
X152703311Y-119191784D01*
X152710756Y-118848718D01*
X152716592Y-118768692D01*
X152730139Y-118689530D01*
X152740789Y-118762400D01*
X152747181Y-118970006D01*
X152748407Y-119173414D01*
X153219041Y-119173414D01*
X153213582Y-118805966D01*
X153242720Y-118568598D01*
X153324568Y-118437586D01*
X153477128Y-118381852D01*
X153688627Y-118370377D01*
X153963793Y-118369080D01*
X153963793Y-119902816D01*
X154895127Y-119902816D01*
X154895127Y-117419471D01*
X153942627Y-117451938D01*
X153942627Y-117451938D01*
G37*
X153942627Y-117451938D02*
X153367315Y-117488574D01*
X152939051Y-117567807D01*
X152636928Y-117710684D01*
X152440038Y-117938251D01*
X152327474Y-118271558D01*
X152278327Y-118731649D01*
X152270460Y-119135247D01*
X152288194Y-119712625D01*
X152355069Y-120143667D01*
X152491597Y-120448931D01*
X152718287Y-120648976D01*
X153055651Y-120764359D01*
X153524199Y-120815641D01*
X153955690Y-120824414D01*
X154895127Y-120824414D01*
X154895127Y-120358747D01*
X153201793Y-120358747D01*
X153159460Y-120401080D01*
X153117127Y-120358747D01*
X153159460Y-120316414D01*
X153201793Y-120358747D01*
X154895127Y-120358747D01*
X154895127Y-119902816D01*
X153963793Y-119902816D01*
X153603960Y-119876782D01*
X153244127Y-119850747D01*
X153219150Y-119180765D01*
X153219041Y-119173414D01*
X152748407Y-119173414D01*
X152745272Y-119454996D01*
X152737187Y-119607496D01*
X152725508Y-119615928D01*
X152716122Y-119530692D01*
X152703311Y-119191784D01*
X152710756Y-118848718D01*
X152716592Y-118768692D01*
X152730139Y-118689530D01*
X152740789Y-118762400D01*
X152747181Y-118970006D01*
X152748407Y-119173414D01*
X153219041Y-119173414D01*
X153213582Y-118805966D01*
X153242720Y-118568598D01*
X153324568Y-118437586D01*
X153477128Y-118381852D01*
X153688627Y-118370377D01*
X153963793Y-118369080D01*
X153963793Y-119902816D01*
X154895127Y-119902816D01*
X154895127Y-117419471D01*
X153942627Y-117451938D01*
G36*
X155971359Y-117509721D02*
X155579805Y-117611542D01*
X155305635Y-117804885D01*
X155129074Y-118109095D01*
X155030350Y-118543517D01*
X154996195Y-118951315D01*
X154994399Y-119541949D01*
X155056288Y-119996758D01*
X155187710Y-120339069D01*
X155394513Y-120592207D01*
X155411222Y-120606566D01*
X155549283Y-120710716D01*
X155690928Y-120775009D01*
X155880756Y-120808731D01*
X156163370Y-120821166D01*
X156446790Y-120822161D01*
X156879750Y-120810694D01*
X157181507Y-120775666D01*
X157389213Y-120711690D01*
X157455814Y-120675841D01*
X157661867Y-120506711D01*
X157754301Y-120358747D01*
X155911127Y-120358747D01*
X155868793Y-120401080D01*
X155826460Y-120358747D01*
X155868793Y-120316414D01*
X155911127Y-120358747D01*
X157754301Y-120358747D01*
X157804309Y-120278698D01*
X157892335Y-119962731D01*
X157935142Y-119529737D01*
X157942354Y-119173414D01*
X157489741Y-119173414D01*
X157486605Y-119454996D01*
X157478520Y-119607496D01*
X157466841Y-119615928D01*
X157457456Y-119530692D01*
X157444644Y-119191784D01*
X157444758Y-119186512D01*
X157011793Y-119186512D01*
X157011793Y-119901160D01*
X156482627Y-119875954D01*
X155953460Y-119850747D01*
X155928426Y-119229082D01*
X155926616Y-118836346D01*
X155969933Y-118582317D01*
X156074541Y-118438863D01*
X156256604Y-118377852D01*
X156422569Y-118369080D01*
X156693886Y-118376922D01*
X156865813Y-118421387D01*
X156960991Y-118533883D01*
X157002059Y-118745819D01*
X157011657Y-119088604D01*
X157011793Y-119186512D01*
X157444758Y-119186512D01*
X157452089Y-118848718D01*
X157457925Y-118768692D01*
X157471473Y-118689530D01*
X157482122Y-118762400D01*
X157488515Y-118970006D01*
X157489741Y-119173414D01*
X157942354Y-119173414D01*
X157943127Y-119135247D01*
X157921650Y-118560214D01*
X157845915Y-118130908D01*
X157698967Y-117827881D01*
X157463851Y-117631686D01*
X157123612Y-117522876D01*
X156661295Y-117482003D01*
X156500070Y-117480080D01*
X155971359Y-117509721D01*
X155971359Y-117509721D01*
G37*
X155971359Y-117509721D02*
X155579805Y-117611542D01*
X155305635Y-117804885D01*
X155129074Y-118109095D01*
X155030350Y-118543517D01*
X154996195Y-118951315D01*
X154994399Y-119541949D01*
X155056288Y-119996758D01*
X155187710Y-120339069D01*
X155394513Y-120592207D01*
X155411222Y-120606566D01*
X155549283Y-120710716D01*
X155690928Y-120775009D01*
X155880756Y-120808731D01*
X156163370Y-120821166D01*
X156446790Y-120822161D01*
X156879750Y-120810694D01*
X157181507Y-120775666D01*
X157389213Y-120711690D01*
X157455814Y-120675841D01*
X157661867Y-120506711D01*
X157754301Y-120358747D01*
X155911127Y-120358747D01*
X155868793Y-120401080D01*
X155826460Y-120358747D01*
X155868793Y-120316414D01*
X155911127Y-120358747D01*
X157754301Y-120358747D01*
X157804309Y-120278698D01*
X157892335Y-119962731D01*
X157935142Y-119529737D01*
X157942354Y-119173414D01*
X157489741Y-119173414D01*
X157486605Y-119454996D01*
X157478520Y-119607496D01*
X157466841Y-119615928D01*
X157457456Y-119530692D01*
X157444644Y-119191784D01*
X157444758Y-119186512D01*
X157011793Y-119186512D01*
X157011793Y-119901160D01*
X156482627Y-119875954D01*
X155953460Y-119850747D01*
X155928426Y-119229082D01*
X155926616Y-118836346D01*
X155969933Y-118582317D01*
X156074541Y-118438863D01*
X156256604Y-118377852D01*
X156422569Y-118369080D01*
X156693886Y-118376922D01*
X156865813Y-118421387D01*
X156960991Y-118533883D01*
X157002059Y-118745819D01*
X157011657Y-119088604D01*
X157011793Y-119186512D01*
X157444758Y-119186512D01*
X157452089Y-118848718D01*
X157457925Y-118768692D01*
X157471473Y-118689530D01*
X157482122Y-118762400D01*
X157488515Y-118970006D01*
X157489741Y-119173414D01*
X157942354Y-119173414D01*
X157943127Y-119135247D01*
X157921650Y-118560214D01*
X157845915Y-118130908D01*
X157698967Y-117827881D01*
X157463851Y-117631686D01*
X157123612Y-117522876D01*
X156661295Y-117482003D01*
X156500070Y-117480080D01*
X155971359Y-117509721D01*
G36*
X160288995Y-118378490D02*
X159843639Y-119328178D01*
X159400279Y-118382962D01*
X158956919Y-117437747D01*
X158027793Y-117437747D01*
X158027793Y-120824414D01*
X158959127Y-120824414D01*
X158964210Y-120295247D01*
X158969292Y-119766080D01*
X159236291Y-120295247D01*
X159380466Y-120572076D01*
X159488387Y-120730251D01*
X159598737Y-120802966D01*
X159750200Y-120823415D01*
X159852960Y-120824414D01*
X160033883Y-120818835D01*
X160156041Y-120780437D01*
X160254465Y-120676729D01*
X160364184Y-120475217D01*
X160379193Y-120443414D01*
X159890460Y-120443414D01*
X159848127Y-120485747D01*
X159805793Y-120443414D01*
X159848127Y-120401080D01*
X159890460Y-120443414D01*
X160379193Y-120443414D01*
X160469103Y-120252914D01*
X160735576Y-119681414D01*
X160736352Y-120252914D01*
X160737127Y-120824414D01*
X161672040Y-120824414D01*
X161649083Y-119152247D01*
X161626127Y-117480080D01*
X161180239Y-117454441D01*
X160734352Y-117428801D01*
X160288995Y-118378490D01*
X160288995Y-118378490D01*
G37*
X160288995Y-118378490D02*
X159843639Y-119328178D01*
X159400279Y-118382962D01*
X158956919Y-117437747D01*
X158027793Y-117437747D01*
X158027793Y-120824414D01*
X158959127Y-120824414D01*
X158964210Y-120295247D01*
X158969292Y-119766080D01*
X159236291Y-120295247D01*
X159380466Y-120572076D01*
X159488387Y-120730251D01*
X159598737Y-120802966D01*
X159750200Y-120823415D01*
X159852960Y-120824414D01*
X160033883Y-120818835D01*
X160156041Y-120780437D01*
X160254465Y-120676729D01*
X160364184Y-120475217D01*
X160379193Y-120443414D01*
X159890460Y-120443414D01*
X159848127Y-120485747D01*
X159805793Y-120443414D01*
X159848127Y-120401080D01*
X159890460Y-120443414D01*
X160379193Y-120443414D01*
X160469103Y-120252914D01*
X160735576Y-119681414D01*
X160736352Y-120252914D01*
X160737127Y-120824414D01*
X161672040Y-120824414D01*
X161649083Y-119152247D01*
X161626127Y-117480080D01*
X161180239Y-117454441D01*
X160734352Y-117428801D01*
X160288995Y-118378490D01*
G36*
X163237908Y-116774504D02*
X162958504Y-117001278D01*
X162687184Y-117229604D01*
X162538550Y-117359999D01*
X162352136Y-117512005D01*
X162209489Y-117599069D01*
X162178717Y-117607080D01*
X162126213Y-117682450D01*
X162096895Y-117872006D01*
X162094529Y-117966914D01*
X162097265Y-118326747D01*
X164469547Y-119850747D01*
X165039753Y-120215729D01*
X165566769Y-120550521D01*
X166033165Y-120844249D01*
X166421512Y-121086036D01*
X166714378Y-121265008D01*
X166894335Y-121370289D01*
X166943312Y-121394237D01*
X167022129Y-121333962D01*
X167175687Y-121154777D01*
X167386232Y-120879613D01*
X167636013Y-120531399D01*
X167828222Y-120251237D01*
X168119108Y-119816667D01*
X168327517Y-119493424D01*
X168467124Y-119253449D01*
X168551604Y-119068682D01*
X168594632Y-118911063D01*
X168604611Y-118807326D01*
X168426987Y-118807326D01*
X168421566Y-118936581D01*
X168371356Y-119095876D01*
X168263459Y-119309655D01*
X168084977Y-119602362D01*
X167823012Y-119998440D01*
X167713018Y-120160437D01*
X167456624Y-120533173D01*
X167233906Y-120850837D01*
X167061942Y-121089553D01*
X166957808Y-121225447D01*
X166935309Y-121247747D01*
X166858074Y-121203502D01*
X166655737Y-121077975D01*
X166345296Y-120881974D01*
X165943749Y-120626310D01*
X165468096Y-120321791D01*
X164935335Y-119979226D01*
X164580112Y-119750089D01*
X163931971Y-119329968D01*
X163413599Y-118989783D01*
X163011308Y-118719502D01*
X162711414Y-118509089D01*
X162500229Y-118348510D01*
X162364069Y-118227732D01*
X162289247Y-118136719D01*
X162262078Y-118065438D01*
X162261127Y-118049851D01*
X162261127Y-117847269D01*
X162578627Y-118041420D01*
X162733590Y-118137773D01*
X163009250Y-118310832D01*
X163383344Y-118546551D01*
X163833608Y-118830886D01*
X164337778Y-119149789D01*
X164873590Y-119489217D01*
X164878076Y-119492061D01*
X165395556Y-119816489D01*
X165866210Y-120104599D01*
X166271386Y-120345534D01*
X166592435Y-120528436D01*
X166810707Y-120642447D01*
X166907550Y-120676711D01*
X166910076Y-120675023D01*
X166974104Y-120582719D01*
X166986519Y-120564901D01*
X166812368Y-120564901D01*
X166800787Y-120570414D01*
X166723522Y-120510810D01*
X166706127Y-120485747D01*
X166684552Y-120406593D01*
X166696133Y-120401080D01*
X166773399Y-120460684D01*
X166790793Y-120485747D01*
X166812368Y-120564901D01*
X166986519Y-120564901D01*
X167104508Y-120395568D01*
X166558368Y-120395568D01*
X166546787Y-120401080D01*
X166469522Y-120341477D01*
X166452127Y-120316414D01*
X166430552Y-120237259D01*
X166442133Y-120231747D01*
X166519399Y-120291350D01*
X166536793Y-120316414D01*
X166558368Y-120395568D01*
X167104508Y-120395568D01*
X167116686Y-120378091D01*
X167319364Y-120087602D01*
X167543874Y-119766080D01*
X167425793Y-119766080D01*
X167383460Y-119808414D01*
X167341127Y-119766080D01*
X167383460Y-119723747D01*
X167425793Y-119766080D01*
X167543874Y-119766080D01*
X167563680Y-119737716D01*
X167679793Y-119571510D01*
X167721556Y-119512080D01*
X167595127Y-119512080D01*
X167552793Y-119554414D01*
X167510460Y-119512080D01*
X167552793Y-119469747D01*
X167595127Y-119512080D01*
X167721556Y-119512080D01*
X167956871Y-119177225D01*
X168144236Y-118919414D01*
X168018460Y-118919414D01*
X167976127Y-118961747D01*
X167933793Y-118919414D01*
X167976127Y-118877080D01*
X168018460Y-118919414D01*
X168144236Y-118919414D01*
X168152934Y-118907446D01*
X168282769Y-118747051D01*
X168361162Y-118680919D01*
X168402899Y-118693928D01*
X168422765Y-118770954D01*
X168426987Y-118807326D01*
X168604611Y-118807326D01*
X168609883Y-118752533D01*
X168611093Y-118665414D01*
X168187793Y-118665414D01*
X168145460Y-118707747D01*
X168103127Y-118665414D01*
X168145460Y-118623080D01*
X168187793Y-118665414D01*
X168611093Y-118665414D01*
X168611388Y-118644247D01*
X168604482Y-118544453D01*
X168018460Y-118544453D01*
X167972946Y-118629704D01*
X167848773Y-118825205D01*
X167664496Y-119102561D01*
X167438667Y-119433373D01*
X167420535Y-119459601D01*
X166822611Y-120323725D01*
X166611407Y-120195371D01*
X166325127Y-120195371D01*
X166262902Y-120194796D01*
X166155793Y-120147080D01*
X166022735Y-120059644D01*
X165986460Y-120014122D01*
X166048685Y-120014698D01*
X166155793Y-120062414D01*
X166288852Y-120149850D01*
X166325127Y-120195371D01*
X166611407Y-120195371D01*
X166510369Y-120133968D01*
X166281856Y-119994422D01*
X166245689Y-119972234D01*
X165881035Y-119972234D01*
X165869454Y-119977747D01*
X165792188Y-119918143D01*
X165774793Y-119893080D01*
X165753219Y-119813926D01*
X165764800Y-119808414D01*
X165842065Y-119868017D01*
X165859460Y-119893080D01*
X165881035Y-119972234D01*
X166245689Y-119972234D01*
X165972978Y-119804934D01*
X165909844Y-119766080D01*
X165647793Y-119766080D01*
X165605460Y-119808414D01*
X165563127Y-119766080D01*
X165605460Y-119723747D01*
X165647793Y-119766080D01*
X165909844Y-119766080D01*
X165647419Y-119604581D01*
X165634715Y-119596747D01*
X165393793Y-119596747D01*
X165351460Y-119639080D01*
X165309127Y-119596747D01*
X165351460Y-119554414D01*
X165393793Y-119596747D01*
X165634715Y-119596747D01*
X165621594Y-119588657D01*
X165497425Y-119512080D01*
X165224460Y-119512080D01*
X165182127Y-119554414D01*
X165139793Y-119512080D01*
X165182127Y-119469747D01*
X165224460Y-119512080D01*
X165497425Y-119512080D01*
X165045062Y-119233102D01*
X165241800Y-119004080D01*
X165055127Y-119004080D01*
X165012793Y-119046414D01*
X164970460Y-119004080D01*
X165012793Y-118961747D01*
X165055127Y-119004080D01*
X165241800Y-119004080D01*
X165325261Y-118906925D01*
X165521120Y-118691515D01*
X165612701Y-118601448D01*
X165374937Y-118601448D01*
X165370963Y-118670353D01*
X165327653Y-118728914D01*
X165195095Y-118857452D01*
X165145380Y-118850897D01*
X165170411Y-118750080D01*
X165165396Y-118641413D01*
X165122636Y-118623080D01*
X164990738Y-118570779D01*
X164866125Y-118478280D01*
X164736844Y-118384362D01*
X164653196Y-118413287D01*
X164618638Y-118457113D01*
X164555442Y-118535051D01*
X164566789Y-118467426D01*
X164572422Y-118449242D01*
X164532508Y-118314778D01*
X164419625Y-118242080D01*
X164123793Y-118242080D01*
X164081460Y-118284414D01*
X164039127Y-118242080D01*
X164081460Y-118199747D01*
X164123793Y-118242080D01*
X164419625Y-118242080D01*
X164368743Y-118209312D01*
X164276927Y-118157414D01*
X163954460Y-118157414D01*
X163912127Y-118199747D01*
X163869793Y-118157414D01*
X163912127Y-118115080D01*
X163954460Y-118157414D01*
X164276927Y-118157414D01*
X164198546Y-118113110D01*
X164123936Y-118029620D01*
X164123793Y-118027026D01*
X164193952Y-118027166D01*
X164381583Y-118090132D01*
X164652420Y-118203592D01*
X164790442Y-118266956D01*
X165108377Y-118420130D01*
X165295309Y-118524833D01*
X165374937Y-118601448D01*
X165612701Y-118601448D01*
X165697779Y-118517778D01*
X165759314Y-118466129D01*
X165862411Y-118328388D01*
X165863768Y-118291952D01*
X165732460Y-118291952D01*
X165663746Y-118280789D01*
X165480331Y-118203698D01*
X165216308Y-118075587D01*
X165097460Y-118014284D01*
X164809301Y-117859284D01*
X164589423Y-117733389D01*
X164472602Y-117656822D01*
X164462460Y-117645005D01*
X164532149Y-117662896D01*
X164717980Y-117742192D01*
X164985101Y-117867653D01*
X165097460Y-117922673D01*
X165387463Y-118072288D01*
X165607960Y-118197693D01*
X165723431Y-118278231D01*
X165732460Y-118291952D01*
X165863768Y-118291952D01*
X165866117Y-118228898D01*
X165865228Y-118148976D01*
X165906811Y-118160514D01*
X166018501Y-118142985D01*
X166178766Y-118029421D01*
X166205859Y-118003439D01*
X166247216Y-117962082D01*
X165986016Y-117962082D01*
X165915594Y-117958577D01*
X165728532Y-117896532D01*
X165461814Y-117788634D01*
X165393793Y-117758976D01*
X165111887Y-117626552D01*
X164902694Y-117513218D01*
X164804199Y-117439933D01*
X164801127Y-117431929D01*
X164871402Y-117433030D01*
X165057738Y-117494517D01*
X165323397Y-117603791D01*
X165393350Y-117635035D01*
X165674580Y-117769537D01*
X165883617Y-117882952D01*
X165982709Y-117954448D01*
X165986016Y-117962082D01*
X166247216Y-117962082D01*
X166417163Y-117792135D01*
X167217812Y-118142783D01*
X167549842Y-118292819D01*
X167814659Y-118421279D01*
X167979697Y-118511826D01*
X168018460Y-118544453D01*
X168604482Y-118544453D01*
X168591370Y-118355000D01*
X168535274Y-118215007D01*
X168448406Y-118231249D01*
X168375341Y-118333527D01*
X168325529Y-118381702D01*
X168233198Y-118388108D01*
X168072240Y-118345272D01*
X167816548Y-118245722D01*
X167440015Y-118081985D01*
X167339119Y-118036943D01*
X166902376Y-117847938D01*
X166598265Y-117732786D01*
X166409782Y-117686067D01*
X166319927Y-117702362D01*
X166313777Y-117710111D01*
X166214280Y-117725433D01*
X166014164Y-117673700D01*
X165757871Y-117575206D01*
X165489847Y-117450246D01*
X165254534Y-117319116D01*
X165096378Y-117202111D01*
X165055127Y-117135347D01*
X165051407Y-117131466D01*
X164906608Y-117131466D01*
X164705701Y-117284988D01*
X164538068Y-117420361D01*
X164298309Y-117622567D01*
X164060293Y-117828668D01*
X163780060Y-118090440D01*
X163638033Y-118263784D01*
X163631016Y-118353437D01*
X163695570Y-118369080D01*
X163828370Y-118414810D01*
X164042018Y-118532873D01*
X164294808Y-118694576D01*
X164545033Y-118871230D01*
X164750987Y-119034142D01*
X164870961Y-119154620D01*
X164885793Y-119187867D01*
X164837871Y-119265901D01*
X164779960Y-119247991D01*
X164659211Y-119174298D01*
X164440439Y-119038746D01*
X164169054Y-118869479D01*
X164144960Y-118854404D01*
X163888595Y-118685297D01*
X163700616Y-118544782D01*
X163617098Y-118460125D01*
X163615793Y-118454472D01*
X163551114Y-118368884D01*
X163390692Y-118242699D01*
X163340627Y-118209488D01*
X163182586Y-118098766D01*
X163130149Y-118044408D01*
X163065460Y-118044408D01*
X162769127Y-117853162D01*
X162580140Y-117731114D01*
X162463663Y-117655741D01*
X162449581Y-117646564D01*
X162486736Y-117589614D01*
X162571667Y-117513312D01*
X162670878Y-117441663D01*
X162663264Y-117483740D01*
X162647586Y-117510626D01*
X162656096Y-117649721D01*
X162821833Y-117835124D01*
X163065460Y-118044408D01*
X163130149Y-118044408D01*
X163122635Y-118036619D01*
X163130109Y-118031840D01*
X163246221Y-118071214D01*
X163360082Y-118133660D01*
X163484552Y-118183051D01*
X163608624Y-118139948D01*
X163782267Y-117990820D01*
X163866497Y-117903414D01*
X163277127Y-117903414D01*
X163234793Y-117945747D01*
X163192460Y-117903414D01*
X163234793Y-117861080D01*
X163277127Y-117903414D01*
X163866497Y-117903414D01*
X163941638Y-117825440D01*
X164031671Y-117707392D01*
X164039127Y-117686286D01*
X164022477Y-117670222D01*
X163659327Y-117670222D01*
X163613244Y-117798573D01*
X163527065Y-117861080D01*
X163422774Y-117799501D01*
X163398277Y-117766947D01*
X163406489Y-117657770D01*
X163507124Y-117572410D01*
X163627420Y-117571959D01*
X163629220Y-117573045D01*
X163659327Y-117670222D01*
X164022477Y-117670222D01*
X163970074Y-117619665D01*
X163790267Y-117504558D01*
X163669612Y-117437747D01*
X163107793Y-117437747D01*
X163039217Y-117512861D01*
X162980793Y-117522414D01*
X162868122Y-117476696D01*
X162853793Y-117437747D01*
X162922370Y-117362632D01*
X162980793Y-117353080D01*
X163093465Y-117398798D01*
X163107793Y-117437747D01*
X163669612Y-117437747D01*
X163573679Y-117384626D01*
X163334921Y-117246483D01*
X163176378Y-117128772D01*
X163133808Y-117064028D01*
X163212838Y-116965440D01*
X163374362Y-116822613D01*
X163408755Y-116795740D01*
X163658127Y-116604836D01*
X164282367Y-116868151D01*
X164906608Y-117131466D01*
X165051407Y-117131466D01*
X164982379Y-117059466D01*
X164787743Y-116941252D01*
X164506632Y-116801064D01*
X164359741Y-116735541D01*
X163664356Y-116436089D01*
X163237908Y-116774504D01*
X163237908Y-116774504D01*
G37*
X163237908Y-116774504D02*
X162958504Y-117001278D01*
X162687184Y-117229604D01*
X162538550Y-117359999D01*
X162352136Y-117512005D01*
X162209489Y-117599069D01*
X162178717Y-117607080D01*
X162126213Y-117682450D01*
X162096895Y-117872006D01*
X162094529Y-117966914D01*
X162097265Y-118326747D01*
X164469547Y-119850747D01*
X165039753Y-120215729D01*
X165566769Y-120550521D01*
X166033165Y-120844249D01*
X166421512Y-121086036D01*
X166714378Y-121265008D01*
X166894335Y-121370289D01*
X166943312Y-121394237D01*
X167022129Y-121333962D01*
X167175687Y-121154777D01*
X167386232Y-120879613D01*
X167636013Y-120531399D01*
X167828222Y-120251237D01*
X168119108Y-119816667D01*
X168327517Y-119493424D01*
X168467124Y-119253449D01*
X168551604Y-119068682D01*
X168594632Y-118911063D01*
X168604611Y-118807326D01*
X168426987Y-118807326D01*
X168421566Y-118936581D01*
X168371356Y-119095876D01*
X168263459Y-119309655D01*
X168084977Y-119602362D01*
X167823012Y-119998440D01*
X167713018Y-120160437D01*
X167456624Y-120533173D01*
X167233906Y-120850837D01*
X167061942Y-121089553D01*
X166957808Y-121225447D01*
X166935309Y-121247747D01*
X166858074Y-121203502D01*
X166655737Y-121077975D01*
X166345296Y-120881974D01*
X165943749Y-120626310D01*
X165468096Y-120321791D01*
X164935335Y-119979226D01*
X164580112Y-119750089D01*
X163931971Y-119329968D01*
X163413599Y-118989783D01*
X163011308Y-118719502D01*
X162711414Y-118509089D01*
X162500229Y-118348510D01*
X162364069Y-118227732D01*
X162289247Y-118136719D01*
X162262078Y-118065438D01*
X162261127Y-118049851D01*
X162261127Y-117847269D01*
X162578627Y-118041420D01*
X162733590Y-118137773D01*
X163009250Y-118310832D01*
X163383344Y-118546551D01*
X163833608Y-118830886D01*
X164337778Y-119149789D01*
X164873590Y-119489217D01*
X164878076Y-119492061D01*
X165395556Y-119816489D01*
X165866210Y-120104599D01*
X166271386Y-120345534D01*
X166592435Y-120528436D01*
X166810707Y-120642447D01*
X166907550Y-120676711D01*
X166910076Y-120675023D01*
X166974104Y-120582719D01*
X166986519Y-120564901D01*
X166812368Y-120564901D01*
X166800787Y-120570414D01*
X166723522Y-120510810D01*
X166706127Y-120485747D01*
X166684552Y-120406593D01*
X166696133Y-120401080D01*
X166773399Y-120460684D01*
X166790793Y-120485747D01*
X166812368Y-120564901D01*
X166986519Y-120564901D01*
X167104508Y-120395568D01*
X166558368Y-120395568D01*
X166546787Y-120401080D01*
X166469522Y-120341477D01*
X166452127Y-120316414D01*
X166430552Y-120237259D01*
X166442133Y-120231747D01*
X166519399Y-120291350D01*
X166536793Y-120316414D01*
X166558368Y-120395568D01*
X167104508Y-120395568D01*
X167116686Y-120378091D01*
X167319364Y-120087602D01*
X167543874Y-119766080D01*
X167425793Y-119766080D01*
X167383460Y-119808414D01*
X167341127Y-119766080D01*
X167383460Y-119723747D01*
X167425793Y-119766080D01*
X167543874Y-119766080D01*
X167563680Y-119737716D01*
X167679793Y-119571510D01*
X167721556Y-119512080D01*
X167595127Y-119512080D01*
X167552793Y-119554414D01*
X167510460Y-119512080D01*
X167552793Y-119469747D01*
X167595127Y-119512080D01*
X167721556Y-119512080D01*
X167956871Y-119177225D01*
X168144236Y-118919414D01*
X168018460Y-118919414D01*
X167976127Y-118961747D01*
X167933793Y-118919414D01*
X167976127Y-118877080D01*
X168018460Y-118919414D01*
X168144236Y-118919414D01*
X168152934Y-118907446D01*
X168282769Y-118747051D01*
X168361162Y-118680919D01*
X168402899Y-118693928D01*
X168422765Y-118770954D01*
X168426987Y-118807326D01*
X168604611Y-118807326D01*
X168609883Y-118752533D01*
X168611093Y-118665414D01*
X168187793Y-118665414D01*
X168145460Y-118707747D01*
X168103127Y-118665414D01*
X168145460Y-118623080D01*
X168187793Y-118665414D01*
X168611093Y-118665414D01*
X168611388Y-118644247D01*
X168604482Y-118544453D01*
X168018460Y-118544453D01*
X167972946Y-118629704D01*
X167848773Y-118825205D01*
X167664496Y-119102561D01*
X167438667Y-119433373D01*
X167420535Y-119459601D01*
X166822611Y-120323725D01*
X166611407Y-120195371D01*
X166325127Y-120195371D01*
X166262902Y-120194796D01*
X166155793Y-120147080D01*
X166022735Y-120059644D01*
X165986460Y-120014122D01*
X166048685Y-120014698D01*
X166155793Y-120062414D01*
X166288852Y-120149850D01*
X166325127Y-120195371D01*
X166611407Y-120195371D01*
X166510369Y-120133968D01*
X166281856Y-119994422D01*
X166245689Y-119972234D01*
X165881035Y-119972234D01*
X165869454Y-119977747D01*
X165792188Y-119918143D01*
X165774793Y-119893080D01*
X165753219Y-119813926D01*
X165764800Y-119808414D01*
X165842065Y-119868017D01*
X165859460Y-119893080D01*
X165881035Y-119972234D01*
X166245689Y-119972234D01*
X165972978Y-119804934D01*
X165909844Y-119766080D01*
X165647793Y-119766080D01*
X165605460Y-119808414D01*
X165563127Y-119766080D01*
X165605460Y-119723747D01*
X165647793Y-119766080D01*
X165909844Y-119766080D01*
X165647419Y-119604581D01*
X165634715Y-119596747D01*
X165393793Y-119596747D01*
X165351460Y-119639080D01*
X165309127Y-119596747D01*
X165351460Y-119554414D01*
X165393793Y-119596747D01*
X165634715Y-119596747D01*
X165621594Y-119588657D01*
X165497425Y-119512080D01*
X165224460Y-119512080D01*
X165182127Y-119554414D01*
X165139793Y-119512080D01*
X165182127Y-119469747D01*
X165224460Y-119512080D01*
X165497425Y-119512080D01*
X165045062Y-119233102D01*
X165241800Y-119004080D01*
X165055127Y-119004080D01*
X165012793Y-119046414D01*
X164970460Y-119004080D01*
X165012793Y-118961747D01*
X165055127Y-119004080D01*
X165241800Y-119004080D01*
X165325261Y-118906925D01*
X165521120Y-118691515D01*
X165612701Y-118601448D01*
X165374937Y-118601448D01*
X165370963Y-118670353D01*
X165327653Y-118728914D01*
X165195095Y-118857452D01*
X165145380Y-118850897D01*
X165170411Y-118750080D01*
X165165396Y-118641413D01*
X165122636Y-118623080D01*
X164990738Y-118570779D01*
X164866125Y-118478280D01*
X164736844Y-118384362D01*
X164653196Y-118413287D01*
X164618638Y-118457113D01*
X164555442Y-118535051D01*
X164566789Y-118467426D01*
X164572422Y-118449242D01*
X164532508Y-118314778D01*
X164419625Y-118242080D01*
X164123793Y-118242080D01*
X164081460Y-118284414D01*
X164039127Y-118242080D01*
X164081460Y-118199747D01*
X164123793Y-118242080D01*
X164419625Y-118242080D01*
X164368743Y-118209312D01*
X164276927Y-118157414D01*
X163954460Y-118157414D01*
X163912127Y-118199747D01*
X163869793Y-118157414D01*
X163912127Y-118115080D01*
X163954460Y-118157414D01*
X164276927Y-118157414D01*
X164198546Y-118113110D01*
X164123936Y-118029620D01*
X164123793Y-118027026D01*
X164193952Y-118027166D01*
X164381583Y-118090132D01*
X164652420Y-118203592D01*
X164790442Y-118266956D01*
X165108377Y-118420130D01*
X165295309Y-118524833D01*
X165374937Y-118601448D01*
X165612701Y-118601448D01*
X165697779Y-118517778D01*
X165759314Y-118466129D01*
X165862411Y-118328388D01*
X165863768Y-118291952D01*
X165732460Y-118291952D01*
X165663746Y-118280789D01*
X165480331Y-118203698D01*
X165216308Y-118075587D01*
X165097460Y-118014284D01*
X164809301Y-117859284D01*
X164589423Y-117733389D01*
X164472602Y-117656822D01*
X164462460Y-117645005D01*
X164532149Y-117662896D01*
X164717980Y-117742192D01*
X164985101Y-117867653D01*
X165097460Y-117922673D01*
X165387463Y-118072288D01*
X165607960Y-118197693D01*
X165723431Y-118278231D01*
X165732460Y-118291952D01*
X165863768Y-118291952D01*
X165866117Y-118228898D01*
X165865228Y-118148976D01*
X165906811Y-118160514D01*
X166018501Y-118142985D01*
X166178766Y-118029421D01*
X166205859Y-118003439D01*
X166247216Y-117962082D01*
X165986016Y-117962082D01*
X165915594Y-117958577D01*
X165728532Y-117896532D01*
X165461814Y-117788634D01*
X165393793Y-117758976D01*
X165111887Y-117626552D01*
X164902694Y-117513218D01*
X164804199Y-117439933D01*
X164801127Y-117431929D01*
X164871402Y-117433030D01*
X165057738Y-117494517D01*
X165323397Y-117603791D01*
X165393350Y-117635035D01*
X165674580Y-117769537D01*
X165883617Y-117882952D01*
X165982709Y-117954448D01*
X165986016Y-117962082D01*
X166247216Y-117962082D01*
X166417163Y-117792135D01*
X167217812Y-118142783D01*
X167549842Y-118292819D01*
X167814659Y-118421279D01*
X167979697Y-118511826D01*
X168018460Y-118544453D01*
X168604482Y-118544453D01*
X168591370Y-118355000D01*
X168535274Y-118215007D01*
X168448406Y-118231249D01*
X168375341Y-118333527D01*
X168325529Y-118381702D01*
X168233198Y-118388108D01*
X168072240Y-118345272D01*
X167816548Y-118245722D01*
X167440015Y-118081985D01*
X167339119Y-118036943D01*
X166902376Y-117847938D01*
X166598265Y-117732786D01*
X166409782Y-117686067D01*
X166319927Y-117702362D01*
X166313777Y-117710111D01*
X166214280Y-117725433D01*
X166014164Y-117673700D01*
X165757871Y-117575206D01*
X165489847Y-117450246D01*
X165254534Y-117319116D01*
X165096378Y-117202111D01*
X165055127Y-117135347D01*
X165051407Y-117131466D01*
X164906608Y-117131466D01*
X164705701Y-117284988D01*
X164538068Y-117420361D01*
X164298309Y-117622567D01*
X164060293Y-117828668D01*
X163780060Y-118090440D01*
X163638033Y-118263784D01*
X163631016Y-118353437D01*
X163695570Y-118369080D01*
X163828370Y-118414810D01*
X164042018Y-118532873D01*
X164294808Y-118694576D01*
X164545033Y-118871230D01*
X164750987Y-119034142D01*
X164870961Y-119154620D01*
X164885793Y-119187867D01*
X164837871Y-119265901D01*
X164779960Y-119247991D01*
X164659211Y-119174298D01*
X164440439Y-119038746D01*
X164169054Y-118869479D01*
X164144960Y-118854404D01*
X163888595Y-118685297D01*
X163700616Y-118544782D01*
X163617098Y-118460125D01*
X163615793Y-118454472D01*
X163551114Y-118368884D01*
X163390692Y-118242699D01*
X163340627Y-118209488D01*
X163182586Y-118098766D01*
X163130149Y-118044408D01*
X163065460Y-118044408D01*
X162769127Y-117853162D01*
X162580140Y-117731114D01*
X162463663Y-117655741D01*
X162449581Y-117646564D01*
X162486736Y-117589614D01*
X162571667Y-117513312D01*
X162670878Y-117441663D01*
X162663264Y-117483740D01*
X162647586Y-117510626D01*
X162656096Y-117649721D01*
X162821833Y-117835124D01*
X163065460Y-118044408D01*
X163130149Y-118044408D01*
X163122635Y-118036619D01*
X163130109Y-118031840D01*
X163246221Y-118071214D01*
X163360082Y-118133660D01*
X163484552Y-118183051D01*
X163608624Y-118139948D01*
X163782267Y-117990820D01*
X163866497Y-117903414D01*
X163277127Y-117903414D01*
X163234793Y-117945747D01*
X163192460Y-117903414D01*
X163234793Y-117861080D01*
X163277127Y-117903414D01*
X163866497Y-117903414D01*
X163941638Y-117825440D01*
X164031671Y-117707392D01*
X164039127Y-117686286D01*
X164022477Y-117670222D01*
X163659327Y-117670222D01*
X163613244Y-117798573D01*
X163527065Y-117861080D01*
X163422774Y-117799501D01*
X163398277Y-117766947D01*
X163406489Y-117657770D01*
X163507124Y-117572410D01*
X163627420Y-117571959D01*
X163629220Y-117573045D01*
X163659327Y-117670222D01*
X164022477Y-117670222D01*
X163970074Y-117619665D01*
X163790267Y-117504558D01*
X163669612Y-117437747D01*
X163107793Y-117437747D01*
X163039217Y-117512861D01*
X162980793Y-117522414D01*
X162868122Y-117476696D01*
X162853793Y-117437747D01*
X162922370Y-117362632D01*
X162980793Y-117353080D01*
X163093465Y-117398798D01*
X163107793Y-117437747D01*
X163669612Y-117437747D01*
X163573679Y-117384626D01*
X163334921Y-117246483D01*
X163176378Y-117128772D01*
X163133808Y-117064028D01*
X163212838Y-116965440D01*
X163374362Y-116822613D01*
X163408755Y-116795740D01*
X163658127Y-116604836D01*
X164282367Y-116868151D01*
X164906608Y-117131466D01*
X165051407Y-117131466D01*
X164982379Y-117059466D01*
X164787743Y-116941252D01*
X164506632Y-116801064D01*
X164359741Y-116735541D01*
X163664356Y-116436089D01*
X163237908Y-116774504D01*
G04 #@! TO.C,REF01*
G36*
X164149862Y-94166676D02*
X164044128Y-94167255D01*
X163967608Y-94168822D01*
X163915368Y-94171872D01*
X163882477Y-94176896D01*
X163864003Y-94184389D01*
X163855013Y-94194844D01*
X163850577Y-94208753D01*
X163850146Y-94210554D01*
X163843407Y-94243045D01*
X163830932Y-94307152D01*
X163814021Y-94396051D01*
X163793969Y-94502919D01*
X163772076Y-94620933D01*
X163771311Y-94625078D01*
X163749381Y-94740731D01*
X163728863Y-94842914D01*
X163711081Y-94925498D01*
X163697359Y-94982356D01*
X163689022Y-95007358D01*
X163688624Y-95007801D01*
X163664063Y-95020010D01*
X163613425Y-95040356D01*
X163547645Y-95064445D01*
X163547279Y-95064574D01*
X163464423Y-95095718D01*
X163366740Y-95135391D01*
X163274663Y-95175281D01*
X163270306Y-95177253D01*
X163120333Y-95245320D01*
X162788242Y-95018539D01*
X162686366Y-94949404D01*
X162594083Y-94887597D01*
X162516737Y-94836633D01*
X162459676Y-94800027D01*
X162428245Y-94781294D01*
X162425261Y-94779904D01*
X162402419Y-94786090D01*
X162359758Y-94815935D01*
X162295612Y-94870847D01*
X162208319Y-94952234D01*
X162119205Y-95038822D01*
X162033299Y-95124147D01*
X161956413Y-95202008D01*
X161893176Y-95267597D01*
X161848217Y-95316105D01*
X161826164Y-95342725D01*
X161825344Y-95344095D01*
X161822906Y-95362363D01*
X161832090Y-95392195D01*
X161855166Y-95437621D01*
X161894403Y-95502670D01*
X161952070Y-95591370D01*
X162028945Y-95705557D01*
X162097170Y-95806062D01*
X162158158Y-95896203D01*
X162208384Y-95970749D01*
X162244324Y-96024465D01*
X162262453Y-96052118D01*
X162263594Y-96053995D01*
X162261381Y-96080490D01*
X162244602Y-96131986D01*
X162216598Y-96198751D01*
X162206618Y-96220072D01*
X162163068Y-96315059D01*
X162116606Y-96422837D01*
X162078863Y-96516092D01*
X162051667Y-96585306D01*
X162030065Y-96637906D01*
X162017582Y-96665397D01*
X162016031Y-96667516D01*
X161993072Y-96671024D01*
X161938954Y-96680638D01*
X161860872Y-96694989D01*
X161766021Y-96712707D01*
X161661597Y-96732425D01*
X161554796Y-96752774D01*
X161452814Y-96772386D01*
X161362846Y-96789891D01*
X161292087Y-96803922D01*
X161247734Y-96813109D01*
X161236855Y-96815707D01*
X161225618Y-96822118D01*
X161217135Y-96836597D01*
X161211026Y-96864033D01*
X161206908Y-96909311D01*
X161204399Y-96977320D01*
X161203119Y-97072947D01*
X161202686Y-97201080D01*
X161202663Y-97253601D01*
X161202663Y-97680745D01*
X161305240Y-97700991D01*
X161362309Y-97711970D01*
X161447471Y-97727995D01*
X161550368Y-97747133D01*
X161660644Y-97767451D01*
X161691125Y-97773032D01*
X161792885Y-97792817D01*
X161881535Y-97812273D01*
X161949632Y-97829597D01*
X161989736Y-97842988D01*
X161996417Y-97846979D01*
X162012821Y-97875242D01*
X162036341Y-97930009D01*
X162062424Y-98000488D01*
X162067598Y-98015669D01*
X162101784Y-98109796D01*
X162144217Y-98216001D01*
X162185743Y-98311373D01*
X162185948Y-98311816D01*
X162255100Y-98461425D01*
X161800228Y-99130517D01*
X162092240Y-99423016D01*
X162180560Y-99510070D01*
X162261115Y-99586809D01*
X162329380Y-99649137D01*
X162380832Y-99692956D01*
X162410946Y-99714170D01*
X162415266Y-99715516D01*
X162440629Y-99704916D01*
X162492382Y-99675447D01*
X162564872Y-99630605D01*
X162652446Y-99573884D01*
X162747128Y-99510362D01*
X162843224Y-99445568D01*
X162928903Y-99389187D01*
X162998724Y-99344688D01*
X163047246Y-99315539D01*
X163068958Y-99305208D01*
X163095447Y-99313950D01*
X163145678Y-99336987D01*
X163209289Y-99369531D01*
X163216032Y-99373149D01*
X163301694Y-99416110D01*
X163360434Y-99437179D01*
X163396968Y-99437403D01*
X163416009Y-99417828D01*
X163416120Y-99417554D01*
X163425638Y-99394372D01*
X163448337Y-99339341D01*
X163482458Y-99256722D01*
X163526240Y-99150772D01*
X163577924Y-99025752D01*
X163635748Y-98885920D01*
X163691749Y-98750537D01*
X163753293Y-98601134D01*
X163809801Y-98462732D01*
X163859579Y-98339573D01*
X163900934Y-98235902D01*
X163932172Y-98155959D01*
X163951599Y-98103988D01*
X163957586Y-98084592D01*
X163942572Y-98062343D01*
X163903301Y-98026882D01*
X163850933Y-97987787D01*
X163701799Y-97864145D01*
X163585229Y-97722422D01*
X163502622Y-97565604D01*
X163455374Y-97396675D01*
X163444883Y-97218622D01*
X163452509Y-97136439D01*
X163494058Y-96965931D01*
X163565617Y-96815359D01*
X163662745Y-96686209D01*
X163781006Y-96579964D01*
X163915960Y-96498110D01*
X164063169Y-96442132D01*
X164218196Y-96413515D01*
X164376601Y-96413744D01*
X164533946Y-96444305D01*
X164685794Y-96506682D01*
X164827705Y-96602360D01*
X164886937Y-96656472D01*
X165000537Y-96795420D01*
X165079634Y-96947261D01*
X165124754Y-97107567D01*
X165136424Y-97271912D01*
X165115171Y-97435871D01*
X165061520Y-97595018D01*
X164976000Y-97744925D01*
X164859135Y-97881167D01*
X164728547Y-97987787D01*
X164674152Y-98028542D01*
X164635726Y-98063618D01*
X164621894Y-98084626D01*
X164629137Y-98107535D01*
X164649735Y-98162265D01*
X164681994Y-98244572D01*
X164724219Y-98350215D01*
X164774717Y-98474950D01*
X164831792Y-98614536D01*
X164887886Y-98750570D01*
X164949773Y-98900101D01*
X165007096Y-99038667D01*
X165058096Y-99162007D01*
X165101013Y-99265864D01*
X165134087Y-99345980D01*
X165155559Y-99398095D01*
X165163515Y-99417554D01*
X165182311Y-99437323D01*
X165218666Y-99437265D01*
X165277261Y-99416341D01*
X165362772Y-99373513D01*
X165363448Y-99373149D01*
X165427833Y-99339912D01*
X165479879Y-99315702D01*
X165509228Y-99305304D01*
X165510523Y-99305208D01*
X165532616Y-99315755D01*
X165581392Y-99345084D01*
X165651409Y-99389727D01*
X165737226Y-99446214D01*
X165832352Y-99510362D01*
X165929200Y-99575311D01*
X166016487Y-99631796D01*
X166088559Y-99676321D01*
X166139763Y-99705390D01*
X166164214Y-99715516D01*
X166186730Y-99702207D01*
X166231998Y-99665012D01*
X166295496Y-99608028D01*
X166372701Y-99535349D01*
X166459089Y-99451071D01*
X166487341Y-99422916D01*
X166779453Y-99130316D01*
X166557109Y-98804004D01*
X166489538Y-98703797D01*
X166430233Y-98613863D01*
X166382523Y-98539410D01*
X166349733Y-98485651D01*
X166335192Y-98457794D01*
X166334766Y-98455812D01*
X166342432Y-98429555D01*
X166363051Y-98376737D01*
X166393055Y-98306210D01*
X166414115Y-98258993D01*
X166453492Y-98168594D01*
X166490575Y-98077266D01*
X166519325Y-98000100D01*
X166527135Y-97976592D01*
X166549323Y-97913816D01*
X166571013Y-97865311D01*
X166582927Y-97846979D01*
X166609217Y-97835759D01*
X166666598Y-97819854D01*
X166747622Y-97801067D01*
X166844845Y-97781199D01*
X166888355Y-97773032D01*
X166998844Y-97752729D01*
X167104824Y-97733070D01*
X167195939Y-97715988D01*
X167261832Y-97703418D01*
X167274240Y-97700991D01*
X167376817Y-97680745D01*
X167376817Y-97253601D01*
X167376587Y-97113146D01*
X167375641Y-97006879D01*
X167373599Y-96929913D01*
X167370078Y-96877360D01*
X167364697Y-96844333D01*
X167357074Y-96825945D01*
X167346828Y-96817308D01*
X167342625Y-96815707D01*
X167317270Y-96810027D01*
X167261256Y-96798695D01*
X167181776Y-96783079D01*
X167086028Y-96764547D01*
X166981207Y-96744469D01*
X166874508Y-96724212D01*
X166773127Y-96705146D01*
X166684261Y-96688639D01*
X166615103Y-96676059D01*
X166572851Y-96668775D01*
X166563450Y-96667516D01*
X166554933Y-96650663D01*
X166536080Y-96605770D01*
X166510416Y-96541330D01*
X166500617Y-96516092D01*
X166461092Y-96418586D01*
X166414548Y-96310859D01*
X166372863Y-96220072D01*
X166342190Y-96150653D01*
X166321784Y-96093610D01*
X166314972Y-96058677D01*
X166316058Y-96053995D01*
X166330455Y-96031891D01*
X166363328Y-95982731D01*
X166411150Y-95911748D01*
X166470392Y-95824178D01*
X166537525Y-95725257D01*
X166550799Y-95705730D01*
X166628694Y-95590040D01*
X166685953Y-95501944D01*
X166724859Y-95437386D01*
X166747696Y-95392311D01*
X166756746Y-95362663D01*
X166754292Y-95344385D01*
X166754229Y-95344269D01*
X166734913Y-95320261D01*
X166692189Y-95273847D01*
X166630689Y-95209837D01*
X166555042Y-95133045D01*
X166469879Y-95048282D01*
X166460275Y-95038822D01*
X166352950Y-94934889D01*
X166270125Y-94858575D01*
X166210135Y-94808471D01*
X166171317Y-94783170D01*
X166154220Y-94779904D01*
X166129267Y-94794150D01*
X166077485Y-94827056D01*
X166004220Y-94875108D01*
X165914820Y-94934790D01*
X165814629Y-95002588D01*
X165791239Y-95018539D01*
X165459147Y-95245320D01*
X165309175Y-95177253D01*
X165217970Y-95137585D01*
X165120071Y-95097691D01*
X165035909Y-95065883D01*
X165032202Y-95064574D01*
X164966371Y-95040476D01*
X164915624Y-95020100D01*
X164890898Y-95007836D01*
X164890856Y-95007801D01*
X164883011Y-94985634D01*
X164869674Y-94931117D01*
X164852170Y-94850380D01*
X164831823Y-94749550D01*
X164809958Y-94634756D01*
X164808169Y-94625078D01*
X164786236Y-94506804D01*
X164766100Y-94399442D01*
X164749060Y-94309817D01*
X164736412Y-94244751D01*
X164729456Y-94211068D01*
X164729334Y-94210554D01*
X164725101Y-94196225D01*
X164716869Y-94185407D01*
X164699707Y-94177606D01*
X164668682Y-94172329D01*
X164618862Y-94169082D01*
X164545316Y-94167372D01*
X164443111Y-94166707D01*
X164307315Y-94166593D01*
X164289740Y-94166592D01*
X164149862Y-94166676D01*
X164149862Y-94166676D01*
G37*
X164149862Y-94166676D02*
X164044128Y-94167255D01*
X163967608Y-94168822D01*
X163915368Y-94171872D01*
X163882477Y-94176896D01*
X163864003Y-94184389D01*
X163855013Y-94194844D01*
X163850577Y-94208753D01*
X163850146Y-94210554D01*
X163843407Y-94243045D01*
X163830932Y-94307152D01*
X163814021Y-94396051D01*
X163793969Y-94502919D01*
X163772076Y-94620933D01*
X163771311Y-94625078D01*
X163749381Y-94740731D01*
X163728863Y-94842914D01*
X163711081Y-94925498D01*
X163697359Y-94982356D01*
X163689022Y-95007358D01*
X163688624Y-95007801D01*
X163664063Y-95020010D01*
X163613425Y-95040356D01*
X163547645Y-95064445D01*
X163547279Y-95064574D01*
X163464423Y-95095718D01*
X163366740Y-95135391D01*
X163274663Y-95175281D01*
X163270306Y-95177253D01*
X163120333Y-95245320D01*
X162788242Y-95018539D01*
X162686366Y-94949404D01*
X162594083Y-94887597D01*
X162516737Y-94836633D01*
X162459676Y-94800027D01*
X162428245Y-94781294D01*
X162425261Y-94779904D01*
X162402419Y-94786090D01*
X162359758Y-94815935D01*
X162295612Y-94870847D01*
X162208319Y-94952234D01*
X162119205Y-95038822D01*
X162033299Y-95124147D01*
X161956413Y-95202008D01*
X161893176Y-95267597D01*
X161848217Y-95316105D01*
X161826164Y-95342725D01*
X161825344Y-95344095D01*
X161822906Y-95362363D01*
X161832090Y-95392195D01*
X161855166Y-95437621D01*
X161894403Y-95502670D01*
X161952070Y-95591370D01*
X162028945Y-95705557D01*
X162097170Y-95806062D01*
X162158158Y-95896203D01*
X162208384Y-95970749D01*
X162244324Y-96024465D01*
X162262453Y-96052118D01*
X162263594Y-96053995D01*
X162261381Y-96080490D01*
X162244602Y-96131986D01*
X162216598Y-96198751D01*
X162206618Y-96220072D01*
X162163068Y-96315059D01*
X162116606Y-96422837D01*
X162078863Y-96516092D01*
X162051667Y-96585306D01*
X162030065Y-96637906D01*
X162017582Y-96665397D01*
X162016031Y-96667516D01*
X161993072Y-96671024D01*
X161938954Y-96680638D01*
X161860872Y-96694989D01*
X161766021Y-96712707D01*
X161661597Y-96732425D01*
X161554796Y-96752774D01*
X161452814Y-96772386D01*
X161362846Y-96789891D01*
X161292087Y-96803922D01*
X161247734Y-96813109D01*
X161236855Y-96815707D01*
X161225618Y-96822118D01*
X161217135Y-96836597D01*
X161211026Y-96864033D01*
X161206908Y-96909311D01*
X161204399Y-96977320D01*
X161203119Y-97072947D01*
X161202686Y-97201080D01*
X161202663Y-97253601D01*
X161202663Y-97680745D01*
X161305240Y-97700991D01*
X161362309Y-97711970D01*
X161447471Y-97727995D01*
X161550368Y-97747133D01*
X161660644Y-97767451D01*
X161691125Y-97773032D01*
X161792885Y-97792817D01*
X161881535Y-97812273D01*
X161949632Y-97829597D01*
X161989736Y-97842988D01*
X161996417Y-97846979D01*
X162012821Y-97875242D01*
X162036341Y-97930009D01*
X162062424Y-98000488D01*
X162067598Y-98015669D01*
X162101784Y-98109796D01*
X162144217Y-98216001D01*
X162185743Y-98311373D01*
X162185948Y-98311816D01*
X162255100Y-98461425D01*
X161800228Y-99130517D01*
X162092240Y-99423016D01*
X162180560Y-99510070D01*
X162261115Y-99586809D01*
X162329380Y-99649137D01*
X162380832Y-99692956D01*
X162410946Y-99714170D01*
X162415266Y-99715516D01*
X162440629Y-99704916D01*
X162492382Y-99675447D01*
X162564872Y-99630605D01*
X162652446Y-99573884D01*
X162747128Y-99510362D01*
X162843224Y-99445568D01*
X162928903Y-99389187D01*
X162998724Y-99344688D01*
X163047246Y-99315539D01*
X163068958Y-99305208D01*
X163095447Y-99313950D01*
X163145678Y-99336987D01*
X163209289Y-99369531D01*
X163216032Y-99373149D01*
X163301694Y-99416110D01*
X163360434Y-99437179D01*
X163396968Y-99437403D01*
X163416009Y-99417828D01*
X163416120Y-99417554D01*
X163425638Y-99394372D01*
X163448337Y-99339341D01*
X163482458Y-99256722D01*
X163526240Y-99150772D01*
X163577924Y-99025752D01*
X163635748Y-98885920D01*
X163691749Y-98750537D01*
X163753293Y-98601134D01*
X163809801Y-98462732D01*
X163859579Y-98339573D01*
X163900934Y-98235902D01*
X163932172Y-98155959D01*
X163951599Y-98103988D01*
X163957586Y-98084592D01*
X163942572Y-98062343D01*
X163903301Y-98026882D01*
X163850933Y-97987787D01*
X163701799Y-97864145D01*
X163585229Y-97722422D01*
X163502622Y-97565604D01*
X163455374Y-97396675D01*
X163444883Y-97218622D01*
X163452509Y-97136439D01*
X163494058Y-96965931D01*
X163565617Y-96815359D01*
X163662745Y-96686209D01*
X163781006Y-96579964D01*
X163915960Y-96498110D01*
X164063169Y-96442132D01*
X164218196Y-96413515D01*
X164376601Y-96413744D01*
X164533946Y-96444305D01*
X164685794Y-96506682D01*
X164827705Y-96602360D01*
X164886937Y-96656472D01*
X165000537Y-96795420D01*
X165079634Y-96947261D01*
X165124754Y-97107567D01*
X165136424Y-97271912D01*
X165115171Y-97435871D01*
X165061520Y-97595018D01*
X164976000Y-97744925D01*
X164859135Y-97881167D01*
X164728547Y-97987787D01*
X164674152Y-98028542D01*
X164635726Y-98063618D01*
X164621894Y-98084626D01*
X164629137Y-98107535D01*
X164649735Y-98162265D01*
X164681994Y-98244572D01*
X164724219Y-98350215D01*
X164774717Y-98474950D01*
X164831792Y-98614536D01*
X164887886Y-98750570D01*
X164949773Y-98900101D01*
X165007096Y-99038667D01*
X165058096Y-99162007D01*
X165101013Y-99265864D01*
X165134087Y-99345980D01*
X165155559Y-99398095D01*
X165163515Y-99417554D01*
X165182311Y-99437323D01*
X165218666Y-99437265D01*
X165277261Y-99416341D01*
X165362772Y-99373513D01*
X165363448Y-99373149D01*
X165427833Y-99339912D01*
X165479879Y-99315702D01*
X165509228Y-99305304D01*
X165510523Y-99305208D01*
X165532616Y-99315755D01*
X165581392Y-99345084D01*
X165651409Y-99389727D01*
X165737226Y-99446214D01*
X165832352Y-99510362D01*
X165929200Y-99575311D01*
X166016487Y-99631796D01*
X166088559Y-99676321D01*
X166139763Y-99705390D01*
X166164214Y-99715516D01*
X166186730Y-99702207D01*
X166231998Y-99665012D01*
X166295496Y-99608028D01*
X166372701Y-99535349D01*
X166459089Y-99451071D01*
X166487341Y-99422916D01*
X166779453Y-99130316D01*
X166557109Y-98804004D01*
X166489538Y-98703797D01*
X166430233Y-98613863D01*
X166382523Y-98539410D01*
X166349733Y-98485651D01*
X166335192Y-98457794D01*
X166334766Y-98455812D01*
X166342432Y-98429555D01*
X166363051Y-98376737D01*
X166393055Y-98306210D01*
X166414115Y-98258993D01*
X166453492Y-98168594D01*
X166490575Y-98077266D01*
X166519325Y-98000100D01*
X166527135Y-97976592D01*
X166549323Y-97913816D01*
X166571013Y-97865311D01*
X166582927Y-97846979D01*
X166609217Y-97835759D01*
X166666598Y-97819854D01*
X166747622Y-97801067D01*
X166844845Y-97781199D01*
X166888355Y-97773032D01*
X166998844Y-97752729D01*
X167104824Y-97733070D01*
X167195939Y-97715988D01*
X167261832Y-97703418D01*
X167274240Y-97700991D01*
X167376817Y-97680745D01*
X167376817Y-97253601D01*
X167376587Y-97113146D01*
X167375641Y-97006879D01*
X167373599Y-96929913D01*
X167370078Y-96877360D01*
X167364697Y-96844333D01*
X167357074Y-96825945D01*
X167346828Y-96817308D01*
X167342625Y-96815707D01*
X167317270Y-96810027D01*
X167261256Y-96798695D01*
X167181776Y-96783079D01*
X167086028Y-96764547D01*
X166981207Y-96744469D01*
X166874508Y-96724212D01*
X166773127Y-96705146D01*
X166684261Y-96688639D01*
X166615103Y-96676059D01*
X166572851Y-96668775D01*
X166563450Y-96667516D01*
X166554933Y-96650663D01*
X166536080Y-96605770D01*
X166510416Y-96541330D01*
X166500617Y-96516092D01*
X166461092Y-96418586D01*
X166414548Y-96310859D01*
X166372863Y-96220072D01*
X166342190Y-96150653D01*
X166321784Y-96093610D01*
X166314972Y-96058677D01*
X166316058Y-96053995D01*
X166330455Y-96031891D01*
X166363328Y-95982731D01*
X166411150Y-95911748D01*
X166470392Y-95824178D01*
X166537525Y-95725257D01*
X166550799Y-95705730D01*
X166628694Y-95590040D01*
X166685953Y-95501944D01*
X166724859Y-95437386D01*
X166747696Y-95392311D01*
X166756746Y-95362663D01*
X166754292Y-95344385D01*
X166754229Y-95344269D01*
X166734913Y-95320261D01*
X166692189Y-95273847D01*
X166630689Y-95209837D01*
X166555042Y-95133045D01*
X166469879Y-95048282D01*
X166460275Y-95038822D01*
X166352950Y-94934889D01*
X166270125Y-94858575D01*
X166210135Y-94808471D01*
X166171317Y-94783170D01*
X166154220Y-94779904D01*
X166129267Y-94794150D01*
X166077485Y-94827056D01*
X166004220Y-94875108D01*
X165914820Y-94934790D01*
X165814629Y-95002588D01*
X165791239Y-95018539D01*
X165459147Y-95245320D01*
X165309175Y-95177253D01*
X165217970Y-95137585D01*
X165120071Y-95097691D01*
X165035909Y-95065883D01*
X165032202Y-95064574D01*
X164966371Y-95040476D01*
X164915624Y-95020100D01*
X164890898Y-95007836D01*
X164890856Y-95007801D01*
X164883011Y-94985634D01*
X164869674Y-94931117D01*
X164852170Y-94850380D01*
X164831823Y-94749550D01*
X164809958Y-94634756D01*
X164808169Y-94625078D01*
X164786236Y-94506804D01*
X164766100Y-94399442D01*
X164749060Y-94309817D01*
X164736412Y-94244751D01*
X164729456Y-94211068D01*
X164729334Y-94210554D01*
X164725101Y-94196225D01*
X164716869Y-94185407D01*
X164699707Y-94177606D01*
X164668682Y-94172329D01*
X164618862Y-94169082D01*
X164545316Y-94167372D01*
X164443111Y-94166707D01*
X164307315Y-94166593D01*
X164289740Y-94166592D01*
X164149862Y-94166676D01*
G36*
X160044516Y-100526738D02*
X159967212Y-100577261D01*
X159929926Y-100622490D01*
X159900387Y-100704563D01*
X159898041Y-100769507D01*
X159903355Y-100856345D01*
X160103625Y-100944003D01*
X160201001Y-100988787D01*
X160264627Y-101024813D01*
X160297711Y-101056017D01*
X160303460Y-101086336D01*
X160285082Y-101119705D01*
X160264817Y-101141823D01*
X160205851Y-101177293D01*
X160141716Y-101179779D01*
X160082814Y-101152135D01*
X160039543Y-101097220D01*
X160031804Y-101077828D01*
X159994734Y-101017264D01*
X159952086Y-100991452D01*
X159893586Y-100969371D01*
X159893586Y-101053084D01*
X159898758Y-101110050D01*
X159919017Y-101158089D01*
X159961478Y-101213246D01*
X159967789Y-101220414D01*
X160015020Y-101269485D01*
X160055619Y-101295820D01*
X160106412Y-101307935D01*
X160148520Y-101311903D01*
X160223838Y-101312891D01*
X160277454Y-101300366D01*
X160310902Y-101281769D01*
X160363472Y-101240875D01*
X160399861Y-101196648D01*
X160422890Y-101141026D01*
X160435381Y-101065947D01*
X160440153Y-100963349D01*
X160440534Y-100911276D01*
X160439239Y-100848848D01*
X160321269Y-100848848D01*
X160319901Y-100882338D01*
X160316491Y-100887823D01*
X160293987Y-100880372D01*
X160245558Y-100860653D01*
X160180832Y-100832618D01*
X160167297Y-100826592D01*
X160085496Y-100784996D01*
X160040428Y-100748438D01*
X160030523Y-100714196D01*
X160054214Y-100679548D01*
X160073780Y-100664239D01*
X160144380Y-100633621D01*
X160210460Y-100638680D01*
X160265781Y-100676051D01*
X160304104Y-100742373D01*
X160316391Y-100795016D01*
X160321269Y-100848848D01*
X160439239Y-100848848D01*
X160438010Y-100789620D01*
X160428708Y-100699610D01*
X160410280Y-100634067D01*
X160380380Y-100585812D01*
X160336660Y-100547667D01*
X160317599Y-100535340D01*
X160231014Y-100503236D01*
X160136218Y-100501216D01*
X160044516Y-100526738D01*
X160044516Y-100526738D01*
G37*
X160044516Y-100526738D02*
X159967212Y-100577261D01*
X159929926Y-100622490D01*
X159900387Y-100704563D01*
X159898041Y-100769507D01*
X159903355Y-100856345D01*
X160103625Y-100944003D01*
X160201001Y-100988787D01*
X160264627Y-101024813D01*
X160297711Y-101056017D01*
X160303460Y-101086336D01*
X160285082Y-101119705D01*
X160264817Y-101141823D01*
X160205851Y-101177293D01*
X160141716Y-101179779D01*
X160082814Y-101152135D01*
X160039543Y-101097220D01*
X160031804Y-101077828D01*
X159994734Y-101017264D01*
X159952086Y-100991452D01*
X159893586Y-100969371D01*
X159893586Y-101053084D01*
X159898758Y-101110050D01*
X159919017Y-101158089D01*
X159961478Y-101213246D01*
X159967789Y-101220414D01*
X160015020Y-101269485D01*
X160055619Y-101295820D01*
X160106412Y-101307935D01*
X160148520Y-101311903D01*
X160223838Y-101312891D01*
X160277454Y-101300366D01*
X160310902Y-101281769D01*
X160363472Y-101240875D01*
X160399861Y-101196648D01*
X160422890Y-101141026D01*
X160435381Y-101065947D01*
X160440153Y-100963349D01*
X160440534Y-100911276D01*
X160439239Y-100848848D01*
X160321269Y-100848848D01*
X160319901Y-100882338D01*
X160316491Y-100887823D01*
X160293987Y-100880372D01*
X160245558Y-100860653D01*
X160180832Y-100832618D01*
X160167297Y-100826592D01*
X160085496Y-100784996D01*
X160040428Y-100748438D01*
X160030523Y-100714196D01*
X160054214Y-100679548D01*
X160073780Y-100664239D01*
X160144380Y-100633621D01*
X160210460Y-100638680D01*
X160265781Y-100676051D01*
X160304104Y-100742373D01*
X160316391Y-100795016D01*
X160321269Y-100848848D01*
X160439239Y-100848848D01*
X160438010Y-100789620D01*
X160428708Y-100699610D01*
X160410280Y-100634067D01*
X160380380Y-100585812D01*
X160336660Y-100547667D01*
X160317599Y-100535340D01*
X160231014Y-100503236D01*
X160136218Y-100501216D01*
X160044516Y-100526738D01*
G36*
X160718933Y-100515682D02*
X160695579Y-100525888D01*
X160639838Y-100570034D01*
X160592171Y-100633867D01*
X160562692Y-100701987D01*
X160557894Y-100735570D01*
X160573980Y-100782456D01*
X160609265Y-100807265D01*
X160647096Y-100822287D01*
X160664419Y-100825055D01*
X160672854Y-100804966D01*
X160689510Y-100761251D01*
X160696817Y-100741498D01*
X160737792Y-100673171D01*
X160797118Y-100639091D01*
X160873188Y-100640139D01*
X160878822Y-100641481D01*
X160919435Y-100660736D01*
X160949292Y-100698275D01*
X160969685Y-100758709D01*
X160981904Y-100846651D01*
X160987240Y-100966713D01*
X160987740Y-101030598D01*
X160987988Y-101131303D01*
X160989614Y-101199954D01*
X160993939Y-101243573D01*
X161002286Y-101269182D01*
X161015975Y-101283803D01*
X161036329Y-101294458D01*
X161037506Y-101294995D01*
X161076702Y-101311567D01*
X161096121Y-101317669D01*
X161099105Y-101299219D01*
X161101659Y-101248223D01*
X161103600Y-101171208D01*
X161104743Y-101074705D01*
X161104971Y-101004084D01*
X161103808Y-100867425D01*
X161099261Y-100763751D01*
X161089741Y-100687008D01*
X161073659Y-100631146D01*
X161049427Y-100590112D01*
X161015454Y-100557854D01*
X160981907Y-100535340D01*
X160901241Y-100505376D01*
X160807359Y-100498618D01*
X160718933Y-100515682D01*
X160718933Y-100515682D01*
G37*
X160718933Y-100515682D02*
X160695579Y-100525888D01*
X160639838Y-100570034D01*
X160592171Y-100633867D01*
X160562692Y-100701987D01*
X160557894Y-100735570D01*
X160573980Y-100782456D01*
X160609265Y-100807265D01*
X160647096Y-100822287D01*
X160664419Y-100825055D01*
X160672854Y-100804966D01*
X160689510Y-100761251D01*
X160696817Y-100741498D01*
X160737792Y-100673171D01*
X160797118Y-100639091D01*
X160873188Y-100640139D01*
X160878822Y-100641481D01*
X160919435Y-100660736D01*
X160949292Y-100698275D01*
X160969685Y-100758709D01*
X160981904Y-100846651D01*
X160987240Y-100966713D01*
X160987740Y-101030598D01*
X160987988Y-101131303D01*
X160989614Y-101199954D01*
X160993939Y-101243573D01*
X161002286Y-101269182D01*
X161015975Y-101283803D01*
X161036329Y-101294458D01*
X161037506Y-101294995D01*
X161076702Y-101311567D01*
X161096121Y-101317669D01*
X161099105Y-101299219D01*
X161101659Y-101248223D01*
X161103600Y-101171208D01*
X161104743Y-101074705D01*
X161104971Y-101004084D01*
X161103808Y-100867425D01*
X161099261Y-100763751D01*
X161089741Y-100687008D01*
X161073659Y-100631146D01*
X161049427Y-100590112D01*
X161015454Y-100557854D01*
X160981907Y-100535340D01*
X160901241Y-100505376D01*
X160807359Y-100498618D01*
X160718933Y-100515682D01*
G36*
X161402407Y-100512428D02*
X161346150Y-100538017D01*
X161301993Y-100569024D01*
X161269639Y-100603695D01*
X161247302Y-100648420D01*
X161233194Y-100709592D01*
X161225529Y-100793601D01*
X161222520Y-100906840D01*
X161222202Y-100981409D01*
X161222202Y-101272320D01*
X161271967Y-101294995D01*
X161311164Y-101311567D01*
X161330583Y-101317669D01*
X161334298Y-101299510D01*
X161337245Y-101250548D01*
X161339049Y-101179053D01*
X161339432Y-101122285D01*
X161341079Y-101040271D01*
X161345518Y-100975209D01*
X161352000Y-100935367D01*
X161357150Y-100926900D01*
X161391763Y-100935546D01*
X161446100Y-100957723D01*
X161509018Y-100987786D01*
X161569372Y-101020092D01*
X161616019Y-101048998D01*
X161637814Y-101068861D01*
X161637901Y-101069075D01*
X161636026Y-101105835D01*
X161619215Y-101140926D01*
X161589701Y-101169428D01*
X161546624Y-101178961D01*
X161509808Y-101177850D01*
X161457666Y-101177033D01*
X161430296Y-101189249D01*
X161413858Y-101221524D01*
X161411785Y-101227610D01*
X161404659Y-101273639D01*
X161423716Y-101301587D01*
X161473387Y-101314907D01*
X161527043Y-101317370D01*
X161623598Y-101299110D01*
X161673581Y-101273031D01*
X161735311Y-101211768D01*
X161768050Y-101136570D01*
X161770987Y-101057111D01*
X161743316Y-100983067D01*
X161701693Y-100936669D01*
X161660136Y-100910693D01*
X161594818Y-100877807D01*
X161518702Y-100844457D01*
X161506014Y-100839361D01*
X161422407Y-100802465D01*
X161374210Y-100769946D01*
X161358710Y-100737618D01*
X161373190Y-100701294D01*
X161398048Y-100672900D01*
X161456801Y-100637939D01*
X161521447Y-100635317D01*
X161580732Y-100662258D01*
X161623401Y-100715988D01*
X161629001Y-100729850D01*
X161661607Y-100780836D01*
X161709210Y-100818687D01*
X161769279Y-100849750D01*
X161769279Y-100761668D01*
X161765743Y-100707851D01*
X161750584Y-100665434D01*
X161716972Y-100620179D01*
X161684705Y-100585320D01*
X161634531Y-100535962D01*
X161595547Y-100509447D01*
X161553676Y-100498811D01*
X161506280Y-100497054D01*
X161402407Y-100512428D01*
X161402407Y-100512428D01*
G37*
X161402407Y-100512428D02*
X161346150Y-100538017D01*
X161301993Y-100569024D01*
X161269639Y-100603695D01*
X161247302Y-100648420D01*
X161233194Y-100709592D01*
X161225529Y-100793601D01*
X161222520Y-100906840D01*
X161222202Y-100981409D01*
X161222202Y-101272320D01*
X161271967Y-101294995D01*
X161311164Y-101311567D01*
X161330583Y-101317669D01*
X161334298Y-101299510D01*
X161337245Y-101250548D01*
X161339049Y-101179053D01*
X161339432Y-101122285D01*
X161341079Y-101040271D01*
X161345518Y-100975209D01*
X161352000Y-100935367D01*
X161357150Y-100926900D01*
X161391763Y-100935546D01*
X161446100Y-100957723D01*
X161509018Y-100987786D01*
X161569372Y-101020092D01*
X161616019Y-101048998D01*
X161637814Y-101068861D01*
X161637901Y-101069075D01*
X161636026Y-101105835D01*
X161619215Y-101140926D01*
X161589701Y-101169428D01*
X161546624Y-101178961D01*
X161509808Y-101177850D01*
X161457666Y-101177033D01*
X161430296Y-101189249D01*
X161413858Y-101221524D01*
X161411785Y-101227610D01*
X161404659Y-101273639D01*
X161423716Y-101301587D01*
X161473387Y-101314907D01*
X161527043Y-101317370D01*
X161623598Y-101299110D01*
X161673581Y-101273031D01*
X161735311Y-101211768D01*
X161768050Y-101136570D01*
X161770987Y-101057111D01*
X161743316Y-100983067D01*
X161701693Y-100936669D01*
X161660136Y-100910693D01*
X161594818Y-100877807D01*
X161518702Y-100844457D01*
X161506014Y-100839361D01*
X161422407Y-100802465D01*
X161374210Y-100769946D01*
X161358710Y-100737618D01*
X161373190Y-100701294D01*
X161398048Y-100672900D01*
X161456801Y-100637939D01*
X161521447Y-100635317D01*
X161580732Y-100662258D01*
X161623401Y-100715988D01*
X161629001Y-100729850D01*
X161661607Y-100780836D01*
X161709210Y-100818687D01*
X161769279Y-100849750D01*
X161769279Y-100761668D01*
X161765743Y-100707851D01*
X161750584Y-100665434D01*
X161716972Y-100620179D01*
X161684705Y-100585320D01*
X161634531Y-100535962D01*
X161595547Y-100509447D01*
X161553676Y-100498811D01*
X161506280Y-100497054D01*
X161402407Y-100512428D01*
G36*
X161893811Y-100515562D02*
X161890829Y-100566968D01*
X161888493Y-100645092D01*
X161886991Y-100743757D01*
X161886509Y-100847243D01*
X161886509Y-101197433D01*
X161948339Y-101259263D01*
X161990947Y-101297362D01*
X162028350Y-101312795D01*
X162079470Y-101311818D01*
X162099762Y-101309333D01*
X162163186Y-101302100D01*
X162215645Y-101297955D01*
X162228432Y-101297572D01*
X162271541Y-101300076D01*
X162333196Y-101306362D01*
X162357102Y-101309333D01*
X162415818Y-101313928D01*
X162455276Y-101303946D01*
X162494402Y-101273128D01*
X162508525Y-101259263D01*
X162570355Y-101197433D01*
X162570355Y-100542403D01*
X162520590Y-100519729D01*
X162477738Y-100502934D01*
X162452667Y-100497054D01*
X162446239Y-100515636D01*
X162440231Y-100567555D01*
X162435043Y-100647072D01*
X162431076Y-100748446D01*
X162429163Y-100834092D01*
X162423817Y-101171131D01*
X162377180Y-101177725D01*
X162334764Y-101173114D01*
X162313980Y-101158187D01*
X162308170Y-101130277D01*
X162303210Y-101070825D01*
X162299494Y-100987366D01*
X162297416Y-100887432D01*
X162297116Y-100836004D01*
X162296817Y-100539954D01*
X162235286Y-100518504D01*
X162191736Y-100503920D01*
X162168046Y-100497119D01*
X162167363Y-100497054D01*
X162164986Y-100515542D01*
X162162374Y-100566806D01*
X162159745Y-100644549D01*
X162157319Y-100742474D01*
X162155625Y-100834092D01*
X162150279Y-101171131D01*
X162033048Y-101171131D01*
X162027668Y-100863646D01*
X162022289Y-100556161D01*
X161965139Y-100526607D01*
X161922943Y-100506313D01*
X161897970Y-100497104D01*
X161897249Y-100497054D01*
X161893811Y-100515562D01*
X161893811Y-100515562D01*
G37*
X161893811Y-100515562D02*
X161890829Y-100566968D01*
X161888493Y-100645092D01*
X161886991Y-100743757D01*
X161886509Y-100847243D01*
X161886509Y-101197433D01*
X161948339Y-101259263D01*
X161990947Y-101297362D01*
X162028350Y-101312795D01*
X162079470Y-101311818D01*
X162099762Y-101309333D01*
X162163186Y-101302100D01*
X162215645Y-101297955D01*
X162228432Y-101297572D01*
X162271541Y-101300076D01*
X162333196Y-101306362D01*
X162357102Y-101309333D01*
X162415818Y-101313928D01*
X162455276Y-101303946D01*
X162494402Y-101273128D01*
X162508525Y-101259263D01*
X162570355Y-101197433D01*
X162570355Y-100542403D01*
X162520590Y-100519729D01*
X162477738Y-100502934D01*
X162452667Y-100497054D01*
X162446239Y-100515636D01*
X162440231Y-100567555D01*
X162435043Y-100647072D01*
X162431076Y-100748446D01*
X162429163Y-100834092D01*
X162423817Y-101171131D01*
X162377180Y-101177725D01*
X162334764Y-101173114D01*
X162313980Y-101158187D01*
X162308170Y-101130277D01*
X162303210Y-101070825D01*
X162299494Y-100987366D01*
X162297416Y-100887432D01*
X162297116Y-100836004D01*
X162296817Y-100539954D01*
X162235286Y-100518504D01*
X162191736Y-100503920D01*
X162168046Y-100497119D01*
X162167363Y-100497054D01*
X162164986Y-100515542D01*
X162162374Y-100566806D01*
X162159745Y-100644549D01*
X162157319Y-100742474D01*
X162155625Y-100834092D01*
X162150279Y-101171131D01*
X162033048Y-101171131D01*
X162027668Y-100863646D01*
X162022289Y-100556161D01*
X161965139Y-100526607D01*
X161922943Y-100506313D01*
X161897970Y-100497104D01*
X161897249Y-100497054D01*
X161893811Y-100515562D01*
G36*
X162687659Y-100659189D02*
X162687907Y-100805220D01*
X162688868Y-100917555D01*
X162690946Y-101001578D01*
X162694547Y-101062669D01*
X162700075Y-101106209D01*
X162707936Y-101137579D01*
X162718533Y-101162162D01*
X162726558Y-101176194D01*
X162793012Y-101252288D01*
X162877270Y-101299984D01*
X162970491Y-101317099D01*
X163063840Y-101301446D01*
X163119428Y-101273318D01*
X163177783Y-101224660D01*
X163217554Y-101165233D01*
X163241550Y-101087407D01*
X163252579Y-100983552D01*
X163254141Y-100907362D01*
X163253931Y-100901886D01*
X163117432Y-100901886D01*
X163116599Y-100989255D01*
X163112779Y-101047092D01*
X163103994Y-101084929D01*
X163088266Y-101112298D01*
X163069474Y-101132942D01*
X163006365Y-101172790D01*
X162938603Y-101176195D01*
X162874561Y-101142925D01*
X162869576Y-101138417D01*
X162848301Y-101114967D01*
X162834961Y-101087066D01*
X162827739Y-101045541D01*
X162824817Y-100981216D01*
X162824355Y-100910100D01*
X162825357Y-100820758D01*
X162829502Y-100761158D01*
X162838504Y-100721989D01*
X162854073Y-100693940D01*
X162866838Y-100679044D01*
X162926140Y-100641475D01*
X162994439Y-100636957D01*
X163059630Y-100665653D01*
X163072212Y-100676306D01*
X163093629Y-100699963D01*
X163106996Y-100728151D01*
X163114174Y-100770145D01*
X163117021Y-100835219D01*
X163117432Y-100901886D01*
X163253931Y-100901886D01*
X163249418Y-100784665D01*
X163233378Y-100692477D01*
X163203212Y-100623169D01*
X163156111Y-100569111D01*
X163119428Y-100541405D01*
X163052750Y-100511472D01*
X162975468Y-100497578D01*
X162903630Y-100501297D01*
X162863432Y-100516300D01*
X162847658Y-100520570D01*
X162837190Y-100504650D01*
X162829884Y-100461989D01*
X162824355Y-100397006D01*
X162818303Y-100324632D01*
X162809896Y-100281087D01*
X162794599Y-100256187D01*
X162767876Y-100239745D01*
X162751086Y-100232464D01*
X162687586Y-100205863D01*
X162687659Y-100659189D01*
X162687659Y-100659189D01*
G37*
X162687659Y-100659189D02*
X162687907Y-100805220D01*
X162688868Y-100917555D01*
X162690946Y-101001578D01*
X162694547Y-101062669D01*
X162700075Y-101106209D01*
X162707936Y-101137579D01*
X162718533Y-101162162D01*
X162726558Y-101176194D01*
X162793012Y-101252288D01*
X162877270Y-101299984D01*
X162970491Y-101317099D01*
X163063840Y-101301446D01*
X163119428Y-101273318D01*
X163177783Y-101224660D01*
X163217554Y-101165233D01*
X163241550Y-101087407D01*
X163252579Y-100983552D01*
X163254141Y-100907362D01*
X163253931Y-100901886D01*
X163117432Y-100901886D01*
X163116599Y-100989255D01*
X163112779Y-101047092D01*
X163103994Y-101084929D01*
X163088266Y-101112298D01*
X163069474Y-101132942D01*
X163006365Y-101172790D01*
X162938603Y-101176195D01*
X162874561Y-101142925D01*
X162869576Y-101138417D01*
X162848301Y-101114967D01*
X162834961Y-101087066D01*
X162827739Y-101045541D01*
X162824817Y-100981216D01*
X162824355Y-100910100D01*
X162825357Y-100820758D01*
X162829502Y-100761158D01*
X162838504Y-100721989D01*
X162854073Y-100693940D01*
X162866838Y-100679044D01*
X162926140Y-100641475D01*
X162994439Y-100636957D01*
X163059630Y-100665653D01*
X163072212Y-100676306D01*
X163093629Y-100699963D01*
X163106996Y-100728151D01*
X163114174Y-100770145D01*
X163117021Y-100835219D01*
X163117432Y-100901886D01*
X163253931Y-100901886D01*
X163249418Y-100784665D01*
X163233378Y-100692477D01*
X163203212Y-100623169D01*
X163156111Y-100569111D01*
X163119428Y-100541405D01*
X163052750Y-100511472D01*
X162975468Y-100497578D01*
X162903630Y-100501297D01*
X162863432Y-100516300D01*
X162847658Y-100520570D01*
X162837190Y-100504650D01*
X162829884Y-100461989D01*
X162824355Y-100397006D01*
X162818303Y-100324632D01*
X162809896Y-100281087D01*
X162794599Y-100256187D01*
X162767876Y-100239745D01*
X162751086Y-100232464D01*
X162687586Y-100205863D01*
X162687659Y-100659189D01*
G36*
X163576378Y-100503570D02*
X163487623Y-100536321D01*
X163415718Y-100594250D01*
X163387596Y-100635028D01*
X163356938Y-100709854D01*
X163357575Y-100763958D01*
X163389753Y-100800346D01*
X163401659Y-100806533D01*
X163453065Y-100825825D01*
X163479318Y-100820882D01*
X163488210Y-100788487D01*
X163488663Y-100770592D01*
X163504943Y-100704759D01*
X163547375Y-100658707D01*
X163606352Y-100636464D01*
X163672265Y-100642061D01*
X163725845Y-100671129D01*
X163743942Y-100687710D01*
X163756769Y-100707825D01*
X163765434Y-100738232D01*
X163771044Y-100785688D01*
X163774705Y-100856950D01*
X163777525Y-100958775D01*
X163778256Y-100991015D01*
X163780920Y-101101310D01*
X163783948Y-101178936D01*
X163788490Y-101230296D01*
X163795694Y-101261790D01*
X163806707Y-101279820D01*
X163822680Y-101290788D01*
X163832906Y-101295633D01*
X163876334Y-101312201D01*
X163901898Y-101317669D01*
X163910345Y-101299407D01*
X163915501Y-101244196D01*
X163917394Y-101151399D01*
X163916051Y-101020378D01*
X163915633Y-101000169D01*
X163912682Y-100880633D01*
X163909192Y-100793349D01*
X163904226Y-100731491D01*
X163896847Y-100688236D01*
X163886116Y-100656760D01*
X163871095Y-100630239D01*
X163863238Y-100618875D01*
X163818187Y-100568592D01*
X163767800Y-100529481D01*
X163761632Y-100526067D01*
X163671282Y-100499112D01*
X163576378Y-100503570D01*
X163576378Y-100503570D01*
G37*
X163576378Y-100503570D02*
X163487623Y-100536321D01*
X163415718Y-100594250D01*
X163387596Y-100635028D01*
X163356938Y-100709854D01*
X163357575Y-100763958D01*
X163389753Y-100800346D01*
X163401659Y-100806533D01*
X163453065Y-100825825D01*
X163479318Y-100820882D01*
X163488210Y-100788487D01*
X163488663Y-100770592D01*
X163504943Y-100704759D01*
X163547375Y-100658707D01*
X163606352Y-100636464D01*
X163672265Y-100642061D01*
X163725845Y-100671129D01*
X163743942Y-100687710D01*
X163756769Y-100707825D01*
X163765434Y-100738232D01*
X163771044Y-100785688D01*
X163774705Y-100856950D01*
X163777525Y-100958775D01*
X163778256Y-100991015D01*
X163780920Y-101101310D01*
X163783948Y-101178936D01*
X163788490Y-101230296D01*
X163795694Y-101261790D01*
X163806707Y-101279820D01*
X163822680Y-101290788D01*
X163832906Y-101295633D01*
X163876334Y-101312201D01*
X163901898Y-101317669D01*
X163910345Y-101299407D01*
X163915501Y-101244196D01*
X163917394Y-101151399D01*
X163916051Y-101020378D01*
X163915633Y-101000169D01*
X163912682Y-100880633D01*
X163909192Y-100793349D01*
X163904226Y-100731491D01*
X163896847Y-100688236D01*
X163886116Y-100656760D01*
X163871095Y-100630239D01*
X163863238Y-100618875D01*
X163818187Y-100568592D01*
X163767800Y-100529481D01*
X163761632Y-100526067D01*
X163671282Y-100499112D01*
X163576378Y-100503570D01*
G36*
X164236239Y-100505203D02*
X164159680Y-100533633D01*
X164158804Y-100534179D01*
X164111455Y-100569027D01*
X164076499Y-100609752D01*
X164051915Y-100662825D01*
X164035678Y-100734714D01*
X164025765Y-100831892D01*
X164020154Y-100960828D01*
X164019663Y-100979198D01*
X164012599Y-101256187D01*
X164072045Y-101286928D01*
X164115059Y-101307702D01*
X164141030Y-101317546D01*
X164142231Y-101317669D01*
X164146726Y-101299506D01*
X164150296Y-101250512D01*
X164152492Y-101178931D01*
X164152971Y-101120968D01*
X164152982Y-101027070D01*
X164157274Y-100968103D01*
X164172237Y-100939979D01*
X164204258Y-100938606D01*
X164259726Y-100959898D01*
X164343471Y-100999036D01*
X164405051Y-101031543D01*
X164436723Y-101059745D01*
X164446034Y-101090482D01*
X164446048Y-101092004D01*
X164430683Y-101144954D01*
X164385193Y-101173560D01*
X164315574Y-101177703D01*
X164265427Y-101176984D01*
X164238986Y-101191427D01*
X164222497Y-101226118D01*
X164213007Y-101270316D01*
X164226683Y-101295393D01*
X164231833Y-101298982D01*
X164280315Y-101313396D01*
X164348209Y-101315437D01*
X164418128Y-101305883D01*
X164467672Y-101288422D01*
X164536170Y-101230264D01*
X164575106Y-101149308D01*
X164582817Y-101086060D01*
X164576933Y-101029011D01*
X164555639Y-100982442D01*
X164513475Y-100941081D01*
X164444981Y-100899655D01*
X164344696Y-100852893D01*
X164338586Y-100850250D01*
X164248250Y-100808517D01*
X164192505Y-100774291D01*
X164168611Y-100743535D01*
X164173827Y-100712211D01*
X164205412Y-100676283D01*
X164214857Y-100668016D01*
X164278123Y-100635958D01*
X164343676Y-100637307D01*
X164400768Y-100668738D01*
X164438647Y-100726924D01*
X164442166Y-100738346D01*
X164476440Y-100793737D01*
X164519931Y-100820418D01*
X164582817Y-100846860D01*
X164582817Y-100778448D01*
X164563688Y-100679010D01*
X164506909Y-100587802D01*
X164477362Y-100557289D01*
X164410198Y-100518128D01*
X164324784Y-100500400D01*
X164236239Y-100505203D01*
X164236239Y-100505203D01*
G37*
X164236239Y-100505203D02*
X164159680Y-100533633D01*
X164158804Y-100534179D01*
X164111455Y-100569027D01*
X164076499Y-100609752D01*
X164051915Y-100662825D01*
X164035678Y-100734714D01*
X164025765Y-100831892D01*
X164020154Y-100960828D01*
X164019663Y-100979198D01*
X164012599Y-101256187D01*
X164072045Y-101286928D01*
X164115059Y-101307702D01*
X164141030Y-101317546D01*
X164142231Y-101317669D01*
X164146726Y-101299506D01*
X164150296Y-101250512D01*
X164152492Y-101178931D01*
X164152971Y-101120968D01*
X164152982Y-101027070D01*
X164157274Y-100968103D01*
X164172237Y-100939979D01*
X164204258Y-100938606D01*
X164259726Y-100959898D01*
X164343471Y-100999036D01*
X164405051Y-101031543D01*
X164436723Y-101059745D01*
X164446034Y-101090482D01*
X164446048Y-101092004D01*
X164430683Y-101144954D01*
X164385193Y-101173560D01*
X164315574Y-101177703D01*
X164265427Y-101176984D01*
X164238986Y-101191427D01*
X164222497Y-101226118D01*
X164213007Y-101270316D01*
X164226683Y-101295393D01*
X164231833Y-101298982D01*
X164280315Y-101313396D01*
X164348209Y-101315437D01*
X164418128Y-101305883D01*
X164467672Y-101288422D01*
X164536170Y-101230264D01*
X164575106Y-101149308D01*
X164582817Y-101086060D01*
X164576933Y-101029011D01*
X164555639Y-100982442D01*
X164513475Y-100941081D01*
X164444981Y-100899655D01*
X164344696Y-100852893D01*
X164338586Y-100850250D01*
X164248250Y-100808517D01*
X164192505Y-100774291D01*
X164168611Y-100743535D01*
X164173827Y-100712211D01*
X164205412Y-100676283D01*
X164214857Y-100668016D01*
X164278123Y-100635958D01*
X164343676Y-100637307D01*
X164400768Y-100668738D01*
X164438647Y-100726924D01*
X164442166Y-100738346D01*
X164476440Y-100793737D01*
X164519931Y-100820418D01*
X164582817Y-100846860D01*
X164582817Y-100778448D01*
X164563688Y-100679010D01*
X164506909Y-100587802D01*
X164477362Y-100557289D01*
X164410198Y-100518128D01*
X164324784Y-100500400D01*
X164236239Y-100505203D01*
G36*
X165129894Y-100371020D02*
X165124168Y-100450880D01*
X165117591Y-100497939D01*
X165108478Y-100518466D01*
X165095142Y-100518729D01*
X165090817Y-100516278D01*
X165033296Y-100498536D01*
X164958472Y-100499572D01*
X164882401Y-100517810D01*
X164834822Y-100541405D01*
X164786038Y-100579098D01*
X164750376Y-100621755D01*
X164725895Y-100675957D01*
X164710653Y-100748284D01*
X164702710Y-100845319D01*
X164700124Y-100973642D01*
X164700078Y-100998258D01*
X164700048Y-101274770D01*
X164761579Y-101296220D01*
X164805281Y-101310812D01*
X164829258Y-101317606D01*
X164829963Y-101317669D01*
X164832325Y-101299245D01*
X164834334Y-101248426D01*
X164835839Y-101171893D01*
X164836687Y-101076330D01*
X164836817Y-101018229D01*
X164837089Y-100903671D01*
X164838488Y-100821567D01*
X164841891Y-100765293D01*
X164848173Y-100728226D01*
X164858211Y-100703744D01*
X164872879Y-100685225D01*
X164882038Y-100676306D01*
X164944951Y-100640366D01*
X165013604Y-100637675D01*
X165075892Y-100668070D01*
X165087411Y-100679044D01*
X165104307Y-100699679D01*
X165116026Y-100724156D01*
X165123507Y-100759547D01*
X165127686Y-100812926D01*
X165129503Y-100891366D01*
X165129894Y-100999517D01*
X165129894Y-101274770D01*
X165191425Y-101296220D01*
X165235127Y-101310812D01*
X165259104Y-101317606D01*
X165259810Y-101317669D01*
X165261614Y-101298969D01*
X165263240Y-101246222D01*
X165264623Y-101164457D01*
X165265698Y-101058705D01*
X165266400Y-100933994D01*
X165266663Y-100795355D01*
X165266663Y-100260706D01*
X165139663Y-100207136D01*
X165129894Y-100371020D01*
X165129894Y-100371020D01*
G37*
X165129894Y-100371020D02*
X165124168Y-100450880D01*
X165117591Y-100497939D01*
X165108478Y-100518466D01*
X165095142Y-100518729D01*
X165090817Y-100516278D01*
X165033296Y-100498536D01*
X164958472Y-100499572D01*
X164882401Y-100517810D01*
X164834822Y-100541405D01*
X164786038Y-100579098D01*
X164750376Y-100621755D01*
X164725895Y-100675957D01*
X164710653Y-100748284D01*
X164702710Y-100845319D01*
X164700124Y-100973642D01*
X164700078Y-100998258D01*
X164700048Y-101274770D01*
X164761579Y-101296220D01*
X164805281Y-101310812D01*
X164829258Y-101317606D01*
X164829963Y-101317669D01*
X164832325Y-101299245D01*
X164834334Y-101248426D01*
X164835839Y-101171893D01*
X164836687Y-101076330D01*
X164836817Y-101018229D01*
X164837089Y-100903671D01*
X164838488Y-100821567D01*
X164841891Y-100765293D01*
X164848173Y-100728226D01*
X164858211Y-100703744D01*
X164872879Y-100685225D01*
X164882038Y-100676306D01*
X164944951Y-100640366D01*
X165013604Y-100637675D01*
X165075892Y-100668070D01*
X165087411Y-100679044D01*
X165104307Y-100699679D01*
X165116026Y-100724156D01*
X165123507Y-100759547D01*
X165127686Y-100812926D01*
X165129503Y-100891366D01*
X165129894Y-100999517D01*
X165129894Y-101274770D01*
X165191425Y-101296220D01*
X165235127Y-101310812D01*
X165259104Y-101317606D01*
X165259810Y-101317669D01*
X165261614Y-101298969D01*
X165263240Y-101246222D01*
X165264623Y-101164457D01*
X165265698Y-101058705D01*
X165266400Y-100933994D01*
X165266663Y-100795355D01*
X165266663Y-100260706D01*
X165139663Y-100207136D01*
X165129894Y-100371020D01*
G36*
X166755486Y-100478645D02*
X166678454Y-100530467D01*
X166618924Y-100605312D01*
X166583362Y-100700554D01*
X166576169Y-100770656D01*
X166576986Y-100799909D01*
X166583826Y-100822307D01*
X166602628Y-100842374D01*
X166639332Y-100864633D01*
X166699878Y-100893609D01*
X166790206Y-100933827D01*
X166790663Y-100934029D01*
X166873807Y-100972110D01*
X166941987Y-101005925D01*
X166988235Y-101031833D01*
X167005582Y-101046195D01*
X167005586Y-101046311D01*
X166990297Y-101077585D01*
X166954544Y-101112057D01*
X166913498Y-101136890D01*
X166892703Y-101141823D01*
X166835970Y-101124762D01*
X166787113Y-101082033D01*
X166763275Y-101035055D01*
X166740343Y-101000422D01*
X166695422Y-100960981D01*
X166642617Y-100926909D01*
X166596030Y-100908380D01*
X166586288Y-100907362D01*
X166575322Y-100924115D01*
X166574661Y-100966939D01*
X166582720Y-101024681D01*
X166597913Y-101086189D01*
X166618654Y-101140309D01*
X166619702Y-101142410D01*
X166682119Y-101229560D01*
X166763014Y-101288839D01*
X166854884Y-101317934D01*
X166950227Y-101314534D01*
X167041542Y-101276328D01*
X167045602Y-101273641D01*
X167117434Y-101208542D01*
X167164667Y-101123605D01*
X167190806Y-101011921D01*
X167194314Y-100980543D01*
X167200527Y-100832436D01*
X167193079Y-100763368D01*
X167005586Y-100763368D01*
X167003150Y-100806452D01*
X166989826Y-100819026D01*
X166956608Y-100809619D01*
X166904246Y-100787383D01*
X166845716Y-100759510D01*
X166844261Y-100758772D01*
X166794651Y-100732677D01*
X166774740Y-100715263D01*
X166779650Y-100697007D01*
X166800324Y-100673020D01*
X166852921Y-100638306D01*
X166909563Y-100635756D01*
X166960371Y-100661019D01*
X166995464Y-100709747D01*
X167005586Y-100763368D01*
X167193079Y-100763368D01*
X167187748Y-100713936D01*
X167154962Y-100619955D01*
X167109319Y-100554115D01*
X167026938Y-100487581D01*
X166936194Y-100454576D01*
X166843555Y-100452473D01*
X166755486Y-100478645D01*
X166755486Y-100478645D01*
G37*
X166755486Y-100478645D02*
X166678454Y-100530467D01*
X166618924Y-100605312D01*
X166583362Y-100700554D01*
X166576169Y-100770656D01*
X166576986Y-100799909D01*
X166583826Y-100822307D01*
X166602628Y-100842374D01*
X166639332Y-100864633D01*
X166699878Y-100893609D01*
X166790206Y-100933827D01*
X166790663Y-100934029D01*
X166873807Y-100972110D01*
X166941987Y-101005925D01*
X166988235Y-101031833D01*
X167005582Y-101046195D01*
X167005586Y-101046311D01*
X166990297Y-101077585D01*
X166954544Y-101112057D01*
X166913498Y-101136890D01*
X166892703Y-101141823D01*
X166835970Y-101124762D01*
X166787113Y-101082033D01*
X166763275Y-101035055D01*
X166740343Y-101000422D01*
X166695422Y-100960981D01*
X166642617Y-100926909D01*
X166596030Y-100908380D01*
X166586288Y-100907362D01*
X166575322Y-100924115D01*
X166574661Y-100966939D01*
X166582720Y-101024681D01*
X166597913Y-101086189D01*
X166618654Y-101140309D01*
X166619702Y-101142410D01*
X166682119Y-101229560D01*
X166763014Y-101288839D01*
X166854884Y-101317934D01*
X166950227Y-101314534D01*
X167041542Y-101276328D01*
X167045602Y-101273641D01*
X167117434Y-101208542D01*
X167164667Y-101123605D01*
X167190806Y-101011921D01*
X167194314Y-100980543D01*
X167200527Y-100832436D01*
X167193079Y-100763368D01*
X167005586Y-100763368D01*
X167003150Y-100806452D01*
X166989826Y-100819026D01*
X166956608Y-100809619D01*
X166904246Y-100787383D01*
X166845716Y-100759510D01*
X166844261Y-100758772D01*
X166794651Y-100732677D01*
X166774740Y-100715263D01*
X166779650Y-100697007D01*
X166800324Y-100673020D01*
X166852921Y-100638306D01*
X166909563Y-100635756D01*
X166960371Y-100661019D01*
X166995464Y-100709747D01*
X167005586Y-100763368D01*
X167193079Y-100763368D01*
X167187748Y-100713936D01*
X167154962Y-100619955D01*
X167109319Y-100554115D01*
X167026938Y-100487581D01*
X166936194Y-100454576D01*
X166843555Y-100452473D01*
X166755486Y-100478645D01*
G36*
X168272854Y-100466156D02*
X168181276Y-100514309D01*
X168113691Y-100591805D01*
X168089683Y-100641627D01*
X168071002Y-100716433D01*
X168061439Y-100810952D01*
X168060532Y-100914110D01*
X168067819Y-101014835D01*
X168082837Y-101102053D01*
X168105125Y-101164691D01*
X168111975Y-101175479D01*
X168193108Y-101256005D01*
X168289474Y-101304236D01*
X168394039Y-101318350D01*
X168499772Y-101296529D01*
X168529197Y-101283447D01*
X168586499Y-101243131D01*
X168636790Y-101189675D01*
X168641543Y-101182895D01*
X168660862Y-101150221D01*
X168673632Y-101115294D01*
X168681176Y-101069314D01*
X168684816Y-101003484D01*
X168685875Y-100909005D01*
X168685894Y-100887823D01*
X168685846Y-100881082D01*
X168490509Y-100881082D01*
X168489372Y-100970249D01*
X168484899Y-101029420D01*
X168475494Y-101067641D01*
X168459564Y-101093953D01*
X168451432Y-101102746D01*
X168404682Y-101136161D01*
X168359293Y-101134637D01*
X168313400Y-101105652D01*
X168286028Y-101074709D01*
X168269817Y-101029543D01*
X168260714Y-100958320D01*
X168260089Y-100950014D01*
X168258536Y-100820937D01*
X168274775Y-100725072D01*
X168308588Y-100663007D01*
X168359756Y-100635332D01*
X168378020Y-100633823D01*
X168425980Y-100641413D01*
X168458787Y-100667708D01*
X168478845Y-100717995D01*
X168488562Y-100797564D01*
X168490509Y-100881082D01*
X168685846Y-100881082D01*
X168685166Y-100787149D01*
X168682111Y-100716806D01*
X168675418Y-100668063D01*
X168663780Y-100632188D01*
X168645887Y-100600448D01*
X168641932Y-100594548D01*
X168575473Y-100515004D01*
X168503055Y-100468829D01*
X168414891Y-100450499D01*
X168384953Y-100449603D01*
X168272854Y-100466156D01*
X168272854Y-100466156D01*
G37*
X168272854Y-100466156D02*
X168181276Y-100514309D01*
X168113691Y-100591805D01*
X168089683Y-100641627D01*
X168071002Y-100716433D01*
X168061439Y-100810952D01*
X168060532Y-100914110D01*
X168067819Y-101014835D01*
X168082837Y-101102053D01*
X168105125Y-101164691D01*
X168111975Y-101175479D01*
X168193108Y-101256005D01*
X168289474Y-101304236D01*
X168394039Y-101318350D01*
X168499772Y-101296529D01*
X168529197Y-101283447D01*
X168586499Y-101243131D01*
X168636790Y-101189675D01*
X168641543Y-101182895D01*
X168660862Y-101150221D01*
X168673632Y-101115294D01*
X168681176Y-101069314D01*
X168684816Y-101003484D01*
X168685875Y-100909005D01*
X168685894Y-100887823D01*
X168685846Y-100881082D01*
X168490509Y-100881082D01*
X168489372Y-100970249D01*
X168484899Y-101029420D01*
X168475494Y-101067641D01*
X168459564Y-101093953D01*
X168451432Y-101102746D01*
X168404682Y-101136161D01*
X168359293Y-101134637D01*
X168313400Y-101105652D01*
X168286028Y-101074709D01*
X168269817Y-101029543D01*
X168260714Y-100958320D01*
X168260089Y-100950014D01*
X168258536Y-100820937D01*
X168274775Y-100725072D01*
X168308588Y-100663007D01*
X168359756Y-100635332D01*
X168378020Y-100633823D01*
X168425980Y-100641413D01*
X168458787Y-100667708D01*
X168478845Y-100717995D01*
X168488562Y-100797564D01*
X168490509Y-100881082D01*
X168685846Y-100881082D01*
X168685166Y-100787149D01*
X168682111Y-100716806D01*
X168675418Y-100668063D01*
X168663780Y-100632188D01*
X168645887Y-100600448D01*
X168641932Y-100594548D01*
X168575473Y-100515004D01*
X168503055Y-100468829D01*
X168414891Y-100450499D01*
X168384953Y-100449603D01*
X168272854Y-100466156D01*
G36*
X166018076Y-100473989D02*
X165955373Y-100510258D01*
X165911779Y-100546258D01*
X165879895Y-100583975D01*
X165857930Y-100630099D01*
X165844091Y-100691321D01*
X165836587Y-100774331D01*
X165833623Y-100885819D01*
X165833279Y-100965962D01*
X165833279Y-101260965D01*
X165999355Y-101335415D01*
X166009125Y-101012302D01*
X166013161Y-100891629D01*
X166017396Y-100804041D01*
X166022643Y-100743550D01*
X166029715Y-100704168D01*
X166039429Y-100679907D01*
X166052596Y-100664780D01*
X166056821Y-100661506D01*
X166120831Y-100635934D01*
X166185532Y-100646053D01*
X166224048Y-100672900D01*
X166239715Y-100691924D01*
X166250560Y-100716888D01*
X166257452Y-100754734D01*
X166261261Y-100812402D01*
X166262857Y-100896835D01*
X166263125Y-100984828D01*
X166263177Y-101095223D01*
X166265068Y-101173363D01*
X166271395Y-101226065D01*
X166284757Y-101260142D01*
X166307755Y-101282411D01*
X166342986Y-101299687D01*
X166390043Y-101317638D01*
X166441437Y-101337178D01*
X166435319Y-100990385D01*
X166432856Y-100865368D01*
X166429973Y-100772982D01*
X166425842Y-100706781D01*
X166419633Y-100660320D01*
X166410514Y-100627156D01*
X166397657Y-100600844D01*
X166382156Y-100577629D01*
X166307369Y-100503469D01*
X166216112Y-100460584D01*
X166116857Y-100450312D01*
X166018076Y-100473989D01*
X166018076Y-100473989D01*
G37*
X166018076Y-100473989D02*
X165955373Y-100510258D01*
X165911779Y-100546258D01*
X165879895Y-100583975D01*
X165857930Y-100630099D01*
X165844091Y-100691321D01*
X165836587Y-100774331D01*
X165833623Y-100885819D01*
X165833279Y-100965962D01*
X165833279Y-101260965D01*
X165999355Y-101335415D01*
X166009125Y-101012302D01*
X166013161Y-100891629D01*
X166017396Y-100804041D01*
X166022643Y-100743550D01*
X166029715Y-100704168D01*
X166039429Y-100679907D01*
X166052596Y-100664780D01*
X166056821Y-100661506D01*
X166120831Y-100635934D01*
X166185532Y-100646053D01*
X166224048Y-100672900D01*
X166239715Y-100691924D01*
X166250560Y-100716888D01*
X166257452Y-100754734D01*
X166261261Y-100812402D01*
X166262857Y-100896835D01*
X166263125Y-100984828D01*
X166263177Y-101095223D01*
X166265068Y-101173363D01*
X166271395Y-101226065D01*
X166284757Y-101260142D01*
X166307755Y-101282411D01*
X166342986Y-101299687D01*
X166390043Y-101317638D01*
X166441437Y-101337178D01*
X166435319Y-100990385D01*
X166432856Y-100865368D01*
X166429973Y-100772982D01*
X166425842Y-100706781D01*
X166419633Y-100660320D01*
X166410514Y-100627156D01*
X166397657Y-100600844D01*
X166382156Y-100577629D01*
X166307369Y-100503469D01*
X166216112Y-100460584D01*
X166116857Y-100450312D01*
X166018076Y-100473989D01*
G36*
X167520854Y-100463405D02*
X167446201Y-100500627D01*
X167380309Y-100569161D01*
X167362163Y-100594548D01*
X167342395Y-100627766D01*
X167329568Y-100663845D01*
X167322230Y-100711998D01*
X167318927Y-100781436D01*
X167318202Y-100873106D01*
X167321477Y-100998730D01*
X167332863Y-101093054D01*
X167354699Y-101163423D01*
X167389321Y-101217186D01*
X167439070Y-101261688D01*
X167442726Y-101264323D01*
X167491755Y-101291277D01*
X167550795Y-101304612D01*
X167625881Y-101307900D01*
X167747945Y-101307900D01*
X167747996Y-101426397D01*
X167749132Y-101492392D01*
X167756054Y-101531102D01*
X167774142Y-101554319D01*
X167808778Y-101573833D01*
X167817095Y-101577820D01*
X167856020Y-101596503D01*
X167886157Y-101608303D01*
X167908566Y-101609322D01*
X167924307Y-101595661D01*
X167934438Y-101563422D01*
X167940017Y-101508704D01*
X167942105Y-101427611D01*
X167941759Y-101316244D01*
X167940040Y-101170702D01*
X167939503Y-101127169D01*
X167937568Y-100977105D01*
X167935836Y-100878942D01*
X167748048Y-100878942D01*
X167746992Y-100962264D01*
X167742302Y-101016780D01*
X167731689Y-101052737D01*
X167712868Y-101080382D01*
X167700090Y-101093865D01*
X167647850Y-101133317D01*
X167601598Y-101136528D01*
X167553873Y-101103949D01*
X167552663Y-101102746D01*
X167533246Y-101077568D01*
X167521433Y-101043347D01*
X167515475Y-100990648D01*
X167513620Y-100910031D01*
X167513586Y-100892171D01*
X167518070Y-100781075D01*
X167532666Y-100704061D01*
X167559090Y-100657047D01*
X167599057Y-100635950D01*
X167622156Y-100633823D01*
X167676978Y-100643800D01*
X167714582Y-100676652D01*
X167737217Y-100736757D01*
X167747134Y-100828498D01*
X167748048Y-100878942D01*
X167935836Y-100878942D01*
X167935518Y-100860960D01*
X167932867Y-100773579D01*
X167929134Y-100709805D01*
X167923833Y-100664482D01*
X167916482Y-100632455D01*
X167906597Y-100608568D01*
X167893694Y-100587664D01*
X167888161Y-100579798D01*
X167814771Y-100505495D01*
X167721980Y-100463367D01*
X167614644Y-100451622D01*
X167520854Y-100463405D01*
X167520854Y-100463405D01*
G37*
X167520854Y-100463405D02*
X167446201Y-100500627D01*
X167380309Y-100569161D01*
X167362163Y-100594548D01*
X167342395Y-100627766D01*
X167329568Y-100663845D01*
X167322230Y-100711998D01*
X167318927Y-100781436D01*
X167318202Y-100873106D01*
X167321477Y-100998730D01*
X167332863Y-101093054D01*
X167354699Y-101163423D01*
X167389321Y-101217186D01*
X167439070Y-101261688D01*
X167442726Y-101264323D01*
X167491755Y-101291277D01*
X167550795Y-101304612D01*
X167625881Y-101307900D01*
X167747945Y-101307900D01*
X167747996Y-101426397D01*
X167749132Y-101492392D01*
X167756054Y-101531102D01*
X167774142Y-101554319D01*
X167808778Y-101573833D01*
X167817095Y-101577820D01*
X167856020Y-101596503D01*
X167886157Y-101608303D01*
X167908566Y-101609322D01*
X167924307Y-101595661D01*
X167934438Y-101563422D01*
X167940017Y-101508704D01*
X167942105Y-101427611D01*
X167941759Y-101316244D01*
X167940040Y-101170702D01*
X167939503Y-101127169D01*
X167937568Y-100977105D01*
X167935836Y-100878942D01*
X167748048Y-100878942D01*
X167746992Y-100962264D01*
X167742302Y-101016780D01*
X167731689Y-101052737D01*
X167712868Y-101080382D01*
X167700090Y-101093865D01*
X167647850Y-101133317D01*
X167601598Y-101136528D01*
X167553873Y-101103949D01*
X167552663Y-101102746D01*
X167533246Y-101077568D01*
X167521433Y-101043347D01*
X167515475Y-100990648D01*
X167513620Y-100910031D01*
X167513586Y-100892171D01*
X167518070Y-100781075D01*
X167532666Y-100704061D01*
X167559090Y-100657047D01*
X167599057Y-100635950D01*
X167622156Y-100633823D01*
X167676978Y-100643800D01*
X167714582Y-100676652D01*
X167737217Y-100736757D01*
X167747134Y-100828498D01*
X167748048Y-100878942D01*
X167935836Y-100878942D01*
X167935518Y-100860960D01*
X167932867Y-100773579D01*
X167929134Y-100709805D01*
X167923833Y-100664482D01*
X167916482Y-100632455D01*
X167906597Y-100608568D01*
X167893694Y-100587664D01*
X167888161Y-100579798D01*
X167814771Y-100505495D01*
X167721980Y-100463367D01*
X167614644Y-100451622D01*
X167520854Y-100463405D01*
G04 #@! TO.C,BZ1*
D10*
X141015152Y-101665751D02*
X140872295Y-101713370D01*
X140824676Y-101760989D01*
X140777057Y-101856227D01*
X140777057Y-101999084D01*
X140824676Y-102094322D01*
X140872295Y-102141941D01*
X140967533Y-102189560D01*
X141348485Y-102189560D01*
X141348485Y-101189560D01*
X141015152Y-101189560D01*
X140919914Y-101237180D01*
X140872295Y-101284799D01*
X140824676Y-101380037D01*
X140824676Y-101475275D01*
X140872295Y-101570513D01*
X140919914Y-101618132D01*
X141015152Y-101665751D01*
X141348485Y-101665751D01*
X140443723Y-101189560D02*
X139777057Y-101189560D01*
X140443723Y-102189560D01*
X139777057Y-102189560D01*
X138872295Y-102189560D02*
X139443723Y-102189560D01*
X139158009Y-102189560D02*
X139158009Y-101189560D01*
X139253247Y-101332418D01*
X139348485Y-101427656D01*
X139443723Y-101475275D01*
X136745952Y-100470028D02*
X135984047Y-100470028D01*
X136365000Y-100850980D02*
X136365000Y-100089076D01*
G04 #@! TD*
M02*
