G04 #@! TF.GenerationSoftware,KiCad,Pcbnew,(5.0.0)*
G04 #@! TF.CreationDate,2018-09-03T12:55:52-05:00*
G04 #@! TF.ProjectId,YAPS_Arduino_Shield_AVR,594150535F41726475696E6F5F536869,1.0*
G04 #@! TF.SameCoordinates,Original*
G04 #@! TF.FileFunction,Copper,L2,Bot,Signal*
G04 #@! TF.FilePolarity,Positive*
%FSLAX46Y46*%
G04 Gerber Fmt 4.6, Leading zero omitted, Abs format (unit mm)*
G04 Created by KiCad (PCBNEW (5.0.0)) date 09/03/18 12:55:52*
%MOMM*%
%LPD*%
G01*
G04 APERTURE LIST*
G04 #@! TA.AperFunction,ComponentPad*
%ADD10O,1.700000X1.700000*%
G04 #@! TD*
G04 #@! TA.AperFunction,ComponentPad*
%ADD11R,1.700000X1.700000*%
G04 #@! TD*
G04 #@! TA.AperFunction,ComponentPad*
%ADD12R,2.000000X2.000000*%
G04 #@! TD*
G04 #@! TA.AperFunction,ComponentPad*
%ADD13C,2.000000*%
G04 #@! TD*
G04 #@! TA.AperFunction,ComponentPad*
%ADD14R,1.600000X1.600000*%
G04 #@! TD*
G04 #@! TA.AperFunction,ComponentPad*
%ADD15O,1.600000X1.600000*%
G04 #@! TD*
G04 #@! TA.AperFunction,ViaPad*
%ADD16C,0.600000*%
G04 #@! TD*
G04 #@! TA.AperFunction,Conductor*
%ADD17C,0.500000*%
G04 #@! TD*
G04 #@! TA.AperFunction,Conductor*
%ADD18C,0.350000*%
G04 #@! TD*
G04 #@! TA.AperFunction,Conductor*
%ADD19C,0.254000*%
G04 #@! TD*
G04 APERTURE END LIST*
D10*
G04 #@! TO.P,J3,6*
G04 #@! TO.N,/85_VCC*
X144183000Y-110252000D03*
G04 #@! TO.P,J3,5*
G04 #@! TO.N,/85_GND*
X141643000Y-110252000D03*
G04 #@! TO.P,J3,4*
G04 #@! TO.N,/84_MOSI*
X144183000Y-107712000D03*
G04 #@! TO.P,J3,3*
G04 #@! TO.N,/84_SCK*
X141643000Y-107712000D03*
G04 #@! TO.P,J3,2*
G04 #@! TO.N,/85_RST*
X144183000Y-105172000D03*
D11*
G04 #@! TO.P,J3,1*
G04 #@! TO.N,/84_MISO*
X141643000Y-105172000D03*
G04 #@! TD*
G04 #@! TO.P,J2,1*
G04 #@! TO.N,/85_MISO*
X129644000Y-105172000D03*
D10*
G04 #@! TO.P,J2,2*
G04 #@! TO.N,/85_VCC*
X132184000Y-105172000D03*
G04 #@! TO.P,J2,3*
G04 #@! TO.N,/85_SCK*
X129644000Y-107712000D03*
G04 #@! TO.P,J2,4*
G04 #@! TO.N,/85_MOSI*
X132184000Y-107712000D03*
G04 #@! TO.P,J2,5*
G04 #@! TO.N,/85_RST*
X129644000Y-110252000D03*
G04 #@! TO.P,J2,6*
G04 #@! TO.N,/85_GND*
X132184000Y-110252000D03*
G04 #@! TD*
G04 #@! TO.P,J4,6*
G04 #@! TO.N,/84_MISO*
X156182000Y-110252000D03*
G04 #@! TO.P,J4,5*
G04 #@! TO.N,/85_RST*
X153642000Y-110252000D03*
G04 #@! TO.P,J4,4*
G04 #@! TO.N,/329_MOSI*
X156182000Y-107712000D03*
G04 #@! TO.P,J4,3*
G04 #@! TO.N,/329_SCK*
X153642000Y-107712000D03*
G04 #@! TO.P,J4,2*
G04 #@! TO.N,/84_MOSI*
X156182000Y-105172000D03*
D11*
G04 #@! TO.P,J4,1*
G04 #@! TO.N,/329_MISO*
X153642000Y-105172000D03*
G04 #@! TD*
G04 #@! TO.P,J1,1*
G04 #@! TO.N,/12(MISO)*
X171348000Y-105172000D03*
D10*
G04 #@! TO.P,J1,2*
G04 #@! TO.N,+5V*
X173888000Y-105172000D03*
G04 #@! TO.P,J1,3*
G04 #@! TO.N,/13(SCK)*
X171348000Y-107712000D03*
G04 #@! TO.P,J1,4*
G04 #@! TO.N,/11(\002A\002A/MOSI)*
X173888000Y-107712000D03*
G04 #@! TO.P,J1,5*
G04 #@! TO.N,/10(\002A\002A/SS)*
X171348000Y-110252000D03*
G04 #@! TO.P,J1,6*
G04 #@! TO.N,GND*
X173888000Y-110252000D03*
G04 #@! TD*
G04 #@! TO.P,P4,8*
G04 #@! TO.N,Net-(P4-Pad8)*
X174498000Y-75565000D03*
G04 #@! TO.P,P4,7*
G04 #@! TO.N,Net-(P4-Pad7)*
X171958000Y-75565000D03*
G04 #@! TO.P,P4,6*
G04 #@! TO.N,Net-(P4-Pad6)*
X169418000Y-75565000D03*
G04 #@! TO.P,P4,5*
G04 #@! TO.N,Net-(P4-Pad5)*
X166878000Y-75565000D03*
G04 #@! TO.P,P4,4*
G04 #@! TO.N,Net-(P4-Pad4)*
X164338000Y-75565000D03*
G04 #@! TO.P,P4,3*
G04 #@! TO.N,Net-(P4-Pad3)*
X161798000Y-75565000D03*
G04 #@! TO.P,P4,2*
G04 #@! TO.N,Net-(P4-Pad2)*
X159258000Y-75565000D03*
D11*
G04 #@! TO.P,P4,1*
G04 #@! TO.N,/7*
X156718000Y-75565000D03*
G04 #@! TD*
D10*
G04 #@! TO.P,P3,10*
G04 #@! TO.N,/8*
X152654000Y-75565000D03*
G04 #@! TO.P,P3,9*
G04 #@! TO.N,/9(\002A\002A)*
X150114000Y-75565000D03*
G04 #@! TO.P,P3,8*
G04 #@! TO.N,/10(\002A\002A/SS)*
X147574000Y-75565000D03*
G04 #@! TO.P,P3,7*
G04 #@! TO.N,/11(\002A\002A/MOSI)*
X145034000Y-75565000D03*
G04 #@! TO.P,P3,6*
G04 #@! TO.N,/12(MISO)*
X142494000Y-75565000D03*
G04 #@! TO.P,P3,5*
G04 #@! TO.N,/13(SCK)*
X139954000Y-75565000D03*
G04 #@! TO.P,P3,4*
G04 #@! TO.N,GND*
X137414000Y-75565000D03*
G04 #@! TO.P,P3,3*
G04 #@! TO.N,Net-(P3-Pad3)*
X134874000Y-75565000D03*
G04 #@! TO.P,P3,2*
G04 #@! TO.N,Net-(P3-Pad2)*
X132334000Y-75565000D03*
D11*
G04 #@! TO.P,P3,1*
G04 #@! TO.N,Net-(P3-Pad1)*
X129794000Y-75565000D03*
G04 #@! TD*
D10*
G04 #@! TO.P,P2,6*
G04 #@! TO.N,Net-(P2-Pad6)*
X174498000Y-123825000D03*
G04 #@! TO.P,P2,5*
G04 #@! TO.N,Net-(P2-Pad5)*
X171958000Y-123825000D03*
G04 #@! TO.P,P2,4*
G04 #@! TO.N,/A3*
X169418000Y-123825000D03*
G04 #@! TO.P,P2,3*
G04 #@! TO.N,Net-(P2-Pad3)*
X166878000Y-123825000D03*
G04 #@! TO.P,P2,2*
G04 #@! TO.N,Net-(P2-Pad2)*
X164338000Y-123825000D03*
D11*
G04 #@! TO.P,P2,1*
G04 #@! TO.N,/7*
X161798000Y-123825000D03*
G04 #@! TD*
D10*
G04 #@! TO.P,P1,8*
G04 #@! TO.N,Net-(P1-Pad8)*
X156718000Y-123825000D03*
G04 #@! TO.P,P1,7*
G04 #@! TO.N,GND*
X154178000Y-123825000D03*
G04 #@! TO.P,P1,6*
X151638000Y-123825000D03*
G04 #@! TO.P,P1,5*
G04 #@! TO.N,+5V*
X149098000Y-123825000D03*
G04 #@! TO.P,P1,4*
G04 #@! TO.N,Net-(P1-Pad4)*
X146558000Y-123825000D03*
G04 #@! TO.P,P1,3*
G04 #@! TO.N,/Reset*
X144018000Y-123825000D03*
G04 #@! TO.P,P1,2*
G04 #@! TO.N,Net-(P1-Pad2)*
X141478000Y-123825000D03*
D11*
G04 #@! TO.P,P1,1*
G04 #@! TO.N,Net-(P1-Pad1)*
X138938000Y-123825000D03*
G04 #@! TD*
D12*
G04 #@! TO.P,BZ1,1*
G04 #@! TO.N,/A3*
X136375000Y-97858600D03*
D13*
G04 #@! TO.P,BZ1,2*
G04 #@! TO.N,GND*
X143975000Y-97858600D03*
G04 #@! TD*
D14*
G04 #@! TO.P,J5,1*
G04 #@! TO.N,/85_RST*
X136520000Y-90612000D03*
D15*
G04 #@! TO.P,J5,15*
G04 #@! TO.N,Net-(J5-Pad15)*
X169540000Y-82992000D03*
G04 #@! TO.P,J5,2*
G04 #@! TO.N,/7*
X139060000Y-90612000D03*
G04 #@! TO.P,J5,16*
G04 #@! TO.N,Net-(J5-Pad16)*
X167000000Y-82992000D03*
G04 #@! TO.P,J5,3*
G04 #@! TO.N,Net-(J5-Pad3)*
X141600000Y-90612000D03*
G04 #@! TO.P,J5,17*
G04 #@! TO.N,/329_MOSI*
X164460000Y-82992000D03*
G04 #@! TO.P,J5,4*
G04 #@! TO.N,/85_GND*
X144140000Y-90612000D03*
G04 #@! TO.P,J5,18*
G04 #@! TO.N,/329_MISO*
X161920000Y-82992000D03*
G04 #@! TO.P,J5,5*
G04 #@! TO.N,/7*
X146680000Y-90612000D03*
G04 #@! TO.P,J5,19*
G04 #@! TO.N,/329_SCK*
X159380000Y-82992000D03*
G04 #@! TO.P,J5,6*
G04 #@! TO.N,Net-(J5-Pad6)*
X149220000Y-90612000D03*
G04 #@! TO.P,J5,20*
G04 #@! TO.N,Net-(J5-Pad20)*
X156840000Y-82992000D03*
G04 #@! TO.P,J5,7*
G04 #@! TO.N,/84_MOSI*
X151760000Y-90612000D03*
G04 #@! TO.P,J5,21*
G04 #@! TO.N,Net-(J5-Pad21)*
X154300000Y-82992000D03*
G04 #@! TO.P,J5,8*
G04 #@! TO.N,/84_MISO*
X154300000Y-90612000D03*
G04 #@! TO.P,J5,22*
X151760000Y-82992000D03*
G04 #@! TO.P,J5,9*
G04 #@! TO.N,/CY01*
X156840000Y-90612000D03*
G04 #@! TO.P,J5,23*
G04 #@! TO.N,/84_SCK*
X149220000Y-82992000D03*
G04 #@! TO.P,J5,10*
G04 #@! TO.N,/CY02*
X159380000Y-90612000D03*
G04 #@! TO.P,J5,24*
G04 #@! TO.N,/7*
X146680000Y-82992000D03*
G04 #@! TO.P,J5,11*
G04 #@! TO.N,Net-(J5-Pad11)*
X161920000Y-90612000D03*
G04 #@! TO.P,J5,25*
G04 #@! TO.N,/85_MOSI*
X144140000Y-82992000D03*
G04 #@! TO.P,J5,12*
G04 #@! TO.N,Net-(J5-Pad12)*
X164460000Y-90612000D03*
G04 #@! TO.P,J5,26*
G04 #@! TO.N,/85_MISO*
X141600000Y-82992000D03*
G04 #@! TO.P,J5,13*
G04 #@! TO.N,Net-(J5-Pad13)*
X167000000Y-90612000D03*
G04 #@! TO.P,J5,27*
G04 #@! TO.N,/85_SCK*
X139060000Y-82992000D03*
G04 #@! TO.P,J5,14*
G04 #@! TO.N,Net-(J5-Pad14)*
X169540000Y-90612000D03*
G04 #@! TO.P,J5,28*
G04 #@! TO.N,/85_VCC*
X136520000Y-82992000D03*
G04 #@! TD*
D11*
G04 #@! TO.P,J6,1*
G04 #@! TO.N,/12(MISO)*
X171478000Y-116683000D03*
D10*
G04 #@! TO.P,J6,2*
G04 #@! TO.N,/13(SCK)*
X174018000Y-116683000D03*
G04 #@! TO.P,J6,3*
G04 #@! TO.N,/10(\002A\002A/SS)*
X171478000Y-119223000D03*
G04 #@! TO.P,J6,4*
G04 #@! TO.N,/11(\002A\002A/MOSI)*
X174018000Y-119223000D03*
G04 #@! TD*
D16*
G04 #@! TO.N,/9(\002A\002A)*
X151688200Y-106539700D03*
G04 #@! TO.N,/8*
X155648100Y-116170800D03*
G04 #@! TO.N,/10(\002A\002A/SS)*
X156977000Y-98916300D03*
G04 #@! TO.N,/85_VCC*
X139554200Y-109977300D03*
G04 #@! TD*
D17*
G04 #@! TO.N,+5V*
X173888000Y-105172000D02*
X172587600Y-103871600D01*
X172587600Y-103871600D02*
X169051400Y-103871600D01*
X169051400Y-103871600D02*
X149098000Y-123825000D01*
G04 #@! TO.N,GND*
X137414000Y-75565000D02*
X137414000Y-76865300D01*
X143975000Y-97858600D02*
X140330000Y-94213600D01*
X140330000Y-94213600D02*
X140330000Y-79781300D01*
X140330000Y-79781300D02*
X137414000Y-76865300D01*
D18*
G04 #@! TO.N,/A3*
X136375000Y-97858600D02*
X136375000Y-105275100D01*
X136375000Y-105275100D02*
X132668100Y-108982000D01*
X132668100Y-108982000D02*
X129167500Y-108982000D01*
X129167500Y-108982000D02*
X128399800Y-109749700D01*
X128399800Y-109749700D02*
X128399800Y-115602400D01*
X128399800Y-115602400D02*
X138401000Y-125603600D01*
X138401000Y-125603600D02*
X166921900Y-125603600D01*
X166921900Y-125603600D02*
X168192700Y-124332800D01*
X168192700Y-124332800D02*
X168192700Y-123825000D01*
X169418000Y-123825000D02*
X168192700Y-123825000D01*
G04 #@! TO.N,/9(\002A\002A)*
X150114000Y-76790300D02*
X150490000Y-77166300D01*
X150490000Y-77166300D02*
X150490000Y-85402400D01*
X150490000Y-85402400D02*
X152962000Y-87874400D01*
X152962000Y-87874400D02*
X152962000Y-100966400D01*
X152962000Y-100966400D02*
X151688200Y-102240200D01*
X151688200Y-102240200D02*
X151688200Y-106539700D01*
X150114000Y-75565000D02*
X150114000Y-76790300D01*
G04 #@! TO.N,/8*
X153879300Y-75565000D02*
X153879300Y-75794700D01*
X153879300Y-75794700D02*
X159140200Y-81055600D01*
X159140200Y-81055600D02*
X164193600Y-81055600D01*
X164193600Y-81055600D02*
X165661000Y-82523000D01*
X165661000Y-82523000D02*
X165661000Y-106157900D01*
X165661000Y-106157900D02*
X155648100Y-116170800D01*
X152654000Y-75565000D02*
X153879300Y-75565000D01*
G04 #@! TO.N,/7*
X139060000Y-91787300D02*
X139060000Y-105946200D01*
X139060000Y-105946200D02*
X138263000Y-106743200D01*
X138263000Y-106743200D02*
X138263000Y-116169800D01*
X138263000Y-116169800D02*
X145288000Y-123194800D01*
X145288000Y-123194800D02*
X145288000Y-124354600D01*
X145288000Y-124354600D02*
X145983700Y-125050300D01*
X145983700Y-125050300D02*
X159347400Y-125050300D01*
X159347400Y-125050300D02*
X160572700Y-123825000D01*
X161798000Y-123825000D02*
X160572700Y-123825000D01*
X139060000Y-90612000D02*
X139060000Y-91787300D01*
G04 #@! TO.N,/13(SCK)*
X171348000Y-107712000D02*
X171348000Y-108937300D01*
X174018000Y-116683000D02*
X174018000Y-115457700D01*
X174018000Y-115457700D02*
X172618000Y-114057700D01*
X172618000Y-114057700D02*
X172618000Y-109699500D01*
X172618000Y-109699500D02*
X171855800Y-108937300D01*
X171855800Y-108937300D02*
X171348000Y-108937300D01*
G04 #@! TO.N,/10(\002A\002A/SS)*
X147574000Y-75565000D02*
X148799300Y-75565000D01*
X156977000Y-98916300D02*
X155664600Y-97603900D01*
X155664600Y-97603900D02*
X155664600Y-82330800D01*
X155664600Y-82330800D02*
X151384000Y-78050200D01*
X151384000Y-78050200D02*
X151384000Y-75095700D01*
X151384000Y-75095700D02*
X150609000Y-74320700D01*
X150609000Y-74320700D02*
X149535800Y-74320700D01*
X149535800Y-74320700D02*
X148799300Y-75057200D01*
X148799300Y-75057200D02*
X148799300Y-75565000D01*
X171348000Y-110252000D02*
X171348000Y-111477300D01*
X171478000Y-119223000D02*
X171478000Y-117997700D01*
X171478000Y-117997700D02*
X170559000Y-117997700D01*
X170559000Y-117997700D02*
X170252700Y-117691400D01*
X170252700Y-117691400D02*
X170252700Y-112572600D01*
X170252700Y-112572600D02*
X171348000Y-111477300D01*
G04 #@! TO.N,/12(MISO)*
X171478000Y-116683000D02*
X172748000Y-117953000D01*
X172748000Y-117953000D02*
X172748000Y-119703300D01*
X172748000Y-119703300D02*
X171962900Y-120488400D01*
X171962900Y-120488400D02*
X170941200Y-120488400D01*
X170941200Y-120488400D02*
X169672400Y-119219600D01*
X169672400Y-119219600D02*
X169672400Y-107613400D01*
X169672400Y-107613400D02*
X170888500Y-106397300D01*
X170888500Y-106397300D02*
X171348000Y-106397300D01*
X171348000Y-105172000D02*
X171348000Y-106397300D01*
G04 #@! TO.N,/11(\002A\002A/MOSI)*
X173888000Y-107712000D02*
X173888000Y-108937300D01*
X174018000Y-119223000D02*
X174018000Y-117997700D01*
X174018000Y-117997700D02*
X174477500Y-117997700D01*
X174477500Y-117997700D02*
X175292600Y-117182600D01*
X175292600Y-117182600D02*
X175292600Y-109834100D01*
X175292600Y-109834100D02*
X174395800Y-108937300D01*
X174395800Y-108937300D02*
X173888000Y-108937300D01*
X173888000Y-106486700D02*
X174395800Y-106486700D01*
X174395800Y-106486700D02*
X175120400Y-105762100D01*
X175120400Y-105762100D02*
X175120400Y-104601500D01*
X175120400Y-104601500D02*
X168175400Y-97656500D01*
X168175400Y-97656500D02*
X168175400Y-82484900D01*
X168175400Y-82484900D02*
X162480900Y-76790400D01*
X162480900Y-76790400D02*
X155685400Y-76790400D01*
X155685400Y-76790400D02*
X155296200Y-76401200D01*
X155296200Y-76401200D02*
X155296200Y-76182300D01*
X155296200Y-76182300D02*
X152884200Y-73770300D01*
X152884200Y-73770300D02*
X147594500Y-73770300D01*
X147594500Y-73770300D02*
X146259300Y-75105500D01*
X146259300Y-75105500D02*
X146259300Y-75565000D01*
X173888000Y-107712000D02*
X173888000Y-106486700D01*
X145034000Y-75565000D02*
X146259300Y-75565000D01*
D17*
G04 #@! TO.N,/85_VCC*
X144183000Y-110252000D02*
X142857000Y-111578000D01*
X142857000Y-111578000D02*
X141100900Y-111578000D01*
X141100900Y-111578000D02*
X139554200Y-110031300D01*
X139554200Y-110031300D02*
X139554200Y-109977300D01*
X136520000Y-82992000D02*
X136520000Y-84242300D01*
X136520000Y-84242300D02*
X132184000Y-88578300D01*
X132184000Y-88578300D02*
X132184000Y-105172000D01*
D18*
G04 #@! TO.N,/85_SCK*
X129644000Y-107712000D02*
X130869300Y-107712000D01*
X139060000Y-82992000D02*
X139060000Y-84167300D01*
X139060000Y-84167300D02*
X133483100Y-89744200D01*
X133483100Y-89744200D02*
X133483100Y-105635700D01*
X133483100Y-105635700D02*
X132676800Y-106442000D01*
X132676800Y-106442000D02*
X131631500Y-106442000D01*
X131631500Y-106442000D02*
X130869300Y-107204200D01*
X130869300Y-107204200D02*
X130869300Y-107712000D01*
G04 #@! TO.N,/85_RST*
X129644000Y-110252000D02*
X130869300Y-110252000D01*
X136520000Y-90612000D02*
X136520000Y-91787300D01*
X136520000Y-91787300D02*
X137781500Y-93048800D01*
X137781500Y-93048800D02*
X137781500Y-106387500D01*
X137781500Y-106387500D02*
X132688500Y-111480500D01*
X132688500Y-111480500D02*
X131590000Y-111480500D01*
X131590000Y-111480500D02*
X130869300Y-110759800D01*
X130869300Y-110759800D02*
X130869300Y-110252000D01*
X152416700Y-110252000D02*
X151102100Y-108937400D01*
X151102100Y-108937400D02*
X143674300Y-108937400D01*
X143674300Y-108937400D02*
X142918700Y-108181800D01*
X142918700Y-108181800D02*
X142918700Y-107153800D01*
X142918700Y-107153800D02*
X143675200Y-106397300D01*
X143675200Y-106397300D02*
X144183000Y-106397300D01*
X153642000Y-110252000D02*
X152416700Y-110252000D01*
X144183000Y-105172000D02*
X144183000Y-106397300D01*
G04 #@! TO.N,/84_MOSI*
X151760000Y-90612000D02*
X151760000Y-91787300D01*
X150120100Y-105969600D02*
X150120100Y-93427200D01*
X150120100Y-93427200D02*
X151760000Y-91787300D01*
X156182000Y-106397300D02*
X155722400Y-106397300D01*
X155722400Y-106397300D02*
X154956700Y-107163000D01*
X154956700Y-107163000D02*
X154956700Y-108219400D01*
X154956700Y-108219400D02*
X154194100Y-108982000D01*
X154194100Y-108982000D02*
X153132500Y-108982000D01*
X153132500Y-108982000D02*
X150120100Y-105969600D01*
X150120100Y-105969600D02*
X147150700Y-105969600D01*
X147150700Y-105969600D02*
X145408300Y-107712000D01*
X156182000Y-105172000D02*
X156182000Y-106397300D01*
X144183000Y-107712000D02*
X145408300Y-107712000D01*
G04 #@! TO.N,/84_SCK*
X149220000Y-82992000D02*
X149220000Y-84167300D01*
X149220000Y-84167300D02*
X148044700Y-85342600D01*
X148044700Y-85342600D02*
X148044700Y-97564200D01*
X148044700Y-97564200D02*
X142957600Y-102651300D01*
X142957600Y-102651300D02*
X142957600Y-106113400D01*
X142957600Y-106113400D02*
X141643000Y-107428000D01*
X141643000Y-107428000D02*
X141643000Y-107712000D01*
G04 #@! TO.N,/84_MISO*
X156182000Y-110252000D02*
X154956700Y-110252000D01*
X141643000Y-105172000D02*
X141643000Y-106397300D01*
X141643000Y-106397300D02*
X141183500Y-106397300D01*
X141183500Y-106397300D02*
X138875800Y-108705000D01*
X138875800Y-108705000D02*
X138875800Y-110283300D01*
X138875800Y-110283300D02*
X140808900Y-112216400D01*
X140808900Y-112216400D02*
X153500100Y-112216400D01*
X153500100Y-112216400D02*
X154956700Y-110759800D01*
X154956700Y-110759800D02*
X154956700Y-110252000D01*
G04 #@! TO.N,/329_MISO*
X153642000Y-103946700D02*
X153680000Y-103946700D01*
X153680000Y-103946700D02*
X160744700Y-96882000D01*
X160744700Y-96882000D02*
X160744700Y-85342600D01*
X160744700Y-85342600D02*
X161920000Y-84167300D01*
X153642000Y-105172000D02*
X153642000Y-103946700D01*
X161920000Y-82992000D02*
X161920000Y-84167300D01*
G04 #@! TO.N,/329_SCK*
X153642000Y-106486700D02*
X152685800Y-106486700D01*
X152685800Y-106486700D02*
X152416600Y-106217500D01*
X152416600Y-106217500D02*
X152416600Y-104157300D01*
X152416600Y-104157300D02*
X156982300Y-99591600D01*
X156982300Y-99591600D02*
X157256800Y-99591600D01*
X157256800Y-99591600D02*
X158204700Y-98643700D01*
X158204700Y-98643700D02*
X158204700Y-85342600D01*
X158204700Y-85342600D02*
X159380000Y-84167300D01*
X153642000Y-107712000D02*
X153642000Y-106486700D01*
X159380000Y-82992000D02*
X159380000Y-84167300D01*
G04 #@! TO.N,/329_MOSI*
X164460000Y-82992000D02*
X164460000Y-84167300D01*
X164460000Y-84167300D02*
X163284700Y-85342600D01*
X163284700Y-85342600D02*
X163284700Y-100609300D01*
X163284700Y-100609300D02*
X156182000Y-107712000D01*
G04 #@! TD*
D19*
G04 #@! TO.N,GND*
G36*
X145877004Y-74342284D02*
X145613418Y-74166161D01*
X145180256Y-74080000D01*
X144887744Y-74080000D01*
X144454582Y-74166161D01*
X143963375Y-74494375D01*
X143764000Y-74792761D01*
X143564625Y-74494375D01*
X143073418Y-74166161D01*
X142640256Y-74080000D01*
X142347744Y-74080000D01*
X141914582Y-74166161D01*
X141423375Y-74494375D01*
X141224000Y-74792761D01*
X141024625Y-74494375D01*
X140533418Y-74166161D01*
X140100256Y-74080000D01*
X139807744Y-74080000D01*
X139374582Y-74166161D01*
X138883375Y-74494375D01*
X138670157Y-74813478D01*
X138609183Y-74683642D01*
X138180924Y-74293355D01*
X137770890Y-74123524D01*
X137541000Y-74244845D01*
X137541000Y-75438000D01*
X137561000Y-75438000D01*
X137561000Y-75692000D01*
X137541000Y-75692000D01*
X137541000Y-76885155D01*
X137770890Y-77006476D01*
X138180924Y-76836645D01*
X138609183Y-76446358D01*
X138670157Y-76316522D01*
X138883375Y-76635625D01*
X139374582Y-76963839D01*
X139807744Y-77050000D01*
X140100256Y-77050000D01*
X140533418Y-76963839D01*
X141024625Y-76635625D01*
X141224000Y-76337239D01*
X141423375Y-76635625D01*
X141914582Y-76963839D01*
X142347744Y-77050000D01*
X142640256Y-77050000D01*
X143073418Y-76963839D01*
X143564625Y-76635625D01*
X143764000Y-76337239D01*
X143963375Y-76635625D01*
X144454582Y-76963839D01*
X144887744Y-77050000D01*
X145180256Y-77050000D01*
X145613418Y-76963839D01*
X146104625Y-76635625D01*
X146269525Y-76388834D01*
X146330386Y-76376728D01*
X146503375Y-76635625D01*
X146994582Y-76963839D01*
X147427744Y-77050000D01*
X147720256Y-77050000D01*
X148153418Y-76963839D01*
X148644625Y-76635625D01*
X148809525Y-76388834D01*
X148870386Y-76376728D01*
X149043375Y-76635625D01*
X149290166Y-76800525D01*
X149347056Y-77086526D01*
X149350998Y-77106346D01*
X149530024Y-77374277D01*
X149597654Y-77419466D01*
X149680000Y-77501812D01*
X149680001Y-81620387D01*
X149361333Y-81557000D01*
X149078667Y-81557000D01*
X148660091Y-81640260D01*
X148185423Y-81957423D01*
X147950000Y-82309758D01*
X147714577Y-81957423D01*
X147239909Y-81640260D01*
X146821333Y-81557000D01*
X146538667Y-81557000D01*
X146120091Y-81640260D01*
X145645423Y-81957423D01*
X145410000Y-82309758D01*
X145174577Y-81957423D01*
X144699909Y-81640260D01*
X144281333Y-81557000D01*
X143998667Y-81557000D01*
X143580091Y-81640260D01*
X143105423Y-81957423D01*
X142870000Y-82309758D01*
X142634577Y-81957423D01*
X142159909Y-81640260D01*
X141741333Y-81557000D01*
X141458667Y-81557000D01*
X141040091Y-81640260D01*
X140565423Y-81957423D01*
X140330000Y-82309758D01*
X140094577Y-81957423D01*
X139619909Y-81640260D01*
X139201333Y-81557000D01*
X138918667Y-81557000D01*
X138500091Y-81640260D01*
X138025423Y-81957423D01*
X137790000Y-82309758D01*
X137554577Y-81957423D01*
X137079909Y-81640260D01*
X136661333Y-81557000D01*
X136378667Y-81557000D01*
X135960091Y-81640260D01*
X135485423Y-81957423D01*
X135168260Y-82432091D01*
X135056887Y-82992000D01*
X135168260Y-83551909D01*
X135484911Y-84025810D01*
X131619847Y-87890875D01*
X131545951Y-87940251D01*
X131350348Y-88232991D01*
X131299000Y-88491136D01*
X131299000Y-88491139D01*
X131281663Y-88578300D01*
X131299000Y-88665461D01*
X131299001Y-103977344D01*
X131113375Y-104101375D01*
X131101184Y-104119619D01*
X131092157Y-104074235D01*
X130951809Y-103864191D01*
X130741765Y-103723843D01*
X130494000Y-103674560D01*
X128794000Y-103674560D01*
X128546235Y-103723843D01*
X128336191Y-103864191D01*
X128195843Y-104074235D01*
X128146560Y-104322000D01*
X128146560Y-106022000D01*
X128195843Y-106269765D01*
X128336191Y-106479809D01*
X128546235Y-106620157D01*
X128591619Y-106629184D01*
X128573375Y-106641375D01*
X128245161Y-107132582D01*
X128129908Y-107712000D01*
X128245161Y-108291418D01*
X128432378Y-108571609D01*
X127883456Y-109120532D01*
X127815823Y-109165723D01*
X127636797Y-109433655D01*
X127600934Y-109613951D01*
X127573932Y-109749700D01*
X127589800Y-109829473D01*
X127589801Y-115522622D01*
X127573932Y-115602400D01*
X127636798Y-115918446D01*
X127757457Y-116099024D01*
X127815824Y-116186377D01*
X127883454Y-116231566D01*
X137306887Y-125655000D01*
X129811577Y-125655000D01*
X128981112Y-125582344D01*
X128205936Y-125374636D01*
X127478606Y-125035476D01*
X126821221Y-124575170D01*
X126253750Y-124007699D01*
X125793444Y-123350315D01*
X125454283Y-122622980D01*
X125246576Y-121847806D01*
X125173920Y-121017343D01*
X125173920Y-76659197D01*
X125240833Y-76022561D01*
X125427086Y-75449332D01*
X125728448Y-74927358D01*
X125919655Y-74715000D01*
X128296560Y-74715000D01*
X128296560Y-76415000D01*
X128345843Y-76662765D01*
X128486191Y-76872809D01*
X128696235Y-77013157D01*
X128944000Y-77062440D01*
X130644000Y-77062440D01*
X130891765Y-77013157D01*
X131101809Y-76872809D01*
X131242157Y-76662765D01*
X131251184Y-76617381D01*
X131263375Y-76635625D01*
X131754582Y-76963839D01*
X132187744Y-77050000D01*
X132480256Y-77050000D01*
X132913418Y-76963839D01*
X133404625Y-76635625D01*
X133604000Y-76337239D01*
X133803375Y-76635625D01*
X134294582Y-76963839D01*
X134727744Y-77050000D01*
X135020256Y-77050000D01*
X135453418Y-76963839D01*
X135944625Y-76635625D01*
X136157843Y-76316522D01*
X136218817Y-76446358D01*
X136647076Y-76836645D01*
X137057110Y-77006476D01*
X137287000Y-76885155D01*
X137287000Y-75692000D01*
X137267000Y-75692000D01*
X137267000Y-75438000D01*
X137287000Y-75438000D01*
X137287000Y-74244845D01*
X137057110Y-74123524D01*
X136647076Y-74293355D01*
X136218817Y-74683642D01*
X136157843Y-74813478D01*
X135944625Y-74494375D01*
X135453418Y-74166161D01*
X135020256Y-74080000D01*
X134727744Y-74080000D01*
X134294582Y-74166161D01*
X133803375Y-74494375D01*
X133604000Y-74792761D01*
X133404625Y-74494375D01*
X132913418Y-74166161D01*
X132480256Y-74080000D01*
X132187744Y-74080000D01*
X131754582Y-74166161D01*
X131263375Y-74494375D01*
X131251184Y-74512619D01*
X131242157Y-74467235D01*
X131101809Y-74257191D01*
X130891765Y-74116843D01*
X130644000Y-74067560D01*
X128944000Y-74067560D01*
X128696235Y-74116843D01*
X128486191Y-74257191D01*
X128345843Y-74467235D01*
X128296560Y-74715000D01*
X125919655Y-74715000D01*
X126131752Y-74479443D01*
X126619369Y-74125168D01*
X127169986Y-73880019D01*
X127777878Y-73750807D01*
X128079497Y-73735000D01*
X146484287Y-73735000D01*
X145877004Y-74342284D01*
X145877004Y-74342284D01*
G37*
X145877004Y-74342284D02*
X145613418Y-74166161D01*
X145180256Y-74080000D01*
X144887744Y-74080000D01*
X144454582Y-74166161D01*
X143963375Y-74494375D01*
X143764000Y-74792761D01*
X143564625Y-74494375D01*
X143073418Y-74166161D01*
X142640256Y-74080000D01*
X142347744Y-74080000D01*
X141914582Y-74166161D01*
X141423375Y-74494375D01*
X141224000Y-74792761D01*
X141024625Y-74494375D01*
X140533418Y-74166161D01*
X140100256Y-74080000D01*
X139807744Y-74080000D01*
X139374582Y-74166161D01*
X138883375Y-74494375D01*
X138670157Y-74813478D01*
X138609183Y-74683642D01*
X138180924Y-74293355D01*
X137770890Y-74123524D01*
X137541000Y-74244845D01*
X137541000Y-75438000D01*
X137561000Y-75438000D01*
X137561000Y-75692000D01*
X137541000Y-75692000D01*
X137541000Y-76885155D01*
X137770890Y-77006476D01*
X138180924Y-76836645D01*
X138609183Y-76446358D01*
X138670157Y-76316522D01*
X138883375Y-76635625D01*
X139374582Y-76963839D01*
X139807744Y-77050000D01*
X140100256Y-77050000D01*
X140533418Y-76963839D01*
X141024625Y-76635625D01*
X141224000Y-76337239D01*
X141423375Y-76635625D01*
X141914582Y-76963839D01*
X142347744Y-77050000D01*
X142640256Y-77050000D01*
X143073418Y-76963839D01*
X143564625Y-76635625D01*
X143764000Y-76337239D01*
X143963375Y-76635625D01*
X144454582Y-76963839D01*
X144887744Y-77050000D01*
X145180256Y-77050000D01*
X145613418Y-76963839D01*
X146104625Y-76635625D01*
X146269525Y-76388834D01*
X146330386Y-76376728D01*
X146503375Y-76635625D01*
X146994582Y-76963839D01*
X147427744Y-77050000D01*
X147720256Y-77050000D01*
X148153418Y-76963839D01*
X148644625Y-76635625D01*
X148809525Y-76388834D01*
X148870386Y-76376728D01*
X149043375Y-76635625D01*
X149290166Y-76800525D01*
X149347056Y-77086526D01*
X149350998Y-77106346D01*
X149530024Y-77374277D01*
X149597654Y-77419466D01*
X149680000Y-77501812D01*
X149680001Y-81620387D01*
X149361333Y-81557000D01*
X149078667Y-81557000D01*
X148660091Y-81640260D01*
X148185423Y-81957423D01*
X147950000Y-82309758D01*
X147714577Y-81957423D01*
X147239909Y-81640260D01*
X146821333Y-81557000D01*
X146538667Y-81557000D01*
X146120091Y-81640260D01*
X145645423Y-81957423D01*
X145410000Y-82309758D01*
X145174577Y-81957423D01*
X144699909Y-81640260D01*
X144281333Y-81557000D01*
X143998667Y-81557000D01*
X143580091Y-81640260D01*
X143105423Y-81957423D01*
X142870000Y-82309758D01*
X142634577Y-81957423D01*
X142159909Y-81640260D01*
X141741333Y-81557000D01*
X141458667Y-81557000D01*
X141040091Y-81640260D01*
X140565423Y-81957423D01*
X140330000Y-82309758D01*
X140094577Y-81957423D01*
X139619909Y-81640260D01*
X139201333Y-81557000D01*
X138918667Y-81557000D01*
X138500091Y-81640260D01*
X138025423Y-81957423D01*
X137790000Y-82309758D01*
X137554577Y-81957423D01*
X137079909Y-81640260D01*
X136661333Y-81557000D01*
X136378667Y-81557000D01*
X135960091Y-81640260D01*
X135485423Y-81957423D01*
X135168260Y-82432091D01*
X135056887Y-82992000D01*
X135168260Y-83551909D01*
X135484911Y-84025810D01*
X131619847Y-87890875D01*
X131545951Y-87940251D01*
X131350348Y-88232991D01*
X131299000Y-88491136D01*
X131299000Y-88491139D01*
X131281663Y-88578300D01*
X131299000Y-88665461D01*
X131299001Y-103977344D01*
X131113375Y-104101375D01*
X131101184Y-104119619D01*
X131092157Y-104074235D01*
X130951809Y-103864191D01*
X130741765Y-103723843D01*
X130494000Y-103674560D01*
X128794000Y-103674560D01*
X128546235Y-103723843D01*
X128336191Y-103864191D01*
X128195843Y-104074235D01*
X128146560Y-104322000D01*
X128146560Y-106022000D01*
X128195843Y-106269765D01*
X128336191Y-106479809D01*
X128546235Y-106620157D01*
X128591619Y-106629184D01*
X128573375Y-106641375D01*
X128245161Y-107132582D01*
X128129908Y-107712000D01*
X128245161Y-108291418D01*
X128432378Y-108571609D01*
X127883456Y-109120532D01*
X127815823Y-109165723D01*
X127636797Y-109433655D01*
X127600934Y-109613951D01*
X127573932Y-109749700D01*
X127589800Y-109829473D01*
X127589801Y-115522622D01*
X127573932Y-115602400D01*
X127636798Y-115918446D01*
X127757457Y-116099024D01*
X127815824Y-116186377D01*
X127883454Y-116231566D01*
X137306887Y-125655000D01*
X129811577Y-125655000D01*
X128981112Y-125582344D01*
X128205936Y-125374636D01*
X127478606Y-125035476D01*
X126821221Y-124575170D01*
X126253750Y-124007699D01*
X125793444Y-123350315D01*
X125454283Y-122622980D01*
X125246576Y-121847806D01*
X125173920Y-121017343D01*
X125173920Y-76659197D01*
X125240833Y-76022561D01*
X125427086Y-75449332D01*
X125728448Y-74927358D01*
X125919655Y-74715000D01*
X128296560Y-74715000D01*
X128296560Y-76415000D01*
X128345843Y-76662765D01*
X128486191Y-76872809D01*
X128696235Y-77013157D01*
X128944000Y-77062440D01*
X130644000Y-77062440D01*
X130891765Y-77013157D01*
X131101809Y-76872809D01*
X131242157Y-76662765D01*
X131251184Y-76617381D01*
X131263375Y-76635625D01*
X131754582Y-76963839D01*
X132187744Y-77050000D01*
X132480256Y-77050000D01*
X132913418Y-76963839D01*
X133404625Y-76635625D01*
X133604000Y-76337239D01*
X133803375Y-76635625D01*
X134294582Y-76963839D01*
X134727744Y-77050000D01*
X135020256Y-77050000D01*
X135453418Y-76963839D01*
X135944625Y-76635625D01*
X136157843Y-76316522D01*
X136218817Y-76446358D01*
X136647076Y-76836645D01*
X137057110Y-77006476D01*
X137287000Y-76885155D01*
X137287000Y-75692000D01*
X137267000Y-75692000D01*
X137267000Y-75438000D01*
X137287000Y-75438000D01*
X137287000Y-74244845D01*
X137057110Y-74123524D01*
X136647076Y-74293355D01*
X136218817Y-74683642D01*
X136157843Y-74813478D01*
X135944625Y-74494375D01*
X135453418Y-74166161D01*
X135020256Y-74080000D01*
X134727744Y-74080000D01*
X134294582Y-74166161D01*
X133803375Y-74494375D01*
X133604000Y-74792761D01*
X133404625Y-74494375D01*
X132913418Y-74166161D01*
X132480256Y-74080000D01*
X132187744Y-74080000D01*
X131754582Y-74166161D01*
X131263375Y-74494375D01*
X131251184Y-74512619D01*
X131242157Y-74467235D01*
X131101809Y-74257191D01*
X130891765Y-74116843D01*
X130644000Y-74067560D01*
X128944000Y-74067560D01*
X128696235Y-74116843D01*
X128486191Y-74257191D01*
X128345843Y-74467235D01*
X128296560Y-74715000D01*
X125919655Y-74715000D01*
X126131752Y-74479443D01*
X126619369Y-74125168D01*
X127169986Y-73880019D01*
X127777878Y-73750807D01*
X128079497Y-73735000D01*
X146484287Y-73735000D01*
X145877004Y-74342284D01*
G36*
X176328001Y-74843092D02*
X176328000Y-85909076D01*
X176314091Y-85979000D01*
X176328000Y-86048924D01*
X176328000Y-86048925D01*
X176369195Y-86256027D01*
X176526119Y-86490880D01*
X176585402Y-86530492D01*
X178868001Y-88813092D01*
X178868000Y-120990909D01*
X176585402Y-123273508D01*
X176526120Y-123313119D01*
X176394003Y-123510846D01*
X176369196Y-123547972D01*
X176314091Y-123825000D01*
X176328001Y-123894929D01*
X176328000Y-125655000D01*
X168016012Y-125655000D01*
X168603950Y-125067063D01*
X168838582Y-125223839D01*
X169271744Y-125310000D01*
X169564256Y-125310000D01*
X169997418Y-125223839D01*
X170488625Y-124895625D01*
X170688000Y-124597239D01*
X170887375Y-124895625D01*
X171378582Y-125223839D01*
X171811744Y-125310000D01*
X172104256Y-125310000D01*
X172537418Y-125223839D01*
X173028625Y-124895625D01*
X173228000Y-124597239D01*
X173427375Y-124895625D01*
X173918582Y-125223839D01*
X174351744Y-125310000D01*
X174644256Y-125310000D01*
X175077418Y-125223839D01*
X175568625Y-124895625D01*
X175896839Y-124404418D01*
X176012092Y-123825000D01*
X175896839Y-123245582D01*
X175568625Y-122754375D01*
X175077418Y-122426161D01*
X174644256Y-122340000D01*
X174351744Y-122340000D01*
X173918582Y-122426161D01*
X173427375Y-122754375D01*
X173228000Y-123052761D01*
X173028625Y-122754375D01*
X172537418Y-122426161D01*
X172104256Y-122340000D01*
X171811744Y-122340000D01*
X171378582Y-122426161D01*
X170887375Y-122754375D01*
X170688000Y-123052761D01*
X170488625Y-122754375D01*
X169997418Y-122426161D01*
X169564256Y-122340000D01*
X169271744Y-122340000D01*
X168838582Y-122426161D01*
X168347375Y-122754375D01*
X168182475Y-123001166D01*
X168121614Y-123013272D01*
X167948625Y-122754375D01*
X167457418Y-122426161D01*
X167024256Y-122340000D01*
X166731744Y-122340000D01*
X166298582Y-122426161D01*
X165807375Y-122754375D01*
X165608000Y-123052761D01*
X165408625Y-122754375D01*
X164917418Y-122426161D01*
X164484256Y-122340000D01*
X164191744Y-122340000D01*
X163758582Y-122426161D01*
X163267375Y-122754375D01*
X163255184Y-122772619D01*
X163246157Y-122727235D01*
X163105809Y-122517191D01*
X162895765Y-122376843D01*
X162648000Y-122327560D01*
X160948000Y-122327560D01*
X160700235Y-122376843D01*
X160490191Y-122517191D01*
X160349843Y-122727235D01*
X160300560Y-122975000D01*
X160300560Y-123053264D01*
X160256654Y-123061997D01*
X159988723Y-123241023D01*
X159943534Y-123308653D01*
X159011888Y-124240300D01*
X158149484Y-124240300D01*
X158232092Y-123825000D01*
X158116839Y-123245582D01*
X157788625Y-122754375D01*
X157297418Y-122426161D01*
X156864256Y-122340000D01*
X156571744Y-122340000D01*
X156138582Y-122426161D01*
X155647375Y-122754375D01*
X155434157Y-123073478D01*
X155373183Y-122943642D01*
X154944924Y-122553355D01*
X154534890Y-122383524D01*
X154305000Y-122504845D01*
X154305000Y-123698000D01*
X154325000Y-123698000D01*
X154325000Y-123952000D01*
X154305000Y-123952000D01*
X154305000Y-123972000D01*
X154051000Y-123972000D01*
X154051000Y-123952000D01*
X151765000Y-123952000D01*
X151765000Y-123972000D01*
X151511000Y-123972000D01*
X151511000Y-123952000D01*
X151491000Y-123952000D01*
X151491000Y-123698000D01*
X151511000Y-123698000D01*
X151511000Y-123678000D01*
X151765000Y-123678000D01*
X151765000Y-123698000D01*
X154051000Y-123698000D01*
X154051000Y-122504845D01*
X153821110Y-122383524D01*
X153411076Y-122553355D01*
X152982817Y-122943642D01*
X152908000Y-123102954D01*
X152833183Y-122943642D01*
X152404924Y-122553355D01*
X151994890Y-122383524D01*
X151765002Y-122504844D01*
X151765002Y-122409576D01*
X169417979Y-104756600D01*
X169850560Y-104756600D01*
X169850560Y-106022000D01*
X169894978Y-106245309D01*
X169156054Y-106984234D01*
X169088424Y-107029423D01*
X169043235Y-107097053D01*
X168909398Y-107297354D01*
X168846532Y-107613400D01*
X168862401Y-107693178D01*
X168862400Y-119139827D01*
X168846532Y-119219600D01*
X168862400Y-119299373D01*
X168909397Y-119535645D01*
X169088423Y-119803577D01*
X169156056Y-119848768D01*
X170312034Y-121004747D01*
X170357223Y-121072377D01*
X170625154Y-121251403D01*
X170861426Y-121298400D01*
X170941199Y-121314268D01*
X171020972Y-121298400D01*
X171883127Y-121298400D01*
X171962900Y-121314268D01*
X172042673Y-121298400D01*
X172042674Y-121298400D01*
X172278946Y-121251403D01*
X172546877Y-121072377D01*
X172592068Y-121004744D01*
X173160669Y-120436144D01*
X173438582Y-120621839D01*
X173871744Y-120708000D01*
X174164256Y-120708000D01*
X174597418Y-120621839D01*
X175088625Y-120293625D01*
X175416839Y-119802418D01*
X175532092Y-119223000D01*
X175416839Y-118643582D01*
X175240716Y-118379996D01*
X175808947Y-117811766D01*
X175876577Y-117766577D01*
X176055603Y-117498646D01*
X176102600Y-117262374D01*
X176102600Y-117262370D01*
X176118467Y-117182601D01*
X176102600Y-117102832D01*
X176102600Y-109913874D01*
X176118468Y-109834100D01*
X176055603Y-109518053D01*
X175964273Y-109381370D01*
X175876577Y-109250123D01*
X175808947Y-109204934D01*
X175130063Y-108526050D01*
X175286839Y-108291418D01*
X175402092Y-107712000D01*
X175286839Y-107132582D01*
X175130063Y-106897950D01*
X175636747Y-106391266D01*
X175704377Y-106346077D01*
X175883403Y-106078146D01*
X175930400Y-105841874D01*
X175930400Y-105841873D01*
X175946268Y-105762101D01*
X175930400Y-105682328D01*
X175930400Y-104681272D01*
X175946268Y-104601499D01*
X175890672Y-104322000D01*
X175883403Y-104285454D01*
X175704377Y-104017523D01*
X175636747Y-103972334D01*
X168985400Y-97320988D01*
X168985400Y-91964796D01*
X169398667Y-92047000D01*
X169681333Y-92047000D01*
X170099909Y-91963740D01*
X170574577Y-91646577D01*
X170891740Y-91171909D01*
X171003113Y-90612000D01*
X170891740Y-90052091D01*
X170574577Y-89577423D01*
X170099909Y-89260260D01*
X169681333Y-89177000D01*
X169398667Y-89177000D01*
X168985400Y-89259204D01*
X168985400Y-84344796D01*
X169398667Y-84427000D01*
X169681333Y-84427000D01*
X170099909Y-84343740D01*
X170574577Y-84026577D01*
X170891740Y-83551909D01*
X171003113Y-82992000D01*
X170891740Y-82432091D01*
X170574577Y-81957423D01*
X170099909Y-81640260D01*
X169681333Y-81557000D01*
X169398667Y-81557000D01*
X168980091Y-81640260D01*
X168678074Y-81842061D01*
X163810098Y-76974086D01*
X164191744Y-77050000D01*
X164484256Y-77050000D01*
X164917418Y-76963839D01*
X165408625Y-76635625D01*
X165608000Y-76337239D01*
X165807375Y-76635625D01*
X166298582Y-76963839D01*
X166731744Y-77050000D01*
X167024256Y-77050000D01*
X167457418Y-76963839D01*
X167948625Y-76635625D01*
X168148000Y-76337239D01*
X168347375Y-76635625D01*
X168838582Y-76963839D01*
X169271744Y-77050000D01*
X169564256Y-77050000D01*
X169997418Y-76963839D01*
X170488625Y-76635625D01*
X170688000Y-76337239D01*
X170887375Y-76635625D01*
X171378582Y-76963839D01*
X171811744Y-77050000D01*
X172104256Y-77050000D01*
X172537418Y-76963839D01*
X173028625Y-76635625D01*
X173228000Y-76337239D01*
X173427375Y-76635625D01*
X173918582Y-76963839D01*
X174351744Y-77050000D01*
X174644256Y-77050000D01*
X175077418Y-76963839D01*
X175568625Y-76635625D01*
X175896839Y-76144418D01*
X176012092Y-75565000D01*
X175896839Y-74985582D01*
X175568625Y-74494375D01*
X175077418Y-74166161D01*
X174644256Y-74080000D01*
X174351744Y-74080000D01*
X173918582Y-74166161D01*
X173427375Y-74494375D01*
X173228000Y-74792761D01*
X173028625Y-74494375D01*
X172537418Y-74166161D01*
X172104256Y-74080000D01*
X171811744Y-74080000D01*
X171378582Y-74166161D01*
X170887375Y-74494375D01*
X170688000Y-74792761D01*
X170488625Y-74494375D01*
X169997418Y-74166161D01*
X169564256Y-74080000D01*
X169271744Y-74080000D01*
X168838582Y-74166161D01*
X168347375Y-74494375D01*
X168148000Y-74792761D01*
X167948625Y-74494375D01*
X167457418Y-74166161D01*
X167024256Y-74080000D01*
X166731744Y-74080000D01*
X166298582Y-74166161D01*
X165807375Y-74494375D01*
X165608000Y-74792761D01*
X165408625Y-74494375D01*
X164917418Y-74166161D01*
X164484256Y-74080000D01*
X164191744Y-74080000D01*
X163758582Y-74166161D01*
X163267375Y-74494375D01*
X163068000Y-74792761D01*
X162868625Y-74494375D01*
X162377418Y-74166161D01*
X161944256Y-74080000D01*
X161651744Y-74080000D01*
X161218582Y-74166161D01*
X160727375Y-74494375D01*
X160528000Y-74792761D01*
X160328625Y-74494375D01*
X159837418Y-74166161D01*
X159404256Y-74080000D01*
X159111744Y-74080000D01*
X158678582Y-74166161D01*
X158187375Y-74494375D01*
X158175184Y-74512619D01*
X158166157Y-74467235D01*
X158025809Y-74257191D01*
X157815765Y-74116843D01*
X157568000Y-74067560D01*
X155868000Y-74067560D01*
X155620235Y-74116843D01*
X155410191Y-74257191D01*
X155269843Y-74467235D01*
X155220560Y-74715000D01*
X155220560Y-74961147D01*
X153994412Y-73735000D01*
X175219910Y-73735000D01*
X176328001Y-74843092D01*
X176328001Y-74843092D01*
G37*
X176328001Y-74843092D02*
X176328000Y-85909076D01*
X176314091Y-85979000D01*
X176328000Y-86048924D01*
X176328000Y-86048925D01*
X176369195Y-86256027D01*
X176526119Y-86490880D01*
X176585402Y-86530492D01*
X178868001Y-88813092D01*
X178868000Y-120990909D01*
X176585402Y-123273508D01*
X176526120Y-123313119D01*
X176394003Y-123510846D01*
X176369196Y-123547972D01*
X176314091Y-123825000D01*
X176328001Y-123894929D01*
X176328000Y-125655000D01*
X168016012Y-125655000D01*
X168603950Y-125067063D01*
X168838582Y-125223839D01*
X169271744Y-125310000D01*
X169564256Y-125310000D01*
X169997418Y-125223839D01*
X170488625Y-124895625D01*
X170688000Y-124597239D01*
X170887375Y-124895625D01*
X171378582Y-125223839D01*
X171811744Y-125310000D01*
X172104256Y-125310000D01*
X172537418Y-125223839D01*
X173028625Y-124895625D01*
X173228000Y-124597239D01*
X173427375Y-124895625D01*
X173918582Y-125223839D01*
X174351744Y-125310000D01*
X174644256Y-125310000D01*
X175077418Y-125223839D01*
X175568625Y-124895625D01*
X175896839Y-124404418D01*
X176012092Y-123825000D01*
X175896839Y-123245582D01*
X175568625Y-122754375D01*
X175077418Y-122426161D01*
X174644256Y-122340000D01*
X174351744Y-122340000D01*
X173918582Y-122426161D01*
X173427375Y-122754375D01*
X173228000Y-123052761D01*
X173028625Y-122754375D01*
X172537418Y-122426161D01*
X172104256Y-122340000D01*
X171811744Y-122340000D01*
X171378582Y-122426161D01*
X170887375Y-122754375D01*
X170688000Y-123052761D01*
X170488625Y-122754375D01*
X169997418Y-122426161D01*
X169564256Y-122340000D01*
X169271744Y-122340000D01*
X168838582Y-122426161D01*
X168347375Y-122754375D01*
X168182475Y-123001166D01*
X168121614Y-123013272D01*
X167948625Y-122754375D01*
X167457418Y-122426161D01*
X167024256Y-122340000D01*
X166731744Y-122340000D01*
X166298582Y-122426161D01*
X165807375Y-122754375D01*
X165608000Y-123052761D01*
X165408625Y-122754375D01*
X164917418Y-122426161D01*
X164484256Y-122340000D01*
X164191744Y-122340000D01*
X163758582Y-122426161D01*
X163267375Y-122754375D01*
X163255184Y-122772619D01*
X163246157Y-122727235D01*
X163105809Y-122517191D01*
X162895765Y-122376843D01*
X162648000Y-122327560D01*
X160948000Y-122327560D01*
X160700235Y-122376843D01*
X160490191Y-122517191D01*
X160349843Y-122727235D01*
X160300560Y-122975000D01*
X160300560Y-123053264D01*
X160256654Y-123061997D01*
X159988723Y-123241023D01*
X159943534Y-123308653D01*
X159011888Y-124240300D01*
X158149484Y-124240300D01*
X158232092Y-123825000D01*
X158116839Y-123245582D01*
X157788625Y-122754375D01*
X157297418Y-122426161D01*
X156864256Y-122340000D01*
X156571744Y-122340000D01*
X156138582Y-122426161D01*
X155647375Y-122754375D01*
X155434157Y-123073478D01*
X155373183Y-122943642D01*
X154944924Y-122553355D01*
X154534890Y-122383524D01*
X154305000Y-122504845D01*
X154305000Y-123698000D01*
X154325000Y-123698000D01*
X154325000Y-123952000D01*
X154305000Y-123952000D01*
X154305000Y-123972000D01*
X154051000Y-123972000D01*
X154051000Y-123952000D01*
X151765000Y-123952000D01*
X151765000Y-123972000D01*
X151511000Y-123972000D01*
X151511000Y-123952000D01*
X151491000Y-123952000D01*
X151491000Y-123698000D01*
X151511000Y-123698000D01*
X151511000Y-123678000D01*
X151765000Y-123678000D01*
X151765000Y-123698000D01*
X154051000Y-123698000D01*
X154051000Y-122504845D01*
X153821110Y-122383524D01*
X153411076Y-122553355D01*
X152982817Y-122943642D01*
X152908000Y-123102954D01*
X152833183Y-122943642D01*
X152404924Y-122553355D01*
X151994890Y-122383524D01*
X151765002Y-122504844D01*
X151765002Y-122409576D01*
X169417979Y-104756600D01*
X169850560Y-104756600D01*
X169850560Y-106022000D01*
X169894978Y-106245309D01*
X169156054Y-106984234D01*
X169088424Y-107029423D01*
X169043235Y-107097053D01*
X168909398Y-107297354D01*
X168846532Y-107613400D01*
X168862401Y-107693178D01*
X168862400Y-119139827D01*
X168846532Y-119219600D01*
X168862400Y-119299373D01*
X168909397Y-119535645D01*
X169088423Y-119803577D01*
X169156056Y-119848768D01*
X170312034Y-121004747D01*
X170357223Y-121072377D01*
X170625154Y-121251403D01*
X170861426Y-121298400D01*
X170941199Y-121314268D01*
X171020972Y-121298400D01*
X171883127Y-121298400D01*
X171962900Y-121314268D01*
X172042673Y-121298400D01*
X172042674Y-121298400D01*
X172278946Y-121251403D01*
X172546877Y-121072377D01*
X172592068Y-121004744D01*
X173160669Y-120436144D01*
X173438582Y-120621839D01*
X173871744Y-120708000D01*
X174164256Y-120708000D01*
X174597418Y-120621839D01*
X175088625Y-120293625D01*
X175416839Y-119802418D01*
X175532092Y-119223000D01*
X175416839Y-118643582D01*
X175240716Y-118379996D01*
X175808947Y-117811766D01*
X175876577Y-117766577D01*
X176055603Y-117498646D01*
X176102600Y-117262374D01*
X176102600Y-117262370D01*
X176118467Y-117182601D01*
X176102600Y-117102832D01*
X176102600Y-109913874D01*
X176118468Y-109834100D01*
X176055603Y-109518053D01*
X175964273Y-109381370D01*
X175876577Y-109250123D01*
X175808947Y-109204934D01*
X175130063Y-108526050D01*
X175286839Y-108291418D01*
X175402092Y-107712000D01*
X175286839Y-107132582D01*
X175130063Y-106897950D01*
X175636747Y-106391266D01*
X175704377Y-106346077D01*
X175883403Y-106078146D01*
X175930400Y-105841874D01*
X175930400Y-105841873D01*
X175946268Y-105762101D01*
X175930400Y-105682328D01*
X175930400Y-104681272D01*
X175946268Y-104601499D01*
X175890672Y-104322000D01*
X175883403Y-104285454D01*
X175704377Y-104017523D01*
X175636747Y-103972334D01*
X168985400Y-97320988D01*
X168985400Y-91964796D01*
X169398667Y-92047000D01*
X169681333Y-92047000D01*
X170099909Y-91963740D01*
X170574577Y-91646577D01*
X170891740Y-91171909D01*
X171003113Y-90612000D01*
X170891740Y-90052091D01*
X170574577Y-89577423D01*
X170099909Y-89260260D01*
X169681333Y-89177000D01*
X169398667Y-89177000D01*
X168985400Y-89259204D01*
X168985400Y-84344796D01*
X169398667Y-84427000D01*
X169681333Y-84427000D01*
X170099909Y-84343740D01*
X170574577Y-84026577D01*
X170891740Y-83551909D01*
X171003113Y-82992000D01*
X170891740Y-82432091D01*
X170574577Y-81957423D01*
X170099909Y-81640260D01*
X169681333Y-81557000D01*
X169398667Y-81557000D01*
X168980091Y-81640260D01*
X168678074Y-81842061D01*
X163810098Y-76974086D01*
X164191744Y-77050000D01*
X164484256Y-77050000D01*
X164917418Y-76963839D01*
X165408625Y-76635625D01*
X165608000Y-76337239D01*
X165807375Y-76635625D01*
X166298582Y-76963839D01*
X166731744Y-77050000D01*
X167024256Y-77050000D01*
X167457418Y-76963839D01*
X167948625Y-76635625D01*
X168148000Y-76337239D01*
X168347375Y-76635625D01*
X168838582Y-76963839D01*
X169271744Y-77050000D01*
X169564256Y-77050000D01*
X169997418Y-76963839D01*
X170488625Y-76635625D01*
X170688000Y-76337239D01*
X170887375Y-76635625D01*
X171378582Y-76963839D01*
X171811744Y-77050000D01*
X172104256Y-77050000D01*
X172537418Y-76963839D01*
X173028625Y-76635625D01*
X173228000Y-76337239D01*
X173427375Y-76635625D01*
X173918582Y-76963839D01*
X174351744Y-77050000D01*
X174644256Y-77050000D01*
X175077418Y-76963839D01*
X175568625Y-76635625D01*
X175896839Y-76144418D01*
X176012092Y-75565000D01*
X175896839Y-74985582D01*
X175568625Y-74494375D01*
X175077418Y-74166161D01*
X174644256Y-74080000D01*
X174351744Y-74080000D01*
X173918582Y-74166161D01*
X173427375Y-74494375D01*
X173228000Y-74792761D01*
X173028625Y-74494375D01*
X172537418Y-74166161D01*
X172104256Y-74080000D01*
X171811744Y-74080000D01*
X171378582Y-74166161D01*
X170887375Y-74494375D01*
X170688000Y-74792761D01*
X170488625Y-74494375D01*
X169997418Y-74166161D01*
X169564256Y-74080000D01*
X169271744Y-74080000D01*
X168838582Y-74166161D01*
X168347375Y-74494375D01*
X168148000Y-74792761D01*
X167948625Y-74494375D01*
X167457418Y-74166161D01*
X167024256Y-74080000D01*
X166731744Y-74080000D01*
X166298582Y-74166161D01*
X165807375Y-74494375D01*
X165608000Y-74792761D01*
X165408625Y-74494375D01*
X164917418Y-74166161D01*
X164484256Y-74080000D01*
X164191744Y-74080000D01*
X163758582Y-74166161D01*
X163267375Y-74494375D01*
X163068000Y-74792761D01*
X162868625Y-74494375D01*
X162377418Y-74166161D01*
X161944256Y-74080000D01*
X161651744Y-74080000D01*
X161218582Y-74166161D01*
X160727375Y-74494375D01*
X160528000Y-74792761D01*
X160328625Y-74494375D01*
X159837418Y-74166161D01*
X159404256Y-74080000D01*
X159111744Y-74080000D01*
X158678582Y-74166161D01*
X158187375Y-74494375D01*
X158175184Y-74512619D01*
X158166157Y-74467235D01*
X158025809Y-74257191D01*
X157815765Y-74116843D01*
X157568000Y-74067560D01*
X155868000Y-74067560D01*
X155620235Y-74116843D01*
X155410191Y-74257191D01*
X155269843Y-74467235D01*
X155220560Y-74715000D01*
X155220560Y-74961147D01*
X153994412Y-73735000D01*
X175219910Y-73735000D01*
X176328001Y-74843092D01*
G36*
X174015000Y-110125000D02*
X174035000Y-110125000D01*
X174035000Y-110379000D01*
X174015000Y-110379000D01*
X174015000Y-111572819D01*
X174244892Y-111693486D01*
X174482601Y-111581852D01*
X174482600Y-114776787D01*
X173428000Y-113722188D01*
X173428000Y-111645064D01*
X173531108Y-111693486D01*
X173761000Y-111572819D01*
X173761000Y-110379000D01*
X173741000Y-110379000D01*
X173741000Y-110125000D01*
X173761000Y-110125000D01*
X173761000Y-110105000D01*
X174015000Y-110105000D01*
X174015000Y-110125000D01*
X174015000Y-110125000D01*
G37*
X174015000Y-110125000D02*
X174035000Y-110125000D01*
X174035000Y-110379000D01*
X174015000Y-110379000D01*
X174015000Y-111572819D01*
X174244892Y-111693486D01*
X174482601Y-111581852D01*
X174482600Y-114776787D01*
X173428000Y-113722188D01*
X173428000Y-111645064D01*
X173531108Y-111693486D01*
X173761000Y-111572819D01*
X173761000Y-110379000D01*
X173741000Y-110379000D01*
X173741000Y-110125000D01*
X173761000Y-110125000D01*
X173761000Y-110105000D01*
X174015000Y-110105000D01*
X174015000Y-110125000D01*
G36*
X145645423Y-91646577D02*
X146120091Y-91963740D01*
X146538667Y-92047000D01*
X146821333Y-92047000D01*
X147234701Y-91964776D01*
X147234701Y-97228686D01*
X142441256Y-102022132D01*
X142373623Y-102067323D01*
X142194597Y-102335255D01*
X142150640Y-102556246D01*
X142131732Y-102651300D01*
X142147600Y-102731073D01*
X142147600Y-103674560D01*
X140793000Y-103674560D01*
X140545235Y-103723843D01*
X140335191Y-103864191D01*
X140194843Y-104074235D01*
X140145560Y-104322000D01*
X140145560Y-106022000D01*
X140189978Y-106245309D01*
X139073000Y-107362288D01*
X139073000Y-107078712D01*
X139576347Y-106575366D01*
X139643977Y-106530177D01*
X139823003Y-106262246D01*
X139870000Y-106025974D01*
X139885868Y-105946201D01*
X139870000Y-105866428D01*
X139870000Y-99011132D01*
X143002073Y-99011132D01*
X143100736Y-99277987D01*
X143710461Y-99504508D01*
X144360460Y-99480456D01*
X144849264Y-99277987D01*
X144947927Y-99011132D01*
X143975000Y-98038205D01*
X143002073Y-99011132D01*
X139870000Y-99011132D01*
X139870000Y-97594061D01*
X142329092Y-97594061D01*
X142353144Y-98244060D01*
X142555613Y-98732864D01*
X142822468Y-98831527D01*
X143795395Y-97858600D01*
X144154605Y-97858600D01*
X145127532Y-98831527D01*
X145394387Y-98732864D01*
X145620908Y-98123139D01*
X145596856Y-97473140D01*
X145394387Y-96984336D01*
X145127532Y-96885673D01*
X144154605Y-97858600D01*
X143795395Y-97858600D01*
X142822468Y-96885673D01*
X142555613Y-96984336D01*
X142329092Y-97594061D01*
X139870000Y-97594061D01*
X139870000Y-96706068D01*
X143002073Y-96706068D01*
X143975000Y-97678995D01*
X144947927Y-96706068D01*
X144849264Y-96439213D01*
X144239539Y-96212692D01*
X143589540Y-96236744D01*
X143100736Y-96439213D01*
X143002073Y-96706068D01*
X139870000Y-96706068D01*
X139870000Y-91796635D01*
X140094577Y-91646577D01*
X140330000Y-91294242D01*
X140565423Y-91646577D01*
X141040091Y-91963740D01*
X141458667Y-92047000D01*
X141741333Y-92047000D01*
X142159909Y-91963740D01*
X142634577Y-91646577D01*
X142870000Y-91294242D01*
X143105423Y-91646577D01*
X143580091Y-91963740D01*
X143998667Y-92047000D01*
X144281333Y-92047000D01*
X144699909Y-91963740D01*
X145174577Y-91646577D01*
X145410000Y-91294242D01*
X145645423Y-91646577D01*
X145645423Y-91646577D01*
G37*
X145645423Y-91646577D02*
X146120091Y-91963740D01*
X146538667Y-92047000D01*
X146821333Y-92047000D01*
X147234701Y-91964776D01*
X147234701Y-97228686D01*
X142441256Y-102022132D01*
X142373623Y-102067323D01*
X142194597Y-102335255D01*
X142150640Y-102556246D01*
X142131732Y-102651300D01*
X142147600Y-102731073D01*
X142147600Y-103674560D01*
X140793000Y-103674560D01*
X140545235Y-103723843D01*
X140335191Y-103864191D01*
X140194843Y-104074235D01*
X140145560Y-104322000D01*
X140145560Y-106022000D01*
X140189978Y-106245309D01*
X139073000Y-107362288D01*
X139073000Y-107078712D01*
X139576347Y-106575366D01*
X139643977Y-106530177D01*
X139823003Y-106262246D01*
X139870000Y-106025974D01*
X139885868Y-105946201D01*
X139870000Y-105866428D01*
X139870000Y-99011132D01*
X143002073Y-99011132D01*
X143100736Y-99277987D01*
X143710461Y-99504508D01*
X144360460Y-99480456D01*
X144849264Y-99277987D01*
X144947927Y-99011132D01*
X143975000Y-98038205D01*
X143002073Y-99011132D01*
X139870000Y-99011132D01*
X139870000Y-97594061D01*
X142329092Y-97594061D01*
X142353144Y-98244060D01*
X142555613Y-98732864D01*
X142822468Y-98831527D01*
X143795395Y-97858600D01*
X144154605Y-97858600D01*
X145127532Y-98831527D01*
X145394387Y-98732864D01*
X145620908Y-98123139D01*
X145596856Y-97473140D01*
X145394387Y-96984336D01*
X145127532Y-96885673D01*
X144154605Y-97858600D01*
X143795395Y-97858600D01*
X142822468Y-96885673D01*
X142555613Y-96984336D01*
X142329092Y-97594061D01*
X139870000Y-97594061D01*
X139870000Y-96706068D01*
X143002073Y-96706068D01*
X143975000Y-97678995D01*
X144947927Y-96706068D01*
X144849264Y-96439213D01*
X144239539Y-96212692D01*
X143589540Y-96236744D01*
X143100736Y-96439213D01*
X143002073Y-96706068D01*
X139870000Y-96706068D01*
X139870000Y-91796635D01*
X140094577Y-91646577D01*
X140330000Y-91294242D01*
X140565423Y-91646577D01*
X141040091Y-91963740D01*
X141458667Y-92047000D01*
X141741333Y-92047000D01*
X142159909Y-91963740D01*
X142634577Y-91646577D01*
X142870000Y-91294242D01*
X143105423Y-91646577D01*
X143580091Y-91963740D01*
X143998667Y-92047000D01*
X144281333Y-92047000D01*
X144699909Y-91963740D01*
X145174577Y-91646577D01*
X145410000Y-91294242D01*
X145645423Y-91646577D01*
G04 #@! TD*
M02*
